<?xml version="1.0" encoding="UTF-8" standalone="no"?>
<svg
   xmlns:dc="http://purl.org/dc/elements/1.1/"
   xmlns:cc="http://creativecommons.org/ns#"
   xmlns:rdf="http://www.w3.org/1999/02/22-rdf-syntax-ns#"
   xmlns:svg="http://www.w3.org/2000/svg"
   xmlns="http://www.w3.org/2000/svg"
   xmlns:sodipodi="http://sodipodi.sourceforge.net/DTD/sodipodi-0.dtd"
   xmlns:inkscape="http://www.inkscape.org/namespaces/inkscape"
   version="1.1"
   viewBox="0.0 0.0 960.0 540.0"
   fill="none"
   stroke="none"
   stroke-linecap="square"
   stroke-miterlimit="10"
   id="svg45"
   sodipodi:docname="pandas_series1.svg"
   inkscape:export-filename="/home/felipe/Mestrado/01_Aulas/materiais/aulas/03-introducao-ao-python/images/python/v2021/pandas_series1.png"
   inkscape:export-xdpi="300"
   inkscape:export-ydpi="300"
   inkscape:version="0.92.5 (2060ec1f9f, 2020-04-08)">
  <metadata
     id="metadata51">
    <rdf:RDF>
      <cc:Work
         rdf:about="">
        <dc:format>image/svg+xml</dc:format>
        <dc:type
           rdf:resource="http://purl.org/dc/dcmitype/StillImage" />
      </cc:Work>
    </rdf:RDF>
  </metadata>
  <defs
     id="defs49" />
  <sodipodi:namedview
     pagecolor="#ffffff"
     bordercolor="#666666"
     borderopacity="1"
     objecttolerance="10"
     gridtolerance="10"
     guidetolerance="10"
     inkscape:pageopacity="0"
     inkscape:pageshadow="2"
     inkscape:window-width="1600"
     inkscape:window-height="790"
     id="namedview47"
     showgrid="false"
     inkscape:zoom="0.36145833"
     inkscape:cx="480"
     inkscape:cy="270"
     inkscape:window-x="0"
     inkscape:window-y="27"
     inkscape:window-maximized="1"
     inkscape:current-layer="svg45" />
  <clipPath
     id="ge5cd28bdd1_0_1245.0">
    <path
       d="m0 0l960.0 0l0 540.0l-960.0 0l0 -540.0z"
       clip-rule="nonzero"
       id="path2" />
  </clipPath>
  <g
     clip-path="url(#ge5cd28bdd1_0_1245.0)"
     id="g43">
    <path
       fill="#ffffff"
       d="m0 0l960.0 0l0 540.0l-960.0 0z"
       fill-rule="evenodd"
       id="path5" />
    <path
       fill="#999999"
       d="m132.49281 48.401573l139.74803 0l0 66.20473l-139.74803 0z"
       fill-rule="evenodd"
       id="path7" />
    <path
       stroke="#434343"
       stroke-width="1.0"
       stroke-linejoin="round"
       stroke-linecap="butt"
       d="m132.49281 48.401573l139.74803 0l0 66.20473l-139.74803 0z"
       fill-rule="evenodd"
       id="path9" />
    <path
       fill="#ffffff"
       d="m174.39908 84.48019l0 6.34375l-3.703125 0l0 -18.0l7.015625 0q2.03125 0 3.5625 0.75q1.546875 0.734375 2.375 2.09375q0.828125 1.359375 0.828125 3.109375q0 2.640625 -1.8125 4.171875q-1.796875 1.53125 -5.0 1.53125l-3.265625 0zm0 -3.0l3.3125 0q1.484375 0 2.25 -0.6875q0.78125 -0.703125 0.78125 -1.984375q0 -1.328125 -0.78125 -2.140625q-0.78125 -0.828125 -2.15625 -0.84375l-3.40625 0l0 5.65625zm19.915268 -0.6875q-0.734375 -0.09375 -1.28125 -0.09375q-2.03125 0 -2.65625 1.375l0 8.75l-3.578125 0l0 -13.375l3.375 0l0.09375 1.59375q1.078125 -1.84375 2.984375 -1.84375q0.59375 0 1.109375 0.15625l-0.046875 3.4375zm7.643936 10.28125q-2.9375 0 -4.796875 -1.796875q-1.84375 -1.8125 -1.84375 -4.828125l0 -0.34375q0 -2.015625 0.78125 -3.59375q0.78125 -1.59375 2.203125 -2.453125q1.4375 -0.859375 3.265625 -0.859375q2.734375 0 4.3125 1.734375q1.578125 1.71875 1.578125 4.90625l0 1.453125l-8.515625 0q0.171875 1.3125 1.046875 2.109375q0.875 0.78125 2.203125 0.78125q2.0625 0 3.234375 -1.484375l1.75 1.953125q-0.796875 1.140625 -2.171875 1.78125q-1.375 0.640625 -3.046875 0.640625zm-0.40625 -10.984375q-1.0625 0 -1.734375 0.71875q-0.65625 0.71875 -0.84375 2.046875l4.96875 0l0 -0.28125q-0.015625 -1.1875 -0.640625 -1.828125q-0.609375 -0.65625 -1.75 -0.65625zm13.503052 8.09375q0.984375 0 1.609375 -0.53125q0.625 -0.546875 0.640625 -1.453125l3.359375 0q-0.015625 1.359375 -0.75 2.5q-0.734375 1.125 -2.0 1.75q-1.265625 0.625 -2.796875 0.625q-2.875 0 -4.53125 -1.828125q-1.65625 -1.828125 -1.65625 -5.03125l0 -0.234375q0 -3.09375 1.640625 -4.9375q1.65625 -1.84375 4.515625 -1.84375q2.515625 0 4.03125 1.4375q1.515625 1.421875 1.546875 3.796875l-3.359375 0q-0.015625 -1.046875 -0.640625 -1.6875q-0.625 -0.65625 -1.640625 -0.65625q-1.234375 0 -1.875 0.90625q-0.640625 0.90625 -0.640625 2.953125l0 0.375q0 2.0625 0.625 2.96875q0.640625 0.890625 1.921875 0.890625zm1.296875 2.5625l-0.140625 0.71875q1.859375 0.34375 1.859375 2.140625q0 1.359375 -1.140625 2.15625q-1.125 0.796875 -3.171875 0.796875l-0.09375 -2.078125q1.390625 0 1.390625 -1.0q0 -0.515625 -0.421875 -0.703125q-0.40625 -0.1875 -1.328125 -0.25l0.375 -1.78125l2.671875 0zm5.7863464 -6.734375q0 -2.0 0.765625 -3.546875q0.765625 -1.5625 2.203125 -2.40625q1.453125 -0.859375 3.359375 -0.859375q2.703125 0 4.40625 1.65625q1.71875 1.65625 1.921875 4.5l0.03125 0.921875q0 3.078125 -1.734375 4.9375q-1.71875 1.859375 -4.609375 1.859375q-2.890625 0 -4.625 -1.859375q-1.71875 -1.859375 -1.71875 -5.046875l0 -0.15625zm3.578125 0.265625q0 1.890625 0.71875 2.90625q0.71875 1.0 2.046875 1.0q1.296875 0 2.03125 -0.984375q0.734375 -1.0 0.734375 -3.1875q0 -1.875 -0.734375 -2.890625q-0.734375 -1.03125 -2.046875 -1.03125q-1.3125 0 -2.03125 1.03125q-0.71875 1.015625 -0.71875 3.15625z"
       fill-rule="nonzero"
       id="path11" />
    <path
       fill="#d9d9d9"
       d="m132.49281 123.800285l139.74803 0l0 66.204735l-139.74803 0z"
       fill-rule="evenodd"
       id="path13" />
    <path
       stroke="#434343"
       stroke-width="1.0"
       stroke-linejoin="round"
       stroke-linecap="butt"
       d="m132.49281 123.800285l139.74803 0l0 66.204735l-139.74803 0z"
       fill-rule="evenodd"
       id="path15" />
    <path
       fill="#000000"
       d="m186.79523 164.38264l-9.921875 0l0 -1.390625l5.25 -5.828125q1.15625 -1.328125 1.59375 -2.15625q0.453125 -0.828125 0.453125 -1.703125q0 -1.1875 -0.71875 -1.9375q-0.71875 -0.765625 -1.921875 -0.765625q-1.4375 0 -2.234375 0.8125q-0.796875 0.8125 -0.796875 2.28125l-1.921875 0q0 -2.09375 1.34375 -3.390625q1.359375 -1.296875 3.609375 -1.296875q2.125 0 3.34375 1.109375q1.234375 1.109375 1.234375 2.953125q0 2.234375 -2.859375 5.328125l-4.0625 4.40625l7.609375 0l0 1.578125zm4.851242 -8.515625l1.453125 0q1.359375 -0.03125 2.140625 -0.71875q0.78125 -0.703125 0.78125 -1.890625q0 -2.65625 -2.65625 -2.65625q-1.25 0 -2.0 0.71875q-0.734375 0.703125 -0.734375 1.875l-1.9375 0q0 -1.796875 1.3125 -2.984375q1.328125 -1.203125 3.359375 -1.203125q2.140625 0 3.359375 1.140625q1.21875 1.140625 1.21875 3.15625q0 0.984375 -0.640625 1.921875q-0.640625 0.921875 -1.734375 1.375q1.25 0.390625 1.921875 1.3125q0.6875 0.921875 0.6875 2.234375q0 2.046875 -1.34375 3.25q-1.328125 1.1875 -3.46875 1.1875q-2.125 0 -3.46875 -1.15625q-1.328125 -1.15625 -1.328125 -3.046875l1.9375 0q0 1.203125 0.78125 1.921875q0.78125 0.71875 2.09375 0.71875q1.390625 0 2.125 -0.734375q0.75 -0.734375 0.75 -2.09375q0 -1.328125 -0.8125 -2.03125q-0.8125 -0.703125 -2.34375 -0.734375l-1.453125 0l0 -1.5625zm9.413742 7.5q0 -0.5 0.296875 -0.828125q0.296875 -0.328125 0.890625 -0.328125q0.59375 0 0.890625 0.328125q0.3125 0.328125 0.3125 0.828125q0 0.484375 -0.3125 0.8125q-0.296875 0.3125 -0.890625 0.3125q-0.59375 0 -0.890625 -0.3125q-0.296875 -0.328125 -0.296875 -0.8125zm13.503845 -4.078125l2.109375 0l0 1.578125l-2.109375 0l0 3.515625l-1.9375 0l0 -3.515625l-6.90625 0l0 -1.140625l6.796875 -10.5l2.046875 0l0 10.0625zm-6.65625 0l4.71875 0l0 -7.4375l-0.21875 0.421875l-4.5 7.015625zm11.382492 -2.515625l0.78125 -7.546875l7.765625 0l0 1.78125l-6.140625 0l-0.453125 4.125q1.109375 -0.65625 2.53125 -0.65625q2.078125 0 3.28125 1.375q1.21875 1.359375 1.21875 3.703125q0 2.34375 -1.265625 3.6875q-1.25 1.34375 -3.53125 1.34375q-2.0 0 -3.28125 -1.109375q-1.265625 -1.109375 -1.4375 -3.078125l1.8125 0q0.1875 1.296875 0.9375 1.96875q0.75 0.65625 1.96875 0.65625q1.34375 0 2.109375 -0.921875q0.765625 -0.921875 0.765625 -2.53125q0 -1.515625 -0.828125 -2.4375q-0.828125 -0.921875 -2.203125 -0.921875q-1.25 0 -1.96875 0.546875l-0.515625 0.421875l-1.546875 -0.40625z"
       fill-rule="nonzero"
       id="path17" />
    <path
       fill="#d9d9d9"
       d="m132.49281 199.199l139.74803 0l0 66.20471l-139.74803 0z"
       fill-rule="evenodd"
       id="path19" />
    <path
       stroke="#434343"
       stroke-width="1.0"
       stroke-linejoin="round"
       stroke-linecap="butt"
       d="m132.49281 199.199l139.74803 0l0 66.20471l-139.74803 0z"
       fill-rule="evenodd"
       id="path21" />
    <path
       fill="#000000"
       d="m186.79523 239.78136l-9.921875 0l0 -1.390625l5.25 -5.828125q1.15625 -1.328125 1.59375 -2.15625q0.453125 -0.828125 0.453125 -1.703125q0 -1.1875 -0.71875 -1.9375q-0.71875 -0.765625 -1.921875 -0.765625q-1.4375 0 -2.234375 0.8125q-0.796875 0.8125 -0.796875 2.28125l-1.921875 0q0 -2.09375 1.34375 -3.390625q1.359375 -1.296875 3.609375 -1.296875q2.125 0 3.34375 1.109375q1.234375 1.109375 1.234375 2.953125q0 2.234375 -2.859375 5.328125l-4.0625 4.40625l7.609375 0l0 1.578125zm8.382492 0l-1.9375 0l0 -12.84375l-3.890625 1.4375l0 -1.75l5.53125 -2.078125l0.296875 0l0 15.234375zm5.882492 -1.015625q0 -0.5 0.296875 -0.828125q0.296875 -0.328125 0.890625 -0.328125q0.59375 0 0.890625 0.328125q0.3125 0.328125 0.3125 0.828125q0 0.484375 -0.3125 0.8125q-0.296875 0.3125 -0.890625 0.3125q-0.59375 0 -0.890625 -0.3125q-0.296875 -0.328125 -0.296875 -0.8125zm14.566345 -10.1875q0 1.125 -0.59375 2.015625q-0.59375 0.890625 -1.625 1.390625q1.1875 0.5 1.875 1.484375q0.703125 0.984375 0.703125 2.21875q0 1.96875 -1.328125 3.140625q-1.328125 1.15625 -3.5 1.15625q-2.1875 0 -3.5 -1.171875q-1.3125 -1.171875 -1.3125 -3.125q0 -1.234375 0.671875 -2.21875q0.671875 -0.984375 1.859375 -1.5q-1.015625 -0.5 -1.609375 -1.375q-0.578125 -0.890625 -0.578125 -2.015625q0 -1.921875 1.234375 -3.046875q1.234375 -1.125 3.234375 -1.125q2.0 0 3.234375 1.125q1.234375 1.125 1.234375 3.046875zm-1.5625 7.0625q0 -1.265625 -0.8125 -2.0625q-0.8125 -0.8125 -2.109375 -0.8125q-1.296875 0 -2.09375 0.796875q-0.78125 0.796875 -0.78125 2.09375q0 1.28125 0.765625 2.03125q0.765625 0.734375 2.125 0.734375q1.359375 0 2.125 -0.75q0.78125 -0.75 0.78125 -2.03125zm-2.90625 -9.640625q-1.125 0 -1.828125 0.703125q-0.703125 0.703125 -0.703125 1.90625q0 1.15625 0.6875 1.875q0.6875 0.703125 1.84375 0.703125q1.15625 0 1.84375 -0.703125q0.703125 -0.71875 0.703125 -1.875q0 -1.15625 -0.71875 -1.875q-0.71875 -0.734375 -1.828125 -0.734375zm17.038742 -0.296875l-6.28125 14.078125l-2.015625 0l6.265625 -13.578125l-8.21875 0l0 -1.578125l10.25 0l0 1.078125z"
       fill-rule="nonzero"
       id="path23" />
    <path
       fill="#d9d9d9"
       d="m132.49281 274.59772l139.74803 0l0 66.20471l-139.74803 0z"
       fill-rule="evenodd"
       id="path25" />
    <path
       stroke="#434343"
       stroke-width="1.0"
       stroke-linejoin="round"
       stroke-linecap="butt"
       d="m132.49281 274.59772l139.74803 0l0 66.20471l-139.74803 0z"
       fill-rule="evenodd"
       id="path27" />
    <path
       fill="#000000"
       d="m183.20148 315.18008l-1.9375 0l0 -12.84375l-3.890625 1.4375l0 -1.75l5.53125 -2.078125l0.296875 0l0 15.234375zm13.023117 -6.671875q-0.59375 0.71875 -1.4375 1.15625q-0.84375 0.4375 -1.84375 0.4375q-1.3125 0 -2.28125 -0.640625q-0.96875 -0.640625 -1.5 -1.8125q-0.53125 -1.171875 -0.53125 -2.59375q0 -1.515625 0.578125 -2.734375q0.578125 -1.21875 1.640625 -1.859375q1.0625 -0.65625 2.46875 -0.65625q2.25 0 3.546875 1.6875q1.296875 1.6875 1.296875 4.578125l0 0.5625q0 4.4375 -1.75 6.46875q-1.75 2.03125 -5.28125 2.09375l-0.375 0l0 -1.625l0.40625 0q2.390625 -0.046875 3.671875 -1.25q1.28125 -1.203125 1.390625 -3.8125zm-2.96875 0q0.96875 0 1.78125 -0.59375q0.828125 -0.59375 1.203125 -1.46875l0 -0.765625q0 -1.890625 -0.828125 -3.078125q-0.8125 -1.1875 -2.078125 -1.1875q-1.265625 0 -2.046875 0.984375q-0.765625 0.96875 -0.765625 2.546875q0 1.5625 0.734375 2.5625q0.75 1.0 2.0 1.0zm7.804367 5.65625q0 -0.5 0.296875 -0.828125q0.296875 -0.328125 0.890625 -0.328125q0.59375 0 0.890625 0.328125q0.3125 0.328125 0.3125 0.828125q0 0.484375 -0.3125 0.8125q-0.296875 0.3125 -0.890625 0.3125q-0.59375 0 -0.890625 -0.3125q-0.296875 -0.328125 -0.296875 -0.8125zm12.941345 -14.15625l0 1.640625l-0.359375 0q-2.25 0.03125 -3.59375 1.328125q-1.328125 1.296875 -1.53125 3.625q1.203125 -1.375 3.265625 -1.375q1.984375 0 3.15625 1.40625q1.1875 1.390625 1.1875 3.59375q0 2.34375 -1.28125 3.75q-1.265625 1.40625 -3.40625 1.40625q-2.1875 0 -3.546875 -1.671875q-1.34375 -1.671875 -1.34375 -4.296875l0 -0.75q0 -4.171875 1.78125 -6.390625q1.796875 -2.21875 5.328125 -2.265625l0.34375 0zm-2.53125 6.828125q-1.0 0 -1.828125 0.59375q-0.828125 0.59375 -1.15625 1.484375l0 0.71875q0 1.875 0.84375 3.015625q0.84375 1.140625 2.109375 1.140625q1.296875 0 2.03125 -0.953125q0.75 -0.953125 0.75 -2.515625q0 -1.5625 -0.75 -2.515625q-0.75 -0.96875 -2.0 -0.96875zm16.866867 8.34375l-9.921875 0l0 -1.390625l5.25 -5.828125q1.15625 -1.328125 1.59375 -2.15625q0.453125 -0.828125 0.453125 -1.703125q0 -1.1875 -0.71875 -1.9375q-0.71875 -0.765625 -1.921875 -0.765625q-1.4375 0 -2.234375 0.8125q-0.796875 0.8125 -0.796875 2.28125l-1.921875 0q0 -2.09375 1.34375 -3.390625q1.359375 -1.296875 3.609375 -1.296875q2.125 0 3.34375 1.109375q1.234375 1.109375 1.234375 2.953125q0 2.234375 -2.859375 5.328125l-4.0625 4.40625l7.609375 0l0 1.578125z"
       fill-rule="nonzero"
       id="path29" />
    <path
       fill="#d9d9d9"
       d="m132.49281 349.99643l139.74803 0l0 66.20471l-139.74803 0z"
       fill-rule="evenodd"
       id="path31" />
    <path
       stroke="#434343"
       stroke-width="1.0"
       stroke-linejoin="round"
       stroke-linecap="butt"
       d="m132.49281 349.99643l139.74803 0l0 66.20471l-139.74803 0z"
       fill-rule="evenodd"
       id="path33" />
    <path
       fill="#000000"
       d="m186.79523 390.5788l-9.921875 0l0 -1.390625l5.25 -5.828125q1.15625 -1.328125 1.59375 -2.15625q0.453125 -0.828125 0.453125 -1.703125q0 -1.1875 -0.71875 -1.9375q-0.71875 -0.765625 -1.921875 -0.765625q-1.4375 0 -2.234375 0.8125q-0.796875 0.8125 -0.796875 2.28125l-1.921875 0q0 -2.09375 1.34375 -3.390625q1.359375 -1.296875 3.609375 -1.296875q2.125 0 3.34375 1.109375q1.234375 1.109375 1.234375 2.953125q0 2.234375 -2.859375 5.328125l-4.0625 4.40625l7.609375 0l0 1.578125zm2.929367 -7.609375l0.78125 -7.546875l7.765625 0l0 1.78125l-6.140625 0l-0.453125 4.125q1.109375 -0.65625 2.53125 -0.65625q2.078125 0 3.28125 1.375q1.21875 1.359375 1.21875 3.703125q0 2.34375 -1.265625 3.6875q-1.25 1.34375 -3.53125 1.34375q-2.0 0 -3.28125 -1.109375q-1.265625 -1.109375 -1.4375 -3.078125l1.8125 0q0.1875 1.296875 0.9375 1.96875q0.75 0.65625 1.96875 0.65625q1.34375 0 2.109375 -0.921875q0.765625 -0.921875 0.765625 -2.53125q0 -1.515625 -0.828125 -2.4375q-0.828125 -0.921875 -2.203125 -0.921875q-1.25 0 -1.96875 0.546875l-0.515625 0.421875l-1.546875 -0.40625zm11.335617 6.59375q0 -0.5 0.296875 -0.828125q0.296875 -0.328125 0.890625 -0.328125q0.59375 0 0.890625 0.328125q0.3125 0.328125 0.3125 0.828125q0 0.484375 -0.3125 0.8125q-0.296875 0.3125 -0.890625 0.3125q-0.59375 0 -0.890625 -0.3125q-0.296875 -0.328125 -0.296875 -0.8125zm15.160095 -13.0625l-6.28125 14.078125l-2.015625 0l6.265625 -13.578125l-8.21875 0l0 -1.578125l10.25 0l0 1.078125zm11.694992 7.609375q0 3.390625 -1.15625 5.03125q-1.15625 1.640625 -3.609375 1.640625q-2.421875 0 -3.59375 -1.609375q-1.171875 -1.609375 -1.203125 -4.796875l0 -2.578125q0 -3.34375 1.15625 -4.96875q1.15625 -1.625 3.625 -1.625q2.4375 0 3.59375 1.578125q1.15625 1.5625 1.1875 4.828125l0 2.5zm-1.921875 -2.640625q0 -2.4375 -0.6875 -3.546875q-0.6875 -1.125 -2.171875 -1.125q-1.484375 0 -2.171875 1.109375q-0.671875 1.109375 -0.6875 3.421875l0 3.078125q0 2.46875 0.703125 3.640625q0.71875 1.171875 2.171875 1.171875q1.421875 0 2.109375 -1.109375q0.703125 -1.109375 0.734375 -3.484375l0 -3.15625z"
       fill-rule="nonzero"
       id="path35" />
    <path
       fill="#d9d9d9"
       d="m132.49281 425.3954l139.74803 0l0 66.20471l-139.74803 0z"
       fill-rule="evenodd"
       id="path37" />
    <path
       stroke="#434343"
       stroke-width="1.0"
       stroke-linejoin="round"
       stroke-linecap="butt"
       d="m132.49281 425.3954l139.74803 0l0 66.20471l-139.74803 0z"
       fill-rule="evenodd"
       id="path39" />
    <path
       fill="#000000"
       d="m186.79523 465.97775l-9.921875 0l0 -1.390625l5.25 -5.828125q1.15625 -1.328125 1.59375 -2.15625q0.453125 -0.828125 0.453125 -1.703125q0 -1.1875 -0.71875 -1.9375q-0.71875 -0.765625 -1.921875 -0.765625q-1.4375 0 -2.234375 0.8125q-0.796875 0.8125 -0.796875 2.28125l-1.921875 0q0 -2.09375 1.34375 -3.390625q1.359375 -1.296875 3.609375 -1.296875q2.125 0 3.34375 1.109375q1.234375 1.109375 1.234375 2.953125q0 2.234375 -2.859375 5.328125l-4.0625 4.40625l7.609375 0l0 1.578125zm11.835617 -14.078125l-6.28125 14.078125l-2.015625 0l6.265625 -13.578125l-8.21875 0l0 -1.578125l10.25 0l0 1.078125zm2.429367 13.0625q0 -0.5 0.296875 -0.828125q0.296875 -0.328125 0.890625 -0.328125q0.59375 0 0.890625 0.328125q0.3125 0.328125 0.3125 0.828125q0 0.484375 -0.3125 0.8125q-0.296875 0.3125 -0.890625 0.3125q-0.59375 0 -0.890625 -0.3125q-0.296875 -0.328125 -0.296875 -0.8125zm14.566345 -10.1875q0 1.125 -0.59375 2.015625q-0.59375 0.890625 -1.625 1.390625q1.1875 0.5 1.875 1.484375q0.703125 0.984375 0.703125 2.21875q0 1.96875 -1.328125 3.140625q-1.328125 1.15625 -3.5 1.15625q-2.1875 0 -3.5 -1.171875q-1.3125 -1.171875 -1.3125 -3.125q0 -1.234375 0.671875 -2.21875q0.671875 -0.984375 1.859375 -1.5q-1.015625 -0.5 -1.609375 -1.375q-0.578125 -0.890625 -0.578125 -2.015625q0 -1.921875 1.234375 -3.046875q1.234375 -1.125 3.234375 -1.125q2.0 0 3.234375 1.125q1.234375 1.125 1.234375 3.046875zm-1.5625 7.0625q0 -1.265625 -0.8125 -2.0625q-0.8125 -0.8125 -2.109375 -0.8125q-1.296875 0 -2.09375 0.796875q-0.78125 0.796875 -0.78125 2.09375q0 1.28125 0.765625 2.03125q0.765625 0.734375 2.125 0.734375q1.359375 0 2.125 -0.75q0.78125 -0.75 0.78125 -2.03125zm-2.90625 -9.640625q-1.125 0 -1.828125 0.703125q-0.703125 0.703125 -0.703125 1.90625q0 1.15625 0.6875 1.875q0.6875 0.703125 1.84375 0.703125q1.15625 0 1.84375 -0.703125q0.703125 -0.71875 0.703125 -1.875q0 -1.15625 -0.71875 -1.875q-0.71875 -0.734375 -1.828125 -0.734375zm14.632492 7.109375q-0.59375 0.71875 -1.4375 1.15625q-0.84375 0.4375 -1.84375 0.4375q-1.3125 0 -2.28125 -0.640625q-0.96875 -0.640625 -1.5 -1.8125q-0.53125 -1.171875 -0.53125 -2.59375q0 -1.515625 0.578125 -2.734375q0.578125 -1.21875 1.640625 -1.859375q1.0625 -0.65625 2.46875 -0.65625q2.25 0 3.546875 1.6875q1.296875 1.6875 1.296875 4.578125l0 0.5625q0 4.4375 -1.75 6.46875q-1.75 2.03125 -5.28125 2.09375l-0.375 0l0 -1.625l0.40625 0q2.390625 -0.046875 3.671875 -1.25q1.28125 -1.203125 1.390625 -3.8125zm-2.96875 0q0.96875 0 1.78125 -0.59375q0.828125 -0.59375 1.203125 -1.46875l0 -0.765625q0 -1.890625 -0.828125 -3.078125q-0.8125 -1.1875 -2.078125 -1.1875q-1.265625 0 -2.046875 0.984375q-0.765625 0.96875 -0.765625 2.546875q0 1.5625 0.734375 2.5625q0.75 1.0 2.0 1.0z"
       fill-rule="nonzero"
       id="path41" />
  </g>
</svg>
