<?xml version="1.0" encoding="UTF-8" standalone="no"?>
<svg
   xmlns:dc="http://purl.org/dc/elements/1.1/"
   xmlns:cc="http://creativecommons.org/ns#"
   xmlns:rdf="http://www.w3.org/1999/02/22-rdf-syntax-ns#"
   xmlns:svg="http://www.w3.org/2000/svg"
   xmlns="http://www.w3.org/2000/svg"
   xmlns:sodipodi="http://sodipodi.sourceforge.net/DTD/sodipodi-0.dtd"
   xmlns:inkscape="http://www.inkscape.org/namespaces/inkscape"
   version="1.1"
   viewBox="0.0 0.0 960.0 540.0"
   fill="none"
   stroke="none"
   stroke-linecap="square"
   stroke-miterlimit="10"
   id="svg257"
   sodipodi:docname="pandas_dataframe1.svg"
   inkscape:version="0.92.5 (2060ec1f9f, 2020-04-08)">
  <metadata
     id="metadata263">
    <rdf:RDF>
      <cc:Work
         rdf:about="">
        <dc:format>image/svg+xml</dc:format>
        <dc:type
           rdf:resource="http://purl.org/dc/dcmitype/StillImage" />
      </cc:Work>
    </rdf:RDF>
  </metadata>
  <defs
     id="defs261" />
  <sodipodi:namedview
     pagecolor="#ffffff"
     bordercolor="#666666"
     borderopacity="1"
     objecttolerance="10"
     gridtolerance="10"
     guidetolerance="10"
     inkscape:pageopacity="0"
     inkscape:pageshadow="2"
     inkscape:window-width="1600"
     inkscape:window-height="790"
     id="namedview259"
     showgrid="false"
     inkscape:zoom="0.36145833"
     inkscape:cx="480"
     inkscape:cy="270"
     inkscape:window-x="0"
     inkscape:window-y="27"
     inkscape:window-maximized="1"
     inkscape:current-layer="g255" />
  <clipPath
     id="ge5cd28bdd1_0_1293.0">
    <path
       d="m0 0l960.0 0l0 540.0l-960.0 0l0 -540.0z"
       clip-rule="nonzero"
       id="path2" />
  </clipPath>
  <g
     clip-path="url(#ge5cd28bdd1_0_1293.0)"
     id="g255">
    <path
       fill="#000000"
       fill-opacity="0.0"
       d="m534.39764 229.93666l0 0c0 -12.173706 9.868713 -22.042435 22.04242 -22.042435l88.167114 0l0 0c5.8460083 0 11.452576 2.3223114 15.586365 6.45607c4.133728 4.1337585 6.4560547 9.740341 6.4560547 15.586365l0 215.19072c0 12.173706 -9.868713 22.04242 -22.04242 22.04242l-88.167114 0c-12.173706 0 -22.04242 -9.868713 -22.04242 -22.04242z"
       fill-rule="evenodd"
       id="path7"
       inkscape:export-xdpi="300"
       inkscape:export-ydpi="300" />
    <path
       stroke="#e69138"
       stroke-width="3.0"
       stroke-linejoin="round"
       stroke-linecap="butt"
       stroke-dasharray="24.0,9.0"
       d="m534.39764 229.93666l0 0c0 -12.173706 9.868713 -22.042435 22.04242 -22.042435l88.167114 0l0 0c5.8460083 0 11.452576 2.3223114 15.586365 6.45607c4.133728 4.1337585 6.4560547 9.740341 6.4560547 15.586365l0 215.19072c0 12.173706 -9.868713 22.04242 -22.04242 22.04242l-88.167114 0c-12.173706 0 -22.04242 -9.868713 -22.04242 -22.04242z"
       fill-rule="evenodd"
       id="path9"
       inkscape:export-xdpi="300"
       inkscape:export-ydpi="300" />
    <path
       fill="#999999"
       d="m673.1307 159.2629l114.77167 0l0 53.480316l-114.77167 0z"
       fill-rule="evenodd"
       id="path11"
       inkscape:export-xdpi="300"
       inkscape:export-ydpi="300" />
    <path
       stroke="#434343"
       stroke-width="1.0"
       stroke-linejoin="round"
       stroke-linecap="butt"
       d="m673.1307 159.2629l114.77167 0l0 53.480316l-114.77167 0z"
       fill-rule="evenodd"
       id="path13"
       inkscape:export-xdpi="300"
       inkscape:export-ydpi="300" />
    <path
       fill="#d9d9d9"
       d="m673.1307 220.15944l114.77167 0l0 53.48033l-114.77167 0z"
       fill-rule="evenodd"
       id="path15"
       inkscape:export-xdpi="300"
       inkscape:export-ydpi="300" />
    <path
       stroke="#ffffff"
       stroke-width="1.0"
       stroke-linejoin="round"
       stroke-linecap="butt"
       d="m673.1307 220.15944l114.77167 0l0 53.48033l-114.77167 0z"
       fill-rule="evenodd"
       id="path17"
       inkscape:export-xdpi="300"
       inkscape:export-ydpi="300" />
    <path
       fill="#000000"
       d="m705.9662 248.44211l0 5.9375l-2.0 0l0 -15.15625l5.59375 0q2.484375 0 3.890625 1.265625q1.40625 1.265625 1.40625 3.359375q0 2.203125 -1.375 3.40625q-1.375 1.1875 -3.953125 1.1875l-3.5625 0zm0 -1.640625l3.59375 0q1.59375 0 2.453125 -0.75q0.859375 -0.75 0.859375 -2.1875q0 -1.34375 -0.859375 -2.15625q-0.859375 -0.8125 -2.34375 -0.84375l-3.703125 0l0 5.9375zm16.595642 -1.96875q-0.4375 -0.0625 -0.953125 -0.0625q-1.890625 0 -2.5625 1.609375l0 8.0l-1.9375 0l0 -11.265625l1.875 0l0.03125 1.296875q0.953125 -1.5 2.6875 -1.5q0.5625 0 0.859375 0.140625l0 1.78125zm1.055542 3.8125q0 -1.65625 0.640625 -2.984375q0.65625 -1.328125 1.8125 -2.03125q1.171875 -0.71875 2.65625 -0.71875q2.296875 0 3.71875 1.59375q1.421875 1.578125 1.421875 4.234375l0 0.125q0 1.65625 -0.625 2.96875q-0.625 1.296875 -1.796875 2.03125q-1.171875 0.71875 -2.703125 0.71875q-2.28125 0 -3.703125 -1.59375q-1.421875 -1.59375 -1.421875 -4.21875l0 -0.125zm1.9375 0.21875q0 1.875 0.859375 3.015625q0.875 1.140625 2.328125 1.140625q1.46875 0 2.328125 -1.15625q0.875 -1.15625 0.875 -3.21875q0 -1.859375 -0.890625 -3.0q-0.875 -1.15625 -2.328125 -1.15625q-1.421875 0 -2.296875 1.140625q-0.875 1.125 -0.875 3.234375zm10.257446 -0.21875q0 -2.59375 1.234375 -4.15625q1.234375 -1.578125 3.21875 -1.578125q1.984375 0 3.140625 1.34375l0 -5.875l1.921875 0l0 16.0l-1.765625 0l-0.09375 -1.203125q-1.15625 1.40625 -3.21875 1.40625q-1.96875 0 -3.203125 -1.59375q-1.234375 -1.609375 -1.234375 -4.1875l0 -0.15625zm1.9375 0.21875q0 1.921875 0.78125 3.015625q0.796875 1.078125 2.1875 1.078125q1.84375 0 2.6875 -1.65625l0 -5.171875q-0.875 -1.59375 -2.65625 -1.59375q-1.421875 0 -2.21875 1.09375q-0.78125 1.09375 -0.78125 3.234375zm16.700195 5.515625l-1.9375 0l0 -12.84375l-3.890625 1.4375l0 -1.75l5.53125 -2.078125l0.296875 0l0 15.234375z"
       fill-rule="nonzero"
       id="path19"
       inkscape:export-xdpi="300"
       inkscape:export-ydpi="300" />
    <path
       fill="#d9d9d9"
       d="m673.1307 281.056l114.77167 0l0 53.480316l-114.77167 0z"
       fill-rule="evenodd"
       id="path21"
       inkscape:export-xdpi="300"
       inkscape:export-ydpi="300" />
    <path
       stroke="#ffffff"
       stroke-width="1.0"
       stroke-linejoin="round"
       stroke-linecap="butt"
       d="m673.1307 281.056l114.77167 0l0 53.480316l-114.77167 0z"
       fill-rule="evenodd"
       id="path23"
       inkscape:export-xdpi="300"
       inkscape:export-ydpi="300" />
    <path
       fill="#000000"
       d="m705.9662 309.33865l0 5.9375l-2.0 0l0 -15.15625l5.59375 0q2.484375 0 3.890625 1.265625q1.40625 1.265625 1.40625 3.359375q0 2.203125 -1.375 3.40625q-1.375 1.1875 -3.953125 1.1875l-3.5625 0zm0 -1.640625l3.59375 0q1.59375 0 2.453125 -0.75q0.859375 -0.75 0.859375 -2.1875q0 -1.34375 -0.859375 -2.15625q-0.859375 -0.8125 -2.34375 -0.84375l-3.703125 0l0 5.9375zm16.595642 -1.96875q-0.4375 -0.0625 -0.953125 -0.0625q-1.890625 0 -2.5625 1.609375l0 8.0l-1.9375 0l0 -11.265625l1.875 0l0.03125 1.296875q0.953125 -1.5 2.6875 -1.5q0.5625 0 0.859375 0.140625l0 1.78125zm1.055542 3.8125q0 -1.65625 0.640625 -2.984375q0.65625 -1.328125 1.8125 -2.03125q1.171875 -0.71875 2.65625 -0.71875q2.296875 0 3.71875 1.59375q1.421875 1.578125 1.421875 4.234375l0 0.125q0 1.65625 -0.625 2.96875q-0.625 1.296875 -1.796875 2.03125q-1.171875 0.71875 -2.703125 0.71875q-2.28125 0 -3.703125 -1.59375q-1.421875 -1.59375 -1.421875 -4.21875l0 -0.125zm1.9375 0.21875q0 1.875 0.859375 3.015625q0.875 1.140625 2.328125 1.140625q1.46875 0 2.328125 -1.15625q0.875 -1.15625 0.875 -3.21875q0 -1.859375 -0.890625 -3.0q-0.875 -1.15625 -2.328125 -1.15625q-1.421875 0 -2.296875 1.140625q-0.875 1.125 -0.875 3.234375zm10.257446 -0.21875q0 -2.59375 1.234375 -4.15625q1.234375 -1.578125 3.21875 -1.578125q1.984375 0 3.140625 1.34375l0 -5.875l1.921875 0l0 16.0l-1.765625 0l-0.09375 -1.203125q-1.15625 1.40625 -3.21875 1.40625q-1.96875 0 -3.203125 -1.59375q-1.234375 -1.609375 -1.234375 -4.1875l0 -0.15625zm1.9375 0.21875q0 1.921875 0.78125 3.015625q0.796875 1.078125 2.1875 1.078125q1.84375 0 2.6875 -1.65625l0 -5.171875q-0.875 -1.59375 -2.65625 -1.59375q-1.421875 0 -2.21875 1.09375q-0.78125 1.09375 -0.78125 3.234375zm20.293945 5.515625l-9.921875 0l0 -1.390625l5.25 -5.828125q1.15625 -1.328125 1.59375 -2.15625q0.453125 -0.828125 0.453125 -1.703125q0 -1.1875 -0.71875 -1.9375q-0.71875 -0.765625 -1.921875 -0.765625q-1.4375 0 -2.234375 0.8125q-0.796875 0.8125 -0.796875 2.28125l-1.921875 0q0 -2.09375 1.34375 -3.390625q1.359375 -1.296875 3.609375 -1.296875q2.125 0 3.34375 1.109375q1.234375 1.109375 1.234375 2.953125q0 2.234375 -2.859375 5.328125l-4.0625 4.40625l7.609375 0l0 1.578125z"
       fill-rule="nonzero"
       id="path25"
       inkscape:export-xdpi="300"
       inkscape:export-ydpi="300" />
    <path
       fill="#d9d9d9"
       d="m673.1307 341.95255l114.77167 0l0 53.480316l-114.77167 0z"
       fill-rule="evenodd"
       id="path27"
       inkscape:export-xdpi="300"
       inkscape:export-ydpi="300" />
    <path
       stroke="#ffffff"
       stroke-width="1.0"
       stroke-linejoin="round"
       stroke-linecap="butt"
       d="m673.1307 341.95255l114.77167 0l0 53.480316l-114.77167 0z"
       fill-rule="evenodd"
       id="path29"
       inkscape:export-xdpi="300"
       inkscape:export-ydpi="300" />
    <path
       fill="#000000"
       d="m705.9662 370.2352l0 5.9375l-2.0 0l0 -15.15625l5.59375 0q2.484375 0 3.890625 1.265625q1.40625 1.265625 1.40625 3.359375q0 2.203125 -1.375 3.40625q-1.375 1.1875 -3.953125 1.1875l-3.5625 0zm0 -1.640625l3.59375 0q1.59375 0 2.453125 -0.75q0.859375 -0.75 0.859375 -2.1875q0 -1.34375 -0.859375 -2.15625q-0.859375 -0.8125 -2.34375 -0.84375l-3.703125 0l0 5.9375zm16.595642 -1.96875q-0.4375 -0.0625 -0.953125 -0.0625q-1.890625 0 -2.5625 1.609375l0 8.0l-1.9375 0l0 -11.265625l1.875 0l0.03125 1.296875q0.953125 -1.5 2.6875 -1.5q0.5625 0 0.859375 0.140625l0 1.78125zm1.055542 3.8125q0 -1.65625 0.640625 -2.984375q0.65625 -1.328125 1.8125 -2.03125q1.171875 -0.71875 2.65625 -0.71875q2.296875 0 3.71875 1.59375q1.421875 1.578125 1.421875 4.234375l0 0.125q0 1.65625 -0.625 2.96875q-0.625 1.296875 -1.796875 2.03125q-1.171875 0.71875 -2.703125 0.71875q-2.28125 0 -3.703125 -1.59375q-1.421875 -1.59375 -1.421875 -4.21875l0 -0.125zm1.9375 0.21875q0 1.875 0.859375 3.015625q0.875 1.140625 2.328125 1.140625q1.46875 0 2.328125 -1.15625q0.875 -1.15625 0.875 -3.21875q0 -1.859375 -0.890625 -3.0q-0.875 -1.15625 -2.328125 -1.15625q-1.421875 0 -2.296875 1.140625q-0.875 1.125 -0.875 3.234375zm10.257446 -0.21875q0 -2.59375 1.234375 -4.15625q1.234375 -1.578125 3.21875 -1.578125q1.984375 0 3.140625 1.34375l0 -5.875l1.921875 0l0 16.0l-1.765625 0l-0.09375 -1.203125q-1.15625 1.40625 -3.21875 1.40625q-1.96875 0 -3.203125 -1.59375q-1.234375 -1.609375 -1.234375 -4.1875l0 -0.15625zm1.9375 0.21875q0 1.921875 0.78125 3.015625q0.796875 1.078125 2.1875 1.078125q1.84375 0 2.6875 -1.65625l0 -5.171875q-0.875 -1.59375 -2.65625 -1.59375q-1.421875 0 -2.21875 1.09375q-0.78125 1.09375 -0.78125 3.234375zm13.168945 -3.0l1.453125 0q1.359375 -0.03125 2.140625 -0.71875q0.78125 -0.703125 0.78125 -1.890625q0 -2.65625 -2.65625 -2.65625q-1.25 0 -2.0 0.71875q-0.734375 0.703125 -0.734375 1.875l-1.9375 0q0 -1.796875 1.3125 -2.984375q1.328125 -1.203125 3.359375 -1.203125q2.140625 0 3.359375 1.140625q1.21875 1.140625 1.21875 3.15625q0 0.984375 -0.640625 1.921875q-0.640625 0.921875 -1.734375 1.375q1.25 0.390625 1.921875 1.3125q0.6875 0.921875 0.6875 2.234375q0 2.046875 -1.34375 3.25q-1.328125 1.1875 -3.46875 1.1875q-2.125 0 -3.46875 -1.15625q-1.328125 -1.15625 -1.328125 -3.046875l1.9375 0q0 1.203125 0.78125 1.921875q0.78125 0.71875 2.09375 0.71875q1.390625 0 2.125 -0.734375q0.75 -0.734375 0.75 -2.09375q0 -1.328125 -0.8125 -2.03125q-0.8125 -0.703125 -2.34375 -0.734375l-1.453125 0l0 -1.5625z"
       fill-rule="nonzero"
       id="path31"
       inkscape:export-xdpi="300"
       inkscape:export-ydpi="300" />
    <path
       fill="#d9d9d9"
       d="m673.1307 402.8491l114.77167 0l0 53.480316l-114.77167 0z"
       fill-rule="evenodd"
       id="path33"
       inkscape:export-xdpi="300"
       inkscape:export-ydpi="300" />
    <path
       stroke="#ffffff"
       stroke-width="1.0"
       stroke-linejoin="round"
       stroke-linecap="butt"
       d="m673.1307 402.8491l114.77167 0l0 53.480316l-114.77167 0z"
       fill-rule="evenodd"
       id="path35"
       inkscape:export-xdpi="300"
       inkscape:export-ydpi="300" />
    <path
       fill="#000000"
       d="m705.9662 431.13177l0 5.9375l-2.0 0l0 -15.15625l5.59375 0q2.484375 0 3.890625 1.265625q1.40625 1.265625 1.40625 3.359375q0 2.203125 -1.375 3.40625q-1.375 1.1875 -3.953125 1.1875l-3.5625 0zm0 -1.640625l3.59375 0q1.59375 0 2.453125 -0.75q0.859375 -0.75 0.859375 -2.1875q0 -1.34375 -0.859375 -2.15625q-0.859375 -0.8125 -2.34375 -0.84375l-3.703125 0l0 5.9375zm16.595642 -1.96875q-0.4375 -0.0625 -0.953125 -0.0625q-1.890625 0 -2.5625 1.609375l0 8.0l-1.9375 0l0 -11.265625l1.875 0l0.03125 1.296875q0.953125 -1.5 2.6875 -1.5q0.5625 0 0.859375 0.140625l0 1.78125zm1.055542 3.8125q0 -1.65625 0.640625 -2.984375q0.65625 -1.328125 1.8125 -2.03125q1.171875 -0.71875 2.65625 -0.71875q2.296875 0 3.71875 1.59375q1.421875 1.578125 1.421875 4.234375l0 0.125q0 1.65625 -0.625 2.96875q-0.625 1.296875 -1.796875 2.03125q-1.171875 0.71875 -2.703125 0.71875q-2.28125 0 -3.703125 -1.59375q-1.421875 -1.59375 -1.421875 -4.21875l0 -0.125zm1.9375 0.21875q0 1.875 0.859375 3.015625q0.875 1.140625 2.328125 1.140625q1.46875 0 2.328125 -1.15625q0.875 -1.15625 0.875 -3.21875q0 -1.859375 -0.890625 -3.0q-0.875 -1.15625 -2.328125 -1.15625q-1.421875 0 -2.296875 1.140625q-0.875 1.125 -0.875 3.234375zm10.257446 -0.21875q0 -2.59375 1.234375 -4.15625q1.234375 -1.578125 3.21875 -1.578125q1.984375 0 3.140625 1.34375l0 -5.875l1.921875 0l0 16.0l-1.765625 0l-0.09375 -1.203125q-1.15625 1.40625 -3.21875 1.40625q-1.96875 0 -3.203125 -1.59375q-1.234375 -1.609375 -1.234375 -4.1875l0 -0.15625zm1.9375 0.21875q0 1.921875 0.78125 3.015625q0.796875 1.078125 2.1875 1.078125q1.84375 0 2.6875 -1.65625l0 -5.171875q-0.875 -1.59375 -2.65625 -1.59375q-1.421875 0 -2.21875 1.09375q-0.78125 1.09375 -0.78125 3.234375zm18.49707 0.421875l2.109375 0l0 1.578125l-2.109375 0l0 3.515625l-1.9375 0l0 -3.515625l-6.90625 0l0 -1.140625l6.796875 -10.5l2.046875 0l0 10.0625zm-6.65625 0l4.71875 0l0 -7.4375l-0.21875 0.421875l-4.5 7.015625z"
       fill-rule="nonzero"
       id="path37"
       inkscape:export-xdpi="300"
       inkscape:export-ydpi="300" />
    <path
       fill="#000000"
       fill-opacity="0.0"
       d="m915.79376 153.48424l0 0c5.743286 0 10.39917 4.6558685 10.39917 10.39917l0 41.595383l0 0c0 2.7580261 -1.0956421 5.4030914 -3.0458374 7.3533173c-1.9502563 1.9502106 -4.595276 3.0458374 -7.3533325 3.0458374l-242.88672 0c-5.743286 0 -10.39917 -4.6558685 -10.39917 -10.399155l0 -41.595383c0 -5.7433014 4.655884 -10.39917 10.39917 -10.39917z"
       fill-rule="evenodd"
       id="path39"
       inkscape:export-xdpi="300"
       inkscape:export-ydpi="300" />
    <path
       stroke="#0097a7"
       stroke-width="3.0"
       stroke-linejoin="round"
       stroke-linecap="butt"
       stroke-dasharray="24.0,9.0"
       d="m915.79376 153.48424l0 0c5.743286 0 10.39917 4.6558685 10.39917 10.39917l0 41.595383l0 0c0 2.7580261 -1.0956421 5.4030914 -3.0458374 7.3533173c-1.9502563 1.9502106 -4.595276 3.0458374 -7.3533325 3.0458374l-242.88672 0c-5.743286 0 -10.39917 -4.6558685 -10.39917 -10.399155l0 -41.595383c0 -5.7433014 4.655884 -10.39917 10.39917 -10.39917z"
       fill-rule="evenodd"
       id="path41"
       inkscape:export-xdpi="300"
       inkscape:export-ydpi="300" />
    <path
       fill="#999999"
       d="m544.0044 220.15784l114.77167 0l0 53.480316l-114.77167 0z"
       fill-rule="evenodd"
       id="path43"
       inkscape:export-xdpi="300"
       inkscape:export-ydpi="300" />
    <path
       stroke="#434343"
       stroke-width="1.0"
       stroke-linejoin="round"
       stroke-linecap="butt"
       d="m544.0044 220.15784l114.77167 0l0 53.480316l-114.77167 0z"
       fill-rule="evenodd"
       id="path45"
       inkscape:export-xdpi="300"
       inkscape:export-ydpi="300" />
    <path
       fill="#ffffff"
       d="m603.61566 254.37799l-3.015625 0l0 -11.59375l-3.59375 1.109375l0 -2.453125l6.28125 -2.25l0.328125 0l0 15.1875z"
       fill-rule="nonzero"
       id="path47"
       inkscape:export-xdpi="300"
       inkscape:export-ydpi="300" />
    <path
       fill="#999999"
       d="m544.0044 281.0528l114.77167 0l0 53.480316l-114.77167 0z"
       fill-rule="evenodd"
       id="path49"
       inkscape:export-xdpi="300"
       inkscape:export-ydpi="300" />
    <path
       stroke="#434343"
       stroke-width="1.0"
       stroke-linejoin="round"
       stroke-linecap="butt"
       d="m544.0044 281.0528l114.77167 0l0 53.480316l-114.77167 0z"
       fill-rule="evenodd"
       id="path51"
       inkscape:export-xdpi="300"
       inkscape:export-ydpi="300" />
    <path
       fill="#ffffff"
       d="m606.6938 315.27295l-10.390625 0l0 -2.0625l4.90625 -5.234375q1.015625 -1.09375 1.5 -1.921875q0.484375 -0.828125 0.484375 -1.5625q0 -1.0 -0.515625 -1.578125q-0.515625 -0.578125 -1.453125 -0.578125q-1.03125 0 -1.625 0.703125q-0.578125 0.703125 -0.578125 1.84375l-3.015625 0q0 -1.390625 0.65625 -2.53125q0.65625 -1.140625 1.859375 -1.796875q1.21875 -0.65625 2.75 -0.65625q2.34375 0 3.640625 1.125q1.296875 1.125 1.296875 3.1875q0 1.109375 -0.59375 2.28125q-0.578125 1.171875 -1.984375 2.71875l-3.453125 3.640625l6.515625 0l0 2.421875z"
       fill-rule="nonzero"
       id="path53"
       inkscape:export-xdpi="300"
       inkscape:export-ydpi="300" />
    <path
       fill="#999999"
       d="m544.0044 341.94772l114.77167 0l0 53.480316l-114.77167 0z"
       fill-rule="evenodd"
       id="path55"
       inkscape:export-xdpi="300"
       inkscape:export-ydpi="300" />
    <path
       stroke="#434343"
       stroke-width="1.0"
       stroke-linejoin="round"
       stroke-linecap="butt"
       d="m544.0044 341.94772l114.77167 0l0 53.480316l-114.77167 0z"
       fill-rule="evenodd"
       id="path57"
       inkscape:export-xdpi="300"
       inkscape:export-ydpi="300" />
    <path
       fill="#ffffff"
       d="m599.36566 367.246l1.609375 0q1.140625 0 1.6875 -0.5625q0.5625 -0.578125 0.5625 -1.515625q0 -0.921875 -0.546875 -1.421875q-0.546875 -0.515625 -1.515625 -0.515625q-0.859375 0 -1.453125 0.46875q-0.578125 0.46875 -0.578125 1.234375l-3.0 0q0 -1.1875 0.640625 -2.125q0.640625 -0.953125 1.78125 -1.484375q1.15625 -0.53125 2.546875 -0.53125q2.40625 0 3.765625 1.15625q1.359375 1.15625 1.359375 3.171875q0 1.03125 -0.640625 1.90625q-0.625 0.875 -1.65625 1.34375q1.28125 0.46875 1.90625 1.390625q0.625 0.90625 0.625 2.15625q0 2.015625 -1.46875 3.234375q-1.46875 1.21875 -3.890625 1.21875q-2.28125 0 -3.71875 -1.1875q-1.4375 -1.203125 -1.4375 -3.171875l3.0 0q0 0.859375 0.640625 1.40625q0.640625 0.53125 1.578125 0.53125q1.078125 0 1.6875 -0.5625q0.609375 -0.578125 0.609375 -1.515625q0 -2.265625 -2.5 -2.265625l-1.59375 0l0 -2.359375z"
       fill-rule="nonzero"
       id="path59"
       inkscape:export-xdpi="300"
       inkscape:export-ydpi="300" />
    <path
       fill="#999999"
       d="m544.0044 402.84268l114.77167 0l0 53.480316l-114.77167 0z"
       fill-rule="evenodd"
       id="path61"
       inkscape:export-xdpi="300"
       inkscape:export-ydpi="300" />
    <path
       stroke="#434343"
       stroke-width="1.0"
       stroke-linejoin="round"
       stroke-linecap="butt"
       d="m544.0044 402.84268l114.77167 0l0 53.480316l-114.77167 0z"
       fill-rule="evenodd"
       id="path63"
       inkscape:export-xdpi="300"
       inkscape:export-ydpi="300" />
    <path
       fill="#ffffff"
       d="m605.2094 431.3597l1.71875 0l0 2.421875l-1.71875 0l0 3.28125l-3.015625 0l0 -3.28125l-6.21875 0l-0.125 -1.890625l6.3125 -9.984375l3.046875 0l0 9.453125zm-6.359375 0l3.34375 0l0 -5.359375l-0.1875 0.34375l-3.15625 5.015625z"
       fill-rule="nonzero"
       id="path65"
       inkscape:export-xdpi="300"
       inkscape:export-ydpi="300" />
    <path
       fill="#999999"
       d="m802.2575 159.25865l114.77167 0l0 53.480316l-114.77167 0z"
       fill-rule="evenodd"
       id="path67"
       inkscape:export-xdpi="300"
       inkscape:export-ydpi="300" />
    <path
       stroke="#434343"
       stroke-width="1.0"
       stroke-linejoin="round"
       stroke-linecap="butt"
       d="m802.2575 159.25865l114.77167 0l0 53.480316l-114.77167 0z"
       fill-rule="evenodd"
       id="path69"
       inkscape:export-xdpi="300"
       inkscape:export-ydpi="300" />
    <path
       fill="#d9d9d9"
       d="m802.2575 220.1552l114.77167 0l0 53.48033l-114.77167 0z"
       fill-rule="evenodd"
       id="path71"
       inkscape:export-xdpi="300"
       inkscape:export-ydpi="300" />
    <path
       stroke="#ffffff"
       stroke-width="1.0"
       stroke-linejoin="round"
       stroke-linecap="butt"
       d="m802.2575 220.1552l114.77167 0l0 53.48033l-114.77167 0z"
       fill-rule="evenodd"
       id="path73"
       inkscape:export-xdpi="300"
       inkscape:export-ydpi="300" />
    <path
       fill="#000000"
       d="m840.478 254.37537l-1.9375 0l0 -12.84375l-3.890625 1.4375l0 -1.75l5.53125 -2.078125l0.296875 0l0 15.234375zm13.023071 -6.671875q-0.59375 0.71875 -1.4375 1.15625q-0.84375 0.4375 -1.84375 0.4375q-1.3125 0 -2.28125 -0.640625q-0.96875 -0.640625 -1.5 -1.8125q-0.53125 -1.171875 -0.53125 -2.59375q0 -1.515625 0.578125 -2.734375q0.578125 -1.21875 1.640625 -1.859375q1.0625 -0.65625 2.46875 -0.65625q2.25 0 3.546875 1.6875q1.296875 1.6875 1.296875 4.578125l0 0.5625q0 4.4375 -1.75 6.46875q-1.75 2.03125 -5.28125 2.09375l-0.375 0l0 -1.625l0.40625 0q2.390625 -0.046875 3.671875 -1.25q1.28125 -1.203125 1.390625 -3.8125zm-2.96875 0q0.96875 0 1.78125 -0.59375q0.828125 -0.59375 1.203125 -1.46875l0 -0.765625q0 -1.890625 -0.828125 -3.078125q-0.8125 -1.1875 -2.078125 -1.1875q-1.265625 0 -2.046875 0.984375q-0.765625 0.96875 -0.765625 2.546875q0 1.5625 0.734375 2.5625q0.75 1.0 2.0 1.0zm7.8043823 5.65625q0 -0.5 0.296875 -0.828125q0.296875 -0.328125 0.890625 -0.328125q0.59375 0 0.890625 0.328125q0.3125 0.328125 0.3125 0.828125q0 0.484375 -0.3125 0.8125q-0.296875 0.3125 -0.890625 0.3125q-0.59375 0 -0.890625 -0.3125q-0.296875 -0.328125 -0.296875 -0.8125zm12.753845 -5.65625q-0.59375 0.71875 -1.4375 1.15625q-0.84375 0.4375 -1.84375 0.4375q-1.3125 0 -2.28125 -0.640625q-0.96875 -0.640625 -1.5 -1.8125q-0.53125 -1.171875 -0.53125 -2.59375q0 -1.515625 0.578125 -2.734375q0.578125 -1.21875 1.640625 -1.859375q1.0625 -0.65625 2.46875 -0.65625q2.25 0 3.546875 1.6875q1.296875 1.6875 1.296875 4.578125l0 0.5625q0 4.4375 -1.75 6.46875q-1.75 2.03125 -5.28125 2.09375l-0.375 0l0 -1.625l0.40625 0q2.390625 -0.046875 3.671875 -1.25q1.28125 -1.203125 1.390625 -3.8125zm-2.96875 0q0.96875 0 1.78125 -0.59375q0.828125 -0.59375 1.203125 -1.46875l0 -0.765625q0 -1.890625 -0.828125 -3.078125q-0.8125 -1.1875 -2.078125 -1.1875q-1.265625 0 -2.046875 0.984375q-0.765625 0.96875 -0.765625 2.546875q0 1.5625 0.734375 2.5625q0.75 1.0 2.0 1.0zm17.070007 0.203125q0 3.390625 -1.15625 5.03125q-1.15625 1.640625 -3.609375 1.640625q-2.421875 0 -3.59375 -1.609375q-1.171875 -1.609375 -1.203125 -4.796875l0 -2.578125q0 -3.34375 1.15625 -4.96875q1.15625 -1.625 3.625 -1.625q2.4375 0 3.59375 1.578125q1.15625 1.5625 1.1875 4.828125l0 2.5zm-1.921875 -2.640625q0 -2.4375 -0.6875 -3.546875q-0.6875 -1.125 -2.171875 -1.125q-1.484375 0 -2.171875 1.109375q-0.671875 1.109375 -0.6875 3.421875l0 3.078125q0 2.46875 0.703125 3.640625q0.71875 1.171875 2.171875 1.171875q1.421875 0 2.109375 -1.109375q0.703125 -1.109375 0.734375 -3.484375l0 -3.15625z"
       fill-rule="nonzero"
       id="path75"
       inkscape:export-xdpi="300"
       inkscape:export-ydpi="300" />
    <path
       fill="#d9d9d9"
       d="m802.2575 281.05176l114.77167 0l0 53.480316l-114.77167 0z"
       fill-rule="evenodd"
       id="path77"
       inkscape:export-xdpi="300"
       inkscape:export-ydpi="300" />
    <path
       stroke="#ffffff"
       stroke-width="1.0"
       stroke-linejoin="round"
       stroke-linecap="butt"
       d="m802.2575 281.05176l114.77167 0l0 53.480316l-114.77167 0z"
       fill-rule="evenodd"
       id="path79"
       inkscape:export-xdpi="300"
       inkscape:export-ydpi="300" />
    <path
       fill="#000000"
       d="m849.91925 301.1938l-6.28125 14.078125l-2.015625 0l6.265625 -13.578125l-8.21875 0l0 -1.578125l10.25 0l0 1.078125zm2.4293823 13.0625q0 -0.5 0.296875 -0.828125q0.296875 -0.328125 0.890625 -0.328125q0.59375 0 0.890625 0.328125q0.3125 0.328125 0.3125 0.828125q0 0.484375 -0.3125 0.8125q-0.296875 0.3125 -0.890625 0.3125q-0.59375 0 -0.890625 -0.3125q-0.296875 -0.328125 -0.296875 -0.8125zm6.253845 -6.59375l0.78125 -7.546875l7.765625 0l0 1.78125l-6.140625 0l-0.453125 4.125q1.109375 -0.65625 2.53125 -0.65625q2.078125 0 3.28125 1.375q1.21875 1.359375 1.21875 3.703125q0 2.34375 -1.265625 3.6875q-1.25 1.34375 -3.53125 1.34375q-2.0 0 -3.28125 -1.109375q-1.265625 -1.109375 -1.4375 -3.078125l1.8125 0q0.1875 1.296875 0.9375 1.96875q0.75 0.65625 1.96875 0.65625q1.34375 0 2.109375 -0.921875q0.765625 -0.921875 0.765625 -2.53125q0 -1.515625 -0.828125 -2.4375q-0.828125 -0.921875 -2.203125 -0.921875q-1.25 0 -1.96875 0.546875l-0.515625 0.421875l-1.546875 -0.40625zm18.663696 -7.5625l0 1.640625l-0.359375 0q-2.25 0.03125 -3.59375 1.328125q-1.328125 1.296875 -1.53125 3.625q1.203125 -1.375 3.265625 -1.375q1.984375 0 3.15625 1.40625q1.1875 1.390625 1.1875 3.59375q0 2.34375 -1.28125 3.75q-1.265625 1.40625 -3.40625 1.40625q-2.1875 0 -3.546875 -1.671875q-1.34375 -1.671875 -1.34375 -4.296875l0 -0.75q0 -4.171875 1.78125 -6.390625q1.796875 -2.21875 5.328125 -2.265625l0.34375 0zm-2.53125 6.828125q-1.0 0 -1.828125 0.59375q-0.828125 0.59375 -1.15625 1.484375l0 0.71875q0 1.875 0.84375 3.015625q0.84375 1.140625 2.109375 1.140625q1.296875 0 2.03125 -0.953125q0.75 -0.953125 0.75 -2.515625q0 -1.5625 -0.75 -2.515625q-0.75 -0.96875 -2.0 -0.96875z"
       fill-rule="nonzero"
       id="path81"
       inkscape:export-xdpi="300"
       inkscape:export-ydpi="300" />
    <path
       fill="#d9d9d9"
       d="m802.2575 341.9483l114.77167 0l0 53.480316l-114.77167 0z"
       fill-rule="evenodd"
       id="path83"
       inkscape:export-xdpi="300"
       inkscape:export-ydpi="300" />
    <path
       stroke="#ffffff"
       stroke-width="1.0"
       stroke-linejoin="round"
       stroke-linecap="butt"
       d="m802.2575 341.9483l114.77167 0l0 53.480316l-114.77167 0z"
       fill-rule="evenodd"
       id="path85"
       inkscape:export-xdpi="300"
       inkscape:export-ydpi="300" />
    <path
       fill="#000000"
       d="m842.9349 367.65283l1.453125 0q1.359375 -0.03125 2.140625 -0.71875q0.78125 -0.703125 0.78125 -1.890625q0 -2.65625 -2.65625 -2.65625q-1.25 0 -2.0 0.71875q-0.734375 0.703125 -0.734375 1.875l-1.9375 0q0 -1.796875 1.3125 -2.984375q1.328125 -1.203125 3.359375 -1.203125q2.140625 0 3.359375 1.140625q1.21875 1.140625 1.21875 3.15625q0 0.984375 -0.640625 1.921875q-0.640625 0.921875 -1.734375 1.375q1.25 0.390625 1.921875 1.3125q0.6875 0.921875 0.6875 2.234375q0 2.046875 -1.34375 3.25q-1.328125 1.1875 -3.46875 1.1875q-2.125 0 -3.46875 -1.15625q-1.328125 -1.15625 -1.328125 -3.046875l1.9375 0q0 1.203125 0.78125 1.921875q0.78125 0.71875 2.09375 0.71875q1.390625 0 2.125 -0.734375q0.75 -0.734375 0.75 -2.09375q0 -1.328125 -0.8125 -2.03125q-0.8125 -0.703125 -2.34375 -0.734375l-1.453125 0l0 -1.5625zm9.413757 7.5q0 -0.5 0.296875 -0.828125q0.296875 -0.328125 0.890625 -0.328125q0.59375 0 0.890625 0.328125q0.3125 0.328125 0.3125 0.828125q0 0.484375 -0.3125 0.8125q-0.296875 0.3125 -0.890625 0.3125q-0.59375 0 -0.890625 -0.3125q-0.296875 -0.328125 -0.296875 -0.8125zm11.70697 1.015625l-1.9375 0l0 -12.84375l-3.890625 1.4375l0 -1.75l5.53125 -2.078125l0.296875 0l0 15.234375zm15.569946 0l-9.921875 0l0 -1.390625l5.25 -5.828125q1.15625 -1.328125 1.59375 -2.15625q0.453125 -0.828125 0.453125 -1.703125q0 -1.1875 -0.71875 -1.9375q-0.71875 -0.765625 -1.921875 -0.765625q-1.4375 0 -2.234375 0.8125q-0.796875 0.8125 -0.796875 2.28125l-1.921875 0q0 -2.09375 1.34375 -3.390625q1.359375 -1.296875 3.609375 -1.296875q2.125 0 3.34375 1.109375q1.234375 1.109375 1.234375 2.953125q0 2.234375 -2.859375 5.328125l-4.0625 4.40625l7.609375 0l0 1.578125z"
       fill-rule="nonzero"
       id="path87"
       inkscape:export-xdpi="300"
       inkscape:export-ydpi="300" />
    <path
       fill="#d9d9d9"
       d="m802.2575 402.84485l114.77167 0l0 53.480316l-114.77167 0z"
       fill-rule="evenodd"
       id="path89"
       inkscape:export-xdpi="300"
       inkscape:export-ydpi="300" />
    <path
       stroke="#ffffff"
       stroke-width="1.0"
       stroke-linejoin="round"
       stroke-linecap="butt"
       d="m802.2575 402.84485l114.77167 0l0 53.480316l-114.77167 0z"
       fill-rule="evenodd"
       id="path91"
       inkscape:export-xdpi="300"
       inkscape:export-ydpi="300" />
    <path
       fill="#000000"
       d="m848.263 431.97128l2.109375 0l0 1.578125l-2.109375 0l0 3.515625l-1.9375 0l0 -3.515625l-6.90625 0l0 -1.140625l6.796875 -10.5l2.046875 0l0 10.0625zm-6.65625 0l4.71875 0l0 -7.4375l-0.21875 0.421875l-4.5 7.015625zm10.741882 4.078125q0 -0.5 0.296875 -0.828125q0.296875 -0.328125 0.890625 -0.328125q0.59375 0 0.890625 0.328125q0.3125 0.328125 0.3125 0.828125q0 0.484375 -0.3125 0.8125q-0.296875 0.3125 -0.890625 0.3125q-0.59375 0 -0.890625 -0.3125q-0.296875 -0.328125 -0.296875 -0.8125zm13.503845 -4.078125l2.109375 0l0 1.578125l-2.109375 0l0 3.515625l-1.9375 0l0 -3.515625l-6.90625 0l0 -1.140625l6.796875 -10.5l2.046875 0l0 10.0625zm-6.65625 0l4.71875 0l0 -7.4375l-0.21875 0.421875l-4.5 7.015625zm18.632446 0l2.109375 0l0 1.578125l-2.109375 0l0 3.515625l-1.9375 0l0 -3.515625l-6.90625 0l0 -1.140625l6.796875 -10.5l2.046875 0l0 10.0625zm-6.65625 0l4.71875 0l0 -7.4375l-0.21875 0.421875l-4.5 7.015625z"
       fill-rule="nonzero"
       id="path93"
       inkscape:export-xdpi="300"
       inkscape:export-ydpi="300" />
    <path
       fill="#999999"
       d="m673.1312 159.26321l114.77167 0l0 53.480316l-114.77167 0z"
       fill-rule="evenodd"
       id="path95"
       inkscape:export-xdpi="300"
       inkscape:export-ydpi="300" />
    <path
       stroke="#434343"
       stroke-width="1.0"
       stroke-linejoin="round"
       stroke-linecap="butt"
       d="m673.1312 159.26321l114.77167 0l0 53.480316l-114.77167 0z"
       fill-rule="evenodd"
       id="path97"
       inkscape:export-xdpi="300"
       inkscape:export-ydpi="300" />
    <path
       fill="#ffffff"
       d="m696.3477 188.2515l0 4.671875l-2.734375 0l0 -13.265625l5.171875 0q1.5 0 2.625 0.546875q1.140625 0.546875 1.75 1.5625q0.609375 1.0 0.609375 2.28125q0 1.953125 -1.34375 3.078125q-1.328125 1.125 -3.6875 1.125l-2.390625 0zm0 -2.21875l2.4375 0q1.078125 0 1.640625 -0.5q0.578125 -0.515625 0.578125 -1.46875q0 -0.96875 -0.578125 -1.5625q-0.5625 -0.609375 -1.578125 -0.625l-2.5 0l0 4.15625zm14.65863 -0.5q-0.53125 -0.0625 -0.9375 -0.0625q-1.5 0 -1.96875 1.0l0 6.453125l-2.625 0l0 -9.859375l2.484375 0l0.078125 1.171875q0.78125 -1.34375 2.1875 -1.34375q0.4375 0 0.828125 0.109375l-0.046875 2.53125zm0.5235596 2.375q0 -1.46875 0.5625 -2.609375q0.578125 -1.15625 1.640625 -1.78125q1.0625 -0.625 2.453125 -0.625q2.0 0 3.265625 1.21875q1.265625 1.21875 1.40625 3.3125l0.015625 0.671875q0 2.265625 -1.265625 3.640625q-1.265625 1.375 -3.40625 1.375q-2.125 0 -3.40625 -1.359375q-1.265625 -1.375 -1.265625 -3.734375l0 -0.109375zm2.640625 0.1875q0 1.40625 0.53125 2.15625q0.53125 0.734375 1.515625 0.734375q0.953125 0 1.484375 -0.734375q0.546875 -0.734375 0.546875 -2.34375q0 -1.375 -0.546875 -2.125q-0.53125 -0.765625 -1.515625 -0.765625q-0.953125 0 -1.484375 0.75q-0.53125 0.75 -0.53125 2.328125zm7.908203 -0.171875q0 -2.3125 1.03125 -3.671875q1.046875 -1.359375 2.84375 -1.359375q1.4375 0 2.375 1.0625l0 -5.03125l2.640625 0l0 14.0l-2.375 0l-0.125 -1.046875q-0.984375 1.234375 -2.53125 1.234375q-1.75 0 -2.8125 -1.375q-1.046875 -1.375 -1.046875 -3.8125zm2.640625 0.1875q0 1.390625 0.484375 2.125q0.484375 0.734375 1.40625 0.734375q1.21875 0 1.71875 -1.03125l0 -3.890625q-0.5 -1.015625 -1.703125 -1.015625q-1.90625 0 -1.90625 3.078125zm14.199829 3.8125q-0.984375 1.1875 -2.703125 1.1875q-1.59375 0 -2.421875 -0.90625q-0.828125 -0.921875 -0.84375 -2.671875l0 -6.46875l2.625 0l0 6.375q0 1.53125 1.40625 1.53125q1.34375 0 1.84375 -0.921875l0 -6.984375l2.640625 0l0 9.859375l-2.484375 0l-0.0625 -1.0zm7.673889 -11.28125l0 2.421875l1.6875 0l0 1.9375l-1.6875 0l0 4.921875q0 0.546875 0.203125 0.78125q0.21875 0.234375 0.8125 0.234375q0.4375 0 0.78125 -0.0625l0 2.0q-0.78125 0.234375 -1.59375 0.234375q-2.78125 0 -2.828125 -2.796875l0 -5.3125l-1.4375 0l0 -1.9375l1.4375 0l0 -2.421875l2.625 0zm2.4678345 7.265625q0 -1.46875 0.5625 -2.609375q0.578125 -1.15625 1.640625 -1.78125q1.0625 -0.625 2.453125 -0.625q2.0 0 3.265625 1.21875q1.265625 1.21875 1.40625 3.3125l0.015625 0.671875q0 2.265625 -1.265625 3.640625q-1.265625 1.375 -3.40625 1.375q-2.125 0 -3.40625 -1.359375q-1.265625 -1.375 -1.265625 -3.734375l0 -0.109375zm2.640625 0.1875q0 1.40625 0.53125 2.15625q0.53125 0.734375 1.515625 0.734375q0.953125 0 1.484375 -0.734375q0.546875 -0.734375 0.546875 -2.34375q0 -1.375 -0.546875 -2.125q-0.53125 -0.765625 -1.515625 -0.765625q-0.953125 0 -1.484375 0.75q-0.53125 0.75 -0.53125 2.328125zm13.658142 2.109375q0 -0.484375 -0.484375 -0.765625q-0.46875 -0.28125 -1.515625 -0.5q-3.53125 -0.734375 -3.53125 -2.984375q0 -1.3125 1.09375 -2.1875q1.09375 -0.875 2.84375 -0.875q1.875 0 3.0 0.890625q1.125 0.875 1.125 2.28125l-2.625 0q0 -0.5625 -0.375 -0.921875q-0.359375 -0.375 -1.125 -0.375q-0.671875 0 -1.03125 0.296875q-0.359375 0.296875 -0.359375 0.765625q0 0.4375 0.40625 0.703125q0.421875 0.265625 1.40625 0.46875q0.984375 0.1875 1.65625 0.4375q2.078125 0.765625 2.078125 2.65625q0 1.34375 -1.15625 2.1875q-1.15625 0.828125 -2.984375 0.828125q-1.234375 0 -2.203125 -0.4375q-0.953125 -0.453125 -1.5 -1.21875q-0.546875 -0.765625 -0.546875 -1.671875l2.484375 0q0.046875 0.703125 0.53125 1.078125q0.484375 0.375 1.28125 0.375q0.765625 0 1.140625 -0.28125q0.390625 -0.296875 0.390625 -0.75z"
       fill-rule="nonzero"
       id="path99"
       inkscape:export-xdpi="300"
       inkscape:export-ydpi="300" />
    <path
       fill="#999999"
       d="m802.25806 159.25897l114.77161 0l0 53.480316l-114.77161 0z"
       fill-rule="evenodd"
       id="path101"
       inkscape:export-xdpi="300"
       inkscape:export-ydpi="300" />
    <path
       stroke="#434343"
       stroke-width="1.0"
       stroke-linejoin="round"
       stroke-linecap="butt"
       d="m802.25806 159.25897l114.77161 0l0 53.480316l-114.77161 0z"
       fill-rule="evenodd"
       id="path103"
       inkscape:export-xdpi="300"
       inkscape:export-ydpi="300" />
    <path
       fill="#ffffff"
       d="m833.93 189.63788l3.015625 -9.984375l3.046875 0l-4.625 13.265625l-2.84375 0l-4.609375 -13.265625l3.03125 0l2.984375 9.984375zm12.419006 3.28125q-0.171875 -0.359375 -0.265625 -0.890625q-0.953125 1.078125 -2.484375 1.078125q-1.453125 0 -2.40625 -0.84375q-0.9375 -0.84375 -0.9375 -2.109375q0 -1.578125 1.15625 -2.40625q1.15625 -0.84375 3.359375 -0.84375l1.203125 0l0 -0.578125q0 -0.671875 -0.359375 -1.078125q-0.34375 -0.421875 -1.09375 -0.421875q-0.65625 0 -1.046875 0.328125q-0.375 0.3125 -0.375 0.875l-2.625 0q0 -0.859375 0.515625 -1.578125q0.53125 -0.734375 1.5 -1.140625q0.96875 -0.421875 2.171875 -0.421875q1.8125 0 2.875 0.921875q1.078125 0.90625 1.078125 2.5625l0 4.265625q0.015625 1.40625 0.390625 2.125l0 0.15625l-2.65625 0zm-2.171875 -1.828125q0.578125 0 1.0625 -0.25q0.5 -0.265625 0.734375 -0.703125l0 -1.703125l-0.984375 0q-1.96875 0 -2.09375 1.375l-0.015625 0.15625q0 0.484375 0.34375 0.8125q0.34375 0.3125 0.953125 0.3125zm9.252197 1.828125l-2.65625 0l0 -14.0l2.65625 0l0 14.0zm1.7433472 -5.015625q0 -1.46875 0.5625 -2.609375q0.578125 -1.15625 1.640625 -1.78125q1.0625 -0.625 2.453125 -0.625q2.0 0 3.265625 1.21875q1.265625 1.21875 1.40625 3.3125l0.015625 0.671875q0 2.265625 -1.265625 3.640625q-1.265625 1.375 -3.40625 1.375q-2.125 0 -3.40625 -1.359375q-1.265625 -1.375 -1.265625 -3.734375l0 -0.109375zm2.640625 0.1875q0 1.40625 0.53125 2.15625q0.53125 0.734375 1.515625 0.734375q0.953125 0 1.484375 -0.734375q0.546875 -0.734375 0.546875 -2.34375q0 -1.375 -0.546875 -2.125q-0.53125 -0.765625 -1.515625 -0.765625q-0.953125 0 -1.484375 0.75q-0.53125 0.75 -0.53125 2.328125zm13.861267 -2.5625q-0.53125 -0.0625 -0.9375 -0.0625q-1.5 0 -1.96875 1.0l0 6.453125l-2.625 0l0 -9.859375l2.484375 0l0.078125 1.171875q0.78125 -1.34375 2.1875 -1.34375q0.4375 0 0.828125 0.109375l-0.046875 2.53125zm5.631653 7.578125q-2.171875 0 -3.53125 -1.328125q-1.359375 -1.34375 -1.359375 -3.546875l0 -0.265625q0 -1.484375 0.5625 -2.640625q0.578125 -1.171875 1.625 -1.796875q1.0625 -0.640625 2.40625 -0.640625q2.03125 0 3.1875 1.28125q1.15625 1.265625 1.15625 3.609375l0 1.0625l-6.265625 0q0.125 0.96875 0.765625 1.5625q0.640625 0.578125 1.625 0.578125q1.515625 0 2.375 -1.109375l1.296875 1.453125q-0.59375 0.84375 -1.609375 1.3125q-1.0 0.46875 -2.234375 0.46875zm-0.296875 -8.09375q-0.78125 0 -1.28125 0.53125q-0.484375 0.53125 -0.609375 1.515625l3.65625 0l0 -0.21875q-0.015625 -0.875 -0.484375 -1.34375q-0.453125 -0.484375 -1.28125 -0.484375zm11.1779785 5.1875q0 -0.484375 -0.484375 -0.765625q-0.46875 -0.28125 -1.515625 -0.5q-3.53125 -0.734375 -3.53125 -2.984375q0 -1.3125 1.09375 -2.1875q1.09375 -0.875 2.84375 -0.875q1.875 0 3.0 0.890625q1.125 0.875 1.125 2.28125l-2.625 0q0 -0.5625 -0.375 -0.921875q-0.359375 -0.375 -1.125 -0.375q-0.671875 0 -1.03125 0.296875q-0.359375 0.296875 -0.359375 0.765625q0 0.4375 0.40625 0.703125q0.421875 0.265625 1.40625 0.46875q0.984375 0.1875 1.65625 0.4375q2.078125 0.765625 2.078125 2.65625q0 1.34375 -1.15625 2.1875q-1.15625 0.828125 -2.984375 0.828125q-1.234375 0 -2.203125 -0.4375q-0.953125 -0.453125 -1.5 -1.21875q-0.546875 -0.765625 -0.546875 -1.671875l2.484375 0q0.046875 0.703125 0.53125 1.078125q0.484375 0.375 1.28125 0.375q0.765625 0 1.140625 -0.28125q0.390625 -0.296875 0.390625 -0.75z"
       fill-rule="nonzero"
       id="path105"
       inkscape:export-xdpi="300"
       inkscape:export-ydpi="300" />
    <path
       fill="#000000"
       fill-opacity="0.0"
       d="m648.1705 72.8294l164.69293 0l0 51.71653l-164.69293 0z"
       fill-rule="evenodd"
       id="path107"
       inkscape:export-xdpi="300"
       inkscape:export-ydpi="300" />
    <path
       fill="#000000"
       d="m667.0608 107.4294l0 -18.953125l5.828125 0q2.5 0 4.46875 1.125q1.984375 1.125 3.078125 3.203125q1.109375 2.078125 1.109375 4.71875l0 0.875q0 2.640625 -1.09375 4.703125q-1.078125 2.046875 -3.0625 3.1875q-1.96875 1.125 -4.453125 1.140625l-5.875 0zm3.90625 -15.78125l0 12.640625l1.890625 0q2.296875 0 3.5 -1.484375q1.21875 -1.5 1.234375 -4.296875l0 -1.0q0 -2.890625 -1.203125 -4.375q-1.1875 -1.484375 -3.5 -1.484375l-1.921875 0zm21.3396 15.78125q-0.265625 -0.5 -0.375 -1.265625q-1.375 1.53125 -3.5625 1.53125q-2.0625 0 -3.421875 -1.203125q-1.359375 -1.203125 -1.359375 -3.015625q0 -2.25 1.65625 -3.4375q1.65625 -1.203125 4.796875 -1.21875l1.734375 0l0 -0.796875q0 -0.984375 -0.515625 -1.5625q-0.5 -0.59375 -1.578125 -0.59375q-0.9375 0 -1.484375 0.46875q-0.546875 0.453125 -0.546875 1.234375l-3.75 0q0 -1.21875 0.75 -2.25q0.75 -1.046875 2.125 -1.640625q1.390625 -0.59375 3.109375 -0.59375q2.59375 0 4.125 1.3125q1.53125 1.296875 1.53125 3.671875l0 6.109375q0.015625 2.0 0.5625 3.03125l0 0.21875l-3.796875 0zm-3.109375 -2.609375q0.828125 0 1.53125 -0.375q0.703125 -0.375 1.046875 -1.0l0 -2.421875l-1.40625 0q-2.828125 0 -3.015625 1.953125l-0.015625 0.21875q0 0.703125 0.5 1.171875q0.5 0.453125 1.359375 0.453125zm13.744385 -14.9375l0 3.46875l2.40625 0l0 2.75l-2.40625 0l0 7.03125q0 0.78125 0.296875 1.125q0.296875 0.328125 1.140625 0.328125q0.625 0 1.109375 -0.078125l0 2.84375q-1.109375 0.34375 -2.28125 0.34375q-3.953125 0 -4.03125 -4.0l0 -7.59375l-2.0625 0l0 -2.75l2.0625 0l0 -3.46875l3.765625 0zm12.663147 17.546875q-0.265625 -0.5 -0.375 -1.265625q-1.375 1.53125 -3.5625 1.53125q-2.0625 0 -3.421875 -1.203125q-1.359375 -1.203125 -1.359375 -3.015625q0 -2.25 1.65625 -3.4375q1.65625 -1.203125 4.796875 -1.21875l1.734375 0l0 -0.796875q0 -0.984375 -0.515625 -1.5625q-0.5 -0.59375 -1.578125 -0.59375q-0.9375 0 -1.484375 0.46875q-0.546875 0.453125 -0.546875 1.234375l-3.75 0q0 -1.21875 0.75 -2.25q0.75 -1.046875 2.125 -1.640625q1.390625 -0.59375 3.109375 -0.59375q2.59375 0 4.125 1.3125q1.53125 1.296875 1.53125 3.671875l0 6.109375q0.015625 2.0 0.5625 3.03125l0 0.21875l-3.796875 0zm-3.109375 -2.609375q0.828125 0 1.53125 -0.375q0.703125 -0.375 1.046875 -1.0l0 -2.421875l-1.40625 0q-2.828125 0 -3.015625 1.953125l-0.015625 0.21875q0 0.703125 0.5 1.171875q0.5 0.453125 1.359375 0.453125zm20.88507 -5.140625l-7.5 0l0 7.75l-3.90625 0l0 -18.953125l12.34375 0l0 3.171875l-8.4375 0l0 4.890625l7.5 0l0 3.140625zm10.530701 -2.8125q-0.765625 -0.09375 -1.359375 -0.09375q-2.125 0 -2.796875 1.4375l0 9.21875l-3.765625 0l0 -14.078125l3.5625 0l0.109375 1.671875q1.125 -1.9375 3.125 -1.9375q0.625 0 1.171875 0.171875l-0.046875 3.609375zm9.582153 10.5625q-0.265625 -0.5 -0.375 -1.265625q-1.375 1.53125 -3.5625 1.53125q-2.0625 0 -3.421875 -1.203125q-1.359375 -1.203125 -1.359375 -3.015625q0 -2.25 1.65625 -3.4375q1.65625 -1.203125 4.796875 -1.21875l1.734375 0l0 -0.796875q0 -0.984375 -0.515625 -1.5625q-0.5 -0.59375 -1.578125 -0.59375q-0.9375 0 -1.484375 0.46875q-0.546875 0.453125 -0.546875 1.234375l-3.75 0q0 -1.21875 0.75 -2.25q0.75 -1.046875 2.125 -1.640625q1.390625 -0.59375 3.109375 -0.59375q2.59375 0 4.125 1.3125q1.53125 1.296875 1.53125 3.671875l0 6.109375q0.015625 2.0 0.5625 3.03125l0 0.21875l-3.796875 0zm-3.109375 -2.609375q0.828125 0 1.53125 -0.375q0.703125 -0.375 1.046875 -1.0l0 -2.421875l-1.40625 0q-2.828125 0 -3.015625 1.953125l-0.015625 0.21875q0 0.703125 0.5 1.171875q0.5 0.453125 1.359375 0.453125zm12.760071 -11.46875l0.125 1.5625q1.5 -1.828125 4.046875 -1.828125q2.71875 0 3.734375 2.140625q1.484375 -2.140625 4.234375 -2.140625q2.28125 0 3.390625 1.34375q1.125 1.328125 1.125 4.0l0 9.0l-3.765625 0l0 -8.984375q0 -1.1875 -0.46875 -1.734375q-0.46875 -0.5625 -1.65625 -0.5625q-1.6875 0 -2.34375 1.609375l0.015625 9.671875l-3.765625 0l0 -8.96875q0 -1.21875 -0.484375 -1.765625q-0.46875 -0.546875 -1.640625 -0.546875q-1.59375 0 -2.3125 1.328125l0 9.953125l-3.765625 0l0 -14.078125l3.53125 0zm26.03003 14.34375q-3.09375 0 -5.046875 -1.90625q-1.9375 -1.90625 -1.9375 -5.0625l0 -0.359375q0 -2.125 0.8125 -3.796875q0.828125 -1.671875 2.328125 -2.578125q1.5 -0.90625 3.4375 -0.90625q2.890625 0 4.546875 1.828125q1.65625 1.8125 1.65625 5.15625l0 1.546875l-8.96875 0q0.1875 1.375 1.09375 2.21875q0.921875 0.828125 2.328125 0.828125q2.171875 0 3.40625 -1.578125l1.84375 2.0625q-0.84375 1.203125 -2.296875 1.875q-1.4375 0.671875 -3.203125 0.671875zm-0.421875 -11.5625q-1.125 0 -1.828125 0.765625q-0.6875 0.75 -0.875 2.15625l5.21875 0l0 -0.3125q-0.015625 -1.25 -0.671875 -1.921875q-0.65625 -0.6875 -1.84375 -0.6875z"
       fill-rule="nonzero"
       id="path109"
       inkscape:export-xdpi="300"
       inkscape:export-ydpi="300" />
    <path
       fill="#999999"
       d="m353.0392 176.24821l84.63107 0l0 48.27501l-84.63107 0z"
       fill-rule="evenodd"
       id="path111"
       inkscape:export-xdpi="300"
       inkscape:export-ydpi="300" />
    <path
       stroke="#434343"
       stroke-width="1.0"
       stroke-linejoin="round"
       stroke-linecap="butt"
       d="m353.0392 176.24821l84.63107 0l0 48.27501l-84.63107 0z"
       fill-rule="evenodd"
       id="path113"
       inkscape:export-xdpi="300"
       inkscape:export-ydpi="300" />
    <path
       fill="#ffffff"
       d="m381.67114 203.41759l2.578125 -8.546875l2.609375 0l-3.953125 11.375l-2.453125 0l-3.9375 -11.375l2.59375 0l2.5625 8.546875zm10.6484375 2.828125q-0.15625 -0.3125 -0.21875 -0.765625q-0.828125 0.921875 -2.140625 0.921875q-1.234375 0 -2.0625 -0.71875q-0.8125 -0.71875 -0.8125 -1.8125q0 -1.34375 1.0 -2.0625q1.0 -0.71875 2.875 -0.734375l1.046875 0l0 -0.484375q0 -0.578125 -0.3125 -0.921875q-0.296875 -0.359375 -0.9375 -0.359375q-0.578125 0 -0.90625 0.28125q-0.3125 0.265625 -0.3125 0.734375l-2.265625 0q0 -0.734375 0.453125 -1.359375q0.453125 -0.625 1.28125 -0.96875q0.828125 -0.359375 1.859375 -0.359375q1.5625 0 2.484375 0.78125q0.921875 0.78125 0.921875 2.203125l0 3.671875q0 1.203125 0.328125 1.8125l0 0.140625l-2.28125 0zm-1.859375 -1.578125q0.5 0 0.921875 -0.21875q0.421875 -0.21875 0.625 -0.59375l0 -1.453125l-0.84375 0q-1.703125 0 -1.8125 1.171875l0 0.125q0 0.421875 0.296875 0.703125q0.296875 0.265625 0.8125 0.265625zm7.921875 1.578125l-2.265625 0l0 -12.0l2.265625 0l0 12.0zm1.5078125 -4.3125q0 -1.25 0.484375 -2.234375q0.484375 -0.984375 1.390625 -1.515625q0.921875 -0.546875 2.125 -0.546875q1.703125 0 2.78125 1.046875q1.09375 1.046875 1.21875 2.84375l0.015625 0.578125q0 1.9375 -1.09375 3.125q-1.078125 1.171875 -2.90625 1.171875q-1.828125 0 -2.921875 -1.171875q-1.09375 -1.171875 -1.09375 -3.1875l0 -0.109375zm2.265625 0.171875q0 1.203125 0.453125 1.84375q0.453125 0.625 1.296875 0.625q0.8125 0 1.265625 -0.625q0.46875 -0.625 0.46875 -2.015625q0 -1.171875 -0.46875 -1.8125q-0.453125 -0.65625 -1.28125 -0.65625q-0.828125 0 -1.28125 0.640625q-0.453125 0.640625 -0.453125 2.0zm11.890625 -2.203125q-0.46875 -0.0625 -0.8125 -0.0625q-1.28125 0 -1.6875 0.875l0 5.53125l-2.25 0l0 -8.453125l2.125 0l0.0625 1.0q0.6875 -1.15625 1.890625 -1.15625q0.375 0 0.703125 0.09375l-0.03125 2.171875z"
       fill-rule="nonzero"
       id="path115"
       inkscape:export-xdpi="300"
       inkscape:export-ydpi="300" />
    <path
       fill="#d9d9d9"
       d="m353.0392 231.21843l84.63107 0l0 48.27498l-84.63107 0z"
       fill-rule="evenodd"
       id="path117"
       inkscape:export-xdpi="300"
       inkscape:export-ydpi="300" />
    <path
       stroke="#ffffff"
       stroke-width="1.0"
       stroke-linejoin="round"
       stroke-linecap="butt"
       d="m353.0392 231.21843l84.63107 0l0 48.27498l-84.63107 0z"
       fill-rule="evenodd"
       id="path119"
       inkscape:export-xdpi="300"
       inkscape:export-ydpi="300" />
    <path
       fill="#000000"
       d="m382.1852 260.4359l-1.328125 0l0 -8.82811l-2.671875 0.984375l0 -1.203125l3.796875 -1.421875l0.203125 0l0 10.468735zm8.948578 -4.5781097q-0.40625 0.48435974 -0.984375 0.79685974q-0.578125 0.296875 -1.265625 0.296875q-0.90625 0 -1.578125 -0.4375q-0.65625 -0.453125 -1.03125 -1.2499847q-0.359375 -0.8125 -0.359375 -1.78125q0 -1.046875 0.390625 -1.875q0.40625 -0.84375 1.125 -1.28125q0.734375 -0.453125 1.703125 -0.453125q1.546875 0 2.4375 1.15625q0.890625 1.15625 0.890625 3.15625l0 0.375q0 3.0468597 -1.203125 4.4531097q-1.203125 1.390625 -3.625 1.421875l-0.25 0l0 -1.109375l0.28125 0q1.625 -0.03125 2.5 -0.859375q0.890625 -0.828125 0.96875 -2.6093597zm-2.03125 0q0.65625 0 1.21875 -0.40625q0.5625 -0.40625 0.828125 -1.015625l0 -0.53125q0 -1.296875 -0.578125 -2.109375q-0.5625 -0.8125 -1.421875 -0.8125q-0.875 0 -1.40625 0.671875q-0.53125 0.65625 -0.53125 1.75q0 1.0625 0.515625 1.765625q0.515625 0.6875 1.375 0.6875zm5.354828 3.8906097q0 -0.34375 0.203125 -0.578125q0.203125 -0.234375 0.609375 -0.234375q0.40625 0 0.609375 0.234375q0.21875 0.234375 0.21875 0.578125q0 0.328125 -0.21875 0.546875q-0.203125 0.21875 -0.609375 0.21875q-0.40625 0 -0.609375 -0.21875q-0.203125 -0.21875 -0.203125 -0.546875zm8.763519 -3.8906097q-0.40625 0.48435974 -0.984375 0.79685974q-0.578125 0.296875 -1.265625 0.296875q-0.90625 0 -1.578125 -0.4375q-0.65625 -0.453125 -1.03125 -1.2499847q-0.359375 -0.8125 -0.359375 -1.78125q0 -1.046875 0.390625 -1.875q0.40625 -0.84375 1.125 -1.28125q0.734375 -0.453125 1.703125 -0.453125q1.546875 0 2.4375 1.15625q0.890625 1.15625 0.890625 3.15625l0 0.375q0 3.0468597 -1.203125 4.4531097q-1.203125 1.390625 -3.625 1.421875l-0.25 0l0 -1.109375l0.28125 0q1.625 -0.03125 2.5 -0.859375q0.890625 -0.828125 0.96875 -2.6093597zm-2.03125 0q0.65625 0 1.21875 -0.40625q0.5625 -0.40625 0.828125 -1.015625l0 -0.53125q0 -1.296875 -0.578125 -2.109375q-0.5625 -0.8125 -1.421875 -0.8125q-0.875 0 -1.40625 0.671875q-0.53125 0.65625 -0.53125 1.75q0 1.0625 0.515625 1.765625q0.515625 0.6875 1.375 0.6875zm11.729828 0.140625q0 2.3124847 -0.796875 3.4531097q-0.796875 1.125 -2.484375 1.125q-1.671875 0 -2.46875 -1.09375q-0.796875 -1.109375 -0.828125 -3.3125l0 -1.7656097q0 -2.296875 0.78125 -3.40625q0.796875 -1.125 2.5 -1.125q1.6875 0 2.46875 1.078125q0.796875 1.078125 0.828125 3.328125l0 1.71875zm-1.328125 -1.8125q0 -1.6875 -0.484375 -2.453125q-0.46875 -0.765625 -1.484375 -0.765625q-1.015625 0 -1.484375 0.765625q-0.46875 0.765625 -0.484375 2.34375l0 2.1249847q0 1.6875 0.484375 2.5q0.5 0.796875 1.5 0.796875q0.984375 0 1.453125 -0.75q0.46875 -0.765625 0.5 -2.40625l0 -2.1562347z"
       fill-rule="nonzero"
       id="path121"
       inkscape:export-xdpi="300"
       inkscape:export-ydpi="300" />
    <path
       fill="#d9d9d9"
       d="m353.0392 286.18863l84.63107 0l0 48.274994l-84.63107 0z"
       fill-rule="evenodd"
       id="path123"
       inkscape:export-xdpi="300"
       inkscape:export-ydpi="300" />
    <path
       stroke="#ffffff"
       stroke-width="1.0"
       stroke-linejoin="round"
       stroke-linecap="butt"
       d="m353.0392 286.18863l84.63107 0l0 48.274994l-84.63107 0z"
       fill-rule="evenodd"
       id="path125"
       inkscape:export-xdpi="300"
       inkscape:export-ydpi="300" />
    <path
       fill="#000000"
       d="m388.6751 305.73425l-4.3125 9.671875l-1.390625 0l4.296875 -9.328125l-5.640625 0l0 -1.09375l7.046875 0l0 0.75zm1.6673279 8.984375q0 -0.34375 0.203125 -0.578125q0.203125 -0.234375 0.609375 -0.234375q0.40625 0 0.609375 0.234375q0.21875 0.234375 0.21875 0.578125q0 0.328125 -0.21875 0.546875q-0.203125 0.21875 -0.609375 0.21875q-0.40625 0 -0.609375 -0.21875q-0.203125 -0.21875 -0.203125 -0.546875zm4.2948 -4.53125l0.53125 -5.203125l5.34375 0l0 1.21875l-4.21875 0l-0.3125 2.84375q0.765625 -0.453125 1.734375 -0.453125q1.421875 0 2.265625 0.953125q0.84375 0.9375 0.84375 2.53125q0 1.625 -0.875 2.546875q-0.875 0.921875 -2.4375 0.921875q-1.375 0 -2.25 -0.765625q-0.875 -0.765625 -0.984375 -2.109375l1.25 0q0.109375 0.890625 0.625 1.34375q0.515625 0.453125 1.359375 0.453125q0.9375 0 1.453125 -0.625q0.53125 -0.640625 0.53125 -1.75q0 -1.03125 -0.578125 -1.671875q-0.5625 -0.640625 -1.5 -0.640625q-0.875 0 -1.359375 0.390625l-0.359375 0.28125l-1.0625 -0.265625zm12.823578 -5.203125l0 1.125l-0.25 0q-1.546875 0.015625 -2.46875 0.90625q-0.90625 0.890625 -1.046875 2.5q0.828125 -0.9375 2.25 -0.9375q1.359375 0 2.171875 0.953125q0.8125 0.953125 0.8125 2.46875q0 1.609375 -0.875 2.578125q-0.875 0.96875 -2.359375 0.96875q-1.484375 0 -2.421875 -1.140625q-0.9375 -1.15625 -0.9375 -2.96875l0 -0.5q0 -2.875 1.234375 -4.390625q1.234375 -1.53125 3.65625 -1.5625l0.234375 0zm-1.734375 4.6875q-0.6875 0 -1.265625 0.40625q-0.5625 0.40625 -0.78125 1.03125l0 0.484375q0 1.28125 0.578125 2.078125q0.578125 0.78125 1.4375 0.78125q0.90625 0 1.40625 -0.65625q0.515625 -0.65625 0.515625 -1.71875q0 -1.078125 -0.515625 -1.734375q-0.515625 -0.671875 -1.375 -0.671875z"
       fill-rule="nonzero"
       id="path127"
       inkscape:export-xdpi="300"
       inkscape:export-ydpi="300" />
    <path
       fill="#d9d9d9"
       d="m353.0392 341.1588l84.63107 0l0 48.275024l-84.63107 0z"
       fill-rule="evenodd"
       id="path129"
       inkscape:export-xdpi="300"
       inkscape:export-ydpi="300" />
    <path
       stroke="#ffffff"
       stroke-width="1.0"
       stroke-linejoin="round"
       stroke-linecap="butt"
       d="m353.0392 341.1588l84.63107 0l0 48.275024l-84.63107 0z"
       fill-rule="evenodd"
       id="path131"
       inkscape:export-xdpi="300"
       inkscape:export-ydpi="300" />
    <path
       fill="#000000"
       d="m383.87823 364.51694l0.984375 0q0.9375 -0.015625 1.46875 -0.484375q0.546875 -0.484375 0.546875 -1.296875q0 -1.828125 -1.828125 -1.828125q-0.859375 0 -1.375 0.484375q-0.5 0.484375 -0.5 1.296875l-1.328125 0q0 -1.234375 0.90625 -2.046875q0.90625 -0.828125 2.296875 -0.828125q1.484375 0 2.3125 0.78125q0.84375 0.78125 0.84375 2.171875q0 0.671875 -0.453125 1.3125q-0.4375 0.640625 -1.1875 0.953125q0.859375 0.265625 1.328125 0.90625q0.46875 0.625 0.46875 1.53125q0 1.40625 -0.921875 2.234375q-0.90625 0.8125 -2.375 0.8125q-1.46875 0 -2.390625 -0.796875q-0.921875 -0.796875 -0.921875 -2.09375l1.328125 0q0 0.828125 0.53125 1.328125q0.546875 0.484375 1.453125 0.484375q0.953125 0 1.453125 -0.5q0.515625 -0.5 0.515625 -1.4375q0 -0.90625 -0.5625 -1.390625q-0.546875 -0.5 -1.609375 -0.5l-0.984375 0l0 -1.09375zm6.464203 5.171875q0 -0.34375 0.203125 -0.578125q0.203125 -0.234375 0.609375 -0.234375q0.40625 0 0.609375 0.234375q0.21875 0.234375 0.21875 0.578125q0 0.328125 -0.21875 0.546875q-0.203125 0.21875 -0.609375 0.21875q-0.40625 0 -0.609375 -0.21875q-0.203125 -0.21875 -0.203125 -0.546875zm8.0448 0.6875l-1.328125 0l0 -8.828125l-2.671875 0.984375l0 -1.203125l3.796875 -1.421875l0.203125 0l0 10.46875zm10.698578 0l-6.828125 0l0 -0.953125l3.609375 -4.0q0.8125 -0.921875 1.109375 -1.484375q0.296875 -0.5625 0.296875 -1.171875q0 -0.828125 -0.5 -1.34375q-0.484375 -0.515625 -1.296875 -0.515625q-1.0 0 -1.546875 0.5625q-0.546875 0.5625 -0.546875 1.5625l-1.3125 0q0 -1.4375 0.921875 -2.328125q0.921875 -0.890625 2.484375 -0.890625q1.453125 0 2.296875 0.765625q0.84375 0.765625 0.84375 2.03125q0 1.53125 -1.96875 3.65625l-2.78125 3.03125l5.21875 0l0 1.078125z"
       fill-rule="nonzero"
       id="path133"
       inkscape:export-xdpi="300"
       inkscape:export-ydpi="300" />
    <path
       fill="#d9d9d9"
       d="m353.0392 396.12903l84.63107 0l0 48.274994l-84.63107 0z"
       fill-rule="evenodd"
       id="path135"
       inkscape:export-xdpi="300"
       inkscape:export-ydpi="300" />
    <path
       stroke="#ffffff"
       stroke-width="1.0"
       stroke-linejoin="round"
       stroke-linecap="butt"
       d="m353.0392 396.12903l84.63107 0l0 48.274994l-84.63107 0z"
       fill-rule="evenodd"
       id="path137"
       inkscape:export-xdpi="300"
       inkscape:export-ydpi="300" />
    <path
       fill="#000000"
       d="m387.5345 421.84653l1.453125 0l0 1.078125l-1.453125 0l0 2.421875l-1.328125 0l0 -2.421875l-4.75 0l0 -0.78125l4.671875 -7.21875l1.40625 0l0 6.921875zm-4.578125 0l3.25 0l0 -5.109375l-0.15625 0.28125l-3.09375 4.828125zm7.386078 2.8125q0 -0.34375 0.203125 -0.578125q0.203125 -0.234375 0.609375 -0.234375q0.40625 0 0.609375 0.234375q0.21875 0.234375 0.21875 0.578125q0 0.328125 -0.21875 0.546875q-0.203125 0.21875 -0.609375 0.21875q-0.40625 0 -0.609375 -0.21875q-0.203125 -0.21875 -0.203125 -0.546875zm9.279175 -2.8125l1.453125 0l0 1.078125l-1.453125 0l0 2.421875l-1.328125 0l0 -2.421875l-4.75 0l0 -0.78125l4.671875 -7.21875l1.40625 0l0 6.921875zm-4.578125 0l3.25 0l0 -5.109375l-0.15625 0.28125l-3.09375 4.828125zm12.807953 0l1.453125 0l0 1.078125l-1.453125 0l0 2.421875l-1.328125 0l0 -2.421875l-4.75 0l0 -0.78125l4.671875 -7.21875l1.40625 0l0 6.921875zm-4.578125 0l3.25 0l0 -5.109375l-0.15625 0.28125l-3.09375 4.828125z"
       fill-rule="nonzero"
       id="path139"
       inkscape:export-xdpi="300"
       inkscape:export-ydpi="300" />
    <path
       fill="#999999"
       d="m260.73483 231.21843l84.63107 0l0 48.27498l-84.63107 0z"
       fill-rule="evenodd"
       id="path141"
       inkscape:export-xdpi="300"
       inkscape:export-ydpi="300" />
    <path
       stroke="#434343"
       stroke-width="1.0"
       stroke-linejoin="round"
       stroke-linecap="butt"
       d="m260.73483 231.21843l84.63107 0l0 48.27498l-84.63107 0z"
       fill-rule="evenodd"
       id="path143"
       inkscape:export-xdpi="300"
       inkscape:export-ydpi="300" />
    <path
       fill="#ffffff"
       d="m304.86078 261.4959l-2.453125 0l0 -9.42186l-2.921875 0.90625l0 -2.0l5.109375 -1.828125l0.265625 0l0 12.343735z"
       fill-rule="nonzero"
       id="path145"
       inkscape:export-xdpi="300"
       inkscape:export-ydpi="300" />
    <path
       fill="#999999"
       d="m260.73483 286.18863l84.63107 0l0 48.274994l-84.63107 0z"
       fill-rule="evenodd"
       id="path147"
       inkscape:export-xdpi="300"
       inkscape:export-ydpi="300" />
    <path
       stroke="#434343"
       stroke-width="1.0"
       stroke-linejoin="round"
       stroke-linecap="butt"
       d="m260.73483 286.18863l84.63107 0l0 48.274994l-84.63107 0z"
       fill-rule="evenodd"
       id="path149"
       inkscape:export-xdpi="300"
       inkscape:export-ydpi="300" />
    <path
       fill="#ffffff"
       d="m307.36078 316.46613l-8.4375 0l0 -1.671875l3.984375 -4.25q0.8125 -0.890625 1.203125 -1.5625q0.40625 -0.671875 0.40625 -1.265625q0 -0.828125 -0.421875 -1.296875q-0.421875 -0.46875 -1.1875 -0.46875q-0.828125 0 -1.3125 0.578125q-0.46875 0.5625 -0.46875 1.5l-2.453125 0q0 -1.125 0.53125 -2.0625q0.546875 -0.9375 1.515625 -1.453125q0.984375 -0.53125 2.234375 -0.53125q1.90625 0 2.953125 0.921875q1.0625 0.90625 1.0625 2.5625q0 0.921875 -0.484375 1.875q-0.46875 0.9375 -1.625 2.203125l-2.796875 2.953125l5.296875 0l0 1.96875z"
       fill-rule="nonzero"
       id="path151"
       inkscape:export-xdpi="300"
       inkscape:export-ydpi="300" />
    <path
       fill="#999999"
       d="m260.73483 341.1588l84.63107 0l0 48.275024l-84.63107 0z"
       fill-rule="evenodd"
       id="path153"
       inkscape:export-xdpi="300"
       inkscape:export-ydpi="300" />
    <path
       stroke="#434343"
       stroke-width="1.0"
       stroke-linejoin="round"
       stroke-linecap="butt"
       d="m260.73483 341.1588l84.63107 0l0 48.275024l-84.63107 0z"
       fill-rule="evenodd"
       id="path155"
       inkscape:export-xdpi="300"
       inkscape:export-ydpi="300" />
    <path
       fill="#ffffff"
       d="m301.40765 364.18634l1.296875 0q0.9375 0 1.375 -0.453125q0.453125 -0.46875 0.453125 -1.234375q0 -0.75 -0.453125 -1.15625q-0.4375 -0.421875 -1.21875 -0.421875q-0.6875 0 -1.171875 0.390625q-0.46875 0.375 -0.46875 1.0l-2.453125 0q0 -0.96875 0.515625 -1.734375q0.53125 -0.765625 1.46875 -1.1875q0.9375 -0.4375 2.0625 -0.4375q1.953125 0 3.0625 0.9375q1.109375 0.921875 1.109375 2.5625q0 0.859375 -0.515625 1.578125q-0.515625 0.703125 -1.359375 1.078125q1.046875 0.375 1.546875 1.125q0.515625 0.734375 0.515625 1.75q0 1.640625 -1.203125 2.640625q-1.1875 0.984375 -3.15625 0.984375q-1.84375 0 -3.015625 -0.96875q-1.171875 -0.984375 -1.171875 -2.578125l2.4375 0q0 0.6875 0.515625 1.140625q0.53125 0.4375 1.28125 0.4375q0.875 0 1.375 -0.453125q0.5 -0.46875 0.5 -1.234375q0 -1.84375 -2.03125 -1.84375l-1.296875 0l0 -1.921875z"
       fill-rule="nonzero"
       id="path157"
       inkscape:export-xdpi="300"
       inkscape:export-ydpi="300" />
    <path
       fill="#999999"
       d="m260.73483 396.12903l84.63107 0l0 48.274994l-84.63107 0z"
       fill-rule="evenodd"
       id="path159"
       inkscape:export-xdpi="300"
       inkscape:export-ydpi="300" />
    <path
       stroke="#434343"
       stroke-width="1.0"
       stroke-linejoin="round"
       stroke-linecap="butt"
       d="m260.73483 396.12903l84.63107 0l0 48.274994l-84.63107 0z"
       fill-rule="evenodd"
       id="path161"
       inkscape:export-xdpi="300"
       inkscape:export-ydpi="300" />
    <path
       fill="#ffffff"
       d="m306.15765 421.7659l1.390625 0l0 1.96875l-1.390625 0l0 2.671875l-2.453125 0l0 -2.671875l-5.046875 0l-0.109375 -1.53125l5.125 -8.109375l2.484375 0l0 7.671875zm-5.171875 0l2.71875 0l0 -4.34375l-0.15625 0.28125l-2.5625 4.0625z"
       fill-rule="nonzero"
       id="path163"
       inkscape:export-xdpi="300"
       inkscape:export-ydpi="300" />
    <path
       fill="#999999"
       d="m126.11219 176.25319l84.62711 0l0 48.2816l-84.62711 0z"
       fill-rule="evenodd"
       id="path165"
       inkscape:export-xdpi="300"
       inkscape:export-ydpi="300" />
    <path
       stroke="#434343"
       stroke-width="1.0"
       stroke-linejoin="round"
       stroke-linecap="butt"
       d="m126.11219 176.25319l84.62711 0l0 48.2816l-84.62711 0z"
       fill-rule="evenodd"
       id="path167"
       inkscape:export-xdpi="300"
       inkscape:export-ydpi="300" />
    <path
       fill="#ffffff"
       d="m143.23044 202.23836l0 4.015625l-2.34375 0l0 -11.375l4.4375 0q1.28125 0 2.25 0.46875q0.984375 0.46875 1.5 1.328125q0.53125 0.859375 0.53125 1.96875q0 1.671875 -1.15625 2.640625q-1.140625 0.953125 -3.15625 0.953125l-2.0625 0zm0 -1.890625l2.09375 0q0.9375 0 1.421875 -0.4375q0.484375 -0.4375 0.484375 -1.25q0 -0.84375 -0.5 -1.359375q-0.484375 -0.515625 -1.34375 -0.53125l-2.15625 0l0 3.578125zm12.5859375 -0.4375q-0.46875 -0.0625 -0.8125 -0.0625q-1.28125 0 -1.6875 0.875l0 5.53125l-2.25 0l0 -8.453125l2.125 0l0.0625 1.0q0.6875 -1.15625 1.890625 -1.15625q0.375 0 0.703125 0.09375l-0.03125 2.171875zm0.4453125 2.03125q0 -1.25 0.484375 -2.234375q0.484375 -0.984375 1.390625 -1.515625q0.921875 -0.546875 2.125 -0.546875q1.703125 0 2.78125 1.046875q1.09375 1.046875 1.21875 2.84375l0.015625 0.578125q0 1.9375 -1.09375 3.125q-1.078125 1.171875 -2.90625 1.171875q-1.828125 0 -2.921875 -1.171875q-1.09375 -1.171875 -1.09375 -3.1875l0 -0.109375zm2.265625 0.171875q0 1.203125 0.453125 1.84375q0.453125 0.625 1.296875 0.625q0.8125 0 1.265625 -0.625q0.46875 -0.625 0.46875 -2.015625q0 -1.171875 -0.46875 -1.8125q-0.453125 -0.65625 -1.28125 -0.65625q-0.828125 0 -1.28125 0.640625q-0.453125 0.640625 -0.453125 2.0zm6.78125 -0.15625q0 -1.96875 0.890625 -3.140625q0.890625 -1.171875 2.421875 -1.171875q1.234375 0 2.046875 0.921875l0 -4.3125l2.265625 0l0 12.0l-2.046875 0l-0.109375 -0.90625q-0.84375 1.0625 -2.171875 1.0625q-1.484375 0 -2.390625 -1.171875q-0.90625 -1.1875 -0.90625 -3.28125zm2.265625 0.171875q0 1.1875 0.40625 1.828125q0.421875 0.625 1.203125 0.625q1.046875 0 1.484375 -0.890625l0 -3.328125q-0.421875 -0.890625 -1.46875 -0.890625q-1.625 0 -1.625 2.65625zm12.171875 3.265625q-0.84375 1.015625 -2.3125 1.015625q-1.359375 0 -2.078125 -0.78125q-0.71875 -0.78125 -0.734375 -2.296875l0 -5.53125l2.265625 0l0 5.453125q0 1.328125 1.203125 1.328125q1.140625 0 1.578125 -0.796875l0 -5.984375l2.265625 0l0 8.453125l-2.125 0l-0.0625 -0.859375zm6.59375 -9.671875l0 2.078125l1.4375 0l0 1.65625l-1.4375 0l0 4.21875q0 0.46875 0.171875 0.671875q0.1875 0.203125 0.6875 0.203125q0.375 0 0.671875 -0.0625l0 1.71875q-0.671875 0.203125 -1.375 0.203125q-2.375 0 -2.421875 -2.40625l0 -4.546875l-1.234375 0l0 -1.65625l1.234375 0l0 -2.078125l2.265625 0zm2.109375 6.21875q0 -1.25 0.484375 -2.234375q0.484375 -0.984375 1.390625 -1.515625q0.921875 -0.546875 2.125 -0.546875q1.703125 0 2.78125 1.046875q1.09375 1.046875 1.21875 2.84375l0.015625 0.578125q0 1.9375 -1.09375 3.125q-1.078125 1.171875 -2.90625 1.171875q-1.828125 0 -2.921875 -1.171875q-1.09375 -1.171875 -1.09375 -3.1875l0 -0.109375zm2.265625 0.171875q0 1.203125 0.453125 1.84375q0.453125 0.625 1.296875 0.625q0.8125 0 1.265625 -0.625q0.46875 -0.625 0.46875 -2.015625q0 -1.171875 -0.46875 -1.8125q-0.453125 -0.65625 -1.28125 -0.65625q-0.828125 0 -1.28125 0.640625q-0.453125 0.640625 -0.453125 2.0z"
       fill-rule="nonzero"
       id="path169"
       inkscape:export-xdpi="300"
       inkscape:export-ydpi="300" />
    <path
       fill="#d9d9d9"
       d="m126.11219 231.21967l84.62711 0l0 48.281586l-84.62711 0z"
       fill-rule="evenodd"
       id="path171"
       inkscape:export-xdpi="300"
       inkscape:export-ydpi="300" />
    <path
       stroke="#ffffff"
       stroke-width="1.0"
       stroke-linejoin="round"
       stroke-linecap="butt"
       d="m126.11219 231.21967l84.62711 0l0 48.281586l-84.62711 0z"
       fill-rule="evenodd"
       id="path173"
       inkscape:export-xdpi="300"
       inkscape:export-ydpi="300" />
    <path
       fill="#000000"
       d="m146.83136 249.31546l0.75 0.515625q-0.65625 0.90625 -0.6875 1.953125l0 0.984375l-1.3125 0l0 -0.84375q0 -0.71875 0.34375 -1.4375q0.34375 -0.71875 0.90625 -1.171875zm2.25 0l0.75 0.515625q-0.65625 0.90625 -0.6875 1.953125l0 0.984375l-1.3125 0l0 -0.84375q0 -0.71875 0.34375 -1.4375q0.34375 -0.71875 0.90625 -1.171875zm3.9155884 0.703125l3.40625 8.5l3.40625 -8.5l1.78125 0l0 10.421875l-1.375 0l0 -4.0625l0.125 -4.375l-3.421875 8.4375l-1.046875 0l-3.40625 -8.421875l0.125 4.359375l0 4.0625l-1.375 0l0 -10.421875l1.78125 0zm15.592468 10.421875q-0.109375 -0.234375 -0.1875 -0.8125q-0.921875 0.953125 -2.203125 0.953125q-1.140625 0 -1.875 -0.640625q-0.734375 -0.65625 -0.734375 -1.640625q0 -1.21875 0.921875 -1.875q0.921875 -0.671875 2.578125 -0.671875l1.296875 0l0 -0.609375q0 -0.703125 -0.421875 -1.109375q-0.40625 -0.40625 -1.21875 -0.40625q-0.703125 0 -1.1875 0.359375q-0.484375 0.34375 -0.484375 0.859375l-1.328125 0q0 -0.578125 0.40625 -1.109375q0.421875 -0.546875 1.125 -0.859375q0.703125 -0.328125 1.546875 -0.328125q1.34375 0 2.09375 0.671875q0.765625 0.671875 0.796875 1.84375l0 3.5625q0 1.0625 0.265625 1.703125l0 0.109375l-1.390625 0zm-2.203125 -1.015625q0.625 0 1.1875 -0.3125q0.5625 -0.328125 0.8125 -0.84375l0 -1.578125l-1.046875 0q-2.421875 0 -2.421875 1.421875q0 0.625 0.40625 0.96875q0.421875 0.34375 1.0625 0.34375zm9.1440735 -5.546875q-0.3125 -0.046875 -0.65625 -0.046875q-1.296875 0 -1.765625 1.109375l0 5.5l-1.328125 0l0 -7.75l1.296875 0l0.015625 0.90625q0.65625 -1.046875 1.84375 -1.046875q0.390625 0 0.59375 0.109375l0 1.21875zm2.6468658 6.5625l-1.328125 0l0 -7.75l1.328125 0l0 7.75zm-1.421875 -9.796875q0 -0.328125 0.1875 -0.546875q0.203125 -0.21875 0.578125 -0.21875q0.390625 0 0.59375 0.21875q0.203125 0.21875 0.203125 0.546875q0 0.328125 -0.203125 0.546875q-0.203125 0.203125 -0.59375 0.203125q-0.375 0 -0.578125 -0.203125q-0.1875 -0.21875 -0.1875 -0.546875zm8.322342 9.796875q-0.109375 -0.234375 -0.1875 -0.8125q-0.921875 0.953125 -2.203125 0.953125q-1.140625 0 -1.875 -0.640625q-0.734375 -0.65625 -0.734375 -1.640625q0 -1.21875 0.921875 -1.875q0.921875 -0.671875 2.578125 -0.671875l1.296875 0l0 -0.609375q0 -0.703125 -0.421875 -1.109375q-0.40625 -0.40625 -1.21875 -0.40625q-0.703125 0 -1.1875 0.359375q-0.484375 0.34375 -0.484375 0.859375l-1.328125 0q0 -0.578125 0.40625 -1.109375q0.421875 -0.546875 1.125 -0.859375q0.703125 -0.328125 1.546875 -0.328125q1.34375 0 2.09375 0.671875q0.765625 0.671875 0.796875 1.84375l0 3.5625q0 1.0625 0.265625 1.703125l0 0.109375l-1.390625 0zm-2.203125 -1.015625q0.625 0 1.1875 -0.3125q0.5625 -0.328125 0.8125 -0.84375l0 -1.578125l-1.046875 0q-2.421875 0 -2.421875 1.421875q0 0.625 0.40625 0.96875q0.421875 0.34375 1.0625 0.34375zm5.086136 -6.46875l-0.75 -0.515625q0.671875 -0.9375 0.6875 -1.96875l0 -1.03125l1.3125 0l0 0.9375q-0.015625 0.71875 -0.359375 1.4375q-0.34375 0.703125 -0.890625 1.140625zm2.203125 0l-0.75 -0.515625q0.671875 -0.9375 0.6875 -1.96875l0 -1.03125l1.3125 0l0 0.9375q-0.015625 0.71875 -0.359375 1.4375q-0.34375 0.703125 -0.890625 1.140625z"
       fill-rule="nonzero"
       id="path175"
       inkscape:export-xdpi="300"
       inkscape:export-ydpi="300" />
    <path
       fill="#d9d9d9"
       d="m126.11219 286.18616l84.62711 0l0 48.281586l-84.62711 0z"
       fill-rule="evenodd"
       id="path177"
       inkscape:export-xdpi="300"
       inkscape:export-ydpi="300" />
    <path
       stroke="#ffffff"
       stroke-width="1.0"
       stroke-linejoin="round"
       stroke-linecap="butt"
       d="m126.11219 286.18616l84.62711 0l0 48.281586l-84.62711 0z"
       fill-rule="evenodd"
       id="path179"
       inkscape:export-xdpi="300"
       inkscape:export-ydpi="300" />
    <path
       fill="#000000"
       d="m141.804 304.28195l0.75 0.515625q-0.65625 0.90625 -0.6875 1.953125l0 0.984375l-1.3125 0l0 -0.84375q0 -0.71875 0.34375 -1.4375q0.34375 -0.71875 0.90625 -1.171875zm2.25 0l0.75 0.515625q-0.65625 0.90625 -0.6875 1.953125l0 0.984375l-1.3125 0l0 -0.84375q0 -0.71875 0.34375 -1.4375q0.34375 -0.71875 0.90625 -1.171875zm6.5093384 0.703125l1.375 0l0 7.375q0 1.5 -0.90625 2.34375q-0.890625 0.84375 -2.375 0.84375q-1.5625 0 -2.4375 -0.796875q-0.859375 -0.796875 -0.859375 -2.21875l1.375 0q0 0.890625 0.484375 1.390625q0.5 0.5 1.4375 0.5q0.84375 0 1.359375 -0.53125q0.53125 -0.53125 0.546875 -1.5l0 -7.40625zm8.289825 9.65625q-0.765625 0.90625 -2.265625 0.90625q-1.234375 0 -1.890625 -0.71875q-0.640625 -0.71875 -0.65625 -2.125l0 -5.046875l1.328125 0l0 5.015625q0 1.75 1.4375 1.75q1.515625 0 2.015625 -1.125l0 -5.640625l1.328125 0l0 7.75l-1.265625 0l-0.03125 -0.765625zm4.735794 0.765625l-1.328125 0l0 -11.0l1.328125 0l0 11.0zm3.556717 0l-1.328125 0l0 -7.75l1.328125 0l0 7.75zm-1.421875 -9.796875q0 -0.328125 0.1875 -0.546875q0.203125 -0.21875 0.578125 -0.21875q0.390625 0 0.59375 0.21875q0.203125 0.21875 0.203125 0.546875q0 0.328125 -0.203125 0.546875q-0.203125 0.203125 -0.59375 0.203125q-0.375 0 -0.578125 -0.203125q-0.1875 -0.21875 -0.1875 -0.546875zm8.322342 9.796875q-0.109375 -0.234375 -0.1875 -0.8125q-0.921875 0.953125 -2.203125 0.953125q-1.140625 0 -1.875 -0.640625q-0.734375 -0.65625 -0.734375 -1.640625q0 -1.21875 0.921875 -1.875q0.921875 -0.671875 2.578125 -0.671875l1.296875 0l0 -0.609375q0 -0.703125 -0.421875 -1.109375q-0.40625 -0.40625 -1.21875 -0.40625q-0.703125 0 -1.1875 0.359375q-0.484375 0.34375 -0.484375 0.859375l-1.328125 0q0 -0.578125 0.40625 -1.109375q0.421875 -0.546875 1.125 -0.859375q0.703125 -0.328125 1.546875 -0.328125q1.34375 0 2.09375 0.671875q0.765625 0.671875 0.796875 1.84375l0 3.5625q0 1.0625 0.265625 1.703125l0 0.109375l-1.390625 0zm-2.203125 -1.015625q0.625 0 1.1875 -0.3125q0.5625 -0.328125 0.8125 -0.84375l0 -1.578125l-1.046875 0q-2.421875 0 -2.421875 1.421875q0 0.625 0.40625 0.96875q0.421875 0.34375 1.0625 0.34375zm6.6440735 -6.734375l0.046875 0.984375q0.890625 -1.125 2.3125 -1.125q2.46875 0 2.484375 2.78125l0 5.109375l-1.328125 0l0 -5.125q0 -0.84375 -0.375 -1.234375q-0.375 -0.40625 -1.171875 -0.40625q-0.640625 0 -1.140625 0.34375q-0.484375 0.34375 -0.75 0.90625l0 5.515625l-1.328125 0l0 -7.75l1.25 0zm11.61795 7.75q-0.109375 -0.234375 -0.1875 -0.8125q-0.921875 0.953125 -2.203125 0.953125q-1.140625 0 -1.875 -0.640625q-0.734375 -0.65625 -0.734375 -1.640625q0 -1.21875 0.921875 -1.875q0.921875 -0.671875 2.578125 -0.671875l1.296875 0l0 -0.609375q0 -0.703125 -0.421875 -1.109375q-0.40625 -0.40625 -1.21875 -0.40625q-0.703125 0 -1.1875 0.359375q-0.484375 0.34375 -0.484375 0.859375l-1.328125 0q0 -0.578125 0.40625 -1.109375q0.421875 -0.546875 1.125 -0.859375q0.703125 -0.328125 1.546875 -0.328125q1.34375 0 2.09375 0.671875q0.765625 0.671875 0.796875 1.84375l0 3.5625q0 1.0625 0.265625 1.703125l0 0.109375l-1.390625 0zm-2.203125 -1.015625q0.625 0 1.1875 -0.3125q0.5625 -0.328125 0.8125 -0.84375l0 -1.578125l-1.046875 0q-2.421875 0 -2.421875 1.421875q0 0.625 0.40625 0.96875q0.421875 0.34375 1.0625 0.34375zm5.086136 -6.46875l-0.75 -0.515625q0.671875 -0.9375 0.6875 -1.96875l0 -1.03125l1.3125 0l0 0.9375q-0.015625 0.71875 -0.359375 1.4375q-0.34375 0.703125 -0.890625 1.140625zm2.203125 0l-0.75 -0.515625q0.671875 -0.9375 0.6875 -1.96875l0 -1.03125l1.3125 0l0 0.9375q-0.015625 0.71875 -0.359375 1.4375q-0.34375 0.703125 -0.890625 1.140625z"
       fill-rule="nonzero"
       id="path181"
       inkscape:export-xdpi="300"
       inkscape:export-ydpi="300" />
    <path
       fill="#d9d9d9"
       d="m126.11219 341.15262l84.62711 0l0 48.281586l-84.62711 0z"
       fill-rule="evenodd"
       id="path183"
       inkscape:export-xdpi="300"
       inkscape:export-ydpi="300" />
    <path
       stroke="#ffffff"
       stroke-width="1.0"
       stroke-linejoin="round"
       stroke-linecap="butt"
       d="m126.11219 341.15262l84.62711 0l0 48.281586l-84.62711 0z"
       fill-rule="evenodd"
       id="path185"
       inkscape:export-xdpi="300"
       inkscape:export-ydpi="300" />
    <path
       fill="#000000"
       d="m149.38605 359.2484l0.75 0.515625q-0.65625 0.90625 -0.6875 1.953125l0 0.984375l-1.3125 0l0 -0.84375q0 -0.71875 0.34375 -1.4375q0.34375 -0.71875 0.90625 -1.171875zm2.25 0l0.75 0.515625q-0.65625 0.90625 -0.6875 1.953125l0 0.984375l-1.3125 0l0 -0.84375q0 -0.71875 0.34375 -1.4375q0.34375 -0.71875 0.90625 -1.171875zm6.5093384 0.703125l1.375 0l0 7.375q0 1.5 -0.90625 2.34375q-0.890625 0.84375 -2.375 0.84375q-1.5625 0 -2.4375 -0.796875q-0.859375 -0.796875 -0.859375 -2.21875l1.375 0q0 0.890625 0.484375 1.390625q0.5 0.5 1.4375 0.5q0.84375 0 1.359375 -0.53125q0.53125 -0.53125 0.546875 -1.5l0 -7.40625zm3.1648254 6.484375q0 -1.140625 0.4375 -2.046875q0.453125 -0.921875 1.25 -1.40625q0.796875 -0.5 1.828125 -0.5q1.578125 0 2.546875 1.09375q0.984375 1.09375 0.984375 2.921875l0 0.09375q0 1.125 -0.4375 2.03125q-0.4375 0.890625 -1.25 1.390625q-0.796875 0.5 -1.84375 0.5q-1.5625 0 -2.546875 -1.09375q-0.96875 -1.09375 -0.96875 -2.890625l0 -0.09375zm1.328125 0.15625q0 1.28125 0.59375 2.0625q0.59375 0.78125 1.59375 0.78125q1.015625 0 1.609375 -0.78125q0.59375 -0.796875 0.59375 -2.21875q0 -1.28125 -0.609375 -2.0625q-0.59375 -0.796875 -1.59375 -0.796875q-0.984375 0 -1.59375 0.78125q-0.59375 0.78125 -0.59375 2.234375zm11.889893 1.734375q0 -0.546875 -0.40625 -0.84375q-0.40625 -0.296875 -1.421875 -0.5q-1.0 -0.21875 -1.59375 -0.515625q-0.578125 -0.3125 -0.875 -0.71875q-0.28125 -0.421875 -0.28125 -1.0q0 -0.9375 0.8125 -1.59375q0.8125 -0.671875 2.0625 -0.671875q1.3125 0 2.125 0.6875q0.828125 0.671875 0.828125 1.734375l-1.328125 0q0 -0.546875 -0.46875 -0.9375q-0.453125 -0.390625 -1.15625 -0.390625q-0.734375 0 -1.140625 0.3125q-0.40625 0.3125 -0.40625 0.828125q0 0.46875 0.375 0.71875q0.390625 0.25 1.375 0.46875q1.0 0.21875 1.609375 0.53125q0.609375 0.296875 0.90625 0.734375q0.296875 0.4375 0.296875 1.0625q0 1.03125 -0.828125 1.65625q-0.828125 0.625 -2.15625 0.625q-0.921875 0 -1.640625 -0.328125q-0.71875 -0.328125 -1.125 -0.921875q-0.390625 -0.59375 -0.390625 -1.28125l1.3125 0q0.046875 0.671875 0.53125 1.0625q0.5 0.390625 1.3125 0.390625q0.75 0 1.203125 -0.296875q0.46875 -0.3125 0.46875 -0.8125zm6.260254 2.1875q-1.578125 0 -2.5625 -1.03125q-0.984375 -1.03125 -0.984375 -2.765625l0 -0.25q0 -1.140625 0.4375 -2.046875q0.4375 -0.90625 1.21875 -1.421875q0.796875 -0.515625 1.71875 -0.515625q1.515625 0 2.34375 1.0q0.84375 1.0 0.84375 2.84375l0 0.546875l-5.25 0q0.03125 1.15625 0.671875 1.859375q0.640625 0.703125 1.625 0.703125q0.703125 0 1.1875 -0.28125q0.5 -0.296875 0.859375 -0.765625l0.8125 0.625q-0.984375 1.5 -2.921875 1.5zm-0.171875 -6.9375q-0.796875 0 -1.34375 0.59375q-0.546875 0.578125 -0.671875 1.625l3.875 0l0 -0.109375q-0.046875 -1.0 -0.546875 -1.546875q-0.484375 -0.5625 -1.3125 -0.5625zm0.65625 -4.203125l1.59375 0l-1.90625 2.109375l-1.078125 0l1.390625 -2.109375zm4.133148 3.515625l-0.75 -0.515625q0.671875 -0.9375 0.6875 -1.96875l0 -1.03125l1.3125 0l0 0.9375q-0.015625 0.71875 -0.359375 1.4375q-0.34375 0.703125 -0.890625 1.140625zm2.203125 0l-0.75 -0.515625q0.671875 -0.9375 0.6875 -1.96875l0 -1.03125l1.3125 0l0 0.9375q-0.015625 0.71875 -0.359375 1.4375q-0.34375 0.703125 -0.890625 1.140625z"
       fill-rule="nonzero"
       id="path187"
       inkscape:export-xdpi="300"
       inkscape:export-ydpi="300" />
    <path
       fill="#d9d9d9"
       d="m126.11219 396.1191l84.62711 0l0 48.281586l-84.62711 0z"
       fill-rule="evenodd"
       id="path189"
       inkscape:export-xdpi="300"
       inkscape:export-ydpi="300" />
    <path
       stroke="#ffffff"
       stroke-width="1.0"
       stroke-linejoin="round"
       stroke-linecap="butt"
       d="m126.11219 396.1191l84.62711 0l0 48.281586l-84.62711 0z"
       fill-rule="evenodd"
       id="path191"
       inkscape:export-xdpi="300"
       inkscape:export-ydpi="300" />
    <path
       fill="#000000"
       d="m146.52747 414.2149l0.75 0.515625q-0.65625 0.90625 -0.6875 1.953125l0 0.984375l-1.3125 0l0 -0.84375q0 -0.71875 0.34375 -1.4375q0.34375 -0.71875 0.90625 -1.171875zm2.25 0l0.75 0.515625q-0.65625 0.90625 -0.6875 1.953125l0 0.984375l-1.3125 0l0 -0.84375q0 -0.71875 0.34375 -1.4375q0.34375 -0.71875 0.90625 -1.171875zm3.5093384 7.046875l0 4.078125l-1.375 0l0 -10.421875l3.84375 0q1.71875 0 2.6875 0.875q0.96875 0.875 0.96875 2.3125q0 1.515625 -0.953125 2.34375q-0.9375 0.8125 -2.71875 0.8125l-2.453125 0zm0 -1.125l2.46875 0q1.109375 0 1.6875 -0.515625q0.59375 -0.515625 0.59375 -1.5q0 -0.9375 -0.59375 -1.484375q-0.578125 -0.5625 -1.609375 -0.578125l-2.546875 0l0 4.078125zm10.793564 5.34375q-1.578125 0 -2.5625 -1.03125q-0.984375 -1.03125 -0.984375 -2.765625l0 -0.25q0 -1.140625 0.4375 -2.046875q0.4375 -0.90625 1.21875 -1.421875q0.796875 -0.515625 1.71875 -0.515625q1.515625 0 2.34375 1.0q0.84375 1.0 0.84375 2.84375l0 0.546875l-5.25 0q0.03125 1.15625 0.671875 1.859375q0.640625 0.703125 1.625 0.703125q0.703125 0 1.1875 -0.28125q0.5 -0.296875 0.859375 -0.765625l0.8125 0.625q-0.984375 1.5 -2.921875 1.5zm-0.171875 -6.9375q-0.796875 0 -1.34375 0.59375q-0.546875 0.578125 -0.671875 1.625l3.875 0l0 -0.109375q-0.046875 -1.0 -0.546875 -1.546875q-0.484375 -0.5625 -1.3125 -0.5625zm4.4052887 2.859375q0 -1.78125 0.84375 -2.859375q0.84375 -1.09375 2.203125 -1.09375q1.359375 0 2.15625 0.9375l0 -4.046875l1.328125 0l0 11.0l-1.21875 0l-0.0625 -0.828125q-0.796875 0.96875 -2.21875 0.96875q-1.34375 0 -2.1875 -1.09375q-0.84375 -1.109375 -0.84375 -2.875l0 -0.109375zm1.3125 0.15625q0 1.3125 0.546875 2.0625q0.546875 0.734375 1.5 0.734375q1.265625 0 1.84375 -1.125l0 -3.5625q-0.59375 -1.09375 -1.828125 -1.09375q-0.96875 0 -1.515625 0.75q-0.546875 0.75 -0.546875 2.234375zm11.01561 -2.78125q-0.3125 -0.046875 -0.65625 -0.046875q-1.296875 0 -1.765625 1.109375l0 5.5l-1.328125 0l0 -7.75l1.296875 0l0.015625 0.90625q0.65625 -1.046875 1.84375 -1.046875q0.390625 0 0.59375 0.109375l0 1.21875zm0.7223816 2.625q0 -1.140625 0.4375 -2.046875q0.453125 -0.921875 1.25 -1.40625q0.796875 -0.5 1.828125 -0.5q1.578125 0 2.546875 1.09375q0.984375 1.09375 0.984375 2.921875l0 0.09375q0 1.125 -0.4375 2.03125q-0.4375 0.890625 -1.25 1.390625q-0.796875 0.5 -1.84375 0.5q-1.5625 0 -2.546875 -1.09375q-0.96875 -1.09375 -0.96875 -2.890625l0 -0.09375zm1.328125 0.15625q0 1.28125 0.59375 2.0625q0.59375 0.78125 1.59375 0.78125q1.015625 0 1.609375 -0.78125q0.59375 -0.796875 0.59375 -2.21875q0 -1.28125 -0.609375 -2.0625q-0.59375 -0.796875 -1.59375 -0.796875q-0.984375 0 -1.59375 0.78125q-0.59375 0.78125 -0.59375 2.234375zm6.5721893 -3.703125l-0.75 -0.515625q0.671875 -0.9375 0.6875 -1.96875l0 -1.03125l1.3125 0l0 0.9375q-0.015625 0.71875 -0.359375 1.4375q-0.34375 0.703125 -0.890625 1.140625zm2.203125 0l-0.75 -0.515625q0.671875 -0.9375 0.6875 -1.96875l0 -1.03125l1.3125 0l0 0.9375q-0.015625 0.71875 -0.359375 1.4375q-0.34375 0.703125 -0.890625 1.140625z"
       fill-rule="nonzero"
       id="path193"
       inkscape:export-xdpi="300"
       inkscape:export-ydpi="300" />
    <path
       fill="#999999"
       d="m33.806324 231.21967l84.62712 0l0 48.281586l-84.62712 0z"
       fill-rule="evenodd"
       id="path195"
       inkscape:export-xdpi="300"
       inkscape:export-ydpi="300" />
    <path
       stroke="#434343"
       stroke-width="1.0"
       stroke-linejoin="round"
       stroke-linecap="butt"
       d="m33.806324 231.21967l84.62712 0l0 48.281586l-84.62712 0z"
       fill-rule="evenodd"
       id="path197"
       inkscape:export-xdpi="300"
       inkscape:export-ydpi="300" />
    <path
       fill="#ffffff"
       d="m77.93029 261.50046l-2.453125 0l0 -9.42186l-2.921875 0.90625l0 -2.0l5.109375 -1.828125l0.265625 0l0 12.343735z"
       fill-rule="nonzero"
       id="path199"
       inkscape:export-xdpi="300"
       inkscape:export-ydpi="300" />
    <path
       fill="#999999"
       d="m33.806324 286.18616l84.62712 0l0 48.281586l-84.62712 0z"
       fill-rule="evenodd"
       id="path201"
       inkscape:export-xdpi="300"
       inkscape:export-ydpi="300" />
    <path
       stroke="#434343"
       stroke-width="1.0"
       stroke-linejoin="round"
       stroke-linecap="butt"
       d="m33.806324 286.18616l84.62712 0l0 48.281586l-84.62712 0z"
       fill-rule="evenodd"
       id="path203"
       inkscape:export-xdpi="300"
       inkscape:export-ydpi="300" />
    <path
       fill="#ffffff"
       d="m80.43029 316.46695l-8.4375 0l0 -1.671875l3.984375 -4.25q0.8125 -0.890625 1.203125 -1.5625q0.40625 -0.671875 0.40625 -1.265625q0 -0.828125 -0.421875 -1.296875q-0.421875 -0.46875 -1.1875 -0.46875q-0.828125 0 -1.3125 0.578125q-0.46875 0.5625 -0.46875 1.5l-2.453125 0q0 -1.125 0.53125 -2.0625q0.546875 -0.9375 1.515625 -1.453125q0.984375 -0.53125 2.234375 -0.53125q1.90625 0 2.953125 0.921875q1.0625 0.90625 1.0625 2.5625q0 0.921875 -0.484375 1.875q-0.46875 0.9375 -1.625 2.203125l-2.796875 2.953125l5.296875 0l0 1.96875z"
       fill-rule="nonzero"
       id="path205"
       inkscape:export-xdpi="300"
       inkscape:export-ydpi="300" />
    <path
       fill="#999999"
       d="m33.806324 341.15262l84.62712 0l0 48.281586l-84.62712 0z"
       fill-rule="evenodd"
       id="path207"
       inkscape:export-xdpi="300"
       inkscape:export-ydpi="300" />
    <path
       stroke="#434343"
       stroke-width="1.0"
       stroke-linejoin="round"
       stroke-linecap="butt"
       d="m33.806324 341.15262l84.62712 0l0 48.281586l-84.62712 0z"
       fill-rule="evenodd"
       id="path209"
       inkscape:export-xdpi="300"
       inkscape:export-ydpi="300" />
    <path
       fill="#ffffff"
       d="m74.477165 364.1834l1.296875 0q0.9375 0 1.375 -0.453125q0.453125 -0.46875 0.453125 -1.234375q0 -0.75 -0.453125 -1.15625q-0.4375 -0.421875 -1.21875 -0.421875q-0.6875 0 -1.171875 0.390625q-0.46875 0.375 -0.46875 1.0l-2.453125 0q0 -0.96875 0.515625 -1.734375q0.53125 -0.765625 1.46875 -1.1875q0.9375 -0.4375 2.0625 -0.4375q1.953125 0 3.0625 0.9375q1.109375 0.921875 1.109375 2.5625q0 0.859375 -0.515625 1.578125q-0.515625 0.703125 -1.359375 1.078125q1.046875 0.375 1.546875 1.125q0.515625 0.734375 0.515625 1.75q0 1.640625 -1.203125 2.640625q-1.1875 0.984375 -3.15625 0.984375q-1.84375 0 -3.015625 -0.96875q-1.171875 -0.984375 -1.171875 -2.578125l2.4375 0q0 0.6875 0.515625 1.140625q0.53125 0.4375 1.28125 0.4375q0.875 0 1.375 -0.453125q0.5 -0.46875 0.5 -1.234375q0 -1.84375 -2.03125 -1.84375l-1.296875 0l0 -1.921875z"
       fill-rule="nonzero"
       id="path211"
       inkscape:export-xdpi="300"
       inkscape:export-ydpi="300" />
    <path
       fill="#999999"
       d="m33.806324 396.1191l84.62712 0l0 48.281586l-84.62712 0z"
       fill-rule="evenodd"
       id="path213"
       inkscape:export-xdpi="300"
       inkscape:export-ydpi="300" />
    <path
       stroke="#434343"
       stroke-width="1.0"
       stroke-linejoin="round"
       stroke-linecap="butt"
       d="m33.806324 396.1191l84.62712 0l0 48.281586l-84.62712 0z"
       fill-rule="evenodd"
       id="path215"
       inkscape:export-xdpi="300"
       inkscape:export-ydpi="300" />
    <path
       fill="#ffffff"
       d="m79.227165 421.75928l1.390625 0l0 1.96875l-1.390625 0l0 2.671875l-2.453125 0l0 -2.671875l-5.046875 0l-0.109375 -1.53125l5.125 -8.109375l2.484375 0l0 7.671875zm-5.171875 0l2.71875 0l0 -4.34375l-0.15625 0.28125l-2.5625 4.0625z"
       fill-rule="nonzero"
       id="path217"
       inkscape:export-xdpi="300"
       inkscape:export-ydpi="300" />
    <path
       fill="#d9d9d9"
       d="m126.11219 231.21967l84.62711 0l0 48.281586l-84.62711 0z"
       fill-rule="evenodd"
       id="path219"
       inkscape:export-xdpi="300"
       inkscape:export-ydpi="300" />
    <path
       stroke="#ffffff"
       stroke-width="1.0"
       stroke-linejoin="round"
       stroke-linecap="butt"
       d="m126.11219 231.21967l84.62711 0l0 48.281586l-84.62711 0z"
       fill-rule="evenodd"
       id="path221"
       inkscape:export-xdpi="300"
       inkscape:export-ydpi="300" />
    <path
       fill="#000000"
       d="m151.54575 256.36234l0 4.078125l-1.375 0l0 -10.421875l3.84375 0q1.71875 0 2.6875 0.875q0.96875 0.875 0.96875 2.3125q0 1.515625 -0.953125 2.34375q-0.9375 0.8125 -2.71875 0.8125l-2.453125 0zm0 -1.125l2.46875 0q1.109375 0 1.6875 -0.515625q0.59375 -0.515625 0.59375 -1.5q0 -0.9375 -0.59375 -1.484375q-0.578125 -0.5625 -1.609375 -0.578125l-2.546875 0l0 4.078125zm11.417908 -1.359375q-0.3125 -0.046875 -0.65625 -0.046875q-1.296875 0 -1.765625 1.109375l0 5.5l-1.328125 0l0 -7.75l1.296875 0l0.015625 0.90625q0.65625 -1.046875 1.84375 -1.046875q0.390625 0 0.59375 0.109375l0 1.21875zm0.7223816 2.625q0 -1.140625 0.4375 -2.046875q0.453125 -0.921875 1.25 -1.40625q0.796875 -0.5 1.828125 -0.5q1.578125 0 2.546875 1.09375q0.984375 1.09375 0.984375 2.921875l0 0.09375q0 1.125 -0.4375 2.03125q-0.4375 0.890625 -1.25 1.390625q-0.796875 0.5 -1.84375 0.5q-1.5625 0 -2.546875 -1.09375q-0.96875 -1.09375 -0.96875 -2.890625l0 -0.09375zm1.328125 0.15625q0 1.28125 0.59375 2.0625q0.59375 0.78125 1.59375 0.78125q1.015625 0 1.609375 -0.78125q0.59375 -0.796875 0.59375 -2.21875q0 -1.28125 -0.609375 -2.0625q-0.59375 -0.796875 -1.59375 -0.796875q-0.984375 0 -1.59375 0.78125q-0.59375 0.78125 -0.59375 2.234375zm7.0617676 -0.15625q0 -1.78125 0.84375 -2.859375q0.84375 -1.09375 2.203125 -1.09375q1.359375 0 2.15625 0.9375l0 -4.046875l1.328125 0l0 11.0l-1.21875 0l-0.0625 -0.828125q-0.796875 0.96875 -2.21875 0.96875q-1.34375 0 -2.1875 -1.09375q-0.84375 -1.109375 -0.84375 -2.875l0 -0.109375zm1.3125 0.15625q0 1.3125 0.546875 2.0625q0.546875 0.734375 1.5 0.734375q1.265625 0 1.84375 -1.125l0 -3.5625q-0.59375 -1.09375 -1.828125 -1.09375q-0.96875 0 -1.515625 0.75q-0.546875 0.75 -0.546875 2.234375zm11.48436 3.78125l-1.328125 0l0 -8.828125l-2.671875 0.984375l0 -1.203125l3.796875 -1.421875l0.203125 0l0 10.46875z"
       fill-rule="nonzero"
       id="path223"
       inkscape:export-xdpi="300"
       inkscape:export-ydpi="300" />
    <path
       fill="#d9d9d9"
       d="m126.11219 286.18616l84.62711 0l0 48.281586l-84.62711 0z"
       fill-rule="evenodd"
       id="path225"
       inkscape:export-xdpi="300"
       inkscape:export-ydpi="300" />
    <path
       stroke="#ffffff"
       stroke-width="1.0"
       stroke-linejoin="round"
       stroke-linecap="butt"
       d="m126.11219 286.18616l84.62711 0l0 48.281586l-84.62711 0z"
       fill-rule="evenodd"
       id="path227"
       inkscape:export-xdpi="300"
       inkscape:export-ydpi="300" />
    <path
       fill="#000000"
       d="m151.54575 311.32883l0 4.078125l-1.375 0l0 -10.421875l3.84375 0q1.71875 0 2.6875 0.875q0.96875 0.875 0.96875 2.3125q0 1.515625 -0.953125 2.34375q-0.9375 0.8125 -2.71875 0.8125l-2.453125 0zm0 -1.125l2.46875 0q1.109375 0 1.6875 -0.515625q0.59375 -0.515625 0.59375 -1.5q0 -0.9375 -0.59375 -1.484375q-0.578125 -0.5625 -1.609375 -0.578125l-2.546875 0l0 4.078125zm11.417908 -1.359375q-0.3125 -0.046875 -0.65625 -0.046875q-1.296875 0 -1.765625 1.109375l0 5.5l-1.328125 0l0 -7.75l1.296875 0l0.015625 0.90625q0.65625 -1.046875 1.84375 -1.046875q0.390625 0 0.59375 0.109375l0 1.21875zm0.7223816 2.625q0 -1.140625 0.4375 -2.046875q0.453125 -0.921875 1.25 -1.40625q0.796875 -0.5 1.828125 -0.5q1.578125 0 2.546875 1.09375q0.984375 1.09375 0.984375 2.921875l0 0.09375q0 1.125 -0.4375 2.03125q-0.4375 0.890625 -1.25 1.390625q-0.796875 0.5 -1.84375 0.5q-1.5625 0 -2.546875 -1.09375q-0.96875 -1.09375 -0.96875 -2.890625l0 -0.09375zm1.328125 0.15625q0 1.28125 0.59375 2.0625q0.59375 0.78125 1.59375 0.78125q1.015625 0 1.609375 -0.78125q0.59375 -0.796875 0.59375 -2.21875q0 -1.28125 -0.609375 -2.0625q-0.59375 -0.796875 -1.59375 -0.796875q-0.984375 0 -1.59375 0.78125q-0.59375 0.78125 -0.59375 2.234375zm7.0617676 -0.15625q0 -1.78125 0.84375 -2.859375q0.84375 -1.09375 2.203125 -1.09375q1.359375 0 2.15625 0.9375l0 -4.046875l1.328125 0l0 11.0l-1.21875 0l-0.0625 -0.828125q-0.796875 0.96875 -2.21875 0.96875q-1.34375 0 -2.1875 -1.09375q-0.84375 -1.109375 -0.84375 -2.875l0 -0.109375zm1.3125 0.15625q0 1.3125 0.546875 2.0625q0.546875 0.734375 1.5 0.734375q1.265625 0 1.84375 -1.125l0 -3.5625q-0.59375 -1.09375 -1.828125 -1.09375q-0.96875 0 -1.515625 0.75q-0.546875 0.75 -0.546875 2.234375zm13.95311 3.78125l-6.828125 0l0 -0.953125l3.609375 -4.0q0.8125 -0.921875 1.109375 -1.484375q0.296875 -0.5625 0.296875 -1.171875q0 -0.828125 -0.5 -1.34375q-0.484375 -0.515625 -1.296875 -0.515625q-1.0 0 -1.546875 0.5625q-0.546875 0.5625 -0.546875 1.5625l-1.3125 0q0 -1.4375 0.921875 -2.328125q0.921875 -0.890625 2.484375 -0.890625q1.453125 0 2.296875 0.765625q0.84375 0.765625 0.84375 2.03125q0 1.53125 -1.96875 3.65625l-2.78125 3.03125l5.21875 0l0 1.078125z"
       fill-rule="nonzero"
       id="path229"
       inkscape:export-xdpi="300"
       inkscape:export-ydpi="300" />
    <path
       fill="#d9d9d9"
       d="m126.11219 341.15262l84.62711 0l0 48.281586l-84.62711 0z"
       fill-rule="evenodd"
       id="path231"
       inkscape:export-xdpi="300"
       inkscape:export-ydpi="300" />
    <path
       stroke="#ffffff"
       stroke-width="1.0"
       stroke-linejoin="round"
       stroke-linecap="butt"
       d="m126.11219 341.15262l84.62711 0l0 48.281586l-84.62711 0z"
       fill-rule="evenodd"
       id="path233"
       inkscape:export-xdpi="300"
       inkscape:export-ydpi="300" />
    <path
       fill="#000000"
       d="m151.54575 366.2953l0 4.078125l-1.375 0l0 -10.421875l3.84375 0q1.71875 0 2.6875 0.875q0.96875 0.875 0.96875 2.3125q0 1.515625 -0.953125 2.34375q-0.9375 0.8125 -2.71875 0.8125l-2.453125 0zm0 -1.125l2.46875 0q1.109375 0 1.6875 -0.515625q0.59375 -0.515625 0.59375 -1.5q0 -0.9375 -0.59375 -1.484375q-0.578125 -0.5625 -1.609375 -0.578125l-2.546875 0l0 4.078125zm11.417908 -1.359375q-0.3125 -0.046875 -0.65625 -0.046875q-1.296875 0 -1.765625 1.109375l0 5.5l-1.328125 0l0 -7.75l1.296875 0l0.015625 0.90625q0.65625 -1.046875 1.84375 -1.046875q0.390625 0 0.59375 0.109375l0 1.21875zm0.7223816 2.625q0 -1.140625 0.4375 -2.046875q0.453125 -0.921875 1.25 -1.40625q0.796875 -0.5 1.828125 -0.5q1.578125 0 2.546875 1.09375q0.984375 1.09375 0.984375 2.921875l0 0.09375q0 1.125 -0.4375 2.03125q-0.4375 0.890625 -1.25 1.390625q-0.796875 0.5 -1.84375 0.5q-1.5625 0 -2.546875 -1.09375q-0.96875 -1.09375 -0.96875 -2.890625l0 -0.09375zm1.328125 0.15625q0 1.28125 0.59375 2.0625q0.59375 0.78125 1.59375 0.78125q1.015625 0 1.609375 -0.78125q0.59375 -0.796875 0.59375 -2.21875q0 -1.28125 -0.609375 -2.0625q-0.59375 -0.796875 -1.59375 -0.796875q-0.984375 0 -1.59375 0.78125q-0.59375 0.78125 -0.59375 2.234375zm7.0617676 -0.15625q0 -1.78125 0.84375 -2.859375q0.84375 -1.09375 2.203125 -1.09375q1.359375 0 2.15625 0.9375l0 -4.046875l1.328125 0l0 11.0l-1.21875 0l-0.0625 -0.828125q-0.796875 0.96875 -2.21875 0.96875q-1.34375 0 -2.1875 -1.09375q-0.84375 -1.109375 -0.84375 -2.875l0 -0.109375zm1.3125 0.15625q0 1.3125 0.546875 2.0625q0.546875 0.734375 1.5 0.734375q1.265625 0 1.84375 -1.125l0 -3.5625q-0.59375 -1.09375 -1.828125 -1.09375q-0.96875 0 -1.515625 0.75q-0.546875 0.75 -0.546875 2.234375zm9.062485 -2.078125l0.984375 0q0.9375 -0.015625 1.46875 -0.484375q0.546875 -0.484375 0.546875 -1.296875q0 -1.828125 -1.828125 -1.828125q-0.859375 0 -1.375 0.484375q-0.5 0.484375 -0.5 1.296875l-1.328125 0q0 -1.234375 0.90625 -2.046875q0.90625 -0.828125 2.296875 -0.828125q1.484375 0 2.3125 0.78125q0.84375 0.78125 0.84375 2.171875q0 0.671875 -0.453125 1.3125q-0.4375 0.640625 -1.1875 0.953125q0.859375 0.265625 1.328125 0.90625q0.46875 0.625 0.46875 1.53125q0 1.40625 -0.921875 2.234375q-0.90625 0.8125 -2.375 0.8125q-1.46875 0 -2.390625 -0.796875q-0.921875 -0.796875 -0.921875 -2.09375l1.328125 0q0 0.828125 0.53125 1.328125q0.546875 0.484375 1.453125 0.484375q0.953125 0 1.453125 -0.5q0.515625 -0.5 0.515625 -1.4375q0 -0.90625 -0.5625 -1.390625q-0.546875 -0.5 -1.609375 -0.5l-0.984375 0l0 -1.09375z"
       fill-rule="nonzero"
       id="path235"
       inkscape:export-xdpi="300"
       inkscape:export-ydpi="300" />
    <path
       fill="#d9d9d9"
       d="m126.11219 396.1191l84.62711 0l0 48.281586l-84.62711 0z"
       fill-rule="evenodd"
       id="path237"
       inkscape:export-xdpi="300"
       inkscape:export-ydpi="300" />
    <path
       stroke="#ffffff"
       stroke-width="1.0"
       stroke-linejoin="round"
       stroke-linecap="butt"
       d="m126.11219 396.1191l84.62711 0l0 48.281586l-84.62711 0z"
       fill-rule="evenodd"
       id="path239"
       inkscape:export-xdpi="300"
       inkscape:export-ydpi="300" />
    <path
       fill="#000000"
       d="m151.54575 421.26178l0 4.078125l-1.375 0l0 -10.421875l3.84375 0q1.71875 0 2.6875 0.875q0.96875 0.875 0.96875 2.3125q0 1.515625 -0.953125 2.34375q-0.9375 0.8125 -2.71875 0.8125l-2.453125 0zm0 -1.125l2.46875 0q1.109375 0 1.6875 -0.515625q0.59375 -0.515625 0.59375 -1.5q0 -0.9375 -0.59375 -1.484375q-0.578125 -0.5625 -1.609375 -0.578125l-2.546875 0l0 4.078125zm11.417908 -1.359375q-0.3125 -0.046875 -0.65625 -0.046875q-1.296875 0 -1.765625 1.109375l0 5.5l-1.328125 0l0 -7.75l1.296875 0l0.015625 0.90625q0.65625 -1.046875 1.84375 -1.046875q0.390625 0 0.59375 0.109375l0 1.21875zm0.7223816 2.625q0 -1.140625 0.4375 -2.046875q0.453125 -0.921875 1.25 -1.40625q0.796875 -0.5 1.828125 -0.5q1.578125 0 2.546875 1.09375q0.984375 1.09375 0.984375 2.921875l0 0.09375q0 1.125 -0.4375 2.03125q-0.4375 0.890625 -1.25 1.390625q-0.796875 0.5 -1.84375 0.5q-1.5625 0 -2.546875 -1.09375q-0.96875 -1.09375 -0.96875 -2.890625l0 -0.09375zm1.328125 0.15625q0 1.28125 0.59375 2.0625q0.59375 0.78125 1.59375 0.78125q1.015625 0 1.609375 -0.78125q0.59375 -0.796875 0.59375 -2.21875q0 -1.28125 -0.609375 -2.0625q-0.59375 -0.796875 -1.59375 -0.796875q-0.984375 0 -1.59375 0.78125q-0.59375 0.78125 -0.59375 2.234375zm7.0617676 -0.15625q0 -1.78125 0.84375 -2.859375q0.84375 -1.09375 2.203125 -1.09375q1.359375 0 2.15625 0.9375l0 -4.046875l1.328125 0l0 11.0l-1.21875 0l-0.0625 -0.828125q-0.796875 0.96875 -2.21875 0.96875q-1.34375 0 -2.1875 -1.09375q-0.84375 -1.109375 -0.84375 -2.875l0 -0.109375zm1.3125 0.15625q0 1.3125 0.546875 2.0625q0.546875 0.734375 1.5 0.734375q1.265625 0 1.84375 -1.125l0 -3.5625q-0.59375 -1.09375 -1.828125 -1.09375q-0.96875 0 -1.515625 0.75q-0.546875 0.75 -0.546875 2.234375zm12.718735 0.28125l1.453125 0l0 1.078125l-1.453125 0l0 2.421875l-1.328125 0l0 -2.421875l-4.75 0l0 -0.78125l4.671875 -7.21875l1.40625 0l0 6.921875zm-4.578125 0l3.25 0l0 -5.109375l-0.15625 0.28125l-3.09375 4.828125z"
       fill-rule="nonzero"
       id="path241"
       inkscape:export-xdpi="300"
       inkscape:export-ydpi="300" />
    <path
       fill="#000000"
       fill-opacity="0.0"
       d="m191.59605 288.61346l86.29921 0l0 54.92914l-86.29921 0z"
       fill-rule="evenodd"
       id="path243"
       inkscape:export-xdpi="300"
       inkscape:export-ydpi="300" />
    <path
       fill="#000000"
       d="m236.67807 314.1016l5.171875 0l0 3.734375l-5.171875 0l0 5.84375l-3.9375 0l0 -5.84375l-5.1875 0l0 -3.734375l5.1875 0l0 -5.59375l3.9375 0l0 5.59375z"
       fill-rule="nonzero"
       id="path245"
       inkscape:export-xdpi="300"
       inkscape:export-ydpi="300" />
    <path
       fill="#000000"
       fill-opacity="0.0"
       d="m448.1452 288.61328l75.77954 0l0 54.929108l-75.77954 0z"
       fill-rule="evenodd"
       id="path247"
       inkscape:export-xdpi="300"
       inkscape:export-ydpi="300" />
    <path
       fill="#000000"
       d="m492.39322 315.08575l-12.796875 0l0 -3.375l12.796875 0l0 3.375zm0 6.203125l-12.796875 0l0 -3.375l12.796875 0l0 3.375z"
       fill-rule="nonzero"
       id="path249"
       inkscape:export-xdpi="300"
       inkscape:export-ydpi="300" />
    <path
       fill="#000000"
       fill-opacity="0.0"
       d="m152.39885 72.8294l164.69292 0l0 51.71653l-164.69292 0z"
       fill-rule="evenodd"
       id="path251"
       inkscape:export-xdpi="300"
       inkscape:export-ydpi="300" />
    <path
       fill="#000000"
       d="m208.41113 102.46065q0 -1.109375 -0.78125 -1.703125q-0.78125 -0.59375 -2.8125 -1.25q-2.03125 -0.65625 -3.203125 -1.296875q-3.234375 -1.734375 -3.234375 -4.6875q0 -1.546875 0.859375 -2.75q0.875 -1.203125 2.484375 -1.875q1.625 -0.6875 3.640625 -0.6875q2.03125 0 3.609375 0.75q1.59375 0.734375 2.46875 2.078125q0.890625 1.328125 0.890625 3.03125l-3.90625 0q0 -1.296875 -0.828125 -2.015625q-0.8125 -0.71875 -2.296875 -0.71875q-1.4375 0 -2.234375 0.609375q-0.78125 0.59375 -0.78125 1.578125q0 0.921875 0.921875 1.546875q0.9375 0.625 2.75 1.171875q3.328125 1.015625 4.84375 2.5q1.53125 1.484375 1.53125 3.6875q0 2.46875 -1.859375 3.875q-1.859375 1.390625 -5.015625 1.390625q-2.1875 0 -3.984375 -0.796875q-1.796875 -0.8125 -2.75 -2.203125q-0.9375 -1.390625 -0.9375 -3.234375l3.921875 0q0 3.140625 3.75 3.140625q1.390625 0 2.171875 -0.5625q0.78125 -0.5625 0.78125 -1.578125zm12.793076 5.234375q-3.09375 0 -5.046875 -1.90625q-1.9375 -1.90625 -1.9375 -5.0625l0 -0.359375q0 -2.125 0.8125 -3.796875q0.828125 -1.671875 2.328125 -2.578125q1.5 -0.90625 3.4375 -0.90625q2.890625 0 4.546875 1.828125q1.65625 1.8125 1.65625 5.15625l0 1.546875l-8.96875 0q0.1875 1.375 1.09375 2.21875q0.921875 0.828125 2.328125 0.828125q2.171875 0 3.40625 -1.578125l1.84375 2.0625q-0.84375 1.203125 -2.296875 1.875q-1.4375 0.671875 -3.203125 0.671875zm-0.421875 -11.5625q-1.125 0 -1.828125 0.765625q-0.6875 0.75 -0.875 2.15625l5.21875 0l0 -0.3125q-0.015625 -1.25 -0.671875 -1.921875q-0.65625 -0.6875 -1.84375 -0.6875zm16.267807 0.734375q-0.765625 -0.09375 -1.359375 -0.09375q-2.125 0 -2.796875 1.4375l0 9.21875l-3.765625 0l0 -14.078125l3.5625 0l0.109375 1.671875q1.125 -1.9375 3.125 -1.9375q0.625 0 1.171875 0.171875l-0.046875 3.609375zm5.785263 10.5625l-3.78125 0l0 -14.078125l3.78125 0l0 14.078125zm-4.0 -17.734375q0 -0.84375 0.5625 -1.390625q0.5625 -0.546875 1.546875 -0.546875q0.953125 0 1.53125 0.546875q0.578125 0.546875 0.578125 1.390625q0 0.859375 -0.578125 1.40625q-0.578125 0.546875 -1.53125 0.546875q-0.953125 0 -1.53125 -0.546875q-0.578125 -0.546875 -0.578125 -1.40625zm13.567551 18.0q-3.09375 0 -5.046875 -1.90625q-1.9375 -1.90625 -1.9375 -5.0625l0 -0.359375q0 -2.125 0.8125 -3.796875q0.828125 -1.671875 2.328125 -2.578125q1.5 -0.90625 3.4375 -0.90625q2.890625 0 4.546875 1.828125q1.65625 1.8125 1.65625 5.15625l0 1.546875l-8.96875 0q0.1875 1.375 1.09375 2.21875q0.921875 0.828125 2.328125 0.828125q2.171875 0 3.40625 -1.578125l1.84375 2.0625q-0.84375 1.203125 -2.296875 1.875q-1.4375 0.671875 -3.203125 0.671875zm-0.421875 -11.5625q-1.125 0 -1.828125 0.765625q-0.6875 0.75 -0.875 2.15625l5.21875 0l0 -0.3125q-0.015625 -1.25 -0.671875 -1.921875q-0.65625 -0.6875 -1.84375 -0.6875zm15.986572 7.40625q0 -0.6875 -0.6875 -1.078125q-0.6875 -0.40625 -2.1875 -0.71875q-5.03125 -1.046875 -5.03125 -4.265625q0 -1.875 1.546875 -3.125q1.5625 -1.265625 4.078125 -1.265625q2.671875 0 4.28125 1.265625q1.609375 1.265625 1.609375 3.28125l-3.765625 0q0 -0.8125 -0.515625 -1.328125q-0.515625 -0.53125 -1.625 -0.53125q-0.953125 0 -1.46875 0.4375q-0.515625 0.421875 -0.515625 1.078125q0 0.625 0.578125 1.015625q0.59375 0.375 2.0 0.65625q1.40625 0.28125 2.375 0.640625q2.984375 1.09375 2.984375 3.78125q0 1.921875 -1.65625 3.125q-1.65625 1.1875 -4.265625 1.1875q-1.78125 0 -3.15625 -0.625q-1.359375 -0.640625 -2.140625 -1.734375q-0.78125 -1.109375 -0.78125 -2.390625l3.5625 0q0.046875 1.015625 0.734375 1.546875q0.703125 0.53125 1.859375 0.53125q1.078125 0 1.625 -0.40625q0.5625 -0.421875 0.5625 -1.078125z"
       fill-rule="nonzero"
       id="path253"
       inkscape:export-xdpi="300"
       inkscape:export-ydpi="300" />
  </g>
</svg>
