<?xml version="1.0" encoding="UTF-8" standalone="no"?>
<svg
   xmlns:dc="http://purl.org/dc/elements/1.1/"
   xmlns:cc="http://creativecommons.org/ns#"
   xmlns:rdf="http://www.w3.org/1999/02/22-rdf-syntax-ns#"
   xmlns:svg="http://www.w3.org/2000/svg"
   xmlns="http://www.w3.org/2000/svg"
   xmlns:sodipodi="http://sodipodi.sourceforge.net/DTD/sodipodi-0.dtd"
   xmlns:inkscape="http://www.inkscape.org/namespaces/inkscape"
   version="1.1"
   viewBox="0.0 0.0 960.0 540.0"
   fill="none"
   stroke="none"
   stroke-linecap="square"
   stroke-miterlimit="10"
   id="svg171"
   sodipodi:docname="pandas_series6.svg"
   inkscape:export-filename="/home/felipe/Mestrado/01_Aulas/materiais/aulas/03-introducao-ao-python/images/python/v2021/pandas_series6.png"
   inkscape:export-xdpi="300"
   inkscape:export-ydpi="300"
   inkscape:version="0.92.5 (2060ec1f9f, 2020-04-08)">
  <metadata
     id="metadata177">
    <rdf:RDF>
      <cc:Work
         rdf:about="">
        <dc:format>image/svg+xml</dc:format>
        <dc:type
           rdf:resource="http://purl.org/dc/dcmitype/StillImage" />
      </cc:Work>
    </rdf:RDF>
  </metadata>
  <defs
     id="defs175" />
  <sodipodi:namedview
     pagecolor="#ffffff"
     bordercolor="#666666"
     borderopacity="1"
     objecttolerance="10"
     gridtolerance="10"
     guidetolerance="10"
     inkscape:pageopacity="0"
     inkscape:pageshadow="2"
     inkscape:window-width="1600"
     inkscape:window-height="790"
     id="namedview173"
     showgrid="false"
     inkscape:zoom="0.36145833"
     inkscape:cx="480"
     inkscape:cy="270"
     inkscape:window-x="0"
     inkscape:window-y="27"
     inkscape:window-maximized="1"
     inkscape:current-layer="svg171" />
  <clipPath
     id="ge5cd28bdd1_0_583.0">
    <path
       d="m0 0l960.0 0l0 540.0l-960.0 0l0 -540.0z"
       clip-rule="nonzero"
       id="path2" />
  </clipPath>
  <g
     clip-path="url(#ge5cd28bdd1_0_583.0)"
     id="g169">
    <path
       fill="#ffffff"
       d="m0 0l960.0 0l0 540.0l-960.0 0z"
       fill-rule="evenodd"
       id="path5" />
    <path
       fill="#999999"
       d="m277.06824 48.40026l139.74805 0l0 66.20473l-139.74805 0z"
       fill-rule="evenodd"
       id="path7" />
    <path
       stroke="#434343"
       stroke-width="1.0"
       stroke-linejoin="round"
       stroke-linecap="butt"
       d="m277.06824 48.40026l139.74805 0l0 66.20473l-139.74805 0z"
       fill-rule="evenodd"
       id="path9" />
    <path
       fill="#ffffff"
       d="m307.05255 84.478874l0 6.34375l-3.703125 0l0 -18.0l7.015625 0q2.03125 0 3.5625 0.75q1.546875 0.734375 2.375 2.09375q0.828125 1.359375 0.828125 3.109375q0 2.640625 -1.8125 4.171875q-1.796875 1.53125 -5.0 1.53125l-3.265625 0zm0 -3.0l3.3125 0q1.484375 0 2.25 -0.6875q0.78125 -0.703125 0.78125 -1.984375q0 -1.328125 -0.78125 -2.140625q-0.78125 -0.828125 -2.15625 -0.84375l-3.40625 0l0 5.65625zm19.915253 -0.6875q-0.734375 -0.09375 -1.28125 -0.09375q-2.03125 0 -2.65625 1.375l0 8.75l-3.578125 0l0 -13.375l3.375 0l0.09375 1.59375q1.078125 -1.84375 2.984375 -1.84375q0.59375 0 1.109375 0.15625l-0.046875 3.4375zm0.7149048 3.21875q0 -2.0 0.765625 -3.546875q0.765625 -1.5625 2.203125 -2.40625q1.453125 -0.859375 3.359375 -0.859375q2.703125 0 4.40625 1.65625q1.71875 1.65625 1.921875 4.5l0.03125 0.921875q0 3.078125 -1.734375 4.9375q-1.71875 1.859375 -4.609375 1.859375q-2.890625 0 -4.625 -1.859375q-1.71875 -1.859375 -1.71875 -5.046875l0 -0.15625zm3.578125 0.265625q0 1.890625 0.71875 2.90625q0.71875 1.0 2.046875 1.0q1.296875 0 2.03125 -0.984375q0.734375 -1.0 0.734375 -3.1875q0 -1.875 -0.734375 -2.890625q-0.734375 -1.03125 -2.046875 -1.03125q-1.3125 0 -2.03125 1.03125q-0.71875 1.015625 -0.71875 3.15625zm10.743164 -0.25q0 -3.125 1.40625 -4.96875q1.40625 -1.859375 3.84375 -1.859375q1.953125 0 3.21875 1.453125l0 -6.828125l3.59375 0l0 19.0l-3.234375 0l-0.171875 -1.421875q-1.328125 1.671875 -3.4375 1.671875q-2.359375 0 -3.796875 -1.859375q-1.421875 -1.859375 -1.421875 -5.1875zm3.578125 0.265625q0 1.875 0.65625 2.890625q0.65625 1.0 1.90625 1.0q1.65625 0 2.328125 -1.40625l0 -5.28125q-0.65625 -1.390625 -2.3125 -1.390625q-2.578125 0 -2.578125 4.1875zm19.27179 5.171875q-1.328125 1.609375 -3.671875 1.609375q-2.140625 0 -3.28125 -1.234375q-1.125 -1.234375 -1.15625 -3.625l0 -8.765625l3.578125 0l0 8.640625q0 2.09375 1.90625 2.09375q1.8125 0 2.5 -1.265625l0 -9.46875l3.578125 0l0 13.375l-3.359375 0l-0.09375 -1.359375zm10.438507 -15.3125l0 3.296875l2.28125 0l0 2.609375l-2.28125 0l0 6.6875q0 0.734375 0.28125 1.0625q0.28125 0.3125 1.09375 0.3125q0.59375 0 1.046875 -0.078125l0 2.703125q-1.046875 0.328125 -2.171875 0.328125q-3.75 0 -3.828125 -3.796875l0 -7.21875l-1.953125 0l0 -2.609375l1.953125 0l0 -3.296875l3.578125 0zm3.3432922 9.859375q0 -2.0 0.765625 -3.546875q0.765625 -1.5625 2.203125 -2.40625q1.453125 -0.859375 3.359375 -0.859375q2.703125 0 4.40625 1.65625q1.71875 1.65625 1.921875 4.5l0.03125 0.921875q0 3.078125 -1.734375 4.9375q-1.71875 1.859375 -4.609375 1.859375q-2.890625 0 -4.625 -1.859375q-1.71875 -1.859375 -1.71875 -5.046875l0 -0.15625zm3.578125 0.265625q0 1.890625 0.71875 2.90625q0.71875 1.0 2.046875 1.0q1.296875 0 2.03125 -0.984375q0.734375 -1.0 0.734375 -3.1875q0 -1.875 -0.734375 -2.890625q-0.734375 -1.03125 -2.046875 -1.03125q-1.3125 0 -2.03125 1.03125q-0.71875 1.015625 -0.71875 3.15625z"
       fill-rule="nonzero"
       id="path11" />
    <path
       fill="#d9d9d9"
       d="m277.06824 123.79897l139.74805 0l0 66.204735l-139.74805 0z"
       fill-rule="evenodd"
       id="path13" />
    <path
       stroke="#ffffff"
       stroke-width="1.0"
       stroke-linejoin="round"
       stroke-linecap="butt"
       d="m277.06824 123.79897l139.74805 0l0 66.204735l-139.74805 0z"
       fill-rule="evenodd"
       id="path15" />
    <path
       fill="#000000"
       d="m315.4976 148.19383l1.109375 0.75q-0.96875 1.3125 -1.0 2.84375l0 1.421875l-1.921875 0l0 -1.203125q0 -1.0625 0.5 -2.109375q0.515625 -1.046875 1.3125 -1.703125zm3.28125 0l1.109375 0.75q-0.96875 1.3125 -1.0 2.84375l0 1.421875l-1.921875 0l0 -1.203125q0 -1.0625 0.5 -2.109375q0.515625 -1.046875 1.3125 -1.703125zm5.7117004 1.03125l4.953125 12.359375l4.953125 -12.359375l2.59375 0l0 15.15625l-2.0 0l0 -5.90625l0.1875 -6.375l-4.96875 12.28125l-1.53125 0l-4.96875 -12.25l0.203125 6.34375l0 5.90625l-2.0 0l0 -15.15625l2.578125 0zm22.698578 15.15625q-0.171875 -0.328125 -0.28125 -1.1875q-1.34375 1.390625 -3.203125 1.390625q-1.671875 0 -2.734375 -0.9375q-1.0625 -0.9375 -1.0625 -2.390625q0 -1.765625 1.328125 -2.734375q1.34375 -0.96875 3.765625 -0.96875l1.875 0l0 -0.890625q0 -1.015625 -0.609375 -1.609375q-0.59375 -0.59375 -1.765625 -0.59375q-1.03125 0 -1.734375 0.515625q-0.703125 0.515625 -0.703125 1.265625l-1.9375 0q0 -0.84375 0.59375 -1.625q0.609375 -0.796875 1.625 -1.25q1.03125 -0.453125 2.265625 -0.453125q1.953125 0 3.046875 0.96875q1.109375 0.96875 1.15625 2.671875l0 5.1875q0 1.5625 0.390625 2.46875l0 0.171875l-2.015625 0zm-3.203125 -1.46875q0.90625 0 1.71875 -0.46875q0.8125 -0.46875 1.171875 -1.21875l0 -2.3125l-1.5 0q-3.546875 0 -3.546875 2.078125q0 0.90625 0.59375 1.421875q0.609375 0.5 1.5625 0.5zm13.288849 -8.078125q-0.4375 -0.0625 -0.953125 -0.0625q-1.890625 0 -2.5625 1.609375l0 8.0l-1.9375 0l0 -11.265625l1.875 0l0.03125 1.296875q0.953125 -1.5 2.6875 -1.5q0.5625 0 0.859375 0.140625l0 1.78125zm3.857605 9.546875l-1.921875 0l0 -11.265625l1.921875 0l0 11.265625zm-2.078125 -14.25q0 -0.46875 0.28125 -0.796875q0.296875 -0.328125 0.859375 -0.328125q0.5625 0 0.84375 0.328125q0.296875 0.328125 0.296875 0.796875q0 0.46875 -0.296875 0.78125q-0.28125 0.3125 -0.84375 0.3125q-0.5625 0 -0.859375 -0.3125q-0.28125 -0.3125 -0.28125 -0.78125zm12.128967 14.25q-0.171875 -0.328125 -0.28125 -1.1875q-1.34375 1.390625 -3.203125 1.390625q-1.671875 0 -2.734375 -0.9375q-1.0625 -0.9375 -1.0625 -2.390625q0 -1.765625 1.328125 -2.734375q1.34375 -0.96875 3.765625 -0.96875l1.875 0l0 -0.890625q0 -1.015625 -0.609375 -1.609375q-0.59375 -0.59375 -1.765625 -0.59375q-1.03125 0 -1.734375 0.515625q-0.703125 0.515625 -0.703125 1.265625l-1.9375 0q0 -0.84375 0.59375 -1.625q0.609375 -0.796875 1.625 -1.25q1.03125 -0.453125 2.265625 -0.453125q1.953125 0 3.046875 0.96875q1.109375 0.96875 1.15625 2.671875l0 5.1875q0 1.5625 0.390625 2.46875l0 0.171875l-2.015625 0zm-3.203125 -1.46875q0.90625 0 1.71875 -0.46875q0.8125 -0.46875 1.171875 -1.21875l0 -2.3125l-1.5 0q-3.546875 0 -3.546875 2.078125q0 0.90625 0.59375 1.421875q0.609375 0.5 1.5625 0.5zm7.403412 -9.421875l-1.09375 -0.75q0.96875 -1.359375 1.0 -2.859375l0 -1.5l1.90625 0l0 1.359375q-0.015625 1.046875 -0.515625 2.078125q-0.5 1.03125 -1.296875 1.671875zm3.203125 0l-1.09375 -0.75q0.96875 -1.359375 1.0 -2.859375l0 -1.5l1.90625 0l0 1.359375q-0.015625 1.046875 -0.515625 2.078125q-0.5 1.03125 -1.296875 1.671875z"
       fill-rule="nonzero"
       id="path17" />
    <path
       fill="#d9d9d9"
       d="m277.06824 199.1977l139.74805 0l0 66.20471l-139.74805 0z"
       fill-rule="evenodd"
       id="path19" />
    <path
       stroke="#ffffff"
       stroke-width="1.0"
       stroke-linejoin="round"
       stroke-linecap="butt"
       d="m277.06824 199.1977l139.74805 0l0 66.20471l-139.74805 0z"
       fill-rule="evenodd"
       id="path21" />
    <path
       fill="#000000"
       d="m308.18167 223.59254l1.109375 0.75q-0.96875 1.3125 -1.0 2.84375l0 1.421875l-1.921875 0l0 -1.203125q0 -1.0625 0.5 -2.109375q0.515625 -1.046875 1.3125 -1.703125zm3.28125 0l1.109375 0.75q-0.96875 1.3125 -1.0 2.84375l0 1.421875l-1.921875 0l0 -1.203125q0 -1.0625 0.5 -2.109375q0.515625 -1.046875 1.3125 -1.703125zm9.477325 1.03125l2.015625 0l0 10.734375q0 2.171875 -1.3125 3.40625q-1.296875 1.21875 -3.484375 1.21875q-2.25 0 -3.515625 -1.15625q-1.265625 -1.15625 -1.265625 -3.234375l2.0 0q0 1.296875 0.71875 2.03125q0.71875 0.734375 2.0625 0.734375q1.25 0 2.015625 -0.78125q0.765625 -0.78125 0.765625 -2.1875l0 -10.765625zm12.080444 14.046875q-1.125 1.3125 -3.3125 1.3125q-1.796875 0 -2.75 -1.046875q-0.9375 -1.046875 -0.9375 -3.09375l0 -7.328125l1.921875 0l0 7.28125q0 2.5625 2.078125 2.5625q2.21875 0 2.9375 -1.65625l0 -8.1875l1.9375 0l0 11.265625l-1.84375 0l-0.03125 -1.109375zm6.8825684 1.109375l-1.921875 0l0 -16.0l1.921875 0l0 16.0zm5.175812 0l-1.921875 0l0 -11.265625l1.921875 0l0 11.265625zm-2.078125 -14.25q0 -0.46875 0.28125 -0.796875q0.296875 -0.328125 0.859375 -0.328125q0.5625 0 0.84375 0.328125q0.296875 0.328125 0.296875 0.796875q0 0.46875 -0.296875 0.78125q-0.28125 0.3125 -0.84375 0.3125q-0.5625 0 -0.859375 -0.3125q-0.28125 -0.3125 -0.28125 -0.78125zm12.128967 14.25q-0.171875 -0.328125 -0.28125 -1.1875q-1.34375 1.390625 -3.203125 1.390625q-1.671875 0 -2.734375 -0.9375q-1.0625 -0.9375 -1.0625 -2.390625q0 -1.765625 1.328125 -2.734375q1.34375 -0.96875 3.765625 -0.96875l1.875 0l0 -0.890625q0 -1.015625 -0.609375 -1.609375q-0.59375 -0.59375 -1.765625 -0.59375q-1.03125 0 -1.734375 0.515625q-0.703125 0.515625 -0.703125 1.265625l-1.9375 0q0 -0.84375 0.59375 -1.625q0.609375 -0.796875 1.625 -1.25q1.03125 -0.453125 2.265625 -0.453125q1.953125 0 3.046875 0.96875q1.109375 0.96875 1.15625 2.671875l0 5.1875q0 1.5625 0.390625 2.46875l0 0.171875l-2.015625 0zm-3.203125 -1.46875q0.90625 0 1.71875 -0.46875q0.8125 -0.46875 1.171875 -1.21875l0 -2.3125l-1.5 0q-3.546875 0 -3.546875 2.078125q0 0.90625 0.59375 1.421875q0.609375 0.5 1.5625 0.5zm9.663818 -9.796875l0.0625 1.40625q1.296875 -1.609375 3.375 -1.609375q3.578125 0 3.609375 4.015625l0 7.453125l-1.9375 0l0 -7.453125q0 -1.21875 -0.546875 -1.796875q-0.546875 -0.59375 -1.703125 -0.59375q-0.9375 0 -1.65625 0.5q-0.703125 0.5 -1.09375 1.3125l0 8.03125l-1.9375 0l0 -11.265625l1.828125 0zm16.9086 11.265625q-0.171875 -0.328125 -0.28125 -1.1875q-1.34375 1.390625 -3.203125 1.390625q-1.671875 0 -2.734375 -0.9375q-1.0625 -0.9375 -1.0625 -2.390625q0 -1.765625 1.328125 -2.734375q1.34375 -0.96875 3.765625 -0.96875l1.875 0l0 -0.890625q0 -1.015625 -0.609375 -1.609375q-0.59375 -0.59375 -1.765625 -0.59375q-1.03125 0 -1.734375 0.515625q-0.703125 0.515625 -0.703125 1.265625l-1.9375 0q0 -0.84375 0.59375 -1.625q0.609375 -0.796875 1.625 -1.25q1.03125 -0.453125 2.265625 -0.453125q1.953125 0 3.046875 0.96875q1.109375 0.96875 1.15625 2.671875l0 5.1875q0 1.5625 0.390625 2.46875l0 0.171875l-2.015625 0zm-3.203125 -1.46875q0.90625 0 1.71875 -0.46875q0.8125 -0.46875 1.171875 -1.21875l0 -2.3125l-1.5 0q-3.546875 0 -3.546875 2.078125q0 0.90625 0.59375 1.421875q0.609375 0.5 1.5625 0.5zm7.403412 -9.421875l-1.09375 -0.75q0.96875 -1.359375 1.0 -2.859375l0 -1.5l1.90625 0l0 1.359375q-0.015625 1.046875 -0.515625 2.078125q-0.5 1.03125 -1.296875 1.671875zm3.203125 0l-1.09375 -0.75q0.96875 -1.359375 1.0 -2.859375l0 -1.5l1.90625 0l0 1.359375q-0.015625 1.046875 -0.515625 2.078125q-0.5 1.03125 -1.296875 1.671875z"
       fill-rule="nonzero"
       id="path23" />
    <path
       fill="#d9d9d9"
       d="m277.06824 274.5964l139.74805 0l0 66.20471l-139.74805 0z"
       fill-rule="evenodd"
       id="path25" />
    <path
       stroke="#ffffff"
       stroke-width="1.0"
       stroke-linejoin="round"
       stroke-linecap="butt"
       d="m277.06824 274.5964l139.74805 0l0 66.20471l-139.74805 0z"
       fill-rule="evenodd"
       id="path27" />
    <path
       fill="#000000"
       d="m319.21536 298.99127l1.109375 0.75q-0.96875 1.3125 -1.0 2.84375l0 1.421875l-1.921875 0l0 -1.203125q0 -1.0625 0.5 -2.109375q0.515625 -1.046875 1.3125 -1.703125zm3.28125 0l1.109375 0.75q-0.96875 1.3125 -1.0 2.84375l0 1.421875l-1.921875 0l0 -1.203125q0 -1.0625 0.5 -2.109375q0.515625 -1.046875 1.3125 -1.703125zm9.477325 1.03125l2.015625 0l0 10.734375q0 2.171875 -1.3125 3.40625q-1.296875 1.21875 -3.484375 1.21875q-2.25 0 -3.515625 -1.15625q-1.265625 -1.15625 -1.265625 -3.234375l2.0 0q0 1.296875 0.71875 2.03125q0.71875 0.734375 2.0625 0.734375q1.25 0 2.015625 -0.78125q0.765625 -0.78125 0.765625 -2.1875l0 -10.765625zm4.611725 9.421875q0 -1.65625 0.640625 -2.984375q0.65625 -1.328125 1.8125 -2.03125q1.171875 -0.71875 2.65625 -0.71875q2.296875 0 3.71875 1.59375q1.421875 1.578125 1.421875 4.234375l0 0.125q0 1.65625 -0.625 2.96875q-0.625 1.296875 -1.796875 2.03125q-1.171875 0.71875 -2.703125 0.71875q-2.28125 0 -3.703125 -1.59375q-1.421875 -1.59375 -1.421875 -4.21875l0 -0.125zm1.9375 0.21875q0 1.875 0.859375 3.015625q0.875 1.140625 2.328125 1.140625q1.46875 0 2.328125 -1.15625q0.875 -1.15625 0.875 -3.21875q0 -1.859375 -0.890625 -3.0q-0.875 -1.15625 -2.328125 -1.15625q-1.421875 0 -2.296875 1.140625q-0.875 1.125 -0.875 3.234375zm17.288696 2.53125q0 -0.78125 -0.59375 -1.21875q-0.578125 -0.4375 -2.046875 -0.75q-1.453125 -0.3125 -2.3125 -0.75q-0.859375 -0.4375 -1.28125 -1.03125q-0.40625 -0.609375 -0.40625 -1.4375q0 -1.390625 1.171875 -2.34375q1.171875 -0.953125 3.0 -0.953125q1.90625 0 3.09375 0.984375q1.203125 0.984375 1.203125 2.53125l-1.9375 0q0 -0.796875 -0.671875 -1.359375q-0.671875 -0.578125 -1.6875 -0.578125q-1.0625 0 -1.65625 0.453125q-0.59375 0.453125 -0.59375 1.203125q0 0.6875 0.546875 1.046875q0.5625 0.359375 2.0 0.6875q1.453125 0.3125 2.34375 0.765625q0.890625 0.4375 1.328125 1.078125q0.4375 0.625 0.4375 1.53125q0 1.515625 -1.21875 2.421875q-1.203125 0.90625 -3.125 0.90625q-1.359375 0 -2.40625 -0.46875q-1.03125 -0.484375 -1.625 -1.34375q-0.59375 -0.859375 -0.59375 -1.859375l1.9375 0q0.046875 0.96875 0.765625 1.546875q0.734375 0.5625 1.921875 0.5625q1.09375 0 1.75 -0.4375q0.65625 -0.453125 0.65625 -1.1875zm9.122314 3.1875q-2.296875 0 -3.734375 -1.5q-1.4375 -1.5 -1.4375 -4.03125l0 -0.34375q0 -1.6875 0.640625 -3.0q0.640625 -1.3125 1.78125 -2.046875q1.15625 -0.75 2.5 -0.75q2.203125 0 3.421875 1.453125q1.21875 1.4375 1.21875 4.125l0 0.8125l-7.640625 0q0.046875 1.65625 0.96875 2.6875q0.9375 1.03125 2.375 1.03125q1.03125 0 1.734375 -0.421875q0.703125 -0.421875 1.234375 -1.109375l1.1875 0.921875q-1.421875 2.171875 -4.25 2.171875zm-0.25 -10.09375q-1.15625 0 -1.953125 0.84375q-0.796875 0.84375 -0.984375 2.375l5.65625 0l0 -0.140625q-0.09375 -1.46875 -0.796875 -2.265625q-0.703125 -0.8125 -1.921875 -0.8125zm0.953125 -6.109375l2.328125 0l-2.796875 3.0625l-1.546875 0l2.015625 -3.0625zm6.0285034 5.109375l-1.09375 -0.75q0.96875 -1.359375 1.0 -2.859375l0 -1.5l1.90625 0l0 1.359375q-0.015625 1.046875 -0.515625 2.078125q-0.5 1.03125 -1.296875 1.671875zm3.203125 0l-1.09375 -0.75q0.96875 -1.359375 1.0 -2.859375l0 -1.5l1.90625 0l0 1.359375q-0.015625 1.046875 -0.515625 2.078125q-0.5 1.03125 -1.296875 1.671875z"
       fill-rule="nonzero"
       id="path29" />
    <path
       fill="#d9d9d9"
       d="m277.06824 349.99512l139.74805 0l0 66.20471l-139.74805 0z"
       fill-rule="evenodd"
       id="path31" />
    <path
       stroke="#ffffff"
       stroke-width="1.0"
       stroke-linejoin="round"
       stroke-linecap="butt"
       d="m277.06824 349.99512l139.74805 0l0 66.20471l-139.74805 0z"
       fill-rule="evenodd"
       id="path33" />
    <path
       fill="#000000"
       d="m315.0551 374.38998l1.109375 0.75q-0.96875 1.3125 -1.0 2.84375l0 1.421875l-1.921875 0l0 -1.203125q0 -1.0625 0.5 -2.109375q0.515625 -1.046875 1.3125 -1.703125zm3.28125 0l1.109375 0.75q-0.96875 1.3125 -1.0 2.84375l0 1.421875l-1.921875 0l0 -1.203125q0 -1.0625 0.5 -2.109375q0.515625 -1.046875 1.3125 -1.703125zm5.1335754 10.25l0 5.9375l-2.0 0l0 -15.15625l5.59375 0q2.484375 0 3.890625 1.265625q1.40625 1.265625 1.40625 3.359375q0 2.203125 -1.375 3.40625q-1.375 1.1875 -3.953125 1.1875l-3.5625 0zm0 -1.640625l3.59375 0q1.59375 0 2.453125 -0.75q0.859375 -0.75 0.859375 -2.1875q0 -1.34375 -0.859375 -2.15625q-0.859375 -0.8125 -2.34375 -0.84375l-3.703125 0l0 5.9375zm15.694641 7.78125q-2.296875 0 -3.734375 -1.5q-1.4375 -1.5 -1.4375 -4.03125l0 -0.34375q0 -1.6875 0.640625 -3.0q0.640625 -1.3125 1.78125 -2.046875q1.15625 -0.75 2.5 -0.75q2.203125 0 3.421875 1.453125q1.21875 1.4375 1.21875 4.125l0 0.8125l-7.640625 0q0.046875 1.65625 0.96875 2.6875q0.9375 1.03125 2.375 1.03125q1.03125 0 1.734375 -0.421875q0.703125 -0.421875 1.234375 -1.109375l1.1875 0.921875q-1.421875 2.171875 -4.25 2.171875zm-0.25 -10.09375q-1.15625 0 -1.953125 0.84375q-0.796875 0.84375 -0.984375 2.375l5.65625 0l0 -0.140625q-0.09375 -1.46875 -0.796875 -2.265625q-0.703125 -0.8125 -1.921875 -0.8125zm6.3930664 4.15625q0 -2.59375 1.234375 -4.15625q1.234375 -1.578125 3.21875 -1.578125q1.984375 0 3.140625 1.34375l0 -5.875l1.921875 0l0 16.0l-1.765625 0l-0.09375 -1.203125q-1.15625 1.40625 -3.21875 1.40625q-1.96875 0 -3.203125 -1.59375q-1.234375 -1.609375 -1.234375 -4.1875l0 -0.15625zm1.9375 0.21875q0 1.921875 0.78125 3.015625q0.796875 1.078125 2.1875 1.078125q1.84375 0 2.6875 -1.65625l0 -5.171875q-0.875 -1.59375 -2.65625 -1.59375q-1.421875 0 -2.21875 1.09375q-0.78125 1.09375 -0.78125 3.234375zm16.012695 -4.03125q-0.4375 -0.0625 -0.953125 -0.0625q-1.890625 0 -2.5625 1.609375l0 8.0l-1.9375 0l0 -11.265625l1.875 0l0.03125 1.296875q0.953125 -1.5 2.6875 -1.5q0.5625 0 0.859375 0.140625l0 1.78125zm1.055542 3.8125q0 -1.65625 0.640625 -2.984375q0.65625 -1.328125 1.8125 -2.03125q1.171875 -0.71875 2.65625 -0.71875q2.296875 0 3.71875 1.59375q1.421875 1.578125 1.421875 4.234375l0 0.125q0 1.65625 -0.625 2.96875q-0.625 1.296875 -1.796875 2.03125q-1.171875 0.71875 -2.703125 0.71875q-2.28125 0 -3.703125 -1.59375q-1.421875 -1.59375 -1.421875 -4.21875l0 -0.125zm1.9375 0.21875q0 1.875 0.859375 3.015625q0.875 1.140625 2.328125 1.140625q1.46875 0 2.328125 -1.15625q0.875 -1.15625 0.875 -3.21875q0 -1.859375 -0.890625 -3.0q-0.875 -1.15625 -2.328125 -1.15625q-1.421875 0 -2.296875 1.140625q-0.875 1.125 -0.875 3.234375zm9.575165 -5.375l-1.09375 -0.75q0.96875 -1.359375 1.0 -2.859375l0 -1.5l1.90625 0l0 1.359375q-0.015625 1.046875 -0.515625 2.078125q-0.5 1.03125 -1.296875 1.671875zm3.203125 0l-1.09375 -0.75q0.96875 -1.359375 1.0 -2.859375l0 -1.5l1.90625 0l0 1.359375q-0.015625 1.046875 -0.515625 2.078125q-0.5 1.03125 -1.296875 1.671875z"
       fill-rule="nonzero"
       id="path35" />
    <path
       fill="#d9d9d9"
       d="m277.06824 425.39407l139.74805 0l0 66.20471l-139.74805 0z"
       fill-rule="evenodd"
       id="path37" />
    <path
       stroke="#ffffff"
       stroke-width="1.0"
       stroke-linejoin="round"
       stroke-linecap="butt"
       d="m277.06824 425.39407l139.74805 0l0 66.20471l-139.74805 0z"
       fill-rule="evenodd"
       id="path39" />
    <path
       fill="#000000"
       d="m334.7222 449.78894l1.109375 0.75q-0.96875 1.3125 -1.0 2.84375l0 1.421875l-1.921875 0l0 -1.203125q0 -1.0625 0.5 -2.109375q0.515625 -1.046875 1.3125 -1.703125zm3.28125 0l1.109375 0.75q-0.96875 1.3125 -1.0 2.84375l0 1.421875l-1.921875 0l0 -1.203125q0 -1.0625 0.5 -2.109375q0.515625 -1.046875 1.3125 -1.703125zm2.8679504 15.171875q0 -0.5 0.296875 -0.828125q0.296875 -0.328125 0.890625 -0.328125q0.59375 0 0.890625 0.328125q0.3125 0.328125 0.3125 0.828125q0 0.484375 -0.3125 0.8125q-0.296875 0.3125 -0.890625 0.3125q-0.59375 0 -0.890625 -0.3125q-0.296875 -0.328125 -0.296875 -0.8125zm5.61322 0q0 -0.5 0.296875 -0.828125q0.296875 -0.328125 0.890625 -0.328125q0.59375 0 0.890625 0.328125q0.3125 0.328125 0.3125 0.828125q0 0.484375 -0.3125 0.8125q-0.296875 0.3125 -0.890625 0.3125q-0.59375 0 -0.890625 -0.3125q-0.296875 -0.328125 -0.296875 -0.8125zm5.61322 0q0 -0.5 0.296875 -0.828125q0.296875 -0.328125 0.890625 -0.328125q0.59375 0 0.890625 0.328125q0.3125 0.328125 0.3125 0.828125q0 0.484375 -0.3125 0.8125q-0.296875 0.3125 -0.890625 0.3125q-0.59375 0 -0.890625 -0.3125q-0.296875 -0.328125 -0.296875 -0.8125zm4.0611267 -9.875l-1.09375 -0.75q0.96875 -1.359375 1.0 -2.859375l0 -1.5l1.90625 0l0 1.359375q-0.015625 1.046875 -0.515625 2.078125q-0.5 1.03125 -1.296875 1.671875zm3.203125 0l-1.09375 -0.75q0.96875 -1.359375 1.0 -2.859375l0 -1.5l1.90625 0l0 1.359375q-0.015625 1.046875 -0.515625 2.078125q-0.5 1.03125 -1.296875 1.671875z"
       fill-rule="nonzero"
       id="path41" />
    <path
       fill="#999999"
       d="m124.64829 123.79897l139.74805 0l0 66.204735l-139.74805 0z"
       fill-rule="evenodd"
       id="path43" />
    <path
       stroke="#434343"
       stroke-width="1.0"
       stroke-linejoin="round"
       stroke-linecap="butt"
       d="m124.64829 123.79897l139.74805 0l0 66.204735l-139.74805 0z"
       fill-rule="evenodd"
       id="path45" />
    <path
       fill="#ffffff"
       d="m196.8824 165.16133l-3.1875 0l0 -12.328125l-3.828125 1.1875l0 -2.59375l6.671875 -2.390625l0.34375 0l0 16.125z"
       fill-rule="nonzero"
       id="path47" />
    <path
       fill="#999999"
       d="m124.64829 199.1977l139.74805 0l0 66.20471l-139.74805 0z"
       fill-rule="evenodd"
       id="path49" />
    <path
       stroke="#434343"
       stroke-width="1.0"
       stroke-linejoin="round"
       stroke-linecap="butt"
       d="m124.64829 199.1977l139.74805 0l0 66.20471l-139.74805 0z"
       fill-rule="evenodd"
       id="path51" />
    <path
       fill="#ffffff"
       d="m200.16365 240.56004l-11.046875 0l0 -2.1875l5.21875 -5.5625q1.0625 -1.171875 1.578125 -2.046875q0.515625 -0.875 0.515625 -1.65625q0 -1.0625 -0.546875 -1.671875q-0.53125 -0.625 -1.546875 -0.625q-1.078125 0 -1.703125 0.75q-0.625 0.75 -0.625 1.953125l-3.203125 0q0 -1.46875 0.6875 -2.6875q0.703125 -1.21875 1.984375 -1.90625q1.296875 -0.6875 2.921875 -0.6875q2.484375 0 3.859375 1.203125q1.375 1.1875 1.375 3.359375q0 1.203125 -0.625 2.4375q-0.609375 1.234375 -2.109375 2.890625l-3.671875 3.859375l6.9375 0l0 2.578125z"
       fill-rule="nonzero"
       id="path53" />
    <path
       fill="#999999"
       d="m124.64829 274.5964l139.74805 0l0 66.20471l-139.74805 0z"
       fill-rule="evenodd"
       id="path55" />
    <path
       stroke="#434343"
       stroke-width="1.0"
       stroke-linejoin="round"
       stroke-linecap="butt"
       d="m124.64829 274.5964l139.74805 0l0 66.20471l-139.74805 0z"
       fill-rule="evenodd"
       id="path57" />
    <path
       fill="#ffffff"
       d="m192.36678 306.49002l1.703125 0q1.21875 0 1.796875 -0.609375q0.59375 -0.609375 0.59375 -1.609375q0 -0.984375 -0.578125 -1.515625q-0.578125 -0.546875 -1.59375 -0.546875q-0.921875 0 -1.546875 0.5q-0.609375 0.5 -0.609375 1.3125l-3.203125 0q0 -1.265625 0.671875 -2.265625q0.6875 -1.0 1.90625 -1.5625q1.234375 -0.5625 2.703125 -0.5625q2.546875 0 4.0 1.21875q1.453125 1.21875 1.453125 3.375q0 1.109375 -0.6875 2.046875q-0.671875 0.921875 -1.765625 1.40625q1.359375 0.5 2.03125 1.46875q0.671875 0.96875 0.671875 2.296875q0 2.140625 -1.5625 3.4375q-1.5625 1.296875 -4.140625 1.296875q-2.421875 0 -3.953125 -1.265625q-1.53125 -1.28125 -1.53125 -3.359375l3.203125 0q0 0.90625 0.671875 1.484375q0.6875 0.5625 1.6875 0.5625q1.140625 0 1.78125 -0.59375q0.640625 -0.609375 0.640625 -1.609375q0 -2.40625 -2.640625 -2.40625l-1.703125 0l0 -2.5z"
       fill-rule="nonzero"
       id="path59" />
    <path
       fill="#999999"
       d="m124.64829 349.99512l139.74805 0l0 66.20471l-139.74805 0z"
       fill-rule="evenodd"
       id="path61" />
    <path
       stroke="#434343"
       stroke-width="1.0"
       stroke-linejoin="round"
       stroke-linecap="butt"
       d="m124.64829 349.99512l139.74805 0l0 66.20471l-139.74805 0z"
       fill-rule="evenodd"
       id="path63" />
    <path
       fill="#ffffff"
       d="m198.5699 385.29498l1.828125 0l0 2.578125l-1.828125 0l0 3.484375l-3.1875 0l0 -3.484375l-6.609375 0l-0.140625 -2.015625l6.71875 -10.609375l3.21875 0l0 10.046875zm-6.75 0l3.5625 0l0 -5.6875l-0.21875 0.359375l-3.34375 5.328125z"
       fill-rule="nonzero"
       id="path65" />
    <path
       fill="#999999"
       d="m124.64829 425.39407l139.74805 0l0 66.20471l-139.74805 0z"
       fill-rule="evenodd"
       id="path67" />
    <path
       stroke="#434343"
       stroke-width="1.0"
       stroke-linejoin="round"
       stroke-linecap="butt"
       d="m124.64829 425.39407l139.74805 0l0 66.20471l-139.74805 0z"
       fill-rule="evenodd"
       id="path69" />
    <path
       fill="#ffffff"
       d="m189.60115 458.83456l0.921875 -8.1875l9.03125 0l0 2.671875l-6.40625 0l-0.40625 3.453125q1.140625 -0.609375 2.421875 -0.609375q2.3125 0 3.609375 1.4375q1.3125 1.421875 1.3125 3.984375q0 1.5625 -0.671875 2.796875q-0.65625 1.234375 -1.890625 1.921875q-1.21875 0.671875 -2.890625 0.671875q-1.453125 0 -2.703125 -0.59375q-1.25 -0.59375 -1.984375 -1.65625q-0.71875 -1.078125 -0.765625 -2.453125l3.171875 0q0.09375 1.015625 0.6875 1.578125q0.609375 0.546875 1.59375 0.546875q1.078125 0 1.65625 -0.78125q0.59375 -0.78125 0.59375 -2.203125q0 -1.375 -0.671875 -2.09375q-0.671875 -0.734375 -1.921875 -0.734375q-1.125 0 -1.84375 0.59375l-0.3125 0.28125l-2.53125 -0.625z"
       fill-rule="nonzero"
       id="path71" />
    <path
       fill="#999999"
       d="m695.6037 48.40026l139.74799 0l0 66.20473l-139.74799 0z"
       fill-rule="evenodd"
       id="path73" />
    <path
       stroke="#434343"
       stroke-width="1.0"
       stroke-linejoin="round"
       stroke-linecap="butt"
       d="m695.6037 48.40026l139.74799 0l0 66.20473l-139.74799 0z"
       fill-rule="evenodd"
       id="path75" />
    <path
       fill="#ffffff"
       d="m743.8208 86.353874l4.078125 -13.53125l4.125 0l-6.265625 18.0l-3.875 0l-6.234375 -18.0l4.109375 0l4.0625 13.53125zm16.850098 4.46875q-0.25 -0.484375 -0.359375 -1.203125q-1.296875 1.453125 -3.375 1.453125q-1.96875 0 -3.265625 -1.140625q-1.28125 -1.140625 -1.28125 -2.875q0 -2.125 1.578125 -3.25q1.578125 -1.140625 4.546875 -1.15625l1.65625 0l0 -0.765625q0 -0.9375 -0.484375 -1.484375q-0.46875 -0.5625 -1.5 -0.5625q-0.90625 0 -1.421875 0.4375q-0.5 0.4375 -0.5 1.1875l-3.578125 0q0 -1.171875 0.71875 -2.15625q0.71875 -0.984375 2.015625 -1.546875q1.3125 -0.5625 2.953125 -0.5625q2.46875 0 3.921875 1.25q1.453125 1.234375 1.453125 3.484375l0 5.796875q0.015625 1.90625 0.53125 2.890625l0 0.203125l-3.609375 0zm-2.953125 -2.484375q0.796875 0 1.453125 -0.34375q0.671875 -0.359375 1.0 -0.953125l0 -2.296875l-1.34375 0q-2.6875 0 -2.859375 1.84375l0 0.21875q0 0.671875 0.46875 1.109375q0.46875 0.421875 1.28125 0.421875zm12.548035 2.484375l-3.578125 0l0 -19.0l3.578125 0l0 19.0zm2.387268 -6.8125q0 -2.0 0.765625 -3.546875q0.765625 -1.5625 2.203125 -2.40625q1.453125 -0.859375 3.359375 -0.859375q2.703125 0 4.40625 1.65625q1.71875 1.65625 1.921875 4.5l0.03125 0.921875q0 3.078125 -1.734375 4.9375q-1.71875 1.859375 -4.609375 1.859375q-2.890625 0 -4.625 -1.859375q-1.71875 -1.859375 -1.71875 -5.046875l0 -0.15625zm3.578125 0.265625q0 1.890625 0.71875 2.90625q0.71875 1.0 2.046875 1.0q1.296875 0 2.03125 -0.984375q0.734375 -1.0 0.734375 -3.1875q0 -1.875 -0.734375 -2.890625q-0.734375 -1.03125 -2.046875 -1.03125q-1.3125 0 -2.03125 1.03125q-0.71875 1.015625 -0.71875 3.15625zm18.82129 -3.484375q-0.734375 -0.09375 -1.28125 -0.09375q-2.03125 0 -2.65625 1.375l0 8.75l-3.578125 0l0 -13.375l3.375 0l0.09375 1.59375q1.078125 -1.84375 2.984375 -1.84375q0.59375 0 1.109375 0.15625l-0.046875 3.4375z"
       fill-rule="nonzero"
       id="path77" />
    <path
       fill="#d9d9d9"
       d="m695.6037 123.79897l139.74799 0l0 66.204735l-139.74799 0z"
       fill-rule="evenodd"
       id="path79" />
    <path
       stroke="#ffffff"
       stroke-width="1.0"
       stroke-linejoin="round"
       stroke-linecap="butt"
       d="m695.6037 123.79897l139.74799 0l0 66.204735l-139.74799 0z"
       fill-rule="evenodd"
       id="path81" />
    <path
       fill="#000000"
       d="m746.3123 164.38133l-1.9375 0l0 -12.84375l-3.890625 1.4375l0 -1.75l5.53125 -2.078125l0.296875 0l0 15.234375zm13.023132 -6.671875q-0.59375 0.71875 -1.4375 1.15625q-0.84375 0.4375 -1.84375 0.4375q-1.3125 0 -2.28125 -0.640625q-0.96875 -0.640625 -1.5 -1.8125q-0.53125 -1.171875 -0.53125 -2.59375q0 -1.515625 0.578125 -2.734375q0.578125 -1.21875 1.640625 -1.859375q1.0625 -0.65625 2.46875 -0.65625q2.25 0 3.546875 1.6875q1.296875 1.6875 1.296875 4.578125l0 0.5625q0 4.4375 -1.75 6.46875q-1.75 2.03125 -5.28125 2.09375l-0.375 0l0 -1.625l0.40625 0q2.390625 -0.046875 3.671875 -1.25q1.28125 -1.203125 1.390625 -3.8125zm-2.96875 0q0.96875 0 1.78125 -0.59375q0.828125 -0.59375 1.203125 -1.46875l0 -0.765625q0 -1.890625 -0.828125 -3.078125q-0.8125 -1.1875 -2.078125 -1.1875q-1.265625 0 -2.046875 0.984375q-0.765625 0.96875 -0.765625 2.546875q0 1.5625 0.734375 2.5625q0.75 1.0 2.0 1.0zm7.8043823 5.65625q0 -0.5 0.296875 -0.828125q0.296875 -0.328125 0.890625 -0.328125q0.59375 0 0.890625 0.328125q0.3125 0.328125 0.3125 0.828125q0 0.484375 -0.3125 0.8125q-0.296875 0.3125 -0.890625 0.3125q-0.59375 0 -0.890625 -0.3125q-0.296875 -0.328125 -0.296875 -0.8125zm12.753845 -5.65625q-0.59375 0.71875 -1.4375 1.15625q-0.84375 0.4375 -1.84375 0.4375q-1.3125 0 -2.28125 -0.640625q-0.96875 -0.640625 -1.5 -1.8125q-0.53125 -1.171875 -0.53125 -2.59375q0 -1.515625 0.578125 -2.734375q0.578125 -1.21875 1.640625 -1.859375q1.0625 -0.65625 2.46875 -0.65625q2.25 0 3.546875 1.6875q1.296875 1.6875 1.296875 4.578125l0 0.5625q0 4.4375 -1.75 6.46875q-1.75 2.03125 -5.28125 2.09375l-0.375 0l0 -1.625l0.40625 0q2.390625 -0.046875 3.671875 -1.25q1.28125 -1.203125 1.390625 -3.8125zm-2.96875 0q0.96875 0 1.78125 -0.59375q0.828125 -0.59375 1.203125 -1.46875l0 -0.765625q0 -1.890625 -0.828125 -3.078125q-0.8125 -1.1875 -2.078125 -1.1875q-1.265625 0 -2.046875 0.984375q-0.765625 0.96875 -0.765625 2.546875q0 1.5625 0.734375 2.5625q0.75 1.0 2.0 1.0zm17.070007 0.203125q0 3.390625 -1.15625 5.03125q-1.15625 1.640625 -3.609375 1.640625q-2.421875 0 -3.59375 -1.609375q-1.171875 -1.609375 -1.203125 -4.796875l0 -2.578125q0 -3.34375 1.15625 -4.96875q1.15625 -1.625 3.625 -1.625q2.4375 0 3.59375 1.578125q1.15625 1.5625 1.1875 4.828125l0 2.5zm-1.921875 -2.640625q0 -2.4375 -0.6875 -3.546875q-0.6875 -1.125 -2.171875 -1.125q-1.484375 0 -2.171875 1.109375q-0.671875 1.109375 -0.6875 3.421875l0 3.078125q0 2.46875 0.703125 3.640625q0.71875 1.171875 2.171875 1.171875q1.421875 0 2.109375 -1.109375q0.703125 -1.109375 0.734375 -3.484375l0 -3.15625z"
       fill-rule="nonzero"
       id="path83" />
    <path
       fill="#d9d9d9"
       d="m695.6037 199.1977l139.74799 0l0 66.20471l-139.74799 0z"
       fill-rule="evenodd"
       id="path85" />
    <path
       stroke="#ffffff"
       stroke-width="1.0"
       stroke-linejoin="round"
       stroke-linecap="butt"
       d="m695.6037 199.1977l139.74799 0l0 66.20471l-139.74799 0z"
       fill-rule="evenodd"
       id="path87" />
    <path
       fill="#000000"
       d="m755.7536 225.70192l-6.28125 14.078125l-2.015625 0l6.265625 -13.578125l-8.21875 0l0 -1.578125l10.25 0l0 1.078125zm2.4293823 13.0625q0 -0.5 0.296875 -0.828125q0.296875 -0.328125 0.890625 -0.328125q0.59375 0 0.890625 0.328125q0.3125 0.328125 0.3125 0.828125q0 0.484375 -0.3125 0.8125q-0.296875 0.3125 -0.890625 0.3125q-0.59375 0 -0.890625 -0.3125q-0.296875 -0.328125 -0.296875 -0.8125zm6.253845 -6.59375l0.78125 -7.546875l7.765625 0l0 1.78125l-6.140625 0l-0.453125 4.125q1.109375 -0.65625 2.53125 -0.65625q2.078125 0 3.28125 1.375q1.21875 1.359375 1.21875 3.703125q0 2.34375 -1.265625 3.6875q-1.25 1.34375 -3.53125 1.34375q-2.0 0 -3.28125 -1.109375q-1.265625 -1.109375 -1.4375 -3.078125l1.8125 0q0.1875 1.296875 0.9375 1.96875q0.75 0.65625 1.96875 0.65625q1.34375 0 2.109375 -0.921875q0.765625 -0.921875 0.765625 -2.53125q0 -1.515625 -0.828125 -2.4375q-0.828125 -0.921875 -2.203125 -0.921875q-1.25 0 -1.96875 0.546875l-0.515625 0.421875l-1.546875 -0.40625zm18.663696 -7.5625l0 1.640625l-0.359375 0q-2.25 0.03125 -3.59375 1.328125q-1.328125 1.296875 -1.53125 3.625q1.203125 -1.375 3.265625 -1.375q1.984375 0 3.15625 1.40625q1.1875 1.390625 1.1875 3.59375q0 2.34375 -1.28125 3.75q-1.265625 1.40625 -3.40625 1.40625q-2.1875 0 -3.546875 -1.671875q-1.34375 -1.671875 -1.34375 -4.296875l0 -0.75q0 -4.171875 1.78125 -6.390625q1.796875 -2.21875 5.328125 -2.265625l0.34375 0zm-2.53125 6.828125q-1.0 0 -1.828125 0.59375q-0.828125 0.59375 -1.15625 1.484375l0 0.71875q0 1.875 0.84375 3.015625q0.84375 1.140625 2.109375 1.140625q1.296875 0 2.03125 -0.953125q0.75 -0.953125 0.75 -2.515625q0 -1.5625 -0.75 -2.515625q-0.75 -0.96875 -2.0 -0.96875z"
       fill-rule="nonzero"
       id="path89" />
    <path
       fill="#d9d9d9"
       d="m695.6037 274.5964l139.74799 0l0 66.20471l-139.74799 0z"
       fill-rule="evenodd"
       id="path91" />
    <path
       stroke="#ffffff"
       stroke-width="1.0"
       stroke-linejoin="round"
       stroke-linecap="butt"
       d="m695.6037 274.5964l139.74799 0l0 66.20471l-139.74799 0z"
       fill-rule="evenodd"
       id="path93" />
    <path
       fill="#000000"
       d="m748.7692 306.66315l1.453125 0q1.359375 -0.03125 2.140625 -0.71875q0.78125 -0.703125 0.78125 -1.890625q0 -2.65625 -2.65625 -2.65625q-1.25 0 -2.0 0.71875q-0.734375 0.703125 -0.734375 1.875l-1.9375 0q0 -1.796875 1.3125 -2.984375q1.328125 -1.203125 3.359375 -1.203125q2.140625 0 3.359375 1.140625q1.21875 1.140625 1.21875 3.15625q0 0.984375 -0.640625 1.921875q-0.640625 0.921875 -1.734375 1.375q1.25 0.390625 1.921875 1.3125q0.6875 0.921875 0.6875 2.234375q0 2.046875 -1.34375 3.25q-1.328125 1.1875 -3.46875 1.1875q-2.125 0 -3.46875 -1.15625q-1.328125 -1.15625 -1.328125 -3.046875l1.9375 0q0 1.203125 0.78125 1.921875q0.78125 0.71875 2.09375 0.71875q1.390625 0 2.125 -0.734375q0.75 -0.734375 0.75 -2.09375q0 -1.328125 -0.8125 -2.03125q-0.8125 -0.703125 -2.34375 -0.734375l-1.453125 0l0 -1.5625zm9.413757 7.5q0 -0.5 0.296875 -0.828125q0.296875 -0.328125 0.890625 -0.328125q0.59375 0 0.890625 0.328125q0.3125 0.328125 0.3125 0.828125q0 0.484375 -0.3125 0.8125q-0.296875 0.3125 -0.890625 0.3125q-0.59375 0 -0.890625 -0.3125q-0.296875 -0.328125 -0.296875 -0.8125zm11.70697 1.015625l-1.9375 0l0 -12.84375l-3.890625 1.4375l0 -1.75l5.53125 -2.078125l0.296875 0l0 15.234375zm15.569946 0l-9.921875 0l0 -1.390625l5.25 -5.828125q1.15625 -1.328125 1.59375 -2.15625q0.453125 -0.828125 0.453125 -1.703125q0 -1.1875 -0.71875 -1.9375q-0.71875 -0.765625 -1.921875 -0.765625q-1.4375 0 -2.234375 0.8125q-0.796875 0.8125 -0.796875 2.28125l-1.921875 0q0 -2.09375 1.34375 -3.390625q1.359375 -1.296875 3.609375 -1.296875q2.125 0 3.34375 1.109375q1.234375 1.109375 1.234375 2.953125q0 2.234375 -2.859375 5.328125l-4.0625 4.40625l7.609375 0l0 1.578125z"
       fill-rule="nonzero"
       id="path95" />
    <path
       fill="#d9d9d9"
       d="m695.6037 349.99512l139.74799 0l0 66.20471l-139.74799 0z"
       fill-rule="evenodd"
       id="path97" />
    <path
       stroke="#ffffff"
       stroke-width="1.0"
       stroke-linejoin="round"
       stroke-linecap="butt"
       d="m695.6037 349.99512l139.74799 0l0 66.20471l-139.74799 0z"
       fill-rule="evenodd"
       id="path99" />
    <path
       fill="#000000"
       d="m754.09735 385.48373l2.109375 0l0 1.578125l-2.109375 0l0 3.515625l-1.9375 0l0 -3.515625l-6.90625 0l0 -1.140625l6.796875 -10.5l2.046875 0l0 10.0625zm-6.65625 0l4.71875 0l0 -7.4375l-0.21875 0.421875l-4.5 7.015625zm10.741882 4.078125q0 -0.5 0.296875 -0.828125q0.296875 -0.328125 0.890625 -0.328125q0.59375 0 0.890625 0.328125q0.3125 0.328125 0.3125 0.828125q0 0.484375 -0.3125 0.8125q-0.296875 0.3125 -0.890625 0.3125q-0.59375 0 -0.890625 -0.3125q-0.296875 -0.328125 -0.296875 -0.8125zm13.503845 -4.078125l2.109375 0l0 1.578125l-2.109375 0l0 3.515625l-1.9375 0l0 -3.515625l-6.90625 0l0 -1.140625l6.796875 -10.5l2.046875 0l0 10.0625zm-6.65625 0l4.71875 0l0 -7.4375l-0.21875 0.421875l-4.5 7.015625zm18.632446 0l2.109375 0l0 1.578125l-2.109375 0l0 3.515625l-1.9375 0l0 -3.515625l-6.90625 0l0 -1.140625l6.796875 -10.5l2.046875 0l0 10.0625zm-6.65625 0l4.71875 0l0 -7.4375l-0.21875 0.421875l-4.5 7.015625z"
       fill-rule="nonzero"
       id="path101" />
    <path
       fill="#d9d9d9"
       d="m695.6037 425.39407l139.74799 0l0 66.20471l-139.74799 0z"
       fill-rule="evenodd"
       id="path103" />
    <path
       stroke="#ffffff"
       stroke-width="1.0"
       stroke-linejoin="round"
       stroke-linecap="butt"
       d="m695.6037 425.39407l139.74799 0l0 66.20471l-139.74799 0z"
       fill-rule="evenodd"
       id="path105" />
    <path
       fill="#000000"
       d="m749.90607 465.97644l-9.921875 0l0 -1.390625l5.25 -5.828125q1.15625 -1.328125 1.59375 -2.15625q0.453125 -0.828125 0.453125 -1.703125q0 -1.1875 -0.71875 -1.9375q-0.71875 -0.765625 -1.921875 -0.765625q-1.4375 0 -2.234375 0.8125q-0.796875 0.8125 -0.796875 2.28125l-1.921875 0q0 -2.09375 1.34375 -3.390625q1.359375 -1.296875 3.609375 -1.296875q2.125 0 3.34375 1.109375q1.234375 1.109375 1.234375 2.953125q0 2.234375 -2.859375 5.328125l-4.0625 4.40625l7.609375 0l0 1.578125zm9.429382 -6.671875q-0.59375 0.71875 -1.4375 1.15625q-0.84375 0.4375 -1.84375 0.4375q-1.3125 0 -2.28125 -0.640625q-0.96875 -0.640625 -1.5 -1.8125q-0.53125 -1.171875 -0.53125 -2.59375q0 -1.515625 0.578125 -2.734375q0.578125 -1.21875 1.640625 -1.859375q1.0625 -0.65625 2.46875 -0.65625q2.25 0 3.546875 1.6875q1.296875 1.6875 1.296875 4.578125l0 0.5625q0 4.4375 -1.75 6.46875q-1.75 2.03125 -5.28125 2.09375l-0.375 0l0 -1.625l0.40625 0q2.390625 -0.046875 3.671875 -1.25q1.28125 -1.203125 1.390625 -3.8125zm-2.96875 0q0.96875 0 1.78125 -0.59375q0.828125 -0.59375 1.203125 -1.46875l0 -0.765625q0 -1.890625 -0.828125 -3.078125q-0.8125 -1.1875 -2.078125 -1.1875q-1.265625 0 -2.046875 0.984375q-0.765625 0.96875 -0.765625 2.546875q0 1.5625 0.734375 2.5625q0.75 1.0 2.0 1.0zm7.8043823 5.65625q0 -0.5 0.296875 -0.828125q0.296875 -0.328125 0.890625 -0.328125q0.59375 0 0.890625 0.328125q0.3125 0.328125 0.3125 0.828125q0 0.484375 -0.3125 0.8125q-0.296875 0.3125 -0.890625 0.3125q-0.59375 0 -0.890625 -0.3125q-0.296875 -0.328125 -0.296875 -0.8125zm12.753845 -5.65625q-0.59375 0.71875 -1.4375 1.15625q-0.84375 0.4375 -1.84375 0.4375q-1.3125 0 -2.28125 -0.640625q-0.96875 -0.640625 -1.5 -1.8125q-0.53125 -1.171875 -0.53125 -2.59375q0 -1.515625 0.578125 -2.734375q0.578125 -1.21875 1.640625 -1.859375q1.0625 -0.65625 2.46875 -0.65625q2.25 0 3.546875 1.6875q1.296875 1.6875 1.296875 4.578125l0 0.5625q0 4.4375 -1.75 6.46875q-1.75 2.03125 -5.28125 2.09375l-0.375 0l0 -1.625l0.40625 0q2.390625 -0.046875 3.671875 -1.25q1.28125 -1.203125 1.390625 -3.8125zm-2.96875 0q0.96875 0 1.78125 -0.59375q0.828125 -0.59375 1.203125 -1.46875l0 -0.765625q0 -1.890625 -0.828125 -3.078125q-0.8125 -1.1875 -2.078125 -1.1875q-1.265625 0 -2.046875 0.984375q-0.765625 0.96875 -0.765625 2.546875q0 1.5625 0.734375 2.5625q0.75 1.0 2.0 1.0zm17.070007 0.203125q0 3.390625 -1.15625 5.03125q-1.15625 1.640625 -3.609375 1.640625q-2.421875 0 -3.59375 -1.609375q-1.171875 -1.609375 -1.203125 -4.796875l0 -2.578125q0 -3.34375 1.15625 -4.96875q1.15625 -1.625 3.625 -1.625q2.4375 0 3.59375 1.578125q1.15625 1.5625 1.1875 4.828125l0 2.5zm-1.921875 -2.640625q0 -2.4375 -0.6875 -3.546875q-0.6875 -1.125 -2.171875 -1.125q-1.484375 0 -2.171875 1.109375q-0.671875 1.109375 -0.6875 3.421875l0 3.078125q0 2.46875 0.703125 3.640625q0.71875 1.171875 2.171875 1.171875q1.421875 0 2.109375 -1.109375q0.703125 -1.109375 0.734375 -3.484375l0 -3.15625z"
       fill-rule="nonzero"
       id="path107" />
    <path
       fill="#999999"
       d="m543.1837 123.79897l139.74805 0l0 66.204735l-139.74805 0z"
       fill-rule="evenodd"
       id="path109" />
    <path
       stroke="#434343"
       stroke-width="1.0"
       stroke-linejoin="round"
       stroke-linecap="butt"
       d="m543.1837 123.79897l139.74805 0l0 66.204735l-139.74805 0z"
       fill-rule="evenodd"
       id="path111" />
    <path
       fill="#ffffff"
       d="m615.41785 165.16133l-3.1875 0l0 -12.328125l-3.828125 1.1875l0 -2.59375l6.671875 -2.390625l0.34375 0l0 16.125z"
       fill-rule="nonzero"
       id="path113" />
    <path
       fill="#999999"
       d="m543.1837 199.1977l139.74805 0l0 66.20471l-139.74805 0z"
       fill-rule="evenodd"
       id="path115" />
    <path
       stroke="#434343"
       stroke-width="1.0"
       stroke-linejoin="round"
       stroke-linecap="butt"
       d="m543.1837 199.1977l139.74805 0l0 66.20471l-139.74805 0z"
       fill-rule="evenodd"
       id="path117" />
    <path
       fill="#ffffff"
       d="m618.6991 240.56004l-11.046875 0l0 -2.1875l5.21875 -5.5625q1.0625 -1.171875 1.578125 -2.046875q0.515625 -0.875 0.515625 -1.65625q0 -1.0625 -0.546875 -1.671875q-0.53125 -0.625 -1.546875 -0.625q-1.078125 0 -1.703125 0.75q-0.625 0.75 -0.625 1.953125l-3.203125 0q0 -1.46875 0.6875 -2.6875q0.703125 -1.21875 1.984375 -1.90625q1.296875 -0.6875 2.921875 -0.6875q2.484375 0 3.859375 1.203125q1.375 1.1875 1.375 3.359375q0 1.203125 -0.625 2.4375q-0.609375 1.234375 -2.109375 2.890625l-3.671875 3.859375l6.9375 0l0 2.578125z"
       fill-rule="nonzero"
       id="path119" />
    <path
       fill="#999999"
       d="m543.1837 274.5964l139.74805 0l0 66.20471l-139.74805 0z"
       fill-rule="evenodd"
       id="path121" />
    <path
       stroke="#434343"
       stroke-width="1.0"
       stroke-linejoin="round"
       stroke-linecap="butt"
       d="m543.1837 274.5964l139.74805 0l0 66.20471l-139.74805 0z"
       fill-rule="evenodd"
       id="path123" />
    <path
       fill="#ffffff"
       d="m610.9022 306.49002l1.703125 0q1.21875 0 1.796875 -0.609375q0.59375 -0.609375 0.59375 -1.609375q0 -0.984375 -0.578125 -1.515625q-0.578125 -0.546875 -1.59375 -0.546875q-0.921875 0 -1.546875 0.5q-0.609375 0.5 -0.609375 1.3125l-3.203125 0q0 -1.265625 0.671875 -2.265625q0.6875 -1.0 1.90625 -1.5625q1.234375 -0.5625 2.703125 -0.5625q2.546875 0 4.0 1.21875q1.453125 1.21875 1.453125 3.375q0 1.109375 -0.6875 2.046875q-0.671875 0.921875 -1.765625 1.40625q1.359375 0.5 2.03125 1.46875q0.671875 0.96875 0.671875 2.296875q0 2.140625 -1.5625 3.4375q-1.5625 1.296875 -4.140625 1.296875q-2.421875 0 -3.953125 -1.265625q-1.53125 -1.28125 -1.53125 -3.359375l3.203125 0q0 0.90625 0.671875 1.484375q0.6875 0.5625 1.6875 0.5625q1.140625 0 1.78125 -0.59375q0.640625 -0.609375 0.640625 -1.609375q0 -2.40625 -2.640625 -2.40625l-1.703125 0l0 -2.5z"
       fill-rule="nonzero"
       id="path125" />
    <path
       fill="#999999"
       d="m543.1837 349.99512l139.74805 0l0 66.20471l-139.74805 0z"
       fill-rule="evenodd"
       id="path127" />
    <path
       stroke="#434343"
       stroke-width="1.0"
       stroke-linejoin="round"
       stroke-linecap="butt"
       d="m543.1837 349.99512l139.74805 0l0 66.20471l-139.74805 0z"
       fill-rule="evenodd"
       id="path129" />
    <path
       fill="#ffffff"
       d="m617.10535 385.29498l1.828125 0l0 2.578125l-1.828125 0l0 3.484375l-3.1875 0l0 -3.484375l-6.609375 0l-0.140625 -2.015625l6.71875 -10.609375l3.21875 0l0 10.046875zm-6.75 0l3.5625 0l0 -5.6875l-0.21875 0.359375l-3.34375 5.328125z"
       fill-rule="nonzero"
       id="path131" />
    <path
       fill="#999999"
       d="m543.1837 425.39407l139.74805 0l0 66.20471l-139.74805 0z"
       fill-rule="evenodd"
       id="path133" />
    <path
       stroke="#434343"
       stroke-width="1.0"
       stroke-linejoin="round"
       stroke-linecap="butt"
       d="m543.1837 425.39407l139.74805 0l0 66.20471l-139.74805 0z"
       fill-rule="evenodd"
       id="path135" />
    <path
       fill="#ffffff"
       d="m608.1366 458.83456l0.921875 -8.1875l9.03125 0l0 2.671875l-6.40625 0l-0.40625 3.453125q1.140625 -0.609375 2.421875 -0.609375q2.3125 0 3.609375 1.4375q1.3125 1.421875 1.3125 3.984375q0 1.5625 -0.671875 2.796875q-0.65625 1.234375 -1.890625 1.921875q-1.21875 0.671875 -2.890625 0.671875q-1.453125 0 -2.703125 -0.59375q-1.25 -0.59375 -1.984375 -1.65625q-0.71875 -1.078125 -0.765625 -2.453125l3.171875 0q0.09375 1.015625 0.6875 1.578125q0.609375 0.546875 1.59375 0.546875q1.078125 0 1.65625 -0.78125q0.59375 -0.78125 0.59375 -2.203125q0 -1.375 -0.671875 -2.09375q-0.671875 -0.734375 -1.921875 -0.734375q-1.125 0 -1.84375 0.59375l-0.3125 0.28125l-2.53125 -0.625z"
       fill-rule="nonzero"
       id="path137" />
    <path
       fill="#d9d9d9"
       d="m277.06824 123.79897l139.74805 0l0 66.204735l-139.74805 0z"
       fill-rule="evenodd"
       id="path139" />
    <path
       stroke="#ffffff"
       stroke-width="1.0"
       stroke-linejoin="round"
       stroke-linecap="butt"
       d="m277.06824 123.79897l139.74805 0l0 66.204735l-139.74805 0z"
       fill-rule="evenodd"
       id="path141" />
    <path
       fill="#000000"
       d="m322.3919 158.44383l0 5.9375l-2.0 0l0 -15.15625l5.59375 0q2.484375 0 3.890625 1.265625q1.40625 1.265625 1.40625 3.359375q0 2.203125 -1.375 3.40625q-1.375 1.1875 -3.953125 1.1875l-3.5625 0zm0 -1.640625l3.59375 0q1.59375 0 2.453125 -0.75q0.859375 -0.75 0.859375 -2.1875q0 -1.34375 -0.859375 -2.15625q-0.859375 -0.8125 -2.34375 -0.84375l-3.703125 0l0 5.9375zm16.595673 -1.96875q-0.4375 -0.0625 -0.953125 -0.0625q-1.890625 0 -2.5625 1.609375l0 8.0l-1.9375 0l0 -11.265625l1.875 0l0.03125 1.296875q0.953125 -1.5 2.6875 -1.5q0.5625 0 0.859375 0.140625l0 1.78125zm1.055542 3.8125q0 -1.65625 0.640625 -2.984375q0.65625 -1.328125 1.8125 -2.03125q1.171875 -0.71875 2.65625 -0.71875q2.296875 0 3.71875 1.59375q1.421875 1.578125 1.421875 4.234375l0 0.125q0 1.65625 -0.625 2.96875q-0.625 1.296875 -1.796875 2.03125q-1.171875 0.71875 -2.703125 0.71875q-2.28125 0 -3.703125 -1.59375q-1.421875 -1.59375 -1.421875 -4.21875l0 -0.125zm1.9375 0.21875q0 1.875 0.859375 3.015625q0.875 1.140625 2.328125 1.140625q1.46875 0 2.328125 -1.15625q0.875 -1.15625 0.875 -3.21875q0 -1.859375 -0.890625 -3.0q-0.875 -1.15625 -2.328125 -1.15625q-1.421875 0 -2.296875 1.140625q-0.875 1.125 -0.875 3.234375zm10.257446 -0.21875q0 -2.59375 1.234375 -4.15625q1.234375 -1.578125 3.21875 -1.578125q1.984375 0 3.140625 1.34375l0 -5.875l1.921875 0l0 16.0l-1.765625 0l-0.09375 -1.203125q-1.15625 1.40625 -3.21875 1.40625q-1.96875 0 -3.203125 -1.59375q-1.234375 -1.609375 -1.234375 -4.1875l0 -0.15625zm1.9375 0.21875q0 1.921875 0.78125 3.015625q0.796875 1.078125 2.1875 1.078125q1.84375 0 2.6875 -1.65625l0 -5.171875q-0.875 -1.59375 -2.65625 -1.59375q-1.421875 0 -2.21875 1.09375q-0.78125 1.09375 -0.78125 3.234375zm16.700195 5.515625l-1.9375 0l0 -12.84375l-3.890625 1.4375l0 -1.75l5.53125 -2.078125l0.296875 0l0 15.234375z"
       fill-rule="nonzero"
       id="path143" />
    <path
       fill="#d9d9d9"
       d="m277.06824 199.1977l139.74805 0l0 66.20471l-139.74805 0z"
       fill-rule="evenodd"
       id="path145" />
    <path
       stroke="#ffffff"
       stroke-width="1.0"
       stroke-linejoin="round"
       stroke-linecap="butt"
       d="m277.06824 199.1977l139.74805 0l0 66.20471l-139.74805 0z"
       fill-rule="evenodd"
       id="path147" />
    <path
       fill="#000000"
       d="m322.3919 233.84254l0 5.9375l-2.0 0l0 -15.15625l5.59375 0q2.484375 0 3.890625 1.265625q1.40625 1.265625 1.40625 3.359375q0 2.203125 -1.375 3.40625q-1.375 1.1875 -3.953125 1.1875l-3.5625 0zm0 -1.640625l3.59375 0q1.59375 0 2.453125 -0.75q0.859375 -0.75 0.859375 -2.1875q0 -1.34375 -0.859375 -2.15625q-0.859375 -0.8125 -2.34375 -0.84375l-3.703125 0l0 5.9375zm16.595673 -1.96875q-0.4375 -0.0625 -0.953125 -0.0625q-1.890625 0 -2.5625 1.609375l0 8.0l-1.9375 0l0 -11.265625l1.875 0l0.03125 1.296875q0.953125 -1.5 2.6875 -1.5q0.5625 0 0.859375 0.140625l0 1.78125zm1.055542 3.8125q0 -1.65625 0.640625 -2.984375q0.65625 -1.328125 1.8125 -2.03125q1.171875 -0.71875 2.65625 -0.71875q2.296875 0 3.71875 1.59375q1.421875 1.578125 1.421875 4.234375l0 0.125q0 1.65625 -0.625 2.96875q-0.625 1.296875 -1.796875 2.03125q-1.171875 0.71875 -2.703125 0.71875q-2.28125 0 -3.703125 -1.59375q-1.421875 -1.59375 -1.421875 -4.21875l0 -0.125zm1.9375 0.21875q0 1.875 0.859375 3.015625q0.875 1.140625 2.328125 1.140625q1.46875 0 2.328125 -1.15625q0.875 -1.15625 0.875 -3.21875q0 -1.859375 -0.890625 -3.0q-0.875 -1.15625 -2.328125 -1.15625q-1.421875 0 -2.296875 1.140625q-0.875 1.125 -0.875 3.234375zm10.257446 -0.21875q0 -2.59375 1.234375 -4.15625q1.234375 -1.578125 3.21875 -1.578125q1.984375 0 3.140625 1.34375l0 -5.875l1.921875 0l0 16.0l-1.765625 0l-0.09375 -1.203125q-1.15625 1.40625 -3.21875 1.40625q-1.96875 0 -3.203125 -1.59375q-1.234375 -1.609375 -1.234375 -4.1875l0 -0.15625zm1.9375 0.21875q0 1.921875 0.78125 3.015625q0.796875 1.078125 2.1875 1.078125q1.84375 0 2.6875 -1.65625l0 -5.171875q-0.875 -1.59375 -2.65625 -1.59375q-1.421875 0 -2.21875 1.09375q-0.78125 1.09375 -0.78125 3.234375zm20.293945 5.515625l-9.921875 0l0 -1.390625l5.25 -5.828125q1.15625 -1.328125 1.59375 -2.15625q0.453125 -0.828125 0.453125 -1.703125q0 -1.1875 -0.71875 -1.9375q-0.71875 -0.765625 -1.921875 -0.765625q-1.4375 0 -2.234375 0.8125q-0.796875 0.8125 -0.796875 2.28125l-1.921875 0q0 -2.09375 1.34375 -3.390625q1.359375 -1.296875 3.609375 -1.296875q2.125 0 3.34375 1.109375q1.234375 1.109375 1.234375 2.953125q0 2.234375 -2.859375 5.328125l-4.0625 4.40625l7.609375 0l0 1.578125z"
       fill-rule="nonzero"
       id="path149" />
    <path
       fill="#d9d9d9"
       d="m277.06824 274.5964l139.74805 0l0 66.20471l-139.74805 0z"
       fill-rule="evenodd"
       id="path151" />
    <path
       stroke="#ffffff"
       stroke-width="1.0"
       stroke-linejoin="round"
       stroke-linecap="butt"
       d="m277.06824 274.5964l139.74805 0l0 66.20471l-139.74805 0z"
       fill-rule="evenodd"
       id="path153" />
    <path
       fill="#000000"
       d="m322.3919 309.24127l0 5.9375l-2.0 0l0 -15.15625l5.59375 0q2.484375 0 3.890625 1.265625q1.40625 1.265625 1.40625 3.359375q0 2.203125 -1.375 3.40625q-1.375 1.1875 -3.953125 1.1875l-3.5625 0zm0 -1.640625l3.59375 0q1.59375 0 2.453125 -0.75q0.859375 -0.75 0.859375 -2.1875q0 -1.34375 -0.859375 -2.15625q-0.859375 -0.8125 -2.34375 -0.84375l-3.703125 0l0 5.9375zm16.595673 -1.96875q-0.4375 -0.0625 -0.953125 -0.0625q-1.890625 0 -2.5625 1.609375l0 8.0l-1.9375 0l0 -11.265625l1.875 0l0.03125 1.296875q0.953125 -1.5 2.6875 -1.5q0.5625 0 0.859375 0.140625l0 1.78125zm1.055542 3.8125q0 -1.65625 0.640625 -2.984375q0.65625 -1.328125 1.8125 -2.03125q1.171875 -0.71875 2.65625 -0.71875q2.296875 0 3.71875 1.59375q1.421875 1.578125 1.421875 4.234375l0 0.125q0 1.65625 -0.625 2.96875q-0.625 1.296875 -1.796875 2.03125q-1.171875 0.71875 -2.703125 0.71875q-2.28125 0 -3.703125 -1.59375q-1.421875 -1.59375 -1.421875 -4.21875l0 -0.125zm1.9375 0.21875q0 1.875 0.859375 3.015625q0.875 1.140625 2.328125 1.140625q1.46875 0 2.328125 -1.15625q0.875 -1.15625 0.875 -3.21875q0 -1.859375 -0.890625 -3.0q-0.875 -1.15625 -2.328125 -1.15625q-1.421875 0 -2.296875 1.140625q-0.875 1.125 -0.875 3.234375zm10.257446 -0.21875q0 -2.59375 1.234375 -4.15625q1.234375 -1.578125 3.21875 -1.578125q1.984375 0 3.140625 1.34375l0 -5.875l1.921875 0l0 16.0l-1.765625 0l-0.09375 -1.203125q-1.15625 1.40625 -3.21875 1.40625q-1.96875 0 -3.203125 -1.59375q-1.234375 -1.609375 -1.234375 -4.1875l0 -0.15625zm1.9375 0.21875q0 1.921875 0.78125 3.015625q0.796875 1.078125 2.1875 1.078125q1.84375 0 2.6875 -1.65625l0 -5.171875q-0.875 -1.59375 -2.65625 -1.59375q-1.421875 0 -2.21875 1.09375q-0.78125 1.09375 -0.78125 3.234375zm13.168945 -3.0l1.453125 0q1.359375 -0.03125 2.140625 -0.71875q0.78125 -0.703125 0.78125 -1.890625q0 -2.65625 -2.65625 -2.65625q-1.25 0 -2.0 0.71875q-0.734375 0.703125 -0.734375 1.875l-1.9375 0q0 -1.796875 1.3125 -2.984375q1.328125 -1.203125 3.359375 -1.203125q2.140625 0 3.359375 1.140625q1.21875 1.140625 1.21875 3.15625q0 0.984375 -0.640625 1.921875q-0.640625 0.921875 -1.734375 1.375q1.25 0.390625 1.921875 1.3125q0.6875 0.921875 0.6875 2.234375q0 2.046875 -1.34375 3.25q-1.328125 1.1875 -3.46875 1.1875q-2.125 0 -3.46875 -1.15625q-1.328125 -1.15625 -1.328125 -3.046875l1.9375 0q0 1.203125 0.78125 1.921875q0.78125 0.71875 2.09375 0.71875q1.390625 0 2.125 -0.734375q0.75 -0.734375 0.75 -2.09375q0 -1.328125 -0.8125 -2.03125q-0.8125 -0.703125 -2.34375 -0.734375l-1.453125 0l0 -1.5625z"
       fill-rule="nonzero"
       id="path155" />
    <path
       fill="#d9d9d9"
       d="m277.06824 349.99512l139.74805 0l0 66.20471l-139.74805 0z"
       fill-rule="evenodd"
       id="path157" />
    <path
       stroke="#ffffff"
       stroke-width="1.0"
       stroke-linejoin="round"
       stroke-linecap="butt"
       d="m277.06824 349.99512l139.74805 0l0 66.20471l-139.74805 0z"
       fill-rule="evenodd"
       id="path159" />
    <path
       fill="#000000"
       d="m322.3919 384.63998l0 5.9375l-2.0 0l0 -15.15625l5.59375 0q2.484375 0 3.890625 1.265625q1.40625 1.265625 1.40625 3.359375q0 2.203125 -1.375 3.40625q-1.375 1.1875 -3.953125 1.1875l-3.5625 0zm0 -1.640625l3.59375 0q1.59375 0 2.453125 -0.75q0.859375 -0.75 0.859375 -2.1875q0 -1.34375 -0.859375 -2.15625q-0.859375 -0.8125 -2.34375 -0.84375l-3.703125 0l0 5.9375zm16.595673 -1.96875q-0.4375 -0.0625 -0.953125 -0.0625q-1.890625 0 -2.5625 1.609375l0 8.0l-1.9375 0l0 -11.265625l1.875 0l0.03125 1.296875q0.953125 -1.5 2.6875 -1.5q0.5625 0 0.859375 0.140625l0 1.78125zm1.055542 3.8125q0 -1.65625 0.640625 -2.984375q0.65625 -1.328125 1.8125 -2.03125q1.171875 -0.71875 2.65625 -0.71875q2.296875 0 3.71875 1.59375q1.421875 1.578125 1.421875 4.234375l0 0.125q0 1.65625 -0.625 2.96875q-0.625 1.296875 -1.796875 2.03125q-1.171875 0.71875 -2.703125 0.71875q-2.28125 0 -3.703125 -1.59375q-1.421875 -1.59375 -1.421875 -4.21875l0 -0.125zm1.9375 0.21875q0 1.875 0.859375 3.015625q0.875 1.140625 2.328125 1.140625q1.46875 0 2.328125 -1.15625q0.875 -1.15625 0.875 -3.21875q0 -1.859375 -0.890625 -3.0q-0.875 -1.15625 -2.328125 -1.15625q-1.421875 0 -2.296875 1.140625q-0.875 1.125 -0.875 3.234375zm10.257446 -0.21875q0 -2.59375 1.234375 -4.15625q1.234375 -1.578125 3.21875 -1.578125q1.984375 0 3.140625 1.34375l0 -5.875l1.921875 0l0 16.0l-1.765625 0l-0.09375 -1.203125q-1.15625 1.40625 -3.21875 1.40625q-1.96875 0 -3.203125 -1.59375q-1.234375 -1.609375 -1.234375 -4.1875l0 -0.15625zm1.9375 0.21875q0 1.921875 0.78125 3.015625q0.796875 1.078125 2.1875 1.078125q1.84375 0 2.6875 -1.65625l0 -5.171875q-0.875 -1.59375 -2.65625 -1.59375q-1.421875 0 -2.21875 1.09375q-0.78125 1.09375 -0.78125 3.234375zm18.49707 0.421875l2.109375 0l0 1.578125l-2.109375 0l0 3.515625l-1.9375 0l0 -3.515625l-6.90625 0l0 -1.140625l6.796875 -10.5l2.046875 0l0 10.0625zm-6.65625 0l4.71875 0l0 -7.4375l-0.21875 0.421875l-4.5 7.015625z"
       fill-rule="nonzero"
       id="path161" />
    <path
       fill="#d9d9d9"
       d="m277.06824 425.39407l139.74805 0l0 66.20471l-139.74805 0z"
       fill-rule="evenodd"
       id="path163" />
    <path
       stroke="#ffffff"
       stroke-width="1.0"
       stroke-linejoin="round"
       stroke-linecap="butt"
       d="m277.06824 425.39407l139.74805 0l0 66.20471l-139.74805 0z"
       fill-rule="evenodd"
       id="path165" />
    <path
       fill="#000000"
       d="m322.3919 460.03894l0 5.9375l-2.0 0l0 -15.15625l5.59375 0q2.484375 0 3.890625 1.265625q1.40625 1.265625 1.40625 3.359375q0 2.203125 -1.375 3.40625q-1.375 1.1875 -3.953125 1.1875l-3.5625 0zm0 -1.640625l3.59375 0q1.59375 0 2.453125 -0.75q0.859375 -0.75 0.859375 -2.1875q0 -1.34375 -0.859375 -2.15625q-0.859375 -0.8125 -2.34375 -0.84375l-3.703125 0l0 5.9375zm16.595673 -1.96875q-0.4375 -0.0625 -0.953125 -0.0625q-1.890625 0 -2.5625 1.609375l0 8.0l-1.9375 0l0 -11.265625l1.875 0l0.03125 1.296875q0.953125 -1.5 2.6875 -1.5q0.5625 0 0.859375 0.140625l0 1.78125zm1.055542 3.8125q0 -1.65625 0.640625 -2.984375q0.65625 -1.328125 1.8125 -2.03125q1.171875 -0.71875 2.65625 -0.71875q2.296875 0 3.71875 1.59375q1.421875 1.578125 1.421875 4.234375l0 0.125q0 1.65625 -0.625 2.96875q-0.625 1.296875 -1.796875 2.03125q-1.171875 0.71875 -2.703125 0.71875q-2.28125 0 -3.703125 -1.59375q-1.421875 -1.59375 -1.421875 -4.21875l0 -0.125zm1.9375 0.21875q0 1.875 0.859375 3.015625q0.875 1.140625 2.328125 1.140625q1.46875 0 2.328125 -1.15625q0.875 -1.15625 0.875 -3.21875q0 -1.859375 -0.890625 -3.0q-0.875 -1.15625 -2.328125 -1.15625q-1.421875 0 -2.296875 1.140625q-0.875 1.125 -0.875 3.234375zm10.257446 -0.21875q0 -2.59375 1.234375 -4.15625q1.234375 -1.578125 3.21875 -1.578125q1.984375 0 3.140625 1.34375l0 -5.875l1.921875 0l0 16.0l-1.765625 0l-0.09375 -1.203125q-1.15625 1.40625 -3.21875 1.40625q-1.96875 0 -3.203125 -1.59375q-1.234375 -1.609375 -1.234375 -4.1875l0 -0.15625zm1.9375 0.21875q0 1.921875 0.78125 3.015625q0.796875 1.078125 2.1875 1.078125q1.84375 0 2.6875 -1.65625l0 -5.171875q-0.875 -1.59375 -2.65625 -1.59375q-1.421875 0 -2.21875 1.09375q-0.78125 1.09375 -0.78125 3.234375zm11.24707 -2.09375l0.78125 -7.546875l7.765625 0l0 1.78125l-6.140625 0l-0.453125 4.125q1.109375 -0.65625 2.53125 -0.65625q2.078125 0 3.28125 1.375q1.21875 1.359375 1.21875 3.703125q0 2.34375 -1.265625 3.6875q-1.25 1.34375 -3.53125 1.34375q-2.0 0 -3.28125 -1.109375q-1.265625 -1.109375 -1.4375 -3.078125l1.8125 0q0.1875 1.296875 0.9375 1.96875q0.75 0.65625 1.96875 0.65625q1.34375 0 2.109375 -0.921875q0.765625 -0.921875 0.765625 -2.53125q0 -1.515625 -0.828125 -2.4375q-0.828125 -0.921875 -2.203125 -0.921875q-1.25 0 -1.96875 0.546875l-0.515625 0.421875l-1.546875 -0.40625z"
       fill-rule="nonzero"
       id="path167" />
  </g>
</svg>
