<?xml version="1.0" encoding="UTF-8" standalone="no"?>
<svg
   xmlns:dc="http://purl.org/dc/elements/1.1/"
   xmlns:cc="http://creativecommons.org/ns#"
   xmlns:rdf="http://www.w3.org/1999/02/22-rdf-syntax-ns#"
   xmlns:svg="http://www.w3.org/2000/svg"
   xmlns="http://www.w3.org/2000/svg"
   xmlns:sodipodi="http://sodipodi.sourceforge.net/DTD/sodipodi-0.dtd"
   xmlns:inkscape="http://www.inkscape.org/namespaces/inkscape"
   version="1.1"
   viewBox="0.0 0.0 960.0 540.0"
   fill="none"
   stroke="none"
   stroke-linecap="square"
   stroke-miterlimit="10"
   id="svg131"
   sodipodi:docname="pandas_series2.svg"
   inkscape:export-filename="/home/felipe/Mestrado/01_Aulas/materiais/aulas/03-introducao-ao-python/images/python/v2021/pandas_series2.png"
   inkscape:export-xdpi="300"
   inkscape:export-ydpi="300"
   inkscape:version="0.92.5 (2060ec1f9f, 2020-04-08)">
  <metadata
     id="metadata137">
    <rdf:RDF>
      <cc:Work
         rdf:about="">
        <dc:format>image/svg+xml</dc:format>
        <dc:type
           rdf:resource="http://purl.org/dc/dcmitype/StillImage" />
      </cc:Work>
    </rdf:RDF>
  </metadata>
  <defs
     id="defs135" />
  <sodipodi:namedview
     pagecolor="#ffffff"
     bordercolor="#666666"
     borderopacity="1"
     objecttolerance="10"
     gridtolerance="10"
     guidetolerance="10"
     inkscape:pageopacity="0"
     inkscape:pageshadow="2"
     inkscape:window-width="1600"
     inkscape:window-height="790"
     id="namedview133"
     showgrid="false"
     inkscape:zoom="0.36145833"
     inkscape:cx="480"
     inkscape:cy="270"
     inkscape:window-x="0"
     inkscape:window-y="27"
     inkscape:window-maximized="1"
     inkscape:current-layer="svg131" />
  <clipPath
     id="ge5cd28bdd1_0_1269.0">
    <path
       d="m0 0l960.0 0l0 540.0l-960.0 0l0 -540.0z"
       clip-rule="nonzero"
       id="path2" />
  </clipPath>
  <g
     clip-path="url(#ge5cd28bdd1_0_1269.0)"
     id="g129">
    <path
       fill="#ffffff"
       d="m0 0l960.0 0l0 540.0l-960.0 0z"
       fill-rule="evenodd"
       id="path5" />
    <path
       fill="#999999"
       d="m687.7592 42.615486l139.74805 0l0 66.20473l-139.74805 0z"
       fill-rule="evenodd"
       id="path7" />
    <path
       stroke="#434343"
       stroke-width="1.0"
       stroke-linejoin="round"
       stroke-linecap="butt"
       d="m687.7592 42.615486l139.74805 0l0 66.20473l-139.74805 0z"
       fill-rule="evenodd"
       id="path9" />
    <path
       fill="#ffffff"
       d="m729.66547 78.6941l0 6.34375l-3.703125 0l0 -18.0l7.015625 0q2.03125 0 3.5625 0.75q1.546875 0.734375 2.375 2.09375q0.828125 1.359375 0.828125 3.109375q0 2.640625 -1.8125 4.171875q-1.796875 1.53125 -5.0 1.53125l-3.265625 0zm0 -3.0l3.3125 0q1.484375 0 2.25 -0.6875q0.78125 -0.703125 0.78125 -1.984375q0 -1.328125 -0.78125 -2.140625q-0.78125 -0.828125 -2.15625 -0.84375l-3.40625 0l0 5.65625zm19.915283 -0.6875q-0.734375 -0.09375 -1.28125 -0.09375q-2.03125 0 -2.65625 1.375l0 8.75l-3.578125 0l0 -13.375l3.375 0l0.09375 1.59375q1.078125 -1.84375 2.984375 -1.84375q0.59375 0 1.109375 0.15625l-0.046875 3.4375zm7.643921 10.28125q-2.9375 0 -4.796875 -1.796875q-1.84375 -1.8125 -1.84375 -4.828125l0 -0.34375q0 -2.015625 0.78125 -3.59375q0.78125 -1.59375 2.203125 -2.453125q1.4375 -0.859375 3.265625 -0.859375q2.734375 0 4.3125 1.734375q1.578125 1.71875 1.578125 4.90625l0 1.453125l-8.515625 0q0.171875 1.3125 1.046875 2.109375q0.875 0.78125 2.203125 0.78125q2.0625 0 3.234375 -1.484375l1.75 1.953125q-0.796875 1.140625 -2.171875 1.78125q-1.375 0.640625 -3.046875 0.640625zm-0.40625 -10.984375q-1.0625 0 -1.734375 0.71875q-0.65625 0.71875 -0.84375 2.046875l4.96875 0l0 -0.28125q-0.015625 -1.1875 -0.640625 -1.828125q-0.609375 -0.65625 -1.75 -0.65625zm13.503052 8.09375q0.984375 0 1.609375 -0.53125q0.625 -0.546875 0.640625 -1.453125l3.359375 0q-0.015625 1.359375 -0.75 2.5q-0.734375 1.125 -2.0 1.75q-1.265625 0.625 -2.796875 0.625q-2.875 0 -4.53125 -1.828125q-1.65625 -1.828125 -1.65625 -5.03125l0 -0.234375q0 -3.09375 1.640625 -4.9375q1.65625 -1.84375 4.515625 -1.84375q2.515625 0 4.03125 1.4375q1.515625 1.421875 1.546875 3.796875l-3.359375 0q-0.015625 -1.046875 -0.640625 -1.6875q-0.625 -0.65625 -1.640625 -0.65625q-1.234375 0 -1.875 0.90625q-0.640625 0.90625 -0.640625 2.953125l0 0.375q0 2.0625 0.625 2.96875q0.640625 0.890625 1.921875 0.890625zm1.296875 2.5625l-0.140625 0.71875q1.859375 0.34375 1.859375 2.140625q0 1.359375 -1.140625 2.15625q-1.125 0.796875 -3.171875 0.796875l-0.09375 -2.078125q1.390625 0 1.390625 -1.0q0 -0.515625 -0.421875 -0.703125q-0.40625 -0.1875 -1.328125 -0.25l0.375 -1.78125l2.671875 0zm5.786377 -6.734375q0 -2.0 0.765625 -3.546875q0.765625 -1.5625 2.203125 -2.40625q1.453125 -0.859375 3.359375 -0.859375q2.703125 0 4.40625 1.65625q1.71875 1.65625 1.921875 4.5l0.03125 0.921875q0 3.078125 -1.734375 4.9375q-1.71875 1.859375 -4.609375 1.859375q-2.890625 0 -4.625 -1.859375q-1.71875 -1.859375 -1.71875 -5.046875l0 -0.15625zm3.578125 0.265625q0 1.890625 0.71875 2.90625q0.71875 1.0 2.046875 1.0q1.296875 0 2.03125 -0.984375q0.734375 -1.0 0.734375 -3.1875q0 -1.875 -0.734375 -2.890625q-0.734375 -1.03125 -2.046875 -1.03125q-1.3125 0 -2.03125 1.03125q-0.71875 1.015625 -0.71875 3.15625z"
       fill-rule="nonzero"
       id="path11" />
    <path
       fill="#d9d9d9"
       d="m687.7592 118.0142l139.74805 0l0 66.20472l-139.74805 0z"
       fill-rule="evenodd"
       id="path13" />
    <path
       stroke="#434343"
       stroke-width="1.0"
       stroke-linejoin="round"
       stroke-linecap="butt"
       d="m687.7592 118.0142l139.74805 0l0 66.20472l-139.74805 0z"
       fill-rule="evenodd"
       id="path15" />
    <path
       fill="#000000"
       d="m742.06165 158.59656l-9.921875 0l0 -1.390625l5.25 -5.828125q1.15625 -1.328125 1.59375 -2.15625q0.453125 -0.828125 0.453125 -1.703125q0 -1.1875 -0.71875 -1.9375q-0.71875 -0.765625 -1.921875 -0.765625q-1.4375 0 -2.234375 0.8125q-0.796875 0.8125 -0.796875 2.28125l-1.921875 0q0 -2.09375 1.34375 -3.390625q1.359375 -1.296875 3.609375 -1.296875q2.125 0 3.34375 1.109375q1.234375 1.109375 1.234375 2.953125q0 2.234375 -2.859375 5.328125l-4.0625 4.40625l7.609375 0l0 1.578125zm4.8512573 -8.515625l1.453125 0q1.359375 -0.03125 2.140625 -0.71875q0.78125 -0.703125 0.78125 -1.890625q0 -2.65625 -2.65625 -2.65625q-1.25 0 -2.0 0.71875q-0.734375 0.703125 -0.734375 1.875l-1.9375 0q0 -1.796875 1.3125 -2.984375q1.328125 -1.203125 3.359375 -1.203125q2.140625 0 3.359375 1.140625q1.21875 1.140625 1.21875 3.15625q0 0.984375 -0.640625 1.921875q-0.640625 0.921875 -1.734375 1.375q1.25 0.390625 1.921875 1.3125q0.6875 0.921875 0.6875 2.234375q0 2.046875 -1.34375 3.25q-1.328125 1.1875 -3.46875 1.1875q-2.125 0 -3.46875 -1.15625q-1.328125 -1.15625 -1.328125 -3.046875l1.9375 0q0 1.203125 0.78125 1.921875q0.78125 0.71875 2.09375 0.71875q1.390625 0 2.125 -0.734375q0.75 -0.734375 0.75 -2.09375q0 -1.328125 -0.8125 -2.03125q-0.8125 -0.703125 -2.34375 -0.734375l-1.453125 0l0 -1.5625zm9.413696 7.5q0 -0.5 0.296875 -0.828125q0.296875 -0.328125 0.890625 -0.328125q0.59375 0 0.890625 0.328125q0.3125 0.328125 0.3125 0.828125q0 0.484375 -0.3125 0.8125q-0.296875 0.3125 -0.890625 0.3125q-0.59375 0 -0.890625 -0.3125q-0.296875 -0.328125 -0.296875 -0.8125zm13.503845 -4.078125l2.109375 0l0 1.578125l-2.109375 0l0 3.515625l-1.9375 0l0 -3.515625l-6.90625 0l0 -1.140625l6.796875 -10.5l2.046875 0l0 10.0625zm-6.65625 0l4.71875 0l0 -7.4375l-0.21875 0.421875l-4.5 7.015625zm11.382507 -2.515625l0.78125 -7.546875l7.765625 0l0 1.78125l-6.140625 0l-0.453125 4.125q1.109375 -0.65625 2.53125 -0.65625q2.078125 0 3.28125 1.375q1.21875 1.359375 1.21875 3.703125q0 2.34375 -1.265625 3.6875q-1.25 1.34375 -3.53125 1.34375q-2.0 0 -3.28125 -1.109375q-1.265625 -1.109375 -1.4375 -3.078125l1.8125 0q0.1875 1.296875 0.9375 1.96875q0.75 0.65625 1.96875 0.65625q1.34375 0 2.109375 -0.921875q0.765625 -0.921875 0.765625 -2.53125q0 -1.515625 -0.828125 -2.4375q-0.828125 -0.921875 -2.203125 -0.921875q-1.25 0 -1.96875 0.546875l-0.515625 0.421875l-1.546875 -0.40625z"
       fill-rule="nonzero"
       id="path17" />
    <path
       fill="#d9d9d9"
       d="m687.7592 193.41292l139.74805 0l0 66.20473l-139.74805 0z"
       fill-rule="evenodd"
       id="path19" />
    <path
       stroke="#434343"
       stroke-width="1.0"
       stroke-linejoin="round"
       stroke-linecap="butt"
       d="m687.7592 193.41292l139.74805 0l0 66.20473l-139.74805 0z"
       fill-rule="evenodd"
       id="path21" />
    <path
       fill="#000000"
       d="m742.06165 233.99527l-9.921875 0l0 -1.390625l5.25 -5.828125q1.15625 -1.328125 1.59375 -2.15625q0.453125 -0.828125 0.453125 -1.703125q0 -1.1875 -0.71875 -1.9375q-0.71875 -0.765625 -1.921875 -0.765625q-1.4375 0 -2.234375 0.8125q-0.796875 0.8125 -0.796875 2.28125l-1.921875 0q0 -2.09375 1.34375 -3.390625q1.359375 -1.296875 3.609375 -1.296875q2.125 0 3.34375 1.109375q1.234375 1.109375 1.234375 2.953125q0 2.234375 -2.859375 5.328125l-4.0625 4.40625l7.609375 0l0 1.578125zm8.382507 0l-1.9375 0l0 -12.84375l-3.890625 1.4375l0 -1.75l5.53125 -2.078125l0.296875 0l0 15.234375zm5.8824463 -1.015625q0 -0.5 0.296875 -0.828125q0.296875 -0.328125 0.890625 -0.328125q0.59375 0 0.890625 0.328125q0.3125 0.328125 0.3125 0.828125q0 0.484375 -0.3125 0.8125q-0.296875 0.3125 -0.890625 0.3125q-0.59375 0 -0.890625 -0.3125q-0.296875 -0.328125 -0.296875 -0.8125zm14.566345 -10.1875q0 1.125 -0.59375 2.015625q-0.59375 0.890625 -1.625 1.390625q1.1875 0.5 1.875 1.484375q0.703125 0.984375 0.703125 2.21875q0 1.96875 -1.328125 3.140625q-1.328125 1.15625 -3.5 1.15625q-2.1875 0 -3.5 -1.171875q-1.3125 -1.171875 -1.3125 -3.125q0 -1.234375 0.671875 -2.21875q0.671875 -0.984375 1.859375 -1.5q-1.015625 -0.5 -1.609375 -1.375q-0.578125 -0.890625 -0.578125 -2.015625q0 -1.921875 1.234375 -3.046875q1.234375 -1.125 3.234375 -1.125q2.0 0 3.234375 1.125q1.234375 1.125 1.234375 3.046875zm-1.5625 7.0625q0 -1.265625 -0.8125 -2.0625q-0.8125 -0.8125 -2.109375 -0.8125q-1.296875 0 -2.09375 0.796875q-0.78125 0.796875 -0.78125 2.09375q0 1.28125 0.765625 2.03125q0.765625 0.734375 2.125 0.734375q1.359375 0 2.125 -0.75q0.78125 -0.75 0.78125 -2.03125zm-2.90625 -9.640625q-1.125 0 -1.828125 0.703125q-0.703125 0.703125 -0.703125 1.90625q0 1.15625 0.6875 1.875q0.6875 0.703125 1.84375 0.703125q1.15625 0 1.84375 -0.703125q0.703125 -0.71875 0.703125 -1.875q0 -1.15625 -0.71875 -1.875q-0.71875 -0.734375 -1.828125 -0.734375zm17.038757 -0.296875l-6.28125 14.078125l-2.015625 0l6.265625 -13.578125l-8.21875 0l0 -1.578125l10.25 0l0 1.078125z"
       fill-rule="nonzero"
       id="path23" />
    <path
       fill="#d9d9d9"
       d="m687.7592 268.8116l139.74805 0l0 66.20474l-139.74805 0z"
       fill-rule="evenodd"
       id="path25" />
    <path
       stroke="#434343"
       stroke-width="1.0"
       stroke-linejoin="round"
       stroke-linecap="butt"
       d="m687.7592 268.8116l139.74805 0l0 66.20474l-139.74805 0z"
       fill-rule="evenodd"
       id="path27" />
    <path
       fill="#000000"
       d="m738.4679 309.39398l-1.9375 0l0 -12.84375l-3.890625 1.4375l0 -1.75l5.53125 -2.078125l0.296875 0l0 15.234375zm13.023132 -6.671875q-0.59375 0.71875 -1.4375 1.15625q-0.84375 0.4375 -1.84375 0.4375q-1.3125 0 -2.28125 -0.640625q-0.96875 -0.640625 -1.5 -1.8125q-0.53125 -1.171875 -0.53125 -2.59375q0 -1.515625 0.578125 -2.734375q0.578125 -1.21875 1.640625 -1.859375q1.0625 -0.65625 2.46875 -0.65625q2.25 0 3.546875 1.6875q1.296875 1.6875 1.296875 4.578125l0 0.5625q0 4.4375 -1.75 6.46875q-1.75 2.03125 -5.28125 2.09375l-0.375 0l0 -1.625l0.40625 0q2.390625 -0.046875 3.671875 -1.25q1.28125 -1.203125 1.390625 -3.8125zm-2.96875 0q0.96875 0 1.78125 -0.59375q0.828125 -0.59375 1.203125 -1.46875l0 -0.765625q0 -1.890625 -0.828125 -3.078125q-0.8125 -1.1875 -2.078125 -1.1875q-1.265625 0 -2.046875 0.984375q-0.765625 0.96875 -0.765625 2.546875q0 1.5625 0.734375 2.5625q0.75 1.0 2.0 1.0zm7.8043213 5.65625q0 -0.5 0.296875 -0.828125q0.296875 -0.328125 0.890625 -0.328125q0.59375 0 0.890625 0.328125q0.3125 0.328125 0.3125 0.828125q0 0.484375 -0.3125 0.8125q-0.296875 0.3125 -0.890625 0.3125q-0.59375 0 -0.890625 -0.3125q-0.296875 -0.328125 -0.296875 -0.8125zm12.941345 -14.15625l0 1.640625l-0.359375 0q-2.25 0.03125 -3.59375 1.328125q-1.328125 1.296875 -1.53125 3.625q1.203125 -1.375 3.265625 -1.375q1.984375 0 3.15625 1.40625q1.1875 1.390625 1.1875 3.59375q0 2.34375 -1.28125 3.75q-1.265625 1.40625 -3.40625 1.40625q-2.1875 0 -3.546875 -1.671875q-1.34375 -1.671875 -1.34375 -4.296875l0 -0.75q0 -4.171875 1.78125 -6.390625q1.796875 -2.21875 5.328125 -2.265625l0.34375 0zm-2.53125 6.828125q-1.0 0 -1.828125 0.59375q-0.828125 0.59375 -1.15625 1.484375l0 0.71875q0 1.875 0.84375 3.015625q0.84375 1.140625 2.109375 1.140625q1.296875 0 2.03125 -0.953125q0.75 -0.953125 0.75 -2.515625q0 -1.5625 -0.75 -2.515625q-0.75 -0.96875 -2.0 -0.96875zm16.866882 8.34375l-9.921875 0l0 -1.390625l5.25 -5.828125q1.15625 -1.328125 1.59375 -2.15625q0.453125 -0.828125 0.453125 -1.703125q0 -1.1875 -0.71875 -1.9375q-0.71875 -0.765625 -1.921875 -0.765625q-1.4375 0 -2.234375 0.8125q-0.796875 0.8125 -0.796875 2.28125l-1.921875 0q0 -2.09375 1.34375 -3.390625q1.359375 -1.296875 3.609375 -1.296875q2.125 0 3.34375 1.109375q1.234375 1.109375 1.234375 2.953125q0 2.234375 -2.859375 5.328125l-4.0625 4.40625l7.609375 0l0 1.578125z"
       fill-rule="nonzero"
       id="path29" />
    <path
       fill="#d9d9d9"
       d="m687.7592 344.21033l139.74805 0l0 66.20474l-139.74805 0z"
       fill-rule="evenodd"
       id="path31" />
    <path
       stroke="#434343"
       stroke-width="1.0"
       stroke-linejoin="round"
       stroke-linecap="butt"
       d="m687.7592 344.21033l139.74805 0l0 66.20474l-139.74805 0z"
       fill-rule="evenodd"
       id="path33" />
    <path
       fill="#000000"
       d="m742.06165 384.7927l-9.921875 0l0 -1.390625l5.25 -5.828125q1.15625 -1.328125 1.59375 -2.15625q0.453125 -0.828125 0.453125 -1.703125q0 -1.1875 -0.71875 -1.9375q-0.71875 -0.765625 -1.921875 -0.765625q-1.4375 0 -2.234375 0.8125q-0.796875 0.8125 -0.796875 2.28125l-1.921875 0q0 -2.09375 1.34375 -3.390625q1.359375 -1.296875 3.609375 -1.296875q2.125 0 3.34375 1.109375q1.234375 1.109375 1.234375 2.953125q0 2.234375 -2.859375 5.328125l-4.0625 4.40625l7.609375 0l0 1.578125zm2.9293823 -7.609375l0.78125 -7.546875l7.765625 0l0 1.78125l-6.140625 0l-0.453125 4.125q1.109375 -0.65625 2.53125 -0.65625q2.078125 0 3.28125 1.375q1.21875 1.359375 1.21875 3.703125q0 2.34375 -1.265625 3.6875q-1.25 1.34375 -3.53125 1.34375q-2.0 0 -3.28125 -1.109375q-1.265625 -1.109375 -1.4375 -3.078125l1.8125 0q0.1875 1.296875 0.9375 1.96875q0.75 0.65625 1.96875 0.65625q1.34375 0 2.109375 -0.921875q0.765625 -0.921875 0.765625 -2.53125q0 -1.515625 -0.828125 -2.4375q-0.828125 -0.921875 -2.203125 -0.921875q-1.25 0 -1.96875 0.546875l-0.515625 0.421875l-1.546875 -0.40625zm11.335571 6.59375q0 -0.5 0.296875 -0.828125q0.296875 -0.328125 0.890625 -0.328125q0.59375 0 0.890625 0.328125q0.3125 0.328125 0.3125 0.828125q0 0.484375 -0.3125 0.8125q-0.296875 0.3125 -0.890625 0.3125q-0.59375 0 -0.890625 -0.3125q-0.296875 -0.328125 -0.296875 -0.8125zm15.160095 -13.0625l-6.28125 14.078125l-2.015625 0l6.265625 -13.578125l-8.21875 0l0 -1.578125l10.25 0l0 1.078125zm11.695007 7.609375q0 3.390625 -1.15625 5.03125q-1.15625 1.640625 -3.609375 1.640625q-2.421875 0 -3.59375 -1.609375q-1.171875 -1.609375 -1.203125 -4.796875l0 -2.578125q0 -3.34375 1.15625 -4.96875q1.15625 -1.625 3.625 -1.625q2.4375 0 3.59375 1.578125q1.15625 1.5625 1.1875 4.828125l0 2.5zm-1.921875 -2.640625q0 -2.4375 -0.6875 -3.546875q-0.6875 -1.125 -2.171875 -1.125q-1.484375 0 -2.171875 1.109375q-0.671875 1.109375 -0.6875 3.421875l0 3.078125q0 2.46875 0.703125 3.640625q0.71875 1.171875 2.171875 1.171875q1.421875 0 2.109375 -1.109375q0.703125 -1.109375 0.734375 -3.484375l0 -3.15625z"
       fill-rule="nonzero"
       id="path35" />
    <path
       fill="#d9d9d9"
       d="m687.7592 419.60928l139.74805 0l0 66.20474l-139.74805 0z"
       fill-rule="evenodd"
       id="path37" />
    <path
       stroke="#434343"
       stroke-width="1.0"
       stroke-linejoin="round"
       stroke-linecap="butt"
       d="m687.7592 419.60928l139.74805 0l0 66.20474l-139.74805 0z"
       fill-rule="evenodd"
       id="path39" />
    <path
       fill="#000000"
       d="m742.06165 460.19165l-9.921875 0l0 -1.390625l5.25 -5.828125q1.15625 -1.328125 1.59375 -2.15625q0.453125 -0.828125 0.453125 -1.703125q0 -1.1875 -0.71875 -1.9375q-0.71875 -0.765625 -1.921875 -0.765625q-1.4375 0 -2.234375 0.8125q-0.796875 0.8125 -0.796875 2.28125l-1.921875 0q0 -2.09375 1.34375 -3.390625q1.359375 -1.296875 3.609375 -1.296875q2.125 0 3.34375 1.109375q1.234375 1.109375 1.234375 2.953125q0 2.234375 -2.859375 5.328125l-4.0625 4.40625l7.609375 0l0 1.578125zm11.835632 -14.078125l-6.28125 14.078125l-2.015625 0l6.265625 -13.578125l-8.21875 0l0 -1.578125l10.25 0l0 1.078125zm2.4293213 13.0625q0 -0.5 0.296875 -0.828125q0.296875 -0.328125 0.890625 -0.328125q0.59375 0 0.890625 0.328125q0.3125 0.328125 0.3125 0.828125q0 0.484375 -0.3125 0.8125q-0.296875 0.3125 -0.890625 0.3125q-0.59375 0 -0.890625 -0.3125q-0.296875 -0.328125 -0.296875 -0.8125zm14.566345 -10.1875q0 1.125 -0.59375 2.015625q-0.59375 0.890625 -1.625 1.390625q1.1875 0.5 1.875 1.484375q0.703125 0.984375 0.703125 2.21875q0 1.96875 -1.328125 3.140625q-1.328125 1.15625 -3.5 1.15625q-2.1875 0 -3.5 -1.171875q-1.3125 -1.171875 -1.3125 -3.125q0 -1.234375 0.671875 -2.21875q0.671875 -0.984375 1.859375 -1.5q-1.015625 -0.5 -1.609375 -1.375q-0.578125 -0.890625 -0.578125 -2.015625q0 -1.921875 1.234375 -3.046875q1.234375 -1.125 3.234375 -1.125q2.0 0 3.234375 1.125q1.234375 1.125 1.234375 3.046875zm-1.5625 7.0625q0 -1.265625 -0.8125 -2.0625q-0.8125 -0.8125 -2.109375 -0.8125q-1.296875 0 -2.09375 0.796875q-0.78125 0.796875 -0.78125 2.09375q0 1.28125 0.765625 2.03125q0.765625 0.734375 2.125 0.734375q1.359375 0 2.125 -0.75q0.78125 -0.75 0.78125 -2.03125zm-2.90625 -9.640625q-1.125 0 -1.828125 0.703125q-0.703125 0.703125 -0.703125 1.90625q0 1.15625 0.6875 1.875q0.6875 0.703125 1.84375 0.703125q1.15625 0 1.84375 -0.703125q0.703125 -0.71875 0.703125 -1.875q0 -1.15625 -0.71875 -1.875q-0.71875 -0.734375 -1.828125 -0.734375zm14.632507 7.109375q-0.59375 0.71875 -1.4375 1.15625q-0.84375 0.4375 -1.84375 0.4375q-1.3125 0 -2.28125 -0.640625q-0.96875 -0.640625 -1.5 -1.8125q-0.53125 -1.171875 -0.53125 -2.59375q0 -1.515625 0.578125 -2.734375q0.578125 -1.21875 1.640625 -1.859375q1.0625 -0.65625 2.46875 -0.65625q2.25 0 3.546875 1.6875q1.296875 1.6875 1.296875 4.578125l0 0.5625q0 4.4375 -1.75 6.46875q-1.75 2.03125 -5.28125 2.09375l-0.375 0l0 -1.625l0.40625 0q2.390625 -0.046875 3.671875 -1.25q1.28125 -1.203125 1.390625 -3.8125zm-2.96875 0q0.96875 0 1.78125 -0.59375q0.828125 -0.59375 1.203125 -1.46875l0 -0.765625q0 -1.890625 -0.828125 -3.078125q-0.8125 -1.1875 -2.078125 -1.1875q-1.265625 0 -2.046875 0.984375q-0.765625 0.96875 -0.765625 2.546875q0 1.5625 0.734375 2.5625q0.75 1.0 2.0 1.0z"
       fill-rule="nonzero"
       id="path41" />
    <path
       fill="#999999"
       d="m535.3393 118.0142l139.74799 0l0 66.20472l-139.74799 0z"
       fill-rule="evenodd"
       id="path43" />
    <path
       stroke="#434343"
       stroke-width="1.0"
       stroke-linejoin="round"
       stroke-linecap="butt"
       d="m535.3393 118.0142l139.74799 0l0 66.20472l-139.74799 0z"
       fill-rule="evenodd"
       id="path45" />
    <path
       fill="#ffffff"
       d="m573.9236 152.7203q0 3.34375 -1.390625 5.109375q-1.375 1.765625 -4.046875 1.765625q-2.625 0 -4.03125 -1.734375q-1.390625 -1.734375 -1.421875 -4.984375l0 -2.953125q0 -3.375 1.390625 -5.125q1.40625 -1.75 4.03125 -1.75q2.640625 0 4.03125 1.734375q1.40625 1.734375 1.4375 4.96875l0 2.96875zm-3.203125 -3.25q0 -2.015625 -0.546875 -2.921875q-0.546875 -0.90625 -1.703125 -0.90625q-1.125 0 -1.671875 0.875q-0.53125 0.859375 -0.5625 2.703125l0 3.921875q0 1.96875 0.53125 2.921875q0.546875 0.953125 1.71875 0.953125q1.171875 0 1.6875 -0.90625q0.53125 -0.921875 0.546875 -2.8125l0 -3.828125zm12.842346 3.46875q-1.25 1.234375 -2.921875 1.234375q-2.140625 0 -3.421875 -1.46875q-1.28125 -1.46875 -1.28125 -3.953125q0 -1.59375 0.6875 -2.90625q0.6875 -1.328125 1.921875 -2.0625q1.25 -0.734375 2.796875 -0.734375q1.59375 0 2.828125 0.796875q1.25 0.796875 1.921875 2.296875q0.6875 1.484375 0.703125 3.40625l0 1.1875q0 4.03125 -2.0 6.328125q-2.0 2.296875 -5.671875 2.453125l-0.78125 0.015625l0 -2.671875l0.703125 0q4.171875 -0.1875 4.515625 -3.921875zm-2.140625 -1.21875q0.78125 0 1.328125 -0.390625q0.5625 -0.40625 0.859375 -0.96875l0 -1.3125q0 -1.625 -0.625 -2.515625q-0.625 -0.90625 -1.65625 -0.90625q-0.96875 0 -1.59375 0.890625q-0.609375 0.875 -0.609375 2.1875q0 1.328125 0.59375 2.171875q0.609375 0.84375 1.703125 0.84375zm8.795471 9.046875l-2.375 0l5.921875 -17.5l2.390625 0l-5.9375 17.5zm18.36914 -1.390625l-11.046875 0l0 -2.1875l5.21875 -5.5625q1.0625 -1.171875 1.578125 -2.046875q0.515625 -0.875 0.515625 -1.65625q0 -1.0625 -0.546875 -1.671875q-0.53125 -0.625 -1.546875 -0.625q-1.078125 0 -1.703125 0.75q-0.625 0.75 -0.625 1.953125l-3.203125 0q0 -1.46875 0.6875 -2.6875q0.703125 -1.21875 1.984375 -1.90625q1.296875 -0.6875 2.921875 -0.6875q2.484375 0 3.859375 1.203125q1.375 1.1875 1.375 3.359375q0 1.203125 -0.625 2.4375q-0.609375 1.234375 -2.109375 2.890625l-3.671875 3.859375l6.9375 0l0 2.578125zm12.795471 -6.65625q0 3.34375 -1.390625 5.109375q-1.375 1.765625 -4.046875 1.765625q-2.625 0 -4.03125 -1.734375q-1.390625 -1.734375 -1.421875 -4.984375l0 -2.953125q0 -3.375 1.390625 -5.125q1.40625 -1.75 4.03125 -1.75q2.640625 0 4.03125 1.734375q1.40625 1.734375 1.4375 4.96875l0 2.96875zm-3.203125 -3.25q0 -2.015625 -0.546875 -2.921875q-0.546875 -0.90625 -1.703125 -0.90625q-1.125 0 -1.671875 0.875q-0.53125 0.859375 -0.5625 2.703125l0 3.921875q0 1.96875 0.53125 2.921875q0.546875 0.953125 1.71875 0.953125q1.171875 0 1.6875 -0.90625q0.53125 -0.921875 0.546875 -2.8125l0 -3.828125zm13.123535 9.90625l-3.1875 0l0 -12.328125l-3.828125 1.1875l0 -2.59375l6.671875 -2.390625l0.34375 0l0 16.125zm16.279846 0l-11.046875 0l0 -2.1875l5.21875 -5.5625q1.0625 -1.171875 1.578125 -2.046875q0.515625 -0.875 0.515625 -1.65625q0 -1.0625 -0.546875 -1.671875q-0.53125 -0.625 -1.546875 -0.625q-1.078125 0 -1.703125 0.75q-0.625 0.75 -0.625 1.953125l-3.203125 0q0 -1.46875 0.6875 -2.6875q0.703125 -1.21875 1.984375 -1.90625q1.296875 -0.6875 2.921875 -0.6875q2.484375 0 3.859375 1.203125q1.375 1.1875 1.375 3.359375q0 1.203125 -0.625 2.4375q-0.609375 1.234375 -2.109375 2.890625l-3.671875 3.859375l6.9375 0l0 2.578125z"
       fill-rule="nonzero"
       id="path47" />
    <path
       fill="#999999"
       d="m535.3393 193.41292l139.74799 0l0 66.20473l-139.74799 0z"
       fill-rule="evenodd"
       id="path49" />
    <path
       stroke="#434343"
       stroke-width="1.0"
       stroke-linejoin="round"
       stroke-linecap="butt"
       d="m535.3393 193.41292l139.74799 0l0 66.20473l-139.74799 0z"
       fill-rule="evenodd"
       id="path51" />
    <path
       fill="#ffffff"
       d="m573.9236 228.11902q0 3.34375 -1.390625 5.109375q-1.375 1.765625 -4.046875 1.765625q-2.625 0 -4.03125 -1.734375q-1.390625 -1.734375 -1.421875 -4.984375l0 -2.953125q0 -3.375 1.390625 -5.125q1.40625 -1.75 4.03125 -1.75q2.640625 0 4.03125 1.734375q1.40625 1.734375 1.4375 4.96875l0 2.96875zm-3.203125 -3.25q0 -2.015625 -0.546875 -2.921875q-0.546875 -0.90625 -1.703125 -0.90625q-1.125 0 -1.671875 0.875q-0.53125 0.859375 -0.5625 2.703125l0 3.921875q0 1.96875 0.53125 2.921875q0.546875 0.953125 1.71875 0.953125q1.171875 0 1.6875 -0.90625q0.53125 -0.921875 0.546875 -2.8125l0 -3.828125zm16.311096 -4.40625l-6.234375 14.3125l-3.375 0l6.25 -13.515625l-8.015625 0l0 -2.59375l11.375 0l0 1.796875zm3.1860962 15.703125l-2.375 0l5.921875 -17.5l2.390625 0l-5.9375 17.5zm18.36914 -1.390625l-11.046875 0l0 -2.1875l5.21875 -5.5625q1.0625 -1.171875 1.578125 -2.046875q0.515625 -0.875 0.515625 -1.65625q0 -1.0625 -0.546875 -1.671875q-0.53125 -0.625 -1.546875 -0.625q-1.078125 0 -1.703125 0.75q-0.625 0.75 -0.625 1.953125l-3.203125 0q0 -1.46875 0.6875 -2.6875q0.703125 -1.21875 1.984375 -1.90625q1.296875 -0.6875 2.921875 -0.6875q2.484375 0 3.859375 1.203125q1.375 1.1875 1.375 3.359375q0 1.203125 -0.625 2.4375q-0.609375 1.234375 -2.109375 2.890625l-3.671875 3.859375l6.9375 0l0 2.578125zm12.795471 -6.65625q0 3.34375 -1.390625 5.109375q-1.375 1.765625 -4.046875 1.765625q-2.625 0 -4.03125 -1.734375q-1.390625 -1.734375 -1.421875 -4.984375l0 -2.953125q0 -3.375 1.390625 -5.125q1.40625 -1.75 4.03125 -1.75q2.640625 0 4.03125 1.734375q1.40625 1.734375 1.4375 4.96875l0 2.96875zm-3.203125 -3.25q0 -2.015625 -0.546875 -2.921875q-0.546875 -0.90625 -1.703125 -0.90625q-1.125 0 -1.671875 0.875q-0.53125 0.859375 -0.5625 2.703125l0 3.921875q0 1.96875 0.53125 2.921875q0.546875 0.953125 1.71875 0.953125q1.171875 0 1.6875 -0.90625q0.53125 -0.921875 0.546875 -2.8125l0 -3.828125zm13.123535 9.90625l-3.1875 0l0 -12.328125l-3.828125 1.1875l0 -2.59375l6.671875 -2.390625l0.34375 0l0 16.125zm8.482971 -9.46875l1.703125 0q1.21875 0 1.796875 -0.609375q0.59375 -0.609375 0.59375 -1.609375q0 -0.984375 -0.578125 -1.515625q-0.578125 -0.546875 -1.59375 -0.546875q-0.921875 0 -1.546875 0.5q-0.609375 0.5 -0.609375 1.3125l-3.203125 0q0 -1.265625 0.671875 -2.265625q0.6875 -1.0 1.90625 -1.5625q1.234375 -0.5625 2.703125 -0.5625q2.546875 0 4.0 1.21875q1.453125 1.21875 1.453125 3.375q0 1.109375 -0.6875 2.046875q-0.671875 0.921875 -1.765625 1.40625q1.359375 0.5 2.03125 1.46875q0.671875 0.96875 0.671875 2.296875q0 2.140625 -1.5625 3.4375q-1.5625 1.296875 -4.140625 1.296875q-2.421875 0 -3.953125 -1.265625q-1.53125 -1.28125 -1.53125 -3.359375l3.203125 0q0 0.90625 0.671875 1.484375q0.6875 0.5625 1.6875 0.5625q1.140625 0 1.78125 -0.59375q0.640625 -0.609375 0.640625 -1.609375q0 -2.40625 -2.640625 -2.40625l-1.703125 0l0 -2.5z"
       fill-rule="nonzero"
       id="path53" />
    <path
       fill="#999999"
       d="m535.3393 268.8116l139.74799 0l0 66.20474l-139.74799 0z"
       fill-rule="evenodd"
       id="path55" />
    <path
       stroke="#434343"
       stroke-width="1.0"
       stroke-linejoin="round"
       stroke-linecap="butt"
       d="m535.3393 268.8116l139.74799 0l0 66.20474l-139.74799 0z"
       fill-rule="evenodd"
       id="path57" />
    <path
       fill="#ffffff"
       d="m570.84546 310.17398l-3.1875 0l0 -12.328125l-3.828125 1.1875l0 -2.59375l6.671875 -2.390625l0.34375 0l0 16.125zm16.076721 -6.65625q0 3.34375 -1.390625 5.109375q-1.375 1.765625 -4.046875 1.765625q-2.625 0 -4.03125 -1.734375q-1.390625 -1.734375 -1.421875 -4.984375l0 -2.953125q0 -3.375 1.390625 -5.125q1.40625 -1.75 4.03125 -1.75q2.640625 0 4.03125 1.734375q1.40625 1.734375 1.4375 4.96875l0 2.96875zm-3.203125 -3.25q0 -2.015625 -0.546875 -2.921875q-0.546875 -0.90625 -1.703125 -0.90625q-1.125 0 -1.671875 0.875q-0.53125 0.859375 -0.5625 2.703125l0 3.921875q0 1.96875 0.53125 2.921875q0.546875 0.953125 1.71875 0.953125q1.171875 0 1.6875 -0.90625q0.53125 -0.921875 0.546875 -2.8125l0 -3.828125zm6.498596 11.296875l-2.375 0l5.921875 -17.5l2.390625 0l-5.9375 17.5zm18.36914 -1.390625l-11.046875 0l0 -2.1875l5.21875 -5.5625q1.0625 -1.171875 1.578125 -2.046875q0.515625 -0.875 0.515625 -1.65625q0 -1.0625 -0.546875 -1.671875q-0.53125 -0.625 -1.546875 -0.625q-1.078125 0 -1.703125 0.75q-0.625 0.75 -0.625 1.953125l-3.203125 0q0 -1.46875 0.6875 -2.6875q0.703125 -1.21875 1.984375 -1.90625q1.296875 -0.6875 2.921875 -0.6875q2.484375 0 3.859375 1.203125q1.375 1.1875 1.375 3.359375q0 1.203125 -0.625 2.4375q-0.609375 1.234375 -2.109375 2.890625l-3.671875 3.859375l6.9375 0l0 2.578125zm12.795471 -6.65625q0 3.34375 -1.390625 5.109375q-1.375 1.765625 -4.046875 1.765625q-2.625 0 -4.03125 -1.734375q-1.390625 -1.734375 -1.421875 -4.984375l0 -2.953125q0 -3.375 1.390625 -5.125q1.40625 -1.75 4.03125 -1.75q2.640625 0 4.03125 1.734375q1.40625 1.734375 1.4375 4.96875l0 2.96875zm-3.203125 -3.25q0 -2.015625 -0.546875 -2.921875q-0.546875 -0.90625 -1.703125 -0.90625q-1.125 0 -1.671875 0.875q-0.53125 0.859375 -0.5625 2.703125l0 3.921875q0 1.96875 0.53125 2.921875q0.546875 0.953125 1.71875 0.953125q1.171875 0 1.6875 -0.90625q0.53125 -0.921875 0.546875 -2.8125l0 -3.828125zm13.123535 9.90625l-3.1875 0l0 -12.328125l-3.828125 1.1875l0 -2.59375l6.671875 -2.390625l0.34375 0l0 16.125zm14.686096 -6.0625l1.828125 0l0 2.578125l-1.828125 0l0 3.484375l-3.1875 0l0 -3.484375l-6.609375 0l-0.140625 -2.015625l6.71875 -10.609375l3.21875 0l0 10.046875zm-6.75 0l3.5625 0l0 -5.6875l-0.21875 0.359375l-3.34375 5.328125z"
       fill-rule="nonzero"
       id="path59" />
    <path
       fill="#999999"
       d="m535.3393 344.21033l139.74799 0l0 66.20474l-139.74799 0z"
       fill-rule="evenodd"
       id="path61" />
    <path
       stroke="#434343"
       stroke-width="1.0"
       stroke-linejoin="round"
       stroke-linecap="butt"
       d="m535.3393 344.21033l139.74799 0l0 66.20474l-139.74799 0z"
       fill-rule="evenodd"
       id="path63" />
    <path
       fill="#ffffff"
       d="m570.84546 385.5727l-3.1875 0l0 -12.328125l-3.828125 1.1875l0 -2.59375l6.671875 -2.390625l0.34375 0l0 16.125zm12.998596 0l-3.1875 0l0 -12.328125l-3.828125 1.1875l0 -2.59375l6.671875 -2.390625l0.34375 0l0 16.125zm6.373596 1.390625l-2.375 0l5.921875 -17.5l2.390625 0l-5.9375 17.5zm18.36914 -1.390625l-11.046875 0l0 -2.1875l5.21875 -5.5625q1.0625 -1.171875 1.578125 -2.046875q0.515625 -0.875 0.515625 -1.65625q0 -1.0625 -0.546875 -1.671875q-0.53125 -0.625 -1.546875 -0.625q-1.078125 0 -1.703125 0.75q-0.625 0.75 -0.625 1.953125l-3.203125 0q0 -1.46875 0.6875 -2.6875q0.703125 -1.21875 1.984375 -1.90625q1.296875 -0.6875 2.921875 -0.6875q2.484375 0 3.859375 1.203125q1.375 1.1875 1.375 3.359375q0 1.203125 -0.625 2.4375q-0.609375 1.234375 -2.109375 2.890625l-3.671875 3.859375l6.9375 0l0 2.578125zm12.795471 -6.65625q0 3.34375 -1.390625 5.109375q-1.375 1.765625 -4.046875 1.765625q-2.625 0 -4.03125 -1.734375q-1.390625 -1.734375 -1.421875 -4.984375l0 -2.953125q0 -3.375 1.390625 -5.125q1.40625 -1.75 4.03125 -1.75q2.640625 0 4.03125 1.734375q1.40625 1.734375 1.4375 4.96875l0 2.96875zm-3.203125 -3.25q0 -2.015625 -0.546875 -2.921875q-0.546875 -0.90625 -1.703125 -0.90625q-1.125 0 -1.671875 0.875q-0.53125 0.859375 -0.5625 2.703125l0 3.921875q0 1.96875 0.53125 2.921875q0.546875 0.953125 1.71875 0.953125q1.171875 0 1.6875 -0.90625q0.53125 -0.921875 0.546875 -2.8125l0 -3.828125zm13.123535 9.90625l-3.1875 0l0 -12.328125l-3.828125 1.1875l0 -2.59375l6.671875 -2.390625l0.34375 0l0 16.125zm5.717346 -7.921875l0.921875 -8.1875l9.03125 0l0 2.671875l-6.40625 0l-0.40625 3.453125q1.140625 -0.609375 2.421875 -0.609375q2.3125 0 3.609375 1.4375q1.3125 1.421875 1.3125 3.984375q0 1.5625 -0.671875 2.796875q-0.65625 1.234375 -1.890625 1.921875q-1.21875 0.671875 -2.890625 0.671875q-1.453125 0 -2.703125 -0.59375q-1.25 -0.59375 -1.984375 -1.65625q-0.71875 -1.078125 -0.765625 -2.453125l3.171875 0q0.09375 1.015625 0.6875 1.578125q0.609375 0.546875 1.59375 0.546875q1.078125 0 1.65625 -0.78125q0.59375 -0.78125 0.59375 -2.203125q0 -1.375 -0.671875 -2.09375q-0.671875 -0.734375 -1.921875 -0.734375q-1.125 0 -1.84375 0.59375l-0.3125 0.28125l-2.53125 -0.625z"
       fill-rule="nonzero"
       id="path65" />
    <path
       fill="#999999"
       d="m535.3393 419.60928l139.74799 0l0 66.20474l-139.74799 0z"
       fill-rule="evenodd"
       id="path67" />
    <path
       stroke="#434343"
       stroke-width="1.0"
       stroke-linejoin="round"
       stroke-linecap="butt"
       d="m535.3393 419.60928l139.74799 0l0 66.20474l-139.74799 0z"
       fill-rule="evenodd"
       id="path69" />
    <path
       fill="#ffffff"
       d="m573.9236 454.3154q0 3.34375 -1.390625 5.109375q-1.375 1.765625 -4.046875 1.765625q-2.625 0 -4.03125 -1.734375q-1.390625 -1.734375 -1.421875 -4.984375l0 -2.953125q0 -3.375 1.390625 -5.125q1.40625 -1.75 4.03125 -1.75q2.640625 0 4.03125 1.734375q1.40625 1.734375 1.4375 4.96875l0 2.96875zm-3.203125 -3.25q0 -2.015625 -0.546875 -2.921875q-0.546875 -0.90625 -1.703125 -0.90625q-1.125 0 -1.671875 0.875q-0.53125 0.859375 -0.5625 2.703125l0 3.921875q0 1.96875 0.53125 2.921875q0.546875 0.953125 1.71875 0.953125q1.171875 0 1.6875 -0.90625q0.53125 -0.921875 0.546875 -2.8125l0 -3.828125zm14.029846 -6.359375l0 2.625l-0.3125 0q-2.15625 0.03125 -3.484375 1.125q-1.328125 1.09375 -1.59375 3.046875q1.296875 -1.3125 3.25 -1.3125q2.09375 0 3.328125 1.515625q1.25 1.5 1.25 3.953125q0 1.578125 -0.6875 2.859375q-0.671875 1.265625 -1.921875 1.96875q-1.234375 0.703125 -2.8125 0.703125q-2.546875 0 -4.109375 -1.765625q-1.5625 -1.765625 -1.5625 -4.71875l0 -1.15625q0 -2.625 0.984375 -4.625q1.0 -2.015625 2.84375 -3.109375q1.859375 -1.109375 4.296875 -1.109375l0.53125 0zm-3.109375 8.0625q-0.78125 0 -1.421875 0.40625q-0.625 0.390625 -0.921875 1.0625l0 0.96875q0 1.609375 0.625 2.515625q0.640625 0.890625 1.78125 0.890625q1.03125 0 1.65625 -0.8125q0.640625 -0.8125 0.640625 -2.109375q0 -1.3125 -0.640625 -2.109375q-0.640625 -0.8125 -1.71875 -0.8125zm8.576721 9.59375l-2.375 0l5.921875 -17.5l2.390625 0l-5.9375 17.5zm18.36914 -1.390625l-11.046875 0l0 -2.1875l5.21875 -5.5625q1.0625 -1.171875 1.578125 -2.046875q0.515625 -0.875 0.515625 -1.65625q0 -1.0625 -0.546875 -1.671875q-0.53125 -0.625 -1.546875 -0.625q-1.078125 0 -1.703125 0.75q-0.625 0.75 -0.625 1.953125l-3.203125 0q0 -1.46875 0.6875 -2.6875q0.703125 -1.21875 1.984375 -1.90625q1.296875 -0.6875 2.921875 -0.6875q2.484375 0 3.859375 1.203125q1.375 1.1875 1.375 3.359375q0 1.203125 -0.625 2.4375q-0.609375 1.234375 -2.109375 2.890625l-3.671875 3.859375l6.9375 0l0 2.578125zm12.795471 -6.65625q0 3.34375 -1.390625 5.109375q-1.375 1.765625 -4.046875 1.765625q-2.625 0 -4.03125 -1.734375q-1.390625 -1.734375 -1.421875 -4.984375l0 -2.953125q0 -3.375 1.390625 -5.125q1.40625 -1.75 4.03125 -1.75q2.640625 0 4.03125 1.734375q1.40625 1.734375 1.4375 4.96875l0 2.96875zm-3.203125 -3.25q0 -2.015625 -0.546875 -2.921875q-0.546875 -0.90625 -1.703125 -0.90625q-1.125 0 -1.671875 0.875q-0.53125 0.859375 -0.5625 2.703125l0 3.921875q0 1.96875 0.53125 2.921875q0.546875 0.953125 1.71875 0.953125q1.171875 0 1.6875 -0.90625q0.53125 -0.921875 0.546875 -2.8125l0 -3.828125zm13.123535 9.90625l-3.1875 0l0 -12.328125l-3.828125 1.1875l0 -2.59375l6.671875 -2.390625l0.34375 0l0 16.125zm13.904846 -16.265625l0 2.625l-0.3125 0q-2.15625 0.03125 -3.484375 1.125q-1.328125 1.09375 -1.59375 3.046875q1.296875 -1.3125 3.25 -1.3125q2.09375 0 3.328125 1.515625q1.25 1.5 1.25 3.953125q0 1.578125 -0.6875 2.859375q-0.671875 1.265625 -1.921875 1.96875q-1.234375 0.703125 -2.8125 0.703125q-2.546875 0 -4.109375 -1.765625q-1.5625 -1.765625 -1.5625 -4.71875l0 -1.15625q0 -2.625 0.984375 -4.625q1.0 -2.015625 2.84375 -3.109375q1.859375 -1.109375 4.296875 -1.109375l0.53125 0zm-3.109375 8.0625q-0.78125 0 -1.421875 0.40625q-0.625 0.390625 -0.921875 1.0625l0 0.96875q0 1.609375 0.625 2.515625q0.640625 0.890625 1.78125 0.890625q1.03125 0 1.65625 -0.8125q0.640625 -0.8125 0.640625 -2.109375q0 -1.3125 -0.640625 -2.109375q-0.640625 -0.8125 -1.71875 -0.8125z"
       fill-rule="nonzero"
       id="path71" />
    <path
       fill="#000000"
       fill-opacity="0.0"
       d="m521.8425 132.63544l0 0c0 -14.82357 12.016846 -26.840439 26.840393 -26.840439l107.35852 0l0 0c7.1185303 0 13.945496 2.8278275 18.979065 7.8613815c5.0335693 5.033554 7.861389 11.860527 7.861389 18.979057l0 337.90967c0 14.823578 -12.016907 26.840454 -26.840454 26.840454l-107.35852 0c-14.823547 0 -26.840393 -12.016876 -26.840393 -26.840454z"
       fill-rule="evenodd"
       id="path73" />
    <path
       stroke="#e69138"
       stroke-width="2.0"
       stroke-linejoin="round"
       stroke-linecap="butt"
       stroke-dasharray="16.0,6.0"
       d="m521.8425 132.63544l0 0c0 -14.82357 12.016846 -26.840439 26.840393 -26.840439l107.35852 0l0 0c7.1185303 0 13.945496 2.8278275 18.979065 7.8613815c5.0335693 5.033554 7.861389 11.860527 7.861389 18.979057l0 337.90967c0 14.823578 -12.016907 26.840454 -26.840454 26.840454l-107.35852 0c-14.823547 0 -26.840393 -12.016876 -26.840393 -26.840454z"
       fill-rule="evenodd"
       id="path75" />
    <path
       fill="#000000"
       fill-opacity="0.0"
       d="m345.0 125.25722l144.22046 0l0 51.716537l-144.22046 0z"
       fill-rule="evenodd"
       id="path77" />
    <path
       stroke="#e69138"
       stroke-width="2.0"
       stroke-linejoin="round"
       stroke-linecap="butt"
       d="m345.0 125.25722l144.22046 0l0 51.716537l-144.22046 0z"
       fill-rule="evenodd"
       id="path79" />
    <path
       fill="#000000"
       d="m379.34564 159.85722l-2.5 0l0 -18.953125l2.5 0l0 18.953125zm-0.078125 -24.1875l2.921875 0l-3.484375 3.828125l-1.953125 0l2.515625 -3.828125zm6.5466614 10.109375l0.078125 1.765625q1.625 -2.03125 4.21875 -2.03125q4.46875 0 4.515625 5.03125l0 9.3125l-2.421875 0l0 -9.3125q0 -1.53125 -0.6875 -2.25q-0.6875 -0.734375 -2.125 -0.734375q-1.171875 0 -2.0625 0.625q-0.890625 0.625 -1.375 1.640625l0 10.03125l-2.40625 0l0 -14.078125l2.265625 0zm11.848419 6.921875q0 -3.25 1.53125 -5.21875q1.546875 -1.96875 4.03125 -1.96875q2.46875 0 3.921875 1.6875l0 -7.34375l2.40625 0l0 20.0l-2.21875 0l-0.109375 -1.515625q-1.453125 1.78125 -4.03125 1.78125q-2.4375 0 -3.984375 -2.0q-1.546875 -2.015625 -1.546875 -5.234375l0 -0.1875zm2.40625 0.265625q0 2.40625 0.984375 3.765625q1.0 1.34375 2.734375 1.34375q2.296875 0 3.359375 -2.0625l0 -6.46875q-1.09375 -1.984375 -3.328125 -1.984375q-1.765625 0 -2.765625 1.375q-0.984375 1.359375 -0.984375 4.03125zm15.830048 6.890625l-2.40625 0l0 -14.078125l2.40625 0l0 14.078125zm-2.609375 -17.8125q0 -0.59375 0.359375 -1.0q0.359375 -0.40625 1.0625 -0.40625q0.703125 0 1.0625 0.40625q0.375 0.40625 0.375 1.0q0 0.578125 -0.375 0.96875q-0.359375 0.390625 -1.0625 0.390625q-0.703125 0 -1.0625 -0.390625q-0.359375 -0.390625 -0.359375 -0.96875zm12.109467 16.109375q1.296875 0 2.25 -0.78125q0.96875 -0.78125 1.078125 -1.953125l2.265625 0q-0.0625 1.203125 -0.828125 2.296875q-0.765625 1.09375 -2.046875 1.75q-1.28125 0.65625 -2.71875 0.65625q-2.875 0 -4.578125 -1.921875q-1.6875 -1.921875 -1.6875 -5.25l0 -0.40625q0 -2.0625 0.75 -3.65625q0.75 -1.609375 2.15625 -2.484375q1.421875 -0.890625 3.34375 -0.890625q2.375 0 3.9375 1.421875q1.578125 1.421875 1.671875 3.6875l-2.265625 0q-0.109375 -1.375 -1.046875 -2.25q-0.921875 -0.875 -2.296875 -0.875q-1.828125 0 -2.84375 1.328125q-1.0 1.3125 -1.0 3.8125l0 0.453125q0 2.4375 1.0 3.75q1.0 1.3125 2.859375 1.3125zm14.156006 1.96875q-2.875 0 -4.671875 -1.875q-1.796875 -1.890625 -1.796875 -5.046875l0 -0.4375q0 -2.09375 0.796875 -3.734375q0.8125 -1.65625 2.25 -2.578125q1.4375 -0.9375 3.109375 -0.9375q2.75 0 4.265625 1.8125q1.53125 1.8125 1.53125 5.171875l0 1.0l-9.53125 0q0.046875 2.09375 1.203125 3.375q1.171875 1.28125 2.96875 1.28125q1.28125 0 2.15625 -0.515625q0.890625 -0.53125 1.546875 -1.390625l1.484375 1.15625q-1.78125 2.71875 -5.3125 2.71875zm-0.3125 -12.625q-1.453125 0 -2.4375 1.0625q-0.984375 1.046875 -1.21875 2.96875l7.046875 0l0 -0.1875q-0.109375 -1.828125 -1.0 -2.828125q-0.875 -1.015625 -2.390625 -1.015625zm16.77832 8.625q0 -0.984375 -0.734375 -1.515625q-0.734375 -0.546875 -2.5625 -0.9375q-1.828125 -0.390625 -2.90625 -0.9375q-1.0625 -0.546875 -1.578125 -1.296875q-0.515625 -0.75 -0.515625 -1.796875q0 -1.734375 1.453125 -2.921875q1.46875 -1.203125 3.75 -1.203125q2.390625 0 3.875 1.234375q1.5 1.234375 1.5 3.171875l-2.421875 0q0 -1.0 -0.84375 -1.703125q-0.828125 -0.71875 -2.109375 -0.71875q-1.3125 0 -2.0625 0.578125q-0.734375 0.5625 -0.734375 1.484375q0 0.875 0.6875 1.328125q0.6875 0.4375 2.484375 0.84375q1.8125 0.390625 2.921875 0.953125q1.125 0.5625 1.671875 1.359375q0.546875 0.78125 0.546875 1.90625q0 1.890625 -1.515625 3.03125q-1.515625 1.140625 -3.921875 1.140625q-1.6875 0 -3.0 -0.59375q-1.296875 -0.609375 -2.03125 -1.671875q-0.734375 -1.078125 -0.734375 -2.328125l2.40625 0q0.0625 1.203125 0.96875 1.921875q0.90625 0.703125 2.390625 0.703125q1.375 0 2.1875 -0.546875q0.828125 -0.5625 0.828125 -1.484375z"
       fill-rule="nonzero"
       id="path81" />
    <path
       fill="#000000"
       fill-opacity="0.0"
       d="m417.11023 176.97375c0 62.314957 52.362213 124.62991 104.72443 124.62991"
       fill-rule="evenodd"
       id="path83" />
    <path
       stroke="#595959"
       stroke-width="2.0"
       stroke-linejoin="round"
       stroke-linecap="butt"
       d="m417.11023 176.97375c0 31.157486 13.090546 62.314957 32.72638 85.683075c9.817932 11.6840515 21.272156 21.420776 33.544556 28.23645c6.1361694 3.4078674 12.476929 6.085449 18.919922 7.9111023c1.6107483 0.45639038 3.2279053 0.8595581 4.849823 1.2075806c0.81100464 0.17401123 1.623169 0.334198 2.4363098 0.4804077l0.29431152 0.051605225"
       fill-rule="evenodd"
       id="path85" />
    <path
       fill="#595959"
       stroke="#595959"
       stroke-width="2.0"
       stroke-linecap="butt"
       d="m509.5898 303.83456l9.332428 -2.4890747l-8.748993 -4.0920715z"
       fill-rule="evenodd"
       id="path87" />
    <path
       fill="#999999"
       d="m132.49281 48.401573l139.74803 0l0 66.20473l-139.74803 0z"
       fill-rule="evenodd"
       id="path89" />
    <path
       stroke="#434343"
       stroke-width="1.0"
       stroke-linejoin="round"
       stroke-linecap="butt"
       d="m132.49281 48.401573l139.74803 0l0 66.20473l-139.74803 0z"
       fill-rule="evenodd"
       id="path91" />
    <path
       fill="#ffffff"
       d="m174.39908 84.48019l0 6.34375l-3.703125 0l0 -18.0l7.015625 0q2.03125 0 3.5625 0.75q1.546875 0.734375 2.375 2.09375q0.828125 1.359375 0.828125 3.109375q0 2.640625 -1.8125 4.171875q-1.796875 1.53125 -5.0 1.53125l-3.265625 0zm0 -3.0l3.3125 0q1.484375 0 2.25 -0.6875q0.78125 -0.703125 0.78125 -1.984375q0 -1.328125 -0.78125 -2.140625q-0.78125 -0.828125 -2.15625 -0.84375l-3.40625 0l0 5.65625zm19.915268 -0.6875q-0.734375 -0.09375 -1.28125 -0.09375q-2.03125 0 -2.65625 1.375l0 8.75l-3.578125 0l0 -13.375l3.375 0l0.09375 1.59375q1.078125 -1.84375 2.984375 -1.84375q0.59375 0 1.109375 0.15625l-0.046875 3.4375zm7.643936 10.28125q-2.9375 0 -4.796875 -1.796875q-1.84375 -1.8125 -1.84375 -4.828125l0 -0.34375q0 -2.015625 0.78125 -3.59375q0.78125 -1.59375 2.203125 -2.453125q1.4375 -0.859375 3.265625 -0.859375q2.734375 0 4.3125 1.734375q1.578125 1.71875 1.578125 4.90625l0 1.453125l-8.515625 0q0.171875 1.3125 1.046875 2.109375q0.875 0.78125 2.203125 0.78125q2.0625 0 3.234375 -1.484375l1.75 1.953125q-0.796875 1.140625 -2.171875 1.78125q-1.375 0.640625 -3.046875 0.640625zm-0.40625 -10.984375q-1.0625 0 -1.734375 0.71875q-0.65625 0.71875 -0.84375 2.046875l4.96875 0l0 -0.28125q-0.015625 -1.1875 -0.640625 -1.828125q-0.609375 -0.65625 -1.75 -0.65625zm13.503052 8.09375q0.984375 0 1.609375 -0.53125q0.625 -0.546875 0.640625 -1.453125l3.359375 0q-0.015625 1.359375 -0.75 2.5q-0.734375 1.125 -2.0 1.75q-1.265625 0.625 -2.796875 0.625q-2.875 0 -4.53125 -1.828125q-1.65625 -1.828125 -1.65625 -5.03125l0 -0.234375q0 -3.09375 1.640625 -4.9375q1.65625 -1.84375 4.515625 -1.84375q2.515625 0 4.03125 1.4375q1.515625 1.421875 1.546875 3.796875l-3.359375 0q-0.015625 -1.046875 -0.640625 -1.6875q-0.625 -0.65625 -1.640625 -0.65625q-1.234375 0 -1.875 0.90625q-0.640625 0.90625 -0.640625 2.953125l0 0.375q0 2.0625 0.625 2.96875q0.640625 0.890625 1.921875 0.890625zm1.296875 2.5625l-0.140625 0.71875q1.859375 0.34375 1.859375 2.140625q0 1.359375 -1.140625 2.15625q-1.125 0.796875 -3.171875 0.796875l-0.09375 -2.078125q1.390625 0 1.390625 -1.0q0 -0.515625 -0.421875 -0.703125q-0.40625 -0.1875 -1.328125 -0.25l0.375 -1.78125l2.671875 0zm5.7863464 -6.734375q0 -2.0 0.765625 -3.546875q0.765625 -1.5625 2.203125 -2.40625q1.453125 -0.859375 3.359375 -0.859375q2.703125 0 4.40625 1.65625q1.71875 1.65625 1.921875 4.5l0.03125 0.921875q0 3.078125 -1.734375 4.9375q-1.71875 1.859375 -4.609375 1.859375q-2.890625 0 -4.625 -1.859375q-1.71875 -1.859375 -1.71875 -5.046875l0 -0.15625zm3.578125 0.265625q0 1.890625 0.71875 2.90625q0.71875 1.0 2.046875 1.0q1.296875 0 2.03125 -0.984375q0.734375 -1.0 0.734375 -3.1875q0 -1.875 -0.734375 -2.890625q-0.734375 -1.03125 -2.046875 -1.03125q-1.3125 0 -2.03125 1.03125q-0.71875 1.015625 -0.71875 3.15625z"
       fill-rule="nonzero"
       id="path93" />
    <path
       fill="#d9d9d9"
       d="m132.49281 123.800285l139.74803 0l0 66.204735l-139.74803 0z"
       fill-rule="evenodd"
       id="path95" />
    <path
       stroke="#434343"
       stroke-width="1.0"
       stroke-linejoin="round"
       stroke-linecap="butt"
       d="m132.49281 123.800285l139.74803 0l0 66.204735l-139.74803 0z"
       fill-rule="evenodd"
       id="path97" />
    <path
       fill="#000000"
       d="m186.79523 164.38264l-9.921875 0l0 -1.390625l5.25 -5.828125q1.15625 -1.328125 1.59375 -2.15625q0.453125 -0.828125 0.453125 -1.703125q0 -1.1875 -0.71875 -1.9375q-0.71875 -0.765625 -1.921875 -0.765625q-1.4375 0 -2.234375 0.8125q-0.796875 0.8125 -0.796875 2.28125l-1.921875 0q0 -2.09375 1.34375 -3.390625q1.359375 -1.296875 3.609375 -1.296875q2.125 0 3.34375 1.109375q1.234375 1.109375 1.234375 2.953125q0 2.234375 -2.859375 5.328125l-4.0625 4.40625l7.609375 0l0 1.578125zm4.851242 -8.515625l1.453125 0q1.359375 -0.03125 2.140625 -0.71875q0.78125 -0.703125 0.78125 -1.890625q0 -2.65625 -2.65625 -2.65625q-1.25 0 -2.0 0.71875q-0.734375 0.703125 -0.734375 1.875l-1.9375 0q0 -1.796875 1.3125 -2.984375q1.328125 -1.203125 3.359375 -1.203125q2.140625 0 3.359375 1.140625q1.21875 1.140625 1.21875 3.15625q0 0.984375 -0.640625 1.921875q-0.640625 0.921875 -1.734375 1.375q1.25 0.390625 1.921875 1.3125q0.6875 0.921875 0.6875 2.234375q0 2.046875 -1.34375 3.25q-1.328125 1.1875 -3.46875 1.1875q-2.125 0 -3.46875 -1.15625q-1.328125 -1.15625 -1.328125 -3.046875l1.9375 0q0 1.203125 0.78125 1.921875q0.78125 0.71875 2.09375 0.71875q1.390625 0 2.125 -0.734375q0.75 -0.734375 0.75 -2.09375q0 -1.328125 -0.8125 -2.03125q-0.8125 -0.703125 -2.34375 -0.734375l-1.453125 0l0 -1.5625zm9.413742 7.5q0 -0.5 0.296875 -0.828125q0.296875 -0.328125 0.890625 -0.328125q0.59375 0 0.890625 0.328125q0.3125 0.328125 0.3125 0.828125q0 0.484375 -0.3125 0.8125q-0.296875 0.3125 -0.890625 0.3125q-0.59375 0 -0.890625 -0.3125q-0.296875 -0.328125 -0.296875 -0.8125zm13.503845 -4.078125l2.109375 0l0 1.578125l-2.109375 0l0 3.515625l-1.9375 0l0 -3.515625l-6.90625 0l0 -1.140625l6.796875 -10.5l2.046875 0l0 10.0625zm-6.65625 0l4.71875 0l0 -7.4375l-0.21875 0.421875l-4.5 7.015625zm11.382492 -2.515625l0.78125 -7.546875l7.765625 0l0 1.78125l-6.140625 0l-0.453125 4.125q1.109375 -0.65625 2.53125 -0.65625q2.078125 0 3.28125 1.375q1.21875 1.359375 1.21875 3.703125q0 2.34375 -1.265625 3.6875q-1.25 1.34375 -3.53125 1.34375q-2.0 0 -3.28125 -1.109375q-1.265625 -1.109375 -1.4375 -3.078125l1.8125 0q0.1875 1.296875 0.9375 1.96875q0.75 0.65625 1.96875 0.65625q1.34375 0 2.109375 -0.921875q0.765625 -0.921875 0.765625 -2.53125q0 -1.515625 -0.828125 -2.4375q-0.828125 -0.921875 -2.203125 -0.921875q-1.25 0 -1.96875 0.546875l-0.515625 0.421875l-1.546875 -0.40625z"
       fill-rule="nonzero"
       id="path99" />
    <path
       fill="#d9d9d9"
       d="m132.49281 199.199l139.74803 0l0 66.20471l-139.74803 0z"
       fill-rule="evenodd"
       id="path101" />
    <path
       stroke="#434343"
       stroke-width="1.0"
       stroke-linejoin="round"
       stroke-linecap="butt"
       d="m132.49281 199.199l139.74803 0l0 66.20471l-139.74803 0z"
       fill-rule="evenodd"
       id="path103" />
    <path
       fill="#000000"
       d="m186.79523 239.78136l-9.921875 0l0 -1.390625l5.25 -5.828125q1.15625 -1.328125 1.59375 -2.15625q0.453125 -0.828125 0.453125 -1.703125q0 -1.1875 -0.71875 -1.9375q-0.71875 -0.765625 -1.921875 -0.765625q-1.4375 0 -2.234375 0.8125q-0.796875 0.8125 -0.796875 2.28125l-1.921875 0q0 -2.09375 1.34375 -3.390625q1.359375 -1.296875 3.609375 -1.296875q2.125 0 3.34375 1.109375q1.234375 1.109375 1.234375 2.953125q0 2.234375 -2.859375 5.328125l-4.0625 4.40625l7.609375 0l0 1.578125zm8.382492 0l-1.9375 0l0 -12.84375l-3.890625 1.4375l0 -1.75l5.53125 -2.078125l0.296875 0l0 15.234375zm5.882492 -1.015625q0 -0.5 0.296875 -0.828125q0.296875 -0.328125 0.890625 -0.328125q0.59375 0 0.890625 0.328125q0.3125 0.328125 0.3125 0.828125q0 0.484375 -0.3125 0.8125q-0.296875 0.3125 -0.890625 0.3125q-0.59375 0 -0.890625 -0.3125q-0.296875 -0.328125 -0.296875 -0.8125zm14.566345 -10.1875q0 1.125 -0.59375 2.015625q-0.59375 0.890625 -1.625 1.390625q1.1875 0.5 1.875 1.484375q0.703125 0.984375 0.703125 2.21875q0 1.96875 -1.328125 3.140625q-1.328125 1.15625 -3.5 1.15625q-2.1875 0 -3.5 -1.171875q-1.3125 -1.171875 -1.3125 -3.125q0 -1.234375 0.671875 -2.21875q0.671875 -0.984375 1.859375 -1.5q-1.015625 -0.5 -1.609375 -1.375q-0.578125 -0.890625 -0.578125 -2.015625q0 -1.921875 1.234375 -3.046875q1.234375 -1.125 3.234375 -1.125q2.0 0 3.234375 1.125q1.234375 1.125 1.234375 3.046875zm-1.5625 7.0625q0 -1.265625 -0.8125 -2.0625q-0.8125 -0.8125 -2.109375 -0.8125q-1.296875 0 -2.09375 0.796875q-0.78125 0.796875 -0.78125 2.09375q0 1.28125 0.765625 2.03125q0.765625 0.734375 2.125 0.734375q1.359375 0 2.125 -0.75q0.78125 -0.75 0.78125 -2.03125zm-2.90625 -9.640625q-1.125 0 -1.828125 0.703125q-0.703125 0.703125 -0.703125 1.90625q0 1.15625 0.6875 1.875q0.6875 0.703125 1.84375 0.703125q1.15625 0 1.84375 -0.703125q0.703125 -0.71875 0.703125 -1.875q0 -1.15625 -0.71875 -1.875q-0.71875 -0.734375 -1.828125 -0.734375zm17.038742 -0.296875l-6.28125 14.078125l-2.015625 0l6.265625 -13.578125l-8.21875 0l0 -1.578125l10.25 0l0 1.078125z"
       fill-rule="nonzero"
       id="path105" />
    <path
       fill="#d9d9d9"
       d="m132.49281 274.59772l139.74803 0l0 66.20471l-139.74803 0z"
       fill-rule="evenodd"
       id="path107" />
    <path
       stroke="#434343"
       stroke-width="1.0"
       stroke-linejoin="round"
       stroke-linecap="butt"
       d="m132.49281 274.59772l139.74803 0l0 66.20471l-139.74803 0z"
       fill-rule="evenodd"
       id="path109" />
    <path
       fill="#000000"
       d="m183.20148 315.18008l-1.9375 0l0 -12.84375l-3.890625 1.4375l0 -1.75l5.53125 -2.078125l0.296875 0l0 15.234375zm13.023117 -6.671875q-0.59375 0.71875 -1.4375 1.15625q-0.84375 0.4375 -1.84375 0.4375q-1.3125 0 -2.28125 -0.640625q-0.96875 -0.640625 -1.5 -1.8125q-0.53125 -1.171875 -0.53125 -2.59375q0 -1.515625 0.578125 -2.734375q0.578125 -1.21875 1.640625 -1.859375q1.0625 -0.65625 2.46875 -0.65625q2.25 0 3.546875 1.6875q1.296875 1.6875 1.296875 4.578125l0 0.5625q0 4.4375 -1.75 6.46875q-1.75 2.03125 -5.28125 2.09375l-0.375 0l0 -1.625l0.40625 0q2.390625 -0.046875 3.671875 -1.25q1.28125 -1.203125 1.390625 -3.8125zm-2.96875 0q0.96875 0 1.78125 -0.59375q0.828125 -0.59375 1.203125 -1.46875l0 -0.765625q0 -1.890625 -0.828125 -3.078125q-0.8125 -1.1875 -2.078125 -1.1875q-1.265625 0 -2.046875 0.984375q-0.765625 0.96875 -0.765625 2.546875q0 1.5625 0.734375 2.5625q0.75 1.0 2.0 1.0zm7.804367 5.65625q0 -0.5 0.296875 -0.828125q0.296875 -0.328125 0.890625 -0.328125q0.59375 0 0.890625 0.328125q0.3125 0.328125 0.3125 0.828125q0 0.484375 -0.3125 0.8125q-0.296875 0.3125 -0.890625 0.3125q-0.59375 0 -0.890625 -0.3125q-0.296875 -0.328125 -0.296875 -0.8125zm12.941345 -14.15625l0 1.640625l-0.359375 0q-2.25 0.03125 -3.59375 1.328125q-1.328125 1.296875 -1.53125 3.625q1.203125 -1.375 3.265625 -1.375q1.984375 0 3.15625 1.40625q1.1875 1.390625 1.1875 3.59375q0 2.34375 -1.28125 3.75q-1.265625 1.40625 -3.40625 1.40625q-2.1875 0 -3.546875 -1.671875q-1.34375 -1.671875 -1.34375 -4.296875l0 -0.75q0 -4.171875 1.78125 -6.390625q1.796875 -2.21875 5.328125 -2.265625l0.34375 0zm-2.53125 6.828125q-1.0 0 -1.828125 0.59375q-0.828125 0.59375 -1.15625 1.484375l0 0.71875q0 1.875 0.84375 3.015625q0.84375 1.140625 2.109375 1.140625q1.296875 0 2.03125 -0.953125q0.75 -0.953125 0.75 -2.515625q0 -1.5625 -0.75 -2.515625q-0.75 -0.96875 -2.0 -0.96875zm16.866867 8.34375l-9.921875 0l0 -1.390625l5.25 -5.828125q1.15625 -1.328125 1.59375 -2.15625q0.453125 -0.828125 0.453125 -1.703125q0 -1.1875 -0.71875 -1.9375q-0.71875 -0.765625 -1.921875 -0.765625q-1.4375 0 -2.234375 0.8125q-0.796875 0.8125 -0.796875 2.28125l-1.921875 0q0 -2.09375 1.34375 -3.390625q1.359375 -1.296875 3.609375 -1.296875q2.125 0 3.34375 1.109375q1.234375 1.109375 1.234375 2.953125q0 2.234375 -2.859375 5.328125l-4.0625 4.40625l7.609375 0l0 1.578125z"
       fill-rule="nonzero"
       id="path111" />
    <path
       fill="#d9d9d9"
       d="m132.49281 349.99643l139.74803 0l0 66.20471l-139.74803 0z"
       fill-rule="evenodd"
       id="path113" />
    <path
       stroke="#434343"
       stroke-width="1.0"
       stroke-linejoin="round"
       stroke-linecap="butt"
       d="m132.49281 349.99643l139.74803 0l0 66.20471l-139.74803 0z"
       fill-rule="evenodd"
       id="path115" />
    <path
       fill="#000000"
       d="m186.79523 390.5788l-9.921875 0l0 -1.390625l5.25 -5.828125q1.15625 -1.328125 1.59375 -2.15625q0.453125 -0.828125 0.453125 -1.703125q0 -1.1875 -0.71875 -1.9375q-0.71875 -0.765625 -1.921875 -0.765625q-1.4375 0 -2.234375 0.8125q-0.796875 0.8125 -0.796875 2.28125l-1.921875 0q0 -2.09375 1.34375 -3.390625q1.359375 -1.296875 3.609375 -1.296875q2.125 0 3.34375 1.109375q1.234375 1.109375 1.234375 2.953125q0 2.234375 -2.859375 5.328125l-4.0625 4.40625l7.609375 0l0 1.578125zm2.929367 -7.609375l0.78125 -7.546875l7.765625 0l0 1.78125l-6.140625 0l-0.453125 4.125q1.109375 -0.65625 2.53125 -0.65625q2.078125 0 3.28125 1.375q1.21875 1.359375 1.21875 3.703125q0 2.34375 -1.265625 3.6875q-1.25 1.34375 -3.53125 1.34375q-2.0 0 -3.28125 -1.109375q-1.265625 -1.109375 -1.4375 -3.078125l1.8125 0q0.1875 1.296875 0.9375 1.96875q0.75 0.65625 1.96875 0.65625q1.34375 0 2.109375 -0.921875q0.765625 -0.921875 0.765625 -2.53125q0 -1.515625 -0.828125 -2.4375q-0.828125 -0.921875 -2.203125 -0.921875q-1.25 0 -1.96875 0.546875l-0.515625 0.421875l-1.546875 -0.40625zm11.335617 6.59375q0 -0.5 0.296875 -0.828125q0.296875 -0.328125 0.890625 -0.328125q0.59375 0 0.890625 0.328125q0.3125 0.328125 0.3125 0.828125q0 0.484375 -0.3125 0.8125q-0.296875 0.3125 -0.890625 0.3125q-0.59375 0 -0.890625 -0.3125q-0.296875 -0.328125 -0.296875 -0.8125zm15.160095 -13.0625l-6.28125 14.078125l-2.015625 0l6.265625 -13.578125l-8.21875 0l0 -1.578125l10.25 0l0 1.078125zm11.694992 7.609375q0 3.390625 -1.15625 5.03125q-1.15625 1.640625 -3.609375 1.640625q-2.421875 0 -3.59375 -1.609375q-1.171875 -1.609375 -1.203125 -4.796875l0 -2.578125q0 -3.34375 1.15625 -4.96875q1.15625 -1.625 3.625 -1.625q2.4375 0 3.59375 1.578125q1.15625 1.5625 1.1875 4.828125l0 2.5zm-1.921875 -2.640625q0 -2.4375 -0.6875 -3.546875q-0.6875 -1.125 -2.171875 -1.125q-1.484375 0 -2.171875 1.109375q-0.671875 1.109375 -0.6875 3.421875l0 3.078125q0 2.46875 0.703125 3.640625q0.71875 1.171875 2.171875 1.171875q1.421875 0 2.109375 -1.109375q0.703125 -1.109375 0.734375 -3.484375l0 -3.15625z"
       fill-rule="nonzero"
       id="path117" />
    <path
       fill="#d9d9d9"
       d="m132.49281 425.3954l139.74803 0l0 66.20471l-139.74803 0z"
       fill-rule="evenodd"
       id="path119" />
    <path
       stroke="#434343"
       stroke-width="1.0"
       stroke-linejoin="round"
       stroke-linecap="butt"
       d="m132.49281 425.3954l139.74803 0l0 66.20471l-139.74803 0z"
       fill-rule="evenodd"
       id="path121" />
    <path
       fill="#000000"
       d="m186.79523 465.97775l-9.921875 0l0 -1.390625l5.25 -5.828125q1.15625 -1.328125 1.59375 -2.15625q0.453125 -0.828125 0.453125 -1.703125q0 -1.1875 -0.71875 -1.9375q-0.71875 -0.765625 -1.921875 -0.765625q-1.4375 0 -2.234375 0.8125q-0.796875 0.8125 -0.796875 2.28125l-1.921875 0q0 -2.09375 1.34375 -3.390625q1.359375 -1.296875 3.609375 -1.296875q2.125 0 3.34375 1.109375q1.234375 1.109375 1.234375 2.953125q0 2.234375 -2.859375 5.328125l-4.0625 4.40625l7.609375 0l0 1.578125zm11.835617 -14.078125l-6.28125 14.078125l-2.015625 0l6.265625 -13.578125l-8.21875 0l0 -1.578125l10.25 0l0 1.078125zm2.429367 13.0625q0 -0.5 0.296875 -0.828125q0.296875 -0.328125 0.890625 -0.328125q0.59375 0 0.890625 0.328125q0.3125 0.328125 0.3125 0.828125q0 0.484375 -0.3125 0.8125q-0.296875 0.3125 -0.890625 0.3125q-0.59375 0 -0.890625 -0.3125q-0.296875 -0.328125 -0.296875 -0.8125zm14.566345 -10.1875q0 1.125 -0.59375 2.015625q-0.59375 0.890625 -1.625 1.390625q1.1875 0.5 1.875 1.484375q0.703125 0.984375 0.703125 2.21875q0 1.96875 -1.328125 3.140625q-1.328125 1.15625 -3.5 1.15625q-2.1875 0 -3.5 -1.171875q-1.3125 -1.171875 -1.3125 -3.125q0 -1.234375 0.671875 -2.21875q0.671875 -0.984375 1.859375 -1.5q-1.015625 -0.5 -1.609375 -1.375q-0.578125 -0.890625 -0.578125 -2.015625q0 -1.921875 1.234375 -3.046875q1.234375 -1.125 3.234375 -1.125q2.0 0 3.234375 1.125q1.234375 1.125 1.234375 3.046875zm-1.5625 7.0625q0 -1.265625 -0.8125 -2.0625q-0.8125 -0.8125 -2.109375 -0.8125q-1.296875 0 -2.09375 0.796875q-0.78125 0.796875 -0.78125 2.09375q0 1.28125 0.765625 2.03125q0.765625 0.734375 2.125 0.734375q1.359375 0 2.125 -0.75q0.78125 -0.75 0.78125 -2.03125zm-2.90625 -9.640625q-1.125 0 -1.828125 0.703125q-0.703125 0.703125 -0.703125 1.90625q0 1.15625 0.6875 1.875q0.6875 0.703125 1.84375 0.703125q1.15625 0 1.84375 -0.703125q0.703125 -0.71875 0.703125 -1.875q0 -1.15625 -0.71875 -1.875q-0.71875 -0.734375 -1.828125 -0.734375zm14.632492 7.109375q-0.59375 0.71875 -1.4375 1.15625q-0.84375 0.4375 -1.84375 0.4375q-1.3125 0 -2.28125 -0.640625q-0.96875 -0.640625 -1.5 -1.8125q-0.53125 -1.171875 -0.53125 -2.59375q0 -1.515625 0.578125 -2.734375q0.578125 -1.21875 1.640625 -1.859375q1.0625 -0.65625 2.46875 -0.65625q2.25 0 3.546875 1.6875q1.296875 1.6875 1.296875 4.578125l0 0.5625q0 4.4375 -1.75 6.46875q-1.75 2.03125 -5.28125 2.09375l-0.375 0l0 -1.625l0.40625 0q2.390625 -0.046875 3.671875 -1.25q1.28125 -1.203125 1.390625 -3.8125zm-2.96875 0q0.96875 0 1.78125 -0.59375q0.828125 -0.59375 1.203125 -1.46875l0 -0.765625q0 -1.890625 -0.828125 -3.078125q-0.8125 -1.1875 -2.078125 -1.1875q-1.265625 0 -2.046875 0.984375q-0.765625 0.96875 -0.765625 2.546875q0 1.5625 0.734375 2.5625q0.75 1.0 2.0 1.0z"
       fill-rule="nonzero"
       id="path123" />
    <path
       fill="#eeeeee"
       d="m375.89896 294.01706l39.984253 0l0 -7.897644l15.795258 15.795288l-15.795258 15.795258l0 -7.8976135l-39.984253 0z"
       fill-rule="evenodd"
       id="path125" />
    <path
       stroke="#595959"
       stroke-width="1.0"
       stroke-linejoin="round"
       stroke-linecap="butt"
       d="m375.89896 294.01706l39.984253 0l0 -7.897644l15.795258 15.795288l-15.795258 15.795258l0 -7.8976135l-39.984253 0z"
       fill-rule="evenodd"
       id="path127" />
  </g>
</svg>
