<?xml version="1.0" encoding="UTF-8" standalone="no"?>
<svg
   xmlns:dc="http://purl.org/dc/elements/1.1/"
   xmlns:cc="http://creativecommons.org/ns#"
   xmlns:rdf="http://www.w3.org/1999/02/22-rdf-syntax-ns#"
   xmlns:svg="http://www.w3.org/2000/svg"
   xmlns="http://www.w3.org/2000/svg"
   xmlns:sodipodi="http://sodipodi.sourceforge.net/DTD/sodipodi-0.dtd"
   xmlns:inkscape="http://www.inkscape.org/namespaces/inkscape"
   version="1.1"
   viewBox="0.0 0.0 960.0 540.0"
   fill="none"
   stroke="none"
   stroke-linecap="square"
   stroke-miterlimit="10"
   id="svg109"
   sodipodi:docname="pandas_series3.svg"
   inkscape:export-filename="/home/felipe/Mestrado/01_Aulas/materiais/aulas/03-introducao-ao-python/images/python/v2021/pandas_series3.png"
   inkscape:export-xdpi="300"
   inkscape:export-ydpi="300"
   inkscape:version="0.92.5 (2060ec1f9f, 2020-04-08)">
  <metadata
     id="metadata115">
    <rdf:RDF>
      <cc:Work
         rdf:about="">
        <dc:format>image/svg+xml</dc:format>
        <dc:type
           rdf:resource="http://purl.org/dc/dcmitype/StillImage" />
      </cc:Work>
    </rdf:RDF>
  </metadata>
  <defs
     id="defs113" />
  <sodipodi:namedview
     pagecolor="#ffffff"
     bordercolor="#666666"
     borderopacity="1"
     objecttolerance="10"
     gridtolerance="10"
     guidetolerance="10"
     inkscape:pageopacity="0"
     inkscape:pageshadow="2"
     inkscape:window-width="1600"
     inkscape:window-height="790"
     id="namedview111"
     showgrid="false"
     inkscape:zoom="0.72291667"
     inkscape:cx="512.73635"
     inkscape:cy="282.82769"
     inkscape:window-x="0"
     inkscape:window-y="27"
     inkscape:window-maximized="1"
     inkscape:current-layer="g107" />
  <clipPath
     id="ge5cd28bdd1_0_306.0">
    <path
       d="m0 0l960.0 0l0 540.0l-960.0 0l0 -540.0z"
       clip-rule="nonzero"
       id="path2" />
  </clipPath>
  <g
     clip-path="url(#ge5cd28bdd1_0_306.0)"
     id="g107">
    <path
       fill="#ffffff"
       d="m0 0l960.0 0l0 540.0l-960.0 0z"
       fill-rule="evenodd"
       id="path5" />
    <path
       fill="#999999"
       d="m164.6516 16.82021l139.74803 0l0 66.20473l-139.74803 0z"
       fill-rule="evenodd"
       id="path7" />
    <path
       stroke="#434343"
       stroke-width="1.0"
       stroke-linejoin="round"
       stroke-linecap="butt"
       d="m164.6516 16.82021l139.74803 0l0 66.20473l-139.74803 0z"
       fill-rule="evenodd"
       id="path9" />
    <path
       fill="#ffffff"
       d="m210.35326 59.242573l-3.703125 0l-7.234375 -11.84375l0 11.84375l-3.703125 0l0 -18.0l3.703125 0l7.234375 11.859375l0 -11.859375l3.703125 0l0 18.0zm2.4455414 -6.8125q0 -2.0 0.765625 -3.546875q0.765625 -1.5625 2.203125 -2.40625q1.453125 -0.859375 3.359375 -0.859375q2.703125 0 4.40625 1.65625q1.71875 1.65625 1.921875 4.5l0.03125 0.921875q0 3.078125 -1.734375 4.9375q-1.71875 1.859375 -4.609375 1.859375q-2.890625 0 -4.625 -1.859375q-1.71875 -1.859375 -1.71875 -5.046875l0 -0.15625zm3.578125 0.265625q0 1.890625 0.71875 2.90625q0.71875 1.0 2.046875 1.0q1.296875 0 2.03125 -0.984375q0.734375 -1.0 0.734375 -3.1875q0 -1.875 -0.734375 -2.890625q-0.734375 -1.03125 -2.046875 -1.03125q-1.3125 0 -2.03125 1.03125q-0.71875 1.015625 -0.71875 3.15625zm14.649399 -6.828125l0.109375 1.484375q1.4375 -1.734375 3.859375 -1.734375q2.578125 0 3.546875 2.03125q1.40625 -2.03125 4.015625 -2.03125q2.171875 0 3.234375 1.265625q1.0625 1.265625 1.0625 3.8125l0 8.546875l-3.578125 0l0 -8.53125q0 -1.140625 -0.453125 -1.65625q-0.4375 -0.53125 -1.5625 -0.53125q-1.609375 0 -2.234375 1.53125l0.015625 9.1875l-3.5625 0l0 -8.515625q0 -1.171875 -0.46875 -1.6875q-0.453125 -0.515625 -1.5625 -0.515625q-1.515625 0 -2.1875 1.25l0 9.46875l-3.578125 0l0 -13.375l3.34375 0zm24.73964 13.625q-2.9375 0 -4.796875 -1.796875q-1.84375 -1.8125 -1.84375 -4.828125l0 -0.34375q0 -2.015625 0.78125 -3.59375q0.78125 -1.59375 2.203125 -2.453125q1.4375 -0.859375 3.265625 -0.859375q2.734375 0 4.3125 1.734375q1.578125 1.71875 1.578125 4.90625l0 1.453125l-8.515625 0q0.171875 1.3125 1.046875 2.109375q0.875 0.78125 2.203125 0.78125q2.0625 0 3.234375 -1.484375l1.75 1.953125q-0.796875 1.140625 -2.171875 1.78125q-1.375 0.640625 -3.046875 0.640625zm-0.40625 -10.984375q-1.0625 0 -1.734375 0.71875q-0.65625 0.71875 -0.84375 2.046875l4.96875 0l0 -0.28125q-0.015625 -1.1875 -0.640625 -1.828125q-0.609375 -0.65625 -1.75 -0.65625zm15.190552 7.03125q0 -0.65625 -0.65625 -1.03125q-0.640625 -0.375 -2.078125 -0.671875q-4.78125 -1.0 -4.78125 -4.0625q0 -1.765625 1.46875 -2.953125q1.484375 -1.203125 3.875 -1.203125q2.546875 0 4.078125 1.203125q1.53125 1.1875 1.53125 3.109375l-3.578125 0q0 -0.765625 -0.5 -1.265625q-0.484375 -0.5 -1.546875 -0.5q-0.890625 0 -1.390625 0.40625q-0.5 0.40625 -0.5 1.03125q0 0.59375 0.5625 0.96875q0.5625 0.359375 1.890625 0.625q1.34375 0.265625 2.265625 0.609375q2.828125 1.03125 2.828125 3.59375q0 1.828125 -1.578125 2.96875q-1.5625 1.125 -4.046875 1.125q-1.6875 0 -3.0 -0.59375q-1.296875 -0.609375 -2.046875 -1.65625q-0.734375 -1.046875 -0.734375 -2.25l3.390625 0q0.046875 0.953125 0.703125 1.46875q0.65625 0.5 1.765625 0.5q1.015625 0 1.546875 -0.390625q0.53125 -0.390625 0.53125 -1.03125z"
       fill-rule="nonzero"
       id="path11" />
    <path
       fill="#d9d9d9"
       d="m164.6516 92.218925l139.74803 0l0 66.20472l-139.74803 0z"
       fill-rule="evenodd"
       id="path13" />
    <path
       stroke="#434343"
       stroke-width="1.0"
       stroke-linejoin="round"
       stroke-linecap="butt"
       d="m164.6516 92.218925l139.74803 0l0 66.20472l-139.74803 0z"
       fill-rule="evenodd"
       id="path15" />
    <path
       fill="#000000"
       d="m203.08095 116.613785l1.109375 0.75q-0.96875 1.3125 -1.0 2.84375l0 1.421875l-1.921875 0l0 -1.203125q0 -1.0625 0.5 -2.109375q0.515625 -1.046875 1.3125 -1.703125zm3.28125 0l1.109375 0.75q-0.96875 1.3125 -1.0 2.84375l0 1.421875l-1.921875 0l0 -1.203125q0 -1.0625 0.5 -2.109375q0.515625 -1.046875 1.3125 -1.703125zm5.7117004 1.03125l4.953125 12.359375l4.953125 -12.359375l2.59375 0l0 15.15625l-2.0 0l0 -5.90625l0.1875 -6.375l-4.96875 12.28125l-1.53125 0l-4.96875 -12.25l0.203125 6.34375l0 5.90625l-2.0 0l0 -15.15625l2.578125 0zm22.698578 15.15625q-0.171875 -0.328125 -0.28125 -1.1875q-1.34375 1.390625 -3.203125 1.390625q-1.671875 0 -2.734375 -0.9375q-1.0625 -0.9375 -1.0625 -2.390625q0 -1.765625 1.328125 -2.734375q1.34375 -0.96875 3.765625 -0.96875l1.875 0l0 -0.890625q0 -1.015625 -0.609375 -1.609375q-0.59375 -0.59375 -1.765625 -0.59375q-1.03125 0 -1.734375 0.515625q-0.703125 0.515625 -0.703125 1.265625l-1.9375 0q0 -0.84375 0.59375 -1.625q0.609375 -0.796875 1.625 -1.25q1.03125 -0.453125 2.265625 -0.453125q1.953125 0 3.046875 0.96875q1.109375 0.96875 1.15625 2.671875l0 5.1875q0 1.5625 0.390625 2.46875l0 0.171875l-2.015625 0zm-3.203125 -1.46875q0.90625 0 1.71875 -0.46875q0.8125 -0.46875 1.171875 -1.21875l0 -2.3125l-1.5 0q-3.546875 0 -3.546875 2.078125q0 0.90625 0.59375 1.421875q0.609375 0.5 1.5625 0.5zm13.288834 -8.078125q-0.4375 -0.0625 -0.953125 -0.0625q-1.890625 0 -2.5625 1.609375l0 8.0l-1.9375 0l0 -11.265625l1.875 0l0.03125 1.296875q0.953125 -1.5 2.6875 -1.5q0.5625 0 0.859375 0.140625l0 1.78125zm3.8576202 9.546875l-1.921875 0l0 -11.265625l1.921875 0l0 11.265625zm-2.078125 -14.25q0 -0.46875 0.28125 -0.796875q0.296875 -0.328125 0.859375 -0.328125q0.5625 0 0.84375 0.328125q0.296875 0.328125 0.296875 0.796875q0 0.46875 -0.296875 0.78125q-0.28125 0.3125 -0.84375 0.3125q-0.5625 0 -0.859375 -0.3125q-0.28125 -0.3125 -0.28125 -0.78125zm12.128952 14.25q-0.171875 -0.328125 -0.28125 -1.1875q-1.34375 1.390625 -3.203125 1.390625q-1.671875 0 -2.734375 -0.9375q-1.0625 -0.9375 -1.0625 -2.390625q0 -1.765625 1.328125 -2.734375q1.34375 -0.96875 3.765625 -0.96875l1.875 0l0 -0.890625q0 -1.015625 -0.609375 -1.609375q-0.59375 -0.59375 -1.765625 -0.59375q-1.03125 0 -1.734375 0.515625q-0.703125 0.515625 -0.703125 1.265625l-1.9375 0q0 -0.84375 0.59375 -1.625q0.609375 -0.796875 1.625 -1.25q1.03125 -0.453125 2.265625 -0.453125q1.953125 0 3.046875 0.96875q1.109375 0.96875 1.15625 2.671875l0 5.1875q0 1.5625 0.390625 2.46875l0 0.171875l-2.015625 0zm-3.203125 -1.46875q0.90625 0 1.71875 -0.46875q0.8125 -0.46875 1.171875 -1.21875l0 -2.3125l-1.5 0q-3.546875 0 -3.546875 2.078125q0 0.90625 0.59375 1.421875q0.609375 0.5 1.5625 0.5zm7.403412 -9.421875l-1.09375 -0.75q0.96875 -1.359375 1.0 -2.859375l0 -1.5l1.90625 0l0 1.359375q-0.015625 1.046875 -0.515625 2.078125q-0.5 1.03125 -1.296875 1.671875zm3.203125 0l-1.09375 -0.75q0.96875 -1.359375 1.0 -2.859375l0 -1.5l1.90625 0l0 1.359375q-0.015625 1.046875 -0.515625 2.078125q-0.5 1.03125 -1.296875 1.671875z"
       fill-rule="nonzero"
       id="path17" />
    <path
       fill="#d9d9d9"
       d="m164.6516 167.61763l139.74803 0l0 66.20473l-139.74803 0z"
       fill-rule="evenodd"
       id="path19" />
    <path
       stroke="#434343"
       stroke-width="1.0"
       stroke-linejoin="round"
       stroke-linecap="butt"
       d="m164.6516 167.61763l139.74803 0l0 66.20473l-139.74803 0z"
       fill-rule="evenodd"
       id="path21" />
    <path
       fill="#000000"
       d="m195.76503 192.0125l1.109375 0.75q-0.96875 1.3125 -1.0 2.84375l0 1.421875l-1.921875 0l0 -1.203125q0 -1.0625 0.5 -2.109375q0.515625 -1.046875 1.3125 -1.703125zm3.28125 0l1.109375 0.75q-0.96875 1.3125 -1.0 2.84375l0 1.421875l-1.921875 0l0 -1.203125q0 -1.0625 0.5 -2.109375q0.515625 -1.046875 1.3125 -1.703125zm9.477325 1.03125l2.015625 0l0 10.734375q0 2.171875 -1.3125 3.40625q-1.296875 1.21875 -3.484375 1.21875q-2.25 0 -3.515625 -1.15625q-1.265625 -1.15625 -1.265625 -3.234375l2.0 0q0 1.296875 0.71875 2.03125q0.71875 0.734375 2.0625 0.734375q1.25 0 2.015625 -0.78125q0.765625 -0.78125 0.765625 -2.1875l0 -10.765625zm12.08046 14.046875q-1.125 1.3125 -3.3125 1.3125q-1.796875 0 -2.75 -1.046875q-0.9375 -1.046875 -0.9375 -3.09375l0 -7.328125l1.921875 0l0 7.28125q0 2.5625 2.078125 2.5625q2.21875 0 2.9375 -1.65625l0 -8.1875l1.9375 0l0 11.265625l-1.84375 0l-0.03125 -1.109375zm6.882553 1.109375l-1.921875 0l0 -16.0l1.921875 0l0 16.0zm5.175827 0l-1.921875 0l0 -11.265625l1.921875 0l0 11.265625zm-2.078125 -14.25q0 -0.46875 0.28125 -0.796875q0.296875 -0.328125 0.859375 -0.328125q0.5625 0 0.84375 0.328125q0.296875 0.328125 0.296875 0.796875q0 0.46875 -0.296875 0.78125q-0.28125 0.3125 -0.84375 0.3125q-0.5625 0 -0.859375 -0.3125q-0.28125 -0.3125 -0.28125 -0.78125zm12.128952 14.25q-0.171875 -0.328125 -0.28125 -1.1875q-1.34375 1.390625 -3.203125 1.390625q-1.671875 0 -2.734375 -0.9375q-1.0625 -0.9375 -1.0625 -2.390625q0 -1.765625 1.328125 -2.734375q1.34375 -0.96875 3.765625 -0.96875l1.875 0l0 -0.890625q0 -1.015625 -0.609375 -1.609375q-0.59375 -0.59375 -1.765625 -0.59375q-1.03125 0 -1.734375 0.515625q-0.703125 0.515625 -0.703125 1.265625l-1.9375 0q0 -0.84375 0.59375 -1.625q0.609375 -0.796875 1.625 -1.25q1.03125 -0.453125 2.265625 -0.453125q1.953125 0 3.046875 0.96875q1.109375 0.96875 1.15625 2.671875l0 5.1875q0 1.5625 0.390625 2.46875l0 0.171875l-2.015625 0zm-3.203125 -1.46875q0.90625 0 1.71875 -0.46875q0.8125 -0.46875 1.171875 -1.21875l0 -2.3125l-1.5 0q-3.546875 0 -3.546875 2.078125q0 0.90625 0.59375 1.421875q0.609375 0.5 1.5625 0.5zm9.663834 -9.796875l0.0625 1.40625q1.296875 -1.609375 3.375 -1.609375q3.578125 0 3.609375 4.015625l0 7.453125l-1.9375 0l0 -7.453125q0 -1.21875 -0.546875 -1.796875q-0.546875 -0.59375 -1.703125 -0.59375q-0.9375 0 -1.65625 0.5q-0.703125 0.5 -1.09375 1.3125l0 8.03125l-1.9375 0l0 -11.265625l1.828125 0zm16.90857 11.265625q-0.171875 -0.328125 -0.28125 -1.1875q-1.34375 1.390625 -3.203125 1.390625q-1.671875 0 -2.734375 -0.9375q-1.0625 -0.9375 -1.0625 -2.390625q0 -1.765625 1.328125 -2.734375q1.34375 -0.96875 3.765625 -0.96875l1.875 0l0 -0.890625q0 -1.015625 -0.609375 -1.609375q-0.59375 -0.59375 -1.765625 -0.59375q-1.03125 0 -1.734375 0.515625q-0.703125 0.515625 -0.703125 1.265625l-1.9375 0q0 -0.84375 0.59375 -1.625q0.609375 -0.796875 1.625 -1.25q1.03125 -0.453125 2.265625 -0.453125q1.953125 0 3.046875 0.96875q1.109375 0.96875 1.15625 2.671875l0 5.1875q0 1.5625 0.390625 2.46875l0 0.171875l-2.015625 0zm-3.203125 -1.46875q0.90625 0 1.71875 -0.46875q0.8125 -0.46875 1.171875 -1.21875l0 -2.3125l-1.5 0q-3.546875 0 -3.546875 2.078125q0 0.90625 0.59375 1.421875q0.609375 0.5 1.5625 0.5zm7.403412 -9.421875l-1.09375 -0.75q0.96875 -1.359375 1.0 -2.859375l0 -1.5l1.90625 0l0 1.359375q-0.015625 1.046875 -0.515625 2.078125q-0.5 1.03125 -1.296875 1.671875zm3.203125 0l-1.09375 -0.75q0.96875 -1.359375 1.0 -2.859375l0 -1.5l1.90625 0l0 1.359375q-0.015625 1.046875 -0.515625 2.078125q-0.5 1.03125 -1.296875 1.671875z"
       fill-rule="nonzero"
       id="path23" />
    <path
       fill="#d9d9d9"
       d="m164.6516 243.01636l139.74803 0l0 66.20471l-139.74803 0z"
       fill-rule="evenodd"
       id="path25" />
    <path
       stroke="#434343"
       stroke-width="1.0"
       stroke-linejoin="round"
       stroke-linecap="butt"
       d="m164.6516 243.01636l139.74803 0l0 66.20471l-139.74803 0z"
       fill-rule="evenodd"
       id="path27" />
    <path
       fill="#000000"
       d="m206.79872 267.41122l1.109375 0.75q-0.96875 1.3125 -1.0 2.84375l0 1.421875l-1.921875 0l0 -1.203125q0 -1.0625 0.5 -2.109375q0.515625 -1.046875 1.3125 -1.703125zm3.28125 0l1.109375 0.75q-0.96875 1.3125 -1.0 2.84375l0 1.421875l-1.921875 0l0 -1.203125q0 -1.0625 0.5 -2.109375q0.515625 -1.046875 1.3125 -1.703125zm9.477325 1.03125l2.015625 0l0 10.734375q0 2.171875 -1.3125 3.40625q-1.296875 1.21875 -3.484375 1.21875q-2.25 0 -3.515625 -1.15625q-1.265625 -1.15625 -1.265625 -3.234375l2.0 0q0 1.296875 0.71875 2.03125q0.71875 0.734375 2.0625 0.734375q1.25 0 2.015625 -0.78125q0.765625 -0.78125 0.765625 -2.1875l0 -10.765625zm4.6117096 9.421875q0 -1.65625 0.640625 -2.984375q0.65625 -1.328125 1.8125 -2.03125q1.171875 -0.71875 2.65625 -0.71875q2.296875 0 3.71875 1.59375q1.421875 1.578125 1.421875 4.234375l0 0.125q0 1.65625 -0.625 2.96875q-0.625 1.296875 -1.796875 2.03125q-1.171875 0.71875 -2.703125 0.71875q-2.28125 0 -3.703125 -1.59375q-1.421875 -1.59375 -1.421875 -4.21875l0 -0.125zm1.9375 0.21875q0 1.875 0.859375 3.015625q0.875 1.140625 2.328125 1.140625q1.46875 0 2.328125 -1.15625q0.875 -1.15625 0.875 -3.21875q0 -1.859375 -0.890625 -3.0q-0.875 -1.15625 -2.328125 -1.15625q-1.421875 0 -2.296875 1.140625q-0.875 1.125 -0.875 3.234375zm17.288696 2.53125q0 -0.78125 -0.59375 -1.21875q-0.578125 -0.4375 -2.046875 -0.75q-1.453125 -0.3125 -2.3125 -0.75q-0.859375 -0.4375 -1.28125 -1.03125q-0.40625 -0.609375 -0.40625 -1.4375q0 -1.390625 1.171875 -2.34375q1.171875 -0.953125 3.0 -0.953125q1.90625 0 3.09375 0.984375q1.203125 0.984375 1.203125 2.53125l-1.9375 0q0 -0.796875 -0.671875 -1.359375q-0.671875 -0.578125 -1.6875 -0.578125q-1.0625 0 -1.65625 0.453125q-0.59375 0.453125 -0.59375 1.203125q0 0.6875 0.546875 1.046875q0.5625 0.359375 2.0 0.6875q1.453125 0.3125 2.34375 0.765625q0.890625 0.4375 1.328125 1.078125q0.4375 0.625 0.4375 1.53125q0 1.515625 -1.21875 2.421875q-1.203125 0.90625 -3.125 0.90625q-1.359375 0 -2.40625 -0.46875q-1.03125 -0.484375 -1.625 -1.34375q-0.59375 -0.859375 -0.59375 -1.859375l1.9375 0q0.046875 0.96875 0.765625 1.546875q0.734375 0.5625 1.921875 0.5625q1.09375 0 1.75 -0.4375q0.65625 -0.453125 0.65625 -1.1875zm9.122314 3.1875q-2.296875 0 -3.734375 -1.5q-1.4375 -1.5 -1.4375 -4.03125l0 -0.34375q0 -1.6875 0.640625 -3.0q0.640625 -1.3125 1.78125 -2.046875q1.15625 -0.75 2.5 -0.75q2.203125 0 3.421875 1.453125q1.21875 1.4375 1.21875 4.125l0 0.8125l-7.640625 0q0.046875 1.65625 0.96875 2.6875q0.9375 1.03125 2.375 1.03125q1.03125 0 1.734375 -0.421875q0.703125 -0.421875 1.234375 -1.109375l1.1875 0.921875q-1.421875 2.171875 -4.25 2.171875zm-0.25 -10.09375q-1.15625 0 -1.953125 0.84375q-0.796875 0.84375 -0.984375 2.375l5.65625 0l0 -0.140625q-0.09375 -1.46875 -0.796875 -2.265625q-0.703125 -0.8125 -1.921875 -0.8125zm0.953125 -6.109375l2.328125 0l-2.796875 3.0625l-1.546875 0l2.015625 -3.0625zm6.0285034 5.109375l-1.09375 -0.75q0.96875 -1.359375 1.0 -2.859375l0 -1.5l1.90625 0l0 1.359375q-0.015625 1.046875 -0.515625 2.078125q-0.5 1.03125 -1.296875 1.671875zm3.203125 0l-1.09375 -0.75q0.96875 -1.359375 1.0 -2.859375l0 -1.5l1.90625 0l0 1.359375q-0.015625 1.046875 -0.515625 2.078125q-0.5 1.03125 -1.296875 1.671875z"
       fill-rule="nonzero"
       id="path29" />
    <path
       fill="#d9d9d9"
       d="m164.6516 318.41507l139.74803 0l0 66.20471l-139.74803 0z"
       fill-rule="evenodd"
       id="path31" />
    <path
       stroke="#434343"
       stroke-width="1.0"
       stroke-linejoin="round"
       stroke-linecap="butt"
       d="m164.6516 318.41507l139.74803 0l0 66.20471l-139.74803 0z"
       fill-rule="evenodd"
       id="path33" />
    <path
       fill="#000000"
       d="m202.63847 342.80994l1.109375 0.75q-0.96875 1.3125 -1.0 2.84375l0 1.421875l-1.921875 0l0 -1.203125q0 -1.0625 0.5 -2.109375q0.515625 -1.046875 1.3125 -1.703125zm3.28125 0l1.109375 0.75q-0.96875 1.3125 -1.0 2.84375l0 1.421875l-1.921875 0l0 -1.203125q0 -1.0625 0.5 -2.109375q0.515625 -1.046875 1.3125 -1.703125zm5.1335754 10.25l0 5.9375l-2.0 0l0 -15.15625l5.59375 0q2.484375 0 3.890625 1.265625q1.40625 1.265625 1.40625 3.359375q0 2.203125 -1.375 3.40625q-1.375 1.1875 -3.953125 1.1875l-3.5625 0zm0 -1.640625l3.59375 0q1.59375 0 2.453125 -0.75q0.859375 -0.75 0.859375 -2.1875q0 -1.34375 -0.859375 -2.15625q-0.859375 -0.8125 -2.34375 -0.84375l-3.703125 0l0 5.9375zm15.694626 7.78125q-2.296875 0 -3.734375 -1.5q-1.4375 -1.5 -1.4375 -4.03125l0 -0.34375q0 -1.6875 0.640625 -3.0q0.640625 -1.3125 1.78125 -2.046875q1.15625 -0.75 2.5 -0.75q2.203125 0 3.421875 1.453125q1.21875 1.4375 1.21875 4.125l0 0.8125l-7.640625 0q0.046875 1.65625 0.96875 2.6875q0.9375 1.03125 2.375 1.03125q1.03125 0 1.734375 -0.421875q0.703125 -0.421875 1.234375 -1.109375l1.1875 0.921875q-1.421875 2.171875 -4.25 2.171875zm-0.25 -10.09375q-1.15625 0 -1.953125 0.84375q-0.796875 0.84375 -0.984375 2.375l5.65625 0l0 -0.140625q-0.09375 -1.46875 -0.796875 -2.265625q-0.703125 -0.8125 -1.921875 -0.8125zm6.3930817 4.15625q0 -2.59375 1.234375 -4.15625q1.234375 -1.578125 3.21875 -1.578125q1.984375 0 3.140625 1.34375l0 -5.875l1.921875 0l0 16.0l-1.765625 0l-0.09375 -1.203125q-1.15625 1.40625 -3.21875 1.40625q-1.96875 0 -3.203125 -1.59375q-1.234375 -1.609375 -1.234375 -4.1875l0 -0.15625zm1.9375 0.21875q0 1.921875 0.78125 3.015625q0.796875 1.078125 2.1875 1.078125q1.84375 0 2.6875 -1.65625l0 -5.171875q-0.875 -1.59375 -2.65625 -1.59375q-1.421875 0 -2.21875 1.09375q-0.78125 1.09375 -0.78125 3.234375zm16.012695 -4.03125q-0.4375 -0.0625 -0.953125 -0.0625q-1.890625 0 -2.5625 1.609375l0 8.0l-1.9375 0l0 -11.265625l1.875 0l0.03125 1.296875q0.953125 -1.5 2.6875 -1.5q0.5625 0 0.859375 0.140625l0 1.78125zm1.055542 3.8125q0 -1.65625 0.640625 -2.984375q0.65625 -1.328125 1.8125 -2.03125q1.171875 -0.71875 2.6562653 -0.71875q2.296875 0 3.71875 1.59375q1.421875 1.578125 1.421875 4.234375l0 0.125q0 1.65625 -0.625 2.96875q-0.625 1.296875 -1.796875 2.03125q-1.171875 0.71875 -2.703125 0.71875q-2.2812653 0 -3.7031403 -1.59375q-1.421875 -1.59375 -1.421875 -4.21875l0 -0.125zm1.9375 0.21875q0 1.875 0.859375 3.015625q0.875 1.140625 2.3281403 1.140625q1.46875 0 2.328125 -1.15625q0.875 -1.15625 0.875 -3.21875q0 -1.859375 -0.890625 -3.0q-0.875 -1.15625 -2.328125 -1.15625q-1.4218903 0 -2.2968903 1.140625q-0.875 1.125 -0.875 3.234375zm9.57515 -5.375l-1.09375 -0.75q0.96875 -1.359375 1.0 -2.859375l0 -1.5l1.90625 0l0 1.359375q-0.015625 1.046875 -0.515625 2.078125q-0.5 1.03125 -1.296875 1.671875zm3.203125 0l-1.09375 -0.75q0.96875 -1.359375 1.0 -2.859375l0 -1.5l1.90625 0l0 1.359375q-0.015625 1.046875 -0.515625 2.078125q-0.5 1.03125 -1.296875 1.671875z"
       fill-rule="nonzero"
       id="path35" />
    <path
       fill="#d9d9d9"
       d="m164.6516 393.81403l139.74803 0l0 66.20471l-139.74803 0z"
       fill-rule="evenodd"
       id="path37" />
    <path
       stroke="#434343"
       stroke-width="1.0"
       stroke-linejoin="round"
       stroke-linecap="butt"
       d="m164.6516 393.81403l139.74803 0l0 66.20471l-139.74803 0z"
       fill-rule="evenodd"
       id="path39" />
    <path
       fill="#000000"
       d="m222.30554 418.20886l1.109375 0.75q-0.96875 1.3125 -1.0 2.84375l0 1.421875l-1.921875 0l0 -1.203125q0 -1.0625 0.5 -2.109375q0.515625 -1.046875 1.3125 -1.703125zm3.28125 0l1.109375 0.75q-0.96875 1.3125 -1.0 2.84375l0 1.421875l-1.921875 0l0 -1.203125q0 -1.0625 0.5 -2.109375q0.515625 -1.046875 1.3125 -1.703125zm2.8679504 15.171875q0 -0.5 0.296875 -0.828125q0.296875 -0.328125 0.890625 -0.328125q0.59375 0 0.890625 0.328125q0.3125 0.328125 0.3125 0.828125q0 0.484375 -0.3125 0.8125q-0.296875 0.3125 -0.890625 0.3125q-0.59375 0 -0.890625 -0.3125q-0.296875 -0.328125 -0.296875 -0.8125zm5.61322 0q0 -0.5 0.296875 -0.828125q0.296875 -0.328125 0.890625 -0.328125q0.59375 0 0.890625 0.328125q0.3125 0.328125 0.3125 0.828125q0 0.484375 -0.3125 0.8125q-0.296875 0.3125 -0.890625 0.3125q-0.59375 0 -0.890625 -0.3125q-0.296875 -0.328125 -0.296875 -0.8125zm5.61322 0q0 -0.5 0.296875 -0.828125q0.296875 -0.328125 0.890625 -0.328125q0.59375 0 0.890625 0.328125q0.3125 0.328125 0.3125 0.828125q0 0.484375 -0.3125 0.8125q-0.296875 0.3125 -0.890625 0.3125q-0.59375 0 -0.890625 -0.3125q-0.296875 -0.328125 -0.296875 -0.8125zm4.061142 -9.875l-1.09375 -0.75q0.96875 -1.359375 1.0 -2.859375l0 -1.5l1.90625 0l0 1.359375q-0.015625 1.046875 -0.515625 2.078125q-0.5 1.03125 -1.296875 1.671875zm3.203125 0l-1.09375 -0.75q0.96875 -1.359375 1.0 -2.859375l0 -1.5l1.90625 0l0 1.359375q-0.015625 1.046875 -0.515625 2.078125q-0.5 1.03125 -1.296875 1.671875z"
       fill-rule="nonzero"
       id="path41" />
    <path
       fill="#999999"
       d="m12.231654 92.218925l139.74803 0l0 66.20472l-139.74803 0z"
       fill-rule="evenodd"
       id="path43" />
    <path
       stroke="#434343"
       stroke-width="1.0"
       stroke-linejoin="round"
       stroke-linecap="butt"
       d="m12.231654 92.218925l139.74803 0l0 66.20472l-139.74803 0z"
       fill-rule="evenodd"
       id="path45" />
    <path
       fill="#ffffff"
       d="m43.14181 127.90941l0 5.671875l-3.3125 0l0 -16.109375l6.28125 0q1.8125 0 3.1875 0.671875q1.390625 0.65625 2.125 1.890625q0.734375 1.21875 0.734375 2.765625q0 2.375 -1.625 3.75q-1.609375 1.359375 -4.46875 1.359375l-2.921875 0zm0 -2.6875l2.96875 0q1.3125 0 2.0 -0.625q0.703125 -0.625 0.703125 -1.765625q0 -1.1875 -0.703125 -1.90625q-0.6875 -0.734375 -1.921875 -0.765625l-3.046875 0l0 5.0625zm17.816849 -0.609375q-0.65625 -0.09375 -1.15625 -0.09375q-1.8125 0 -2.375 1.234375l0 7.828125l-3.1875 0l0 -11.96875l3.015625 0l0.09375 1.421875q0.953125 -1.640625 2.65625 -1.640625q0.53125 0 1.0 0.140625l-0.046875 3.078125zm4.920025 8.96875l-3.2187462 0l0 -11.96875l3.2187462 0l0 11.96875zm-3.4062462 -15.0625q0 -0.71875 0.484375 -1.1875q0.484375 -0.46875 1.3124962 -0.46875q0.8125 0 1.296875 0.46875q0.5 0.46875 0.5 1.1875q0 0.71875 -0.5 1.1875q-0.484375 0.46875 -1.296875 0.46875q-0.8124962 0 -1.3124962 -0.46875q-0.484375 -0.46875 -0.484375 -1.1875zm9.022625 3.09375l0.109375 1.34375q1.265625 -1.5625 3.4375 -1.5625q2.3125 0 3.171875 1.828125q1.265625 -1.828125 3.59375 -1.828125q1.953125 0 2.90625 1.140625q0.953125 1.125 0.953125 3.40625l0 7.640625l-3.21875 0l0 -7.640625q0 -1.015625 -0.40625 -1.484375q-0.390625 -0.46875 -1.390625 -0.46875q-1.4375 0 -1.984375 1.375l0 8.21875l-3.1875 0l0 -7.625q0 -1.03125 -0.421875 -1.5q-0.40625 -0.46875 -1.390625 -0.46875q-1.359375 0 -1.96875 1.125l0 8.46875l-3.1875 0l0 -11.96875l2.984375 0zm22.129654 12.1875q-2.625 0 -4.28125 -1.609375q-1.65625 -1.625 -1.65625 -4.3125l0 -0.296875q0 -1.8125 0.6875 -3.234375q0.703125 -1.421875 1.984375 -2.1875q1.28125 -0.765625 2.921875 -0.765625q2.453125 0 3.859375 1.546875q1.40625 1.546875 1.40625 4.390625l0 1.3125l-7.625 0q0.15625 1.171875 0.9375 1.875q0.78125 0.703125 1.984375 0.703125q1.84375 0 2.875 -1.328125l1.578125 1.75q-0.71875 1.015625 -1.953125 1.59375q-1.21875 0.5625 -2.71875 0.5625zm-0.359375 -9.828125q-0.953125 0 -1.546875 0.65625q-0.59375 0.640625 -0.75 1.828125l4.4375 0l0 -0.25q-0.015625 -1.0625 -0.578125 -1.640625q-0.546875 -0.59375 -1.5625 -0.59375zm10.480698 9.609375l-3.21875 0l0 -11.96875l3.21875 0l0 11.96875zm-3.40625 -15.0625q0 -0.71875 0.484375 -1.1875q0.484375 -0.46875 1.3125 -0.46875q0.8125 0 1.296875 0.46875q0.5 0.46875 0.5 1.1875q0 0.71875 -0.5 1.1875q-0.484375 0.46875 -1.296875 0.46875q-0.8125 0 -1.3125 -0.46875q-0.484375 -0.46875 -0.484375 -1.1875zm12.757004 6.09375q-0.65625 -0.09375 -1.15625 -0.09375q-1.8125 0 -2.375 1.234375l0 7.828125l-3.1875 0l0 -11.96875l3.015625 0l0.09375 1.421875q0.953125 -1.640625 2.65625 -1.640625q0.53125 0 1.0 0.140625l-0.046875 3.078125zm0.6465912 2.875q0 -1.78125 0.6875 -3.171875q0.6875 -1.40625 1.96875 -2.15625q1.28125 -0.765625 3.0 -0.765625q2.421875 0 3.953125 1.484375q1.53125 1.484375 1.703125 4.015625l0.015625 0.828125q0 2.75 -1.53125 4.421875q-1.53125 1.65625 -4.125 1.65625q-2.59375 0 -4.140625 -1.65625q-1.53125 -1.65625 -1.53125 -4.515625l0 -0.140625zm3.1875 0.234375q0 1.703125 0.640625 2.609375q0.640625 0.890625 1.84375 0.890625q1.15625 0 1.8125 -0.890625q0.65625 -0.890625 0.65625 -2.84375q0 -1.671875 -0.65625 -2.59375q-0.65625 -0.921875 -1.828125 -0.921875q-1.1875 0 -1.828125 0.921875q-0.640625 0.90625 -0.640625 2.828125z"
       fill-rule="nonzero"
       id="path47" />
    <path
       fill="#999999"
       d="m12.231654 167.61763l139.74803 0l0 66.20473l-139.74803 0z"
       fill-rule="evenodd"
       id="path49" />
    <path
       stroke="#434343"
       stroke-width="1.0"
       stroke-linejoin="round"
       stroke-linecap="butt"
       d="m12.231654 167.61763l139.74803 0l0 66.20473l-139.74803 0z"
       fill-rule="evenodd"
       id="path51" />
    <path
       fill="#ffffff"
       d="m46.877674 204.76125q0 -0.953125 -0.671875 -1.453125q-0.65625 -0.5 -2.390625 -1.0625q-1.71875 -0.5625 -2.734375 -1.09375q-2.734375 -1.484375 -2.734375 -4.0q0 -1.296875 0.734375 -2.3125q0.734375 -1.03125 2.109375 -1.609375q1.375 -0.578125 3.09375 -0.578125q1.71875 0 3.0625 0.625q1.359375 0.625 2.109375 1.765625q0.75 1.140625 0.75 2.59375l-3.328125 0q0 -1.109375 -0.703125 -1.71875q-0.6875 -0.625 -1.953125 -0.625q-1.21875 0 -1.890625 0.515625q-0.671875 0.515625 -0.671875 1.359375q0 0.78125 0.78125 1.3125q0.796875 0.53125 2.34375 1.0q2.828125 0.84375 4.125 2.109375q1.296875 1.265625 1.296875 3.140625q0 2.09375 -1.59375 3.28125q-1.578125 1.1875 -4.25 1.1875q-1.859375 0 -3.390625 -0.671875q-1.515625 -0.6875 -2.328125 -1.859375q-0.796875 -1.1875 -0.796875 -2.75l3.328125 0q0 2.65625 3.1875 2.65625q1.1875 0 1.84375 -0.46875q0.671875 -0.484375 0.671875 -1.34375zm10.865341 4.4375q-2.625 0 -4.28125 -1.609375q-1.65625 -1.625 -1.65625 -4.3125l0 -0.296875q0 -1.8125 0.6875 -3.234375q0.703125 -1.421875 1.984375 -2.1875q1.28125 -0.765625 2.921875 -0.765625q2.453125 0 3.859375 1.546875q1.40625 1.546875 1.40625 4.390625l0 1.3125l-7.625 0q0.15625 1.171875 0.9375 1.875q0.78125 0.703125 1.984375 0.703125q1.84375 0 2.875 -1.328125l1.578125 1.75q-0.71875 1.015625 -1.953125 1.59375q-1.21875 0.5625 -2.71875 0.5625zm-0.359375 -9.828125q-0.953125 0 -1.546875 0.65625q-0.59375 0.640625 -0.75 1.828125l4.4375 0l0 -0.25q-0.015625 -1.0625 -0.578125 -1.640625q-0.546875 -0.59375 -1.5625 -0.59375zm6.636944 3.53125q0 -2.75 1.3125 -4.421875q1.3125 -1.6875 3.53125 -1.6875q1.96875 0 3.0625 1.34375l0.140625 -1.125l2.890625 0l0 11.578125q0 1.5625 -0.71875 2.71875q-0.703125 1.171875 -2.0 1.78125q-1.296875 0.609375 -3.03125 0.609375q-1.3125 0 -2.5625 -0.53125q-1.25 -0.53125 -1.890625 -1.359375l1.40625 -1.9375q1.203125 1.328125 2.90625 1.328125q1.265625 0 1.96875 -0.6875q0.71875 -0.671875 0.71875 -1.921875l0 -0.640625q-1.109375 1.25 -2.90625 1.25q-2.171875 0 -3.5 -1.6875q-1.328125 -1.6875 -1.328125 -4.46875l0 -0.140625zm3.1875 0.234375q0 1.625 0.65625 2.546875q0.65625 0.921875 1.796875 0.921875q1.453125 0 2.09375 -1.09375l0 -5.03125q-0.640625 -1.09375 -2.078125 -1.09375q-1.140625 0 -1.8125 0.953125q-0.65625 0.9375 -0.65625 2.796875zm17.369705 4.625q-1.171875 1.4375 -3.265625 1.4375q-1.921875 0 -2.9375 -1.09375q-1.015625 -1.109375 -1.03125 -3.25l0 -7.84375l3.1875 0l0 7.734375q0 1.859375 1.703125 1.859375q1.625 0 2.234375 -1.125l0 -8.46875l3.21875 0l0 11.96875l-3.015625 0l-0.09375 -1.21875zm8.459015 -10.75l0.09375 1.375q1.28125 -1.59375 3.4375 -1.59375q1.90625 0 2.828125 1.125q0.9375 1.109375 0.96875 3.328125l0 7.734375l-3.203125 0l0 -7.65625q0 -1.015625 -0.453125 -1.46875q-0.4375 -0.46875 -1.453125 -0.46875q-1.359375 0 -2.03125 1.15625l0 8.4375l-3.203125 0l0 -11.96875l3.015625 0zm9.2513275 5.890625q0 -2.796875 1.25 -4.453125q1.25 -1.65625 3.4375 -1.65625q1.75 0 2.890625 1.296875l0 -6.109375l3.203125 0l0 17.0l-2.890625 0l-0.15625 -1.265625q-1.1875 1.484375 -3.0625 1.484375q-2.125 0 -3.40625 -1.65625q-1.265625 -1.671875 -1.265625 -4.640625zm3.1875 0.234375q0 1.6875 0.578125 2.578125q0.59375 0.890625 1.71875 0.890625q1.484375 0 2.09375 -1.25l0 -4.71875q-0.609375 -1.25 -2.078125 -1.25q-2.3125 0 -2.3125 3.75zm9.578766 -0.25q0 -1.78125 0.6875 -3.171875q0.6875 -1.40625 1.96875 -2.15625q1.28125 -0.765625 3.0 -0.765625q2.421875 0 3.953125 1.484375q1.53125 1.484375 1.703125 4.015625l0.015625 0.828125q0 2.75 -1.53125 4.421875q-1.53125 1.65625 -4.125 1.65625q-2.59375 0 -4.140625 -1.65625q-1.53125 -1.65625 -1.53125 -4.515625l0 -0.140625zm3.1875 0.234375q0 1.703125 0.640625 2.609375q0.640625 0.890625 1.84375 0.890625q1.15625 0 1.8125 -0.890625q0.65625 -0.890625 0.65625 -2.84375q0 -1.671875 -0.65625 -2.59375q-0.65625 -0.921875 -1.828125 -0.921875q-1.1875 0 -1.828125 0.921875q-0.640625 0.90625 -0.640625 2.828125z"
       fill-rule="nonzero"
       id="path53" />
    <path
       fill="#999999"
       d="m12.231654 243.01636l139.74803 0l0 66.20471l-139.74803 0z"
       fill-rule="evenodd"
       id="path55" />
    <path
       stroke="#434343"
       stroke-width="1.0"
       stroke-linejoin="round"
       stroke-linecap="butt"
       d="m12.231654 243.01636l139.74803 0l0 66.20471l-139.74803 0z"
       fill-rule="evenodd"
       id="path57" />
    <path
       fill="#ffffff"
       d="m53.630573 270.95685l-4.9375 0l0 13.421875l-3.3125 0l0 -13.421875l-4.875 0l0 -2.6875l13.125 0l0 2.6875zm6.203186 13.640625q-2.625 0 -4.28125 -1.609375q-1.65625 -1.625 -1.65625 -4.3125l0 -0.296875q0 -1.8125 0.6875 -3.234375q0.703125 -1.421875 1.984375 -2.1875q1.28125 -0.765625 2.921875 -0.765625q2.453125 0 3.859375 1.546875q1.4062462 1.546875 1.4062462 4.390625l0 1.3125l-7.624996 0q0.15625 1.171875 0.9375 1.875q0.78125 0.703125 1.984375 0.703125q1.84375 0 2.875 -1.328125l1.5781212 1.75q-0.7187462 1.015625 -1.9531212 1.59375q-1.21875 0.5625 -2.71875 0.5625zm-0.359375 -9.828125q-0.953125 0 -1.546875 0.65625q-0.59375 0.640625 -0.75 1.828125l4.4375 0l0 -0.25q-0.015625 -1.0625 -0.578125 -1.640625q-0.546875 -0.59375 -1.5625 -0.59375zm13.824444 0.640625q-0.65625 -0.09375 -1.15625 -0.09375q-1.8125 0 -2.375 1.234375l0 7.828125l-3.1875 0l0 -11.96875l3.015625 0l0.09375 1.421875q0.953125 -1.640625 2.65625 -1.640625q0.53125 0 1.0 0.140625l-0.046875 3.078125zm6.3034973 6.609375q0.890625 0 1.4375 -0.484375q0.5625 -0.484375 0.578125 -1.296875l3.0 0q-0.015625 1.21875 -0.671875 2.234375q-0.640625 1.015625 -1.78125 1.578125q-1.125 0.546875 -2.5 0.546875q-2.578125 0 -4.0625 -1.625q-1.46875 -1.640625 -1.46875 -4.515625l0 -0.203125q0 -2.765625 1.46875 -4.40625q1.46875 -1.65625 4.03125 -1.65625q2.25 0 3.609375 1.28125q1.359375 1.265625 1.375 3.390625l-3.0 0q-0.015625 -0.921875 -0.578125 -1.5q-0.546875 -0.59375 -1.453125 -0.59375q-1.125 0 -1.703125 0.828125q-0.5625 0.8125 -0.5625 2.625l0 0.34375q0 1.84375 0.5625 2.65625q0.578125 0.796875 1.71875 0.796875zm12.34613 2.578125q-2.625 0 -4.28125 -1.609375q-1.65625 -1.625 -1.65625 -4.3125l0 -0.296875q0 -1.8125 0.6875 -3.234375q0.703125 -1.421875 1.984375 -2.1875q1.28125 -0.765625 2.921875 -0.765625q2.453125 0 3.859375 1.546875q1.40625 1.546875 1.40625 4.390625l0 1.3125l-7.625 0q0.15625 1.171875 0.9375 1.875q0.78125 0.703125 1.984375 0.703125q1.84375 0 2.875 -1.328125l1.578125 1.75q-0.71875 1.015625 -1.953125 1.59375q-1.21875 0.5625 -2.71875 0.5625zm-0.359375 -9.828125q-0.953125 0 -1.546875 0.65625q-0.59375 0.640625 -0.75 1.828125l4.4375 0l0 -0.25q-0.015625 -1.0625 -0.578125 -1.640625q-0.546875 -0.59375 -1.5625 -0.59375zm10.480698 9.609375l-3.21875 0l0 -11.96875l3.21875 0l0 11.96875zm-3.40625 -15.0625q0 -0.71875 0.484375 -1.1875q0.484375 -0.46875 1.3125 -0.46875q0.8125 0 1.296875 0.46875q0.5 0.46875 0.5 1.1875q0 0.71875 -0.5 1.1875q-0.484375 0.46875 -1.296875 0.46875q-0.8125 0 -1.3125 -0.46875q-0.484375 -0.46875 -0.484375 -1.1875zm12.757004 6.09375q-0.65625 -0.09375 -1.15625 -0.09375q-1.8125 0 -2.375 1.234375l0 7.828125l-3.1875 0l0 -11.96875l3.015625 0l0.09375 1.421875q0.953125 -1.640625 2.65625 -1.640625q0.53125 0 1.0 0.140625l-0.046875 3.078125zm0.6465912 2.875q0 -1.78125 0.6875 -3.171875q0.6875 -1.40625 1.96875 -2.15625q1.28125 -0.765625 3.0 -0.765625q2.421875 0 3.953125 1.484375q1.53125 1.484375 1.703125 4.015625l0.015625 0.828125q0 2.75 -1.53125 4.421875q-1.53125 1.65625 -4.125 1.65625q-2.59375 0 -4.140625 -1.65625q-1.53125 -1.65625 -1.53125 -4.515625l0 -0.140625zm3.1875 0.234375q0 1.703125 0.640625 2.609375q0.640625 0.890625 1.84375 0.890625q1.15625 0 1.8125 -0.890625q0.65625 -0.890625 0.65625 -2.84375q0 -1.671875 -0.65625 -2.59375q-0.65625 -0.921875 -1.828125 -0.921875q-1.1875 0 -1.828125 0.921875q-0.640625 0.90625 -0.640625 2.828125z"
       fill-rule="nonzero"
       id="path59" />
    <path
       fill="#999999"
       d="m12.231654 318.41507l139.74803 0l0 66.20471l-139.74803 0z"
       fill-rule="evenodd"
       id="path61" />
    <path
       stroke="#434343"
       stroke-width="1.0"
       stroke-linejoin="round"
       stroke-linecap="butt"
       d="m12.231654 318.41507l139.74803 0l0 66.20471l-139.74803 0z"
       fill-rule="evenodd"
       id="path63" />
    <path
       fill="#ffffff"
       d="m62.037266 352.08994q0 2.25 -0.734375 3.921875q-0.71875 1.65625 -2.015625 2.671875l2.671875 2.09375l-2.109375 1.875l-3.421875 -2.75q-0.59375 0.09375 -1.21875 0.09375q-2.0 0 -3.578125 -0.953125q-1.5625 -0.96875 -2.4375 -2.75q-0.859375 -1.796875 -0.875 -4.109375l0 -0.796875q0 -2.390625 0.859375 -4.1875q0.859375 -1.8125 2.421875 -2.78125q1.578125 -0.96875 3.578125 -0.96875q2.015625 0 3.578125 0.96875q1.578125 0.96875 2.421875 2.78125q0.859375 1.796875 0.859375 4.171875l0 0.71875zm-3.359375 -0.734375q0 -2.53125 -0.90625 -3.84375q-0.90625 -1.3125 -2.59375 -1.3125q-1.65625 0 -2.578125 1.296875q-0.90625 1.296875 -0.90625 3.8125l0 0.78125q0 2.46875 0.90625 3.828125q0.90625 1.359375 2.609375 1.359375q1.671875 0 2.5625 -1.3125q0.890625 -1.3125 0.90625 -3.828125l0 -0.78125zm12.751919 7.203125q-1.171875 1.4375 -3.265625 1.4375q-1.921875 0 -2.9375 -1.09375q-1.015625 -1.109375 -1.03125 -3.25l0 -7.84375l3.1875 0l0 7.734375q0 1.859375 1.703125 1.859375q1.625 0 2.234375 -1.125l0 -8.46875l3.21875 0l0 11.96875l-3.015625 0l-0.09375 -1.21875zm12.459015 1.21875q-0.234375 -0.4375 -0.328125 -1.078125q-1.15625 1.296875 -3.015625 1.296875q-1.765625 0 -2.921875 -1.015625q-1.15625 -1.015625 -1.15625 -2.5625q0 -1.90625 1.40625 -2.921875q1.421875 -1.015625 4.078125 -1.03125l1.46875 0l0 -0.6875q0 -0.828125 -0.421875 -1.328125q-0.421875 -0.5 -1.34375 -0.5q-0.796875 0 -1.265625 0.390625q-0.453125 0.390625 -0.453125 1.0625l-3.203125 0q0 -1.046875 0.640625 -1.921875q0.640625 -0.890625 1.8125 -1.390625q1.171875 -0.5 2.640625 -0.5q2.203125 0 3.5 1.109375q1.3125 1.109375 1.3125 3.125l0 5.1875q0.015625 1.703125 0.46875 2.578125l0 0.1875l-3.21875 0zm-2.65625 -2.21875q0.71875 0 1.3125 -0.3125q0.59375 -0.328125 0.875 -0.859375l0 -2.046875l-1.1875 0q-2.40625 0 -2.5625 1.65625l0 0.1875q0 0.59375 0.421875 0.984375q0.421875 0.390625 1.140625 0.390625zm14.584259 -6.75q-0.65625 -0.09375 -1.15625 -0.09375q-1.8125 0 -2.375 1.234375l0 7.828125l-3.1875 0l0 -11.96875l3.015625 0l0.09375 1.421875q0.953125 -1.640625 2.65625 -1.640625q0.53125 0 1.0 0.140625l-0.046875 3.078125zm5.926544 -5.9375l0 2.9375l2.046875 0l0 2.34375l-2.046875 0l0 5.96875q0 0.671875 0.25 0.96875q0.25 0.28125 0.96875 0.28125q0.53125 0 0.9375 -0.078125l0 2.421875q-0.9375 0.28125 -1.9375 0.28125q-3.359375 0 -3.421875 -3.390625l0 -6.453125l-1.75 0l0 -2.34375l1.75 0l0 -2.9375l3.203125 0zm2.9951782 8.8125q0 -1.78125 0.6875 -3.171875q0.6875 -1.40625 1.96875 -2.15625q1.28125 -0.765625 3.0 -0.765625q2.421875 0 3.953125 1.484375q1.53125 1.484375 1.703125 4.015625l0.015625 0.828125q0 2.75 -1.53125 4.421875q-1.53125 1.65625 -4.125 1.65625q-2.59375 0 -4.140625 -1.65625q-1.53125 -1.65625 -1.53125 -4.515625l0 -0.140625zm3.1875 0.234375q0 1.703125 0.640625 2.609375q0.640625 0.890625 1.84375 0.890625q1.15625 0 1.8125 -0.890625q0.65625 -0.890625 0.65625 -2.84375q0 -1.671875 -0.65625 -2.59375q-0.65625 -0.921875 -1.828125 -0.921875q-1.1875 0 -1.828125 0.921875q-0.640625 0.90625 -0.640625 2.828125z"
       fill-rule="nonzero"
       id="path65" />
    <path
       fill="#999999"
       d="m12.231654 393.81403l139.74803 0l0 66.20471l-139.74803 0z"
       fill-rule="evenodd"
       id="path67" />
    <path
       stroke="#434343"
       stroke-width="1.0"
       stroke-linejoin="round"
       stroke-linecap="butt"
       d="m12.231654 393.81403l139.74803 0l0 66.20471l-139.74803 0z"
       fill-rule="evenodd"
       id="path69" />
    <path
       fill="#ffffff"
       d="m63.171314 427.48886q0 2.25 -0.734375 3.921875q-0.71875 1.65625 -2.015625 2.671875l2.671875 2.09375l-2.109375 1.875l-3.421875 -2.75q-0.59375 0.09375 -1.21875 0.09375q-2.0 0 -3.578125 -0.953125q-1.5625 -0.96875 -2.4375 -2.75q-0.859375 -1.796875 -0.875 -4.109375l0 -0.796875q0 -2.390625 0.859375 -4.1875q0.859375 -1.8125 2.421875 -2.78125q1.578125 -0.96875 3.578125 -0.96875q2.015625 0 3.578125 0.96875q1.578125 0.96875 2.421875 2.78125q0.859375 1.796875 0.859375 4.171875l0 0.71875zm-3.359375 -0.734375q0 -2.53125 -0.90625 -3.84375q-0.90625 -1.3125 -2.59375 -1.3125q-1.65625 0 -2.578125 1.296875q-0.90625 1.296875 -0.90625 3.8125l0 0.78125q0 2.46875 0.90625 3.828125q0.90625 1.359375 2.609375 1.359375q1.671875 0 2.5625 -1.3125q0.890625 -1.3125 0.90625 -3.828125l0 -0.78125zm12.751919 7.203125q-1.171875 1.4375 -3.265625 1.4375q-1.921875 0 -2.9375 -1.09375q-1.015625 -1.109375 -1.03125 -3.25l0 -7.84375l3.1875 0l0 7.734375q0 1.859375 1.703125 1.859375q1.625 0 2.234375 -1.125l0 -8.46875l3.21875 0l0 11.96875l-3.015625 0l-0.09375 -1.21875zm8.896515 1.21875l-3.21875 0l0 -11.96875l3.21875 0l0 11.96875zm-3.40625 -15.0625q0 -0.71875 0.484375 -1.1875q0.484375 -0.46875 1.3125 -0.46875q0.8125 0 1.296875 0.46875q0.5 0.46875 0.5 1.1875q0 0.71875 -0.5 1.1875q-0.484375 0.46875 -1.296875 0.46875q-0.8125 0 -1.3125 -0.46875q-0.484375 -0.46875 -0.484375 -1.1875zm8.975754 3.09375l0.09375 1.375q1.28125 -1.59375 3.4375 -1.59375q1.90625 0 2.828125 1.125q0.9375 1.109375 0.96875 3.328125l0 7.734375l-3.203125 0l0 -7.65625q0 -1.015625 -0.453125 -1.46875q-0.4375 -0.46875 -1.453125 -0.46875q-1.359375 0 -2.03125 1.15625l0 8.4375l-3.203125 0l0 -11.96875l3.015625 0zm13.5794525 -2.9375l0 2.9375l2.046875 0l0 2.34375l-2.046875 0l0 5.96875q0 0.671875 0.25 0.96875q0.25 0.28125 0.96875 0.28125q0.53125 0 0.9375 -0.078125l0 2.421875q-0.9375 0.28125 -1.9375 0.28125q-3.359375 0 -3.421875 -3.390625l0 -6.453125l-1.75 0l0 -2.34375l1.75 0l0 -2.9375l3.203125 0zm2.9951782 8.8125q0 -1.78125 0.6875 -3.171875q0.6875 -1.40625 1.96875 -2.15625q1.28125 -0.765625 3.0 -0.765625q2.421875 0 3.953125 1.484375q1.53125 1.484375 1.703125 4.015625l0.015625 0.828125q0 2.75 -1.53125 4.421875q-1.53125 1.65625 -4.125 1.65625q-2.59375 0 -4.140625 -1.65625q-1.53125 -1.65625 -1.53125 -4.515625l0 -0.140625zm3.1875 0.234375q0 1.703125 0.640625 2.609375q0.640625 0.890625 1.84375 0.890625q1.15625 0 1.8125 -0.890625q0.65625 -0.890625 0.65625 -2.84375q0 -1.671875 -0.65625 -2.59375q-0.65625 -0.921875 -1.828125 -0.921875q-1.1875 0 -1.828125 0.921875q-0.640625 0.90625 -0.640625 2.828125z"
       fill-rule="nonzero"
       id="path71" />
    <path
       fill="#000000"
       fill-opacity="0.0"
       d="m96.20998 469.2126l126.29921 0l0 51.716553l-126.29921 0z"
       fill-rule="evenodd"
       id="path73" />
    <path
       fill="#000000"
       d="m143.21031 496.1251q0 -2.953125 0.78125 -5.65625q0.796875 -2.703125 2.359375 -4.90625q1.5625 -2.21875 3.234375 -3.140625l0.5 1.59375q-1.90625 1.453125 -3.125 4.453125q-1.21875 2.984375 -1.328125 6.703125l-0.015625 1.109375q0 5.015625 1.828125 8.71875q1.109375 2.203125 2.640625 3.453125l-0.5 1.484375q-1.734375 -0.96875 -3.3125 -3.234375q-3.0625 -4.421875 -3.0625 -10.578125zm20.048523 2.734375l-7.953125 0l-1.78125 4.953125l-2.578125 0l7.234375 -18.953125l2.1875 0l7.25 18.953125l-2.5625 0l-1.796875 -4.953125zm-7.1875 -2.046875l6.4375 0l-3.234375 -8.859375l-3.203125 8.859375zm19.279663 -0.5625q0 2.90625 -0.765625 5.5625q-0.75 2.65625 -2.328125 4.90625q-1.5625 2.265625 -3.28125 3.21875l-0.5 -1.484375q2.0 -1.53125 3.21875 -4.765625q1.21875 -3.234375 1.234375 -7.171875l0 -0.421875q0 -2.734375 -0.578125 -5.078125q-0.5625 -2.359375 -1.59375 -4.21875q-1.015625 -1.859375 -2.28125 -2.90625l0.5 -1.46875q1.71875 0.953125 3.265625 3.1875q1.5625 2.21875 2.328125 4.90625q0.78125 2.671875 0.78125 5.734375z"
       fill-rule="nonzero"
       id="path75" />
    <path
       fill="#c9daf8"
       d="m164.6516 92.218925l139.74803 0l0 66.20472l-139.74803 0z"
       fill-rule="evenodd"
       id="path77" />
    <path
       stroke="#434343"
       stroke-width="1.0"
       stroke-linejoin="round"
       stroke-linecap="butt"
       d="m164.6516 92.218925l139.74803 0l0 66.20472l-139.74803 0z"
       fill-rule="evenodd"
       id="path79" />
    <path
       fill="#000000"
       d="m203.08095 116.613785l1.109375 0.75q-0.96875 1.3125 -1.0 2.84375l0 1.421875l-1.921875 0l0 -1.203125q0 -1.0625 0.5 -2.109375q0.515625 -1.046875 1.3125 -1.703125zm3.28125 0l1.109375 0.75q-0.96875 1.3125 -1.0 2.84375l0 1.421875l-1.921875 0l0 -1.203125q0 -1.0625 0.5 -2.109375q0.515625 -1.046875 1.3125 -1.703125zm5.7117004 1.03125l4.953125 12.359375l4.953125 -12.359375l2.59375 0l0 15.15625l-2.0 0l0 -5.90625l0.1875 -6.375l-4.96875 12.28125l-1.53125 0l-4.96875 -12.25l0.203125 6.34375l0 5.90625l-2.0 0l0 -15.15625l2.578125 0zm22.698578 15.15625q-0.171875 -0.328125 -0.28125 -1.1875q-1.34375 1.390625 -3.203125 1.390625q-1.671875 0 -2.734375 -0.9375q-1.0625 -0.9375 -1.0625 -2.390625q0 -1.765625 1.328125 -2.734375q1.34375 -0.96875 3.765625 -0.96875l1.875 0l0 -0.890625q0 -1.015625 -0.609375 -1.609375q-0.59375 -0.59375 -1.765625 -0.59375q-1.03125 0 -1.734375 0.515625q-0.703125 0.515625 -0.703125 1.265625l-1.9375 0q0 -0.84375 0.59375 -1.625q0.609375 -0.796875 1.625 -1.25q1.03125 -0.453125 2.265625 -0.453125q1.953125 0 3.046875 0.96875q1.109375 0.96875 1.15625 2.671875l0 5.1875q0 1.5625 0.390625 2.46875l0 0.171875l-2.015625 0zm-3.203125 -1.46875q0.90625 0 1.71875 -0.46875q0.8125 -0.46875 1.171875 -1.21875l0 -2.3125l-1.5 0q-3.546875 0 -3.546875 2.078125q0 0.90625 0.59375 1.421875q0.609375 0.5 1.5625 0.5zm13.288834 -8.078125q-0.4375 -0.0625 -0.953125 -0.0625q-1.890625 0 -2.5625 1.609375l0 8.0l-1.9375 0l0 -11.265625l1.875 0l0.03125 1.296875q0.953125 -1.5 2.6875 -1.5q0.5625 0 0.859375 0.140625l0 1.78125zm3.8576202 9.546875l-1.921875 0l0 -11.265625l1.921875 0l0 11.265625zm-2.078125 -14.25q0 -0.46875 0.28125 -0.796875q0.296875 -0.328125 0.859375 -0.328125q0.5625 0 0.84375 0.328125q0.296875 0.328125 0.296875 0.796875q0 0.46875 -0.296875 0.78125q-0.28125 0.3125 -0.84375 0.3125q-0.5625 0 -0.859375 -0.3125q-0.28125 -0.3125 -0.28125 -0.78125zm12.128952 14.25q-0.171875 -0.328125 -0.28125 -1.1875q-1.34375 1.390625 -3.203125 1.390625q-1.671875 0 -2.734375 -0.9375q-1.0625 -0.9375 -1.0625 -2.390625q0 -1.765625 1.328125 -2.734375q1.34375 -0.96875 3.765625 -0.96875l1.875 0l0 -0.890625q0 -1.015625 -0.609375 -1.609375q-0.59375 -0.59375 -1.765625 -0.59375q-1.03125 0 -1.734375 0.515625q-0.703125 0.515625 -0.703125 1.265625l-1.9375 0q0 -0.84375 0.59375 -1.625q0.609375 -0.796875 1.625 -1.25q1.03125 -0.453125 2.265625 -0.453125q1.953125 0 3.046875 0.96875q1.109375 0.96875 1.15625 2.671875l0 5.1875q0 1.5625 0.390625 2.46875l0 0.171875l-2.015625 0zm-3.203125 -1.46875q0.90625 0 1.71875 -0.46875q0.8125 -0.46875 1.171875 -1.21875l0 -2.3125l-1.5 0q-3.546875 0 -3.546875 2.078125q0 0.90625 0.59375 1.421875q0.609375 0.5 1.5625 0.5zm7.403412 -9.421875l-1.09375 -0.75q0.96875 -1.359375 1.0 -2.859375l0 -1.5l1.90625 0l0 1.359375q-0.015625 1.046875 -0.515625 2.078125q-0.5 1.03125 -1.296875 1.671875zm3.203125 0l-1.09375 -0.75q0.96875 -1.359375 1.0 -2.859375l0 -1.5l1.90625 0l0 1.359375q-0.015625 1.046875 -0.515625 2.078125q-0.5 1.03125 -1.296875 1.671875z"
       fill-rule="nonzero"
       id="path81" />
    <path
       fill="#c9daf8"
       d="m164.6516 167.61763l139.74803 0l0 66.20473l-139.74803 0z"
       fill-rule="evenodd"
       id="path83" />
    <path
       stroke="#434343"
       stroke-width="1.0"
       stroke-linejoin="round"
       stroke-linecap="butt"
       d="m164.6516 167.61763l139.74803 0l0 66.20473l-139.74803 0z"
       fill-rule="evenodd"
       id="path85" />
    <path
       fill="#000000"
       d="m195.76503 192.0125l1.109375 0.75q-0.96875 1.3125 -1.0 2.84375l0 1.421875l-1.921875 0l0 -1.203125q0 -1.0625 0.5 -2.109375q0.515625 -1.046875 1.3125 -1.703125zm3.28125 0l1.109375 0.75q-0.96875 1.3125 -1.0 2.84375l0 1.421875l-1.921875 0l0 -1.203125q0 -1.0625 0.5 -2.109375q0.515625 -1.046875 1.3125 -1.703125zm9.477325 1.03125l2.015625 0l0 10.734375q0 2.171875 -1.3125 3.40625q-1.296875 1.21875 -3.484375 1.21875q-2.25 0 -3.515625 -1.15625q-1.265625 -1.15625 -1.265625 -3.234375l2.0 0q0 1.296875 0.71875 2.03125q0.71875 0.734375 2.0625 0.734375q1.25 0 2.015625 -0.78125q0.765625 -0.78125 0.765625 -2.1875l0 -10.765625zm12.08046 14.046875q-1.125 1.3125 -3.3125 1.3125q-1.796875 0 -2.75 -1.046875q-0.9375 -1.046875 -0.9375 -3.09375l0 -7.328125l1.921875 0l0 7.28125q0 2.5625 2.078125 2.5625q2.21875 0 2.9375 -1.65625l0 -8.1875l1.9375 0l0 11.265625l-1.84375 0l-0.03125 -1.109375zm6.882553 1.109375l-1.921875 0l0 -16.0l1.921875 0l0 16.0zm5.175827 0l-1.921875 0l0 -11.265625l1.921875 0l0 11.265625zm-2.078125 -14.25q0 -0.46875 0.28125 -0.796875q0.296875 -0.328125 0.859375 -0.328125q0.5625 0 0.84375 0.328125q0.296875 0.328125 0.296875 0.796875q0 0.46875 -0.296875 0.78125q-0.28125 0.3125 -0.84375 0.3125q-0.5625 0 -0.859375 -0.3125q-0.28125 -0.3125 -0.28125 -0.78125zm12.128952 14.25q-0.171875 -0.328125 -0.28125 -1.1875q-1.34375 1.390625 -3.203125 1.390625q-1.671875 0 -2.734375 -0.9375q-1.0625 -0.9375 -1.0625 -2.390625q0 -1.765625 1.328125 -2.734375q1.34375 -0.96875 3.765625 -0.96875l1.875 0l0 -0.890625q0 -1.015625 -0.609375 -1.609375q-0.59375 -0.59375 -1.765625 -0.59375q-1.03125 0 -1.734375 0.515625q-0.703125 0.515625 -0.703125 1.265625l-1.9375 0q0 -0.84375 0.59375 -1.625q0.609375 -0.796875 1.625 -1.25q1.03125 -0.453125 2.265625 -0.453125q1.953125 0 3.046875 0.96875q1.109375 0.96875 1.15625 2.671875l0 5.1875q0 1.5625 0.390625 2.46875l0 0.171875l-2.015625 0zm-3.203125 -1.46875q0.90625 0 1.71875 -0.46875q0.8125 -0.46875 1.171875 -1.21875l0 -2.3125l-1.5 0q-3.546875 0 -3.546875 2.078125q0 0.90625 0.59375 1.421875q0.609375 0.5 1.5625 0.5zm9.663834 -9.796875l0.0625 1.40625q1.296875 -1.609375 3.375 -1.609375q3.578125 0 3.609375 4.015625l0 7.453125l-1.9375 0l0 -7.453125q0 -1.21875 -0.546875 -1.796875q-0.546875 -0.59375 -1.703125 -0.59375q-0.9375 0 -1.65625 0.5q-0.703125 0.5 -1.09375 1.3125l0 8.03125l-1.9375 0l0 -11.265625l1.828125 0zm16.90857 11.265625q-0.171875 -0.328125 -0.28125 -1.1875q-1.34375 1.390625 -3.203125 1.390625q-1.671875 0 -2.734375 -0.9375q-1.0625 -0.9375 -1.0625 -2.390625q0 -1.765625 1.328125 -2.734375q1.34375 -0.96875 3.765625 -0.96875l1.875 0l0 -0.890625q0 -1.015625 -0.609375 -1.609375q-0.59375 -0.59375 -1.765625 -0.59375q-1.03125 0 -1.734375 0.515625q-0.703125 0.515625 -0.703125 1.265625l-1.9375 0q0 -0.84375 0.59375 -1.625q0.609375 -0.796875 1.625 -1.25q1.03125 -0.453125 2.265625 -0.453125q1.953125 0 3.046875 0.96875q1.109375 0.96875 1.15625 2.671875l0 5.1875q0 1.5625 0.390625 2.46875l0 0.171875l-2.015625 0zm-3.203125 -1.46875q0.90625 0 1.71875 -0.46875q0.8125 -0.46875 1.171875 -1.21875l0 -2.3125l-1.5 0q-3.546875 0 -3.546875 2.078125q0 0.90625 0.59375 1.421875q0.609375 0.5 1.5625 0.5zm7.403412 -9.421875l-1.09375 -0.75q0.96875 -1.359375 1.0 -2.859375l0 -1.5l1.90625 0l0 1.359375q-0.015625 1.046875 -0.515625 2.078125q-0.5 1.03125 -1.296875 1.671875zm3.203125 0l-1.09375 -0.75q0.96875 -1.359375 1.0 -2.859375l0 -1.5l1.90625 0l0 1.359375q-0.015625 1.046875 -0.515625 2.078125q-0.5 1.03125 -1.296875 1.671875z"
       fill-rule="nonzero"
       id="path87" />
    <path
       fill="#c9daf8"
       d="m164.6516 243.01636l139.74803 0l0 66.20471l-139.74803 0z"
       fill-rule="evenodd"
       id="path89" />
    <path
       stroke="#434343"
       stroke-width="1.0"
       stroke-linejoin="round"
       stroke-linecap="butt"
       d="m164.6516 243.01636l139.74803 0l0 66.20471l-139.74803 0z"
       fill-rule="evenodd"
       id="path91" />
    <path
       fill="#000000"
       d="m206.79872 267.41122l1.109375 0.75q-0.96875 1.3125 -1.0 2.84375l0 1.421875l-1.921875 0l0 -1.203125q0 -1.0625 0.5 -2.109375q0.515625 -1.046875 1.3125 -1.703125zm3.28125 0l1.109375 0.75q-0.96875 1.3125 -1.0 2.84375l0 1.421875l-1.921875 0l0 -1.203125q0 -1.0625 0.5 -2.109375q0.515625 -1.046875 1.3125 -1.703125zm9.477325 1.03125l2.015625 0l0 10.734375q0 2.171875 -1.3125 3.40625q-1.296875 1.21875 -3.484375 1.21875q-2.25 0 -3.515625 -1.15625q-1.265625 -1.15625 -1.265625 -3.234375l2.0 0q0 1.296875 0.71875 2.03125q0.71875 0.734375 2.0625 0.734375q1.25 0 2.015625 -0.78125q0.765625 -0.78125 0.765625 -2.1875l0 -10.765625zm4.6117096 9.421875q0 -1.65625 0.640625 -2.984375q0.65625 -1.328125 1.8125 -2.03125q1.171875 -0.71875 2.65625 -0.71875q2.296875 0 3.71875 1.59375q1.421875 1.578125 1.421875 4.234375l0 0.125q0 1.65625 -0.625 2.96875q-0.625 1.296875 -1.796875 2.03125q-1.171875 0.71875 -2.703125 0.71875q-2.28125 0 -3.703125 -1.59375q-1.421875 -1.59375 -1.421875 -4.21875l0 -0.125zm1.9375 0.21875q0 1.875 0.859375 3.015625q0.875 1.140625 2.328125 1.140625q1.46875 0 2.328125 -1.15625q0.875 -1.15625 0.875 -3.21875q0 -1.859375 -0.890625 -3.0q-0.875 -1.15625 -2.328125 -1.15625q-1.421875 0 -2.296875 1.140625q-0.875 1.125 -0.875 3.234375zm17.288696 2.53125q0 -0.78125 -0.59375 -1.21875q-0.578125 -0.4375 -2.046875 -0.75q-1.453125 -0.3125 -2.3125 -0.75q-0.859375 -0.4375 -1.28125 -1.03125q-0.40625 -0.609375 -0.40625 -1.4375q0 -1.390625 1.171875 -2.34375q1.171875 -0.953125 3.0 -0.953125q1.90625 0 3.09375 0.984375q1.203125 0.984375 1.203125 2.53125l-1.9375 0q0 -0.796875 -0.671875 -1.359375q-0.671875 -0.578125 -1.6875 -0.578125q-1.0625 0 -1.65625 0.453125q-0.59375 0.453125 -0.59375 1.203125q0 0.6875 0.546875 1.046875q0.5625 0.359375 2.0 0.6875q1.453125 0.3125 2.34375 0.765625q0.890625 0.4375 1.328125 1.078125q0.4375 0.625 0.4375 1.53125q0 1.515625 -1.21875 2.421875q-1.203125 0.90625 -3.125 0.90625q-1.359375 0 -2.40625 -0.46875q-1.03125 -0.484375 -1.625 -1.34375q-0.59375 -0.859375 -0.59375 -1.859375l1.9375 0q0.046875 0.96875 0.765625 1.546875q0.734375 0.5625 1.921875 0.5625q1.09375 0 1.75 -0.4375q0.65625 -0.453125 0.65625 -1.1875zm9.122314 3.1875q-2.296875 0 -3.734375 -1.5q-1.4375 -1.5 -1.4375 -4.03125l0 -0.34375q0 -1.6875 0.640625 -3.0q0.640625 -1.3125 1.78125 -2.046875q1.15625 -0.75 2.5 -0.75q2.203125 0 3.421875 1.453125q1.21875 1.4375 1.21875 4.125l0 0.8125l-7.640625 0q0.046875 1.65625 0.96875 2.6875q0.9375 1.03125 2.375 1.03125q1.03125 0 1.734375 -0.421875q0.703125 -0.421875 1.234375 -1.109375l1.1875 0.921875q-1.421875 2.171875 -4.25 2.171875zm-0.25 -10.09375q-1.15625 0 -1.953125 0.84375q-0.796875 0.84375 -0.984375 2.375l5.65625 0l0 -0.140625q-0.09375 -1.46875 -0.796875 -2.265625q-0.703125 -0.8125 -1.921875 -0.8125zm0.953125 -6.109375l2.328125 0l-2.796875 3.0625l-1.546875 0l2.015625 -3.0625zm6.0285034 5.109375l-1.09375 -0.75q0.96875 -1.359375 1.0 -2.859375l0 -1.5l1.90625 0l0 1.359375q-0.015625 1.046875 -0.515625 2.078125q-0.5 1.03125 -1.296875 1.671875zm3.203125 0l-1.09375 -0.75q0.96875 -1.359375 1.0 -2.859375l0 -1.5l1.90625 0l0 1.359375q-0.015625 1.046875 -0.515625 2.078125q-0.5 1.03125 -1.296875 1.671875z"
       fill-rule="nonzero"
       id="path93" />
    <path
       fill="#c9daf8"
       d="m164.6516 318.41507l139.74803 0l0 66.20471l-139.74803 0z"
       fill-rule="evenodd"
       id="path95" />
    <path
       stroke="#434343"
       stroke-width="1.0"
       stroke-linejoin="round"
       stroke-linecap="butt"
       d="m164.6516 318.41507l139.74803 0l0 66.20471l-139.74803 0z"
       fill-rule="evenodd"
       id="path97" />
    <path
       fill="#000000"
       d="m202.63847 342.80994l1.109375 0.75q-0.96875 1.3125 -1.0 2.84375l0 1.421875l-1.921875 0l0 -1.203125q0 -1.0625 0.5 -2.109375q0.515625 -1.046875 1.3125 -1.703125zm3.28125 0l1.109375 0.75q-0.96875 1.3125 -1.0 2.84375l0 1.421875l-1.921875 0l0 -1.203125q0 -1.0625 0.5 -2.109375q0.515625 -1.046875 1.3125 -1.703125zm5.1335754 10.25l0 5.9375l-2.0 0l0 -15.15625l5.59375 0q2.484375 0 3.890625 1.265625q1.40625 1.265625 1.40625 3.359375q0 2.203125 -1.375 3.40625q-1.375 1.1875 -3.953125 1.1875l-3.5625 0zm0 -1.640625l3.59375 0q1.59375 0 2.453125 -0.75q0.859375 -0.75 0.859375 -2.1875q0 -1.34375 -0.859375 -2.15625q-0.859375 -0.8125 -2.34375 -0.84375l-3.703125 0l0 5.9375zm15.694626 7.78125q-2.296875 0 -3.734375 -1.5q-1.4375 -1.5 -1.4375 -4.03125l0 -0.34375q0 -1.6875 0.640625 -3.0q0.640625 -1.3125 1.78125 -2.046875q1.15625 -0.75 2.5 -0.75q2.203125 0 3.421875 1.453125q1.21875 1.4375 1.21875 4.125l0 0.8125l-7.640625 0q0.046875 1.65625 0.96875 2.6875q0.9375 1.03125 2.375 1.03125q1.03125 0 1.734375 -0.421875q0.703125 -0.421875 1.234375 -1.109375l1.1875 0.921875q-1.421875 2.171875 -4.25 2.171875zm-0.25 -10.09375q-1.15625 0 -1.953125 0.84375q-0.796875 0.84375 -0.984375 2.375l5.65625 0l0 -0.140625q-0.09375 -1.46875 -0.796875 -2.265625q-0.703125 -0.8125 -1.921875 -0.8125zm6.3930817 4.15625q0 -2.59375 1.234375 -4.15625q1.234375 -1.578125 3.21875 -1.578125q1.984375 0 3.140625 1.34375l0 -5.875l1.921875 0l0 16.0l-1.765625 0l-0.09375 -1.203125q-1.15625 1.40625 -3.21875 1.40625q-1.96875 0 -3.203125 -1.59375q-1.234375 -1.609375 -1.234375 -4.1875l0 -0.15625zm1.9375 0.21875q0 1.921875 0.78125 3.015625q0.796875 1.078125 2.1875 1.078125q1.84375 0 2.6875 -1.65625l0 -5.171875q-0.875 -1.59375 -2.65625 -1.59375q-1.421875 0 -2.21875 1.09375q-0.78125 1.09375 -0.78125 3.234375zm16.012695 -4.03125q-0.4375 -0.0625 -0.953125 -0.0625q-1.890625 0 -2.5625 1.609375l0 8.0l-1.9375 0l0 -11.265625l1.875 0l0.03125 1.296875q0.953125 -1.5 2.6875 -1.5q0.5625 0 0.859375 0.140625l0 1.78125zm1.055542 3.8125q0 -1.65625 0.640625 -2.984375q0.65625 -1.328125 1.8125 -2.03125q1.171875 -0.71875 2.6562653 -0.71875q2.296875 0 3.71875 1.59375q1.421875 1.578125 1.421875 4.234375l0 0.125q0 1.65625 -0.625 2.96875q-0.625 1.296875 -1.796875 2.03125q-1.171875 0.71875 -2.703125 0.71875q-2.2812653 0 -3.7031403 -1.59375q-1.421875 -1.59375 -1.421875 -4.21875l0 -0.125zm1.9375 0.21875q0 1.875 0.859375 3.015625q0.875 1.140625 2.3281403 1.140625q1.46875 0 2.328125 -1.15625q0.875 -1.15625 0.875 -3.21875q0 -1.859375 -0.890625 -3.0q-0.875 -1.15625 -2.328125 -1.15625q-1.4218903 0 -2.2968903 1.140625q-0.875 1.125 -0.875 3.234375zm9.57515 -5.375l-1.09375 -0.75q0.96875 -1.359375 1.0 -2.859375l0 -1.5l1.90625 0l0 1.359375q-0.015625 1.046875 -0.515625 2.078125q-0.5 1.03125 -1.296875 1.671875zm3.203125 0l-1.09375 -0.75q0.96875 -1.359375 1.0 -2.859375l0 -1.5l1.90625 0l0 1.359375q-0.015625 1.046875 -0.515625 2.078125q-0.5 1.03125 -1.296875 1.671875z"
       fill-rule="nonzero"
       id="path99" />
    <path
       fill="#c9daf8"
       d="m164.6516 393.81403l139.74803 0l0 66.20471l-139.74803 0z"
       fill-rule="evenodd"
       id="path101" />
    <path
       stroke="#434343"
       stroke-width="1.0"
       stroke-linejoin="round"
       stroke-linecap="butt"
       d="m164.6516 393.81403l139.74803 0l0 66.20471l-139.74803 0z"
       fill-rule="evenodd"
       id="path103" />
    <path
       fill="#000000"
       d="m222.30554 418.20886l1.109375 0.75q-0.96875 1.3125 -1.0 2.84375l0 1.421875l-1.921875 0l0 -1.203125q0 -1.0625 0.5 -2.109375q0.515625 -1.046875 1.3125 -1.703125zm3.28125 0l1.109375 0.75q-0.96875 1.3125 -1.0 2.84375l0 1.421875l-1.921875 0l0 -1.203125q0 -1.0625 0.5 -2.109375q0.515625 -1.046875 1.3125 -1.703125zm2.8679504 15.171875q0 -0.5 0.296875 -0.828125q0.296875 -0.328125 0.890625 -0.328125q0.59375 0 0.890625 0.328125q0.3125 0.328125 0.3125 0.828125q0 0.484375 -0.3125 0.8125q-0.296875 0.3125 -0.890625 0.3125q-0.59375 0 -0.890625 -0.3125q-0.296875 -0.328125 -0.296875 -0.8125zm5.61322 0q0 -0.5 0.296875 -0.828125q0.296875 -0.328125 0.890625 -0.328125q0.59375 0 0.890625 0.328125q0.3125 0.328125 0.3125 0.828125q0 0.484375 -0.3125 0.8125q-0.296875 0.3125 -0.890625 0.3125q-0.59375 0 -0.890625 -0.3125q-0.296875 -0.328125 -0.296875 -0.8125zm5.61322 0q0 -0.5 0.296875 -0.828125q0.296875 -0.328125 0.890625 -0.328125q0.59375 0 0.890625 0.328125q0.3125 0.328125 0.3125 0.828125q0 0.484375 -0.3125 0.8125q-0.296875 0.3125 -0.890625 0.3125q-0.59375 0 -0.890625 -0.3125q-0.296875 -0.328125 -0.296875 -0.8125zm4.061142 -9.875l-1.09375 -0.75q0.96875 -1.359375 1.0 -2.859375l0 -1.5l1.90625 0l0 1.359375q-0.015625 1.046875 -0.515625 2.078125q-0.5 1.03125 -1.296875 1.671875zm3.203125 0l-1.09375 -0.75q0.96875 -1.359375 1.0 -2.859375l0 -1.5l1.90625 0l0 1.359375q-0.015625 1.046875 -0.515625 2.078125q-0.5 1.03125 -1.296875 1.671875z"
       fill-rule="nonzero"
       id="path105" />
  </g>
</svg>
